<svg xmlns="http://www.w3.org/2000/svg" xmlns:xlink="http://www.w3.org/1999/xlink" viewBox="0 0 387 620" width="387" height="620" aria-label="A pair of eyes looks at an image of a vase while a hand reaches out for it">
  <style>.B{stroke:#010111}.C{fill:#fff}.D{stroke-width:.746}.E{fill:#d7f2db}.F{fill:#010111}.G{stroke:#02023d}.H{stroke-width:.764}</style>
  <defs>
    <path d="M.8 19.8s15.4 19 34.3 19c19 0 34.4-19 34.4-19S54 .8 35 .8.8 19.8.8 19.8" id="A"/>
    <path d="M.5 19.8s15.4 19 34.3 19c19 0 34.4-19 34.4-19S53.8.8 34.8.8.5 19.8.5 19.8" id="B"/>
    <path id="C" d="M246.8 305.4s-12.1-5.3-15.5-6.2-3.7 2.6-.4 5.2l13.6 11"/>
    <path id="D" d="M239.2 618.3L.4 601l24.9-343.7L264 274.6z"/>
    <path id="E" d="M219.5 577.4l-85.4-6.2 3-41.4 85.4 6.2z"/>
    <path id="F" d="M139 373l-18.5-2.2 5.7 16.4s-7.1 11-9.7 16.3a44.4 44.4 0 00-2.8 21.4l5.3 37.7 19.1 2.3 14-35.5c2.6-6.6 3-16.5 1.6-20.5s-7.8-20.4-7.8-20.4l8.7-13.6L139 373z"/>
  </defs>
  <g fill="none">
    <path d="M137.6 144.2h142.8V1.4H137.6z" class="E"/>
    <path stroke-width=".8" d="M137.6 144.2h142.8V1.4H137.6z" class="B"/>
    <path d="M192.2 84.3s-15.4-19-34.4-19-34.3 19-34.3 19 15.4 19 34.3 19 34.4-19 34.4-19" class="C"/>
    <path d="M192.2 84.3s-15.4-19-34.4-19-34.3 19-34.3 19 15.4 19 34.3 19 34.4-19 34.4-19zm0-28.5s-15.4-12-34.4-12-34.3 12-34.3 12m169 0s-15.4-12-34.4-12-34.3 12-34.3 12" class="B H"/>
    <path d="M292.5 84.3s-15.4 19-34.4 19-34.3-19-34.3-19 15.4-19 34.3-19 34.4 19 34.4 19" class="C"/>
    <path d="M292.5 84.3s-15.4 19-34.4 19-34.3-19-34.3-19 15.4-19 34.3-19 34.4 19 34.4 19zm-96.8 15s-2 30.3-7.8 44.9" class="B H"/>
    <g transform="translate(223 64.5)">
      <mask id="G" class="C">
        <use xlink:href="#A"/>
      </mask>
      <path d="M8.3 27.5a19 19 0 1138 0 19 19 0 01-38 0" mask="url(#G)" class="F"/>
    </g>
    <g transform="translate(123 64.5)">
      <mask id="H" class="C">
        <use xlink:href="#B"/>
      </mask>
      <path d="M8 27.5a19 19 0 1138 0 19 19 0 01-38 0" mask="url(#H)" class="F"/>
    </g>
    <path d="M46.2 596h339.5V229.4H46.2z" class="C"/>
    <path d="M46.2 596h339.5V229.4H46.2z" class="D G"/>
    <path d="M241 288.6l8.6 10.1 6.7 14.5 6.1 9.6 9.5 8 6.3-9 1.5-14.4-2.8-9.2-5.1-6.6-4.3-3.7-7.6-2.6-11.7-2-5.2.2-2 5z" fill="#000"/>
    <g class="E">
      <path d="M259.5 285.2s-29.3-9.6-35-10.8 1 5.3 5 8.8 20 14 20 14"/>
      <use xlink:href="#C"/>
    </g>
    <g class="B D">
      <use xlink:href="#C"/>
      <path d="M254.8 305.4l6.4 16m5.7-33.8l-42.4-13.2c-5.7-1.2 1 5.3 5 8.8s20 14 20 14"/>
    </g>
    <use xlink:href="#D" class="E"/>
    <g class="B D">
      <use xlink:href="#D"/>
      <path d="M48.5 389.8A87 87 0 11222 402.4a87 87 0 01-173.4-12.6zM28.7 522l87.7 6.4m-89.2 14.3l87.7 6.4m-89.2 14.3l87.7 6.3"/>
    </g>
    <use xlink:href="#E" class="C"/>
    <use xlink:href="#E" class="B D"/>
    <use xlink:href="#F" class="C"/>
    <use xlink:href="#F" class="B D"/>
    <path d="M152.4 405.3l-34.7-4.2" class="C"/>
    <path d="M152.4 405.3l-34.7-4.2" class="B D"/>
    <path d="M117 448.7l26.3 3.2" class="C"/>
    <g class="D">
      <path d="M117 448.7l26.3 3.2" class="B"/>
      <path d="M131.4 372.1a74.4 74.4 0 00-10.7-26.7m26 28.5a74.6 74.6 0 0116.7-23.4m-27.8-18.3c2 11.1 3.5 25 2.6 40.7" class="G"/>
    </g>
    <path d="M125.3 346a4.7 4.7 0 11-9.3-1.2 4.7 4.7 0 015.2-4.1c2.6.3 4.5 2.6 4.2 5.2m15-13.1a4.7 4.7 0 11-9.5-1.1 4.7 4.7 0 015.3-4.2c2.6.4 4.4 2.7 4.1 5.3m27.8 18.2a4.7 4.7 0 11-9.4-1.1 4.7 4.7 0 015.3-4.1 4.7 4.7 0 014.1 5.2" class="F"/>
    <path d="M345.9 443.2l-65-73.1" class="C"/>
    <path d="M290.2 301.2c-2-4.3-30.4-60.7-33.3-59.5s14.2 66.5 14.2 66.5l-12.3 16.3a254 254 0 01-4.4-22c-1.4-13.7-5-4.4-6.8.2s-10.7 42.2-9.2 53.5c9.4 74 65 140 89.4 238.8H386v-84.1L344.5 454a2872.8 2872.8 0 00-63.6-81.6l10.7-57c.3-1 3-5.3-1.4-14.3" class="E"/>
    <g class="D">
      <g class="B">
        <path d="M280.9 372.5c24.5 30.3 49 62 73.6 95L386 511M277.3 391.7l14.3-76.2c1.4-6.7.7-10-1.4-14.3s-31-60.5-33.3-59.5c-2.8 1.2 5.8 32.6 6.6 36.3 1.1 5 7.6 30.2 7.6 30.2L259 324.3"/>
        <path d="M261.8 337s-6-21-7.4-34.6-5-4.3-6.8.3c-11.6 31-7.8 53.6-7.8 53.6 3.8 42.2 35 105.9 47.6 132A686.2 686.2 0 01327.8 595"/>
      </g>
      <path d="M267 596h119v-84.1" class="G"/>
    </g>
    <path d="M377.5 499l7.2 96h1.3v-84.1zm-99.9-109l8.7-10.8-5.4-6.7z" fill="#000"/>
    <path d="M154.5 559.7c1.3 0 2.3 0 3.2-.3s1.6-.8 2-1.5.7-1.4.8-2.4c0-1.2-.2-2-.9-2.8s-1.4-1.1-2.4-1.4c.5 0 .9-.2 1.3-.5s.8-.6 1-1.1.5-1.1.6-1.8c0-1-.2-2-.8-2.5s-1.3-1-2.3-1.3-1.9-.4-3-.5l-7.4-.6-1 16 8.9.7zm-.4-9.3l-5.3-.4.3-4.9 5 .4c.7 0 1.3.1 1.8.3s1 .5 1.3.8.4.9.3 1.5c0 .8-.3 1.4-1 1.8s-1.4.6-2.4.5zm-.2 7.3l-5.7-.4.4-5.4 6 .4c1.1.1 2 .4 2.5.8s.9 1.1.8 2c0 1-.4 1.8-1 2.2s-1.7.5-3 .4zm22.9 3.8c1.5 0 3 0 4-.4s2.1-1 2.8-2 1.2-2.1 1.3-3.7l.6-9.6-2.5-.2-.7 9.7c-.1 1.6-.6 2.7-1.5 3.4s-2.2.9-3.9.8c-1-.1-2-.3-2.7-.7s-1.3-.9-1.6-1.6-.5-1.6-.5-2.6l.7-9.7-2.6-.2-.6 9.6c-.1 1.6.1 2.9.7 4s1.4 1.7 2.5 2.2 2.4.9 4 1zm25.8 1.5l.4-6.5 7.3-9-2.8-.2-5.6 7.1h-.1l-4.6-7.8-2.7-.2 6 10-.5 6.4 2.6.2z" class="F"/>
  </g>
</svg>