<svg xmlns="http://www.w3.org/2000/svg" aria-label="Stereo diagram" fill="none" viewBox="0 0 130 80">
  <path d="M68.5 28v-2c-2-2-2-7 1-7s3 5 1 7v2m-10 0v-2c-2-2-2-7 1-7s3 5 1 7v2m-10 0v-2c-2-2-2-7 1-7s3 5 1 7v2M71 30.5a1 1 0 01-1 1 1 1 0 01-1-1 1 1 0 011-1 1 1 0 011 1m-7 2a3 3 0 01-3 3 3 3 0 01-3-3 3 3 0 013-3 3 3 0 013 3m2.5 5.5h4v2h-4zm-14 0h4v2h-4zm-2-10h22v10h-22zM20 36a1.5 1.5 0 01-1.5 1.5A1.5 1.5 0 0117 36a1.5 1.5 0 011.5-1.5A1.5 1.5 0 0120 36m0-14.5a1.5 1.5 0 01-1.5 1.5 1.5 1.5 0 01-1.5-1.5 1.5 1.5 0 011.5-1.5 1.5 1.5 0 011.5 1.5zm2.5 7.5a4 4 0 01-4 4 4 4 0 01-4-4 4 4 0 014-4 4 4 0 014 4zm-10-11h12v22h-12zm93 18a1.5 1.5 0 01-1.5 1.5 1.5 1.5 0 01-1.5-1.5 1.5 1.5 0 011.5-1.5 1.5 1.5 0 011.5 1.5m0-14.5A1.5 1.5 0 01104 23a1.5 1.5 0 01-1.5-1.5A1.5 1.5 0 01104 20a1.5 1.5 0 011.5 1.5zM108 29a4 4 0 01-4 4 4 4 0 01-4-4 4 4 0 014-4 4 4 0 014 4zM98 18h12v22H98zM76.5 63.5a1 1 0 01-1 1 1 1 0 01-1-1 1 1 0 011-1 1 1 0 011 1zm2.5 0c0 1.5-1 2.5-1 2.5h-5s-1-1-1-2.5 1-3.5 3.5-3.5 3.5 2 3.5 3.5zm-7 4h8v3h-8zm18.5 1a1 1 0 01-1 1 1 1 0 01-1-1 1 1 0 011-1 1 1 0 011 1M86 72h4v2h-4zm-14 0h4v2h-4zm-2-6h22v6H70zm-50-6.5a1.5 1.5 0 11-3 0 1.5 1.5 0 013 0m7 7.5c-2 0-5 0-7 2m9-2a1 1 0 11-2 0 1 1 0 012 0zM8 70v-6h22v6m-4-10.5a7.5 7.5 0 11-15 0 7.5 7.5 0 0115 0M10 70v-1h18v1m-4 2h4v2h-4zm-14 0h4v2h-4zm-2-2h22v2H8zm94-11v0h4m-6-2h8v4h-8zm0 9h8v4h-8zm18.5 2.5a1 1 0 01-1 1 1 1 0 01-1-1 1 1 0 011-1 1 1 0 011 1M114 72h4v2h-4zm-14 0h4v2h-4zm-2-8h22v8H98zm-46-6h3v2h-3zm1.8 2a3 3 0 110-2M47 55h8v8h-8zm0 13h8v2h-8zm13.5.5a1 1 0 01-1 1 1 1 0 01-1-1 1 1 0 011-1 1 1 0 011 1M56 72h4v2h-4zm-14 0h4v2h-4zm-2-6h22v6H40z" stroke="currentColor"/>
  <path d="M104 56c0-13-35-4-35-14m6 17c0-9-12-11-12-17M51 54c0-6 8-6 8-12m-40 9c0-9 33 1 33-9m23-9.8h19m-46.6 0h-19" stroke="#2e38ef"/>
</svg>
