<svg xmlns="http://www.w3.org/2000/svg" aria-label="Amplifier" stroke="currentColor" fill="none" viewBox="0 0 24 24" height="24" width="24">
 <path d="M 19,10 V 8 c -2,-2 -2,-7 1,-7 3,0 3,5 1,7 v 2 M 11,10 V 8 C 9,6 9,1 12,1 c 3,0 3,5 1,7 v 2 M 3,10 V 8 C 1,6 1,1 4,1 7,1 7,6 5,8 v 2 m 16.5,2.5 a 1,1 0 0 1 -1,1 1,1 0 0 1 -1,-1 1,1 0 0 1 1,-1 1,1 0 0 1 1,1 m -7,2 a 3,3 0 0 1 -3,3 3,3 0 0 1 -3,-3 3,3 0 0 1 3,-3 3,3 0 0 1 3,3 M 17,20 h 4 v 2 H 17 Z M 3,20 h 4 v 2 H 3 Z M 1,10 H 23 V 20 H 1 Z"/>
</svg>
