<svg xmlns="http://www.w3.org/2000/svg" xmlns:xlink="http://www.w3.org/1999/xlink" viewBox="0 0 450 700" width="450" height="700" aria-label="A pair of eyes looks at an image of a vase while a hand reaches out for it">
  <style>
    @-webkit-keyframes peek {
      0%,100% { transform: translate(0); }
      50%     { transform: translate(20px); }
    }
    @keyframes peek {
      0%,100% { transform: translate(0); }
      50%     { transform: translate(20px); }
    }
    .pupil {
      -webkit-animation: 2s ease 0s infinite alternate peek;
              animation: 2s ease 0s infinite alternate peek;
      animation-play-state: paused;
    }
    .scrolling .pupil {
      animation-play-state: running;
    }
    @-webkit-keyframes tempt {
      0%,100% { transform: rotate(0deg) }
      50%     { transform: rotate(-10deg) }
    }
    @keyframes tempt {
      0%,100% { transform: rotate(0deg) }
      50%     { transform: rotate(-10deg) }
    }
    .product {
      -webkit-animation: 1.5s ease 0s infinite alternate tempt;
              animation: 1.5s ease 0s infinite alternate tempt;
      animation-play-state: paused;
      transform-origin: 80% 90%;
      transition: all .5s;
    }
    .scrolling .product {
      animation-play-state: running;
    }
    .E{fill:none}
    .F{stroke:#010111}
    .G{fill:#fff}
    .H{fill:#d7f2db}
  </style>
  <defs>
    <clipPath id="A">
      <path d="M192.2 84.3s-15.4-19-34.4-19-34.3 19-34.3 19 15.4 19 34.3 19 34.4-19 34.4-19"/>
    </clipPath>
    <clipPath id="H">
      <path d="M 443.7,185.5 3,185.4 V 700 H 322.2 V 595.9 l 121.4,0.1 z"/>
    </clipPath>
    <path d="M239.2 618.3L.4 601l24.9-343.7L264 274.6z" id="C"/>
    <path d="M219.5 577.4l-85.4-6.2 3-41.4 85.4 6.2z" id="D"/>
    <path d="M139 373l-18.5-2.2 5.7 16.4s-7.1 11-9.7 16.3a44.4 44.4 0 00-2.8 21.4l5.3 37.7 19.1 2.3 14-35.5c2.6-6.6 3-16.5 1.6-20.5s-7.8-20.4-7.8-20.4l8.7-13.6z" id="E"/>
  </defs>
  <g class="F">
    <path stroke-width=".8" d="M195.6 144.2h142.8V1.4H195.6z" class="H"/>
    <path d="M350.5 55.8s-15.4-12-34.4-12-34.3 12-34.3 12m-31.6 0s-15.4-12-34.4-12-34.3 12-34.3 12" class="E"/>
    <path d="M250.2 84.3s-15.4-19-34.4-19-34.3 19-34.3 19 15.4 19 34.3 19 34.4-19 34.4-19z" class="G"/>
    <path d="M104.2 596h339.5V229.4H104.2z" clip-path="url(#I)" class="E"/>
  </g>
  <path d="M351.7 83s-15.4-19-34.4-19S283 83 283 83s15.4 19 34.3 19c19 0 34.4-19 34.4-19z" class="F G"/>
  <path d="M253.7 99.3s-2 30.3-7.8 44.9" class="E F"/>
  <g clip-path="url(#A)" transform="translate(58)">
    <circle r="18.7" cy="91.7" cx="148.2" class="pupil"/>
  </g>
  <g transform="translate(159.5 -1.3)" clip-path="url(#A)">
    <circle cx="148.2" cy="91.7" r="18.7" class="pupil"/>
  </g>
  <g clip-path="url(#H)">
    <g class="product">
        <circle r="19.2" cy="304.3" cx="320.1"/>
        <g class="F">
        <use y="-1.6" x="58" xlink:href="#C" class="H"/>
        <path d="M106.2 388.2a87 87 0 11173.5 12.6 87 87 0 01-173.4-12.6zM86.4 520.4l87.7 6.4m-89.2 14.3l87.7 6.4m-89.2 14.3l87.7 6.3" class="E"/>
        </g>
        <path d="M348.2 299.6c-2-4.3-30.4-60.7-33.3-59.5s14.2 66.5 14.2 66.5l-12.3 16.3a254 254 0 01-4.4-22c-1.4-13.7-5-4.4-6.8.2s-10.7 42.2-9.2 53.5c9.4 74 88.7 187.7 113.1 286.5l141.6-1.7L444 509.3l-41.5-56.9c-20.7-27.6-42-54.8-63.6-81.6l10.7-57c.3-1 3-5.3-1.4-14.3" class="H"/>
        <g class="E F">
        <path d="M338.9 370.9c24.5 30.3 49 62 73.6 95l31.5 43.5M335.3 390.1l14.3-76.2c1.4-6.7.7-10-1.4-14.3s-31-60.5-33.3-59.5c-2.8 1.2 5.8 32.6 6.6 36.3 1.1 5 7.6 30.2 7.6 30.2L317 322.7"/>
        <path d="M319.8 335.4s-6-21-7.4-34.6-5-4.3-6.8.3c-11.6 31-7.8 53.6-7.8 53.6 3.8 42.2 35 105.9 47.6 132 16.4 34.4 53.2 115 63.6 151.7"/>
        </g>
        <use y="-1.6" x="58" xlink:href="#D" class="G"/>
        <use y="-1.6" x="58" xlink:href="#D" class="E F"/>
        <use y="-1.6" x="58" xlink:href="#E" class="G"/>
        <use y="-1.6" x="58" xlink:href="#E" class="E F"/>
        <path d="M175 447.1l26.3 3.2m-11.9-79.8a74.4 74.4 0 00-10.7-26.7m26 28.5a74.6 74.6 0 0116.7-23.4m-27.8-18.3c2 11.1 3.5 25 2.6 40.7"/>
        <path fill="#010111" d="M183.3 344.4a4.7 4.7 0 11-9.3-1.2 4.7 4.7 0 015.2-4.1c2.6.3 4.5 2.6 4.2 5.2m15-13.1a4.8 4.8 0 11-9.5-1.1 4.7 4.7 0 015.3-4.2c2.6.4 4.4 2.7 4.1 5.3m27.8 18.2a4.7 4.7 0 11-4.1-5.2 4.7 4.7 0 014.1 5.2"/>
        <path d="M435.5 497.4l7.2 96 27 40.7h77zm-99.9-109l8.7-10.8-5.4-6.7z"/>
        <path fill="#010111" d="M212.5 558.1c1.3 0 2.3 0 3.2-.3s1.6-.8 2-1.5.7-1.4.8-2.4c0-1.2-.2-2-.9-2.8a4.5 4.5 0 00-2.4-1.4c.5 0 .9-.2 1.3-.5s.8-.6 1-1.1.5-1.1.6-1.8c0-1-.2-2-.8-2.5s-1.3-1-2.3-1.3-1.9-.4-3-.5l-7.4-.6-1 16zm-.4-9.3l-5.3-.4.3-4.9 5 .4c.7 0 1.3.1 1.8.3l1.3.8c.3.3.4.9.3 1.5 0 .8-.3 1.4-1 1.8s-1.4.6-2.4.5zm-.2 7.3l-5.7-.4.4-5.4 6 .4c1.1.1 2 .4 2.5.8s.9 1.1.8 2c0 1-.4 1.8-1 2.2s-1.7.5-3 .4zm22.9 3.8c1.5 0 3 0 4-.4a6 6 0 002.8-2 6.8 6.8 0 001.3-3.7l.6-9.6-2.5-.2-.7 9.7c-.1 1.6-.6 2.7-1.5 3.4s-2.2.9-3.9.8c-1-.1-2-.3-2.7-.7s-1.3-.9-1.6-1.6-.5-1.6-.5-2.6l.7-9.7-2.6-.2-.6 9.6c-.1 1.6.1 2.9.7 4a4.9 4.9 0 002.5 2.2c1.1.5 2.4.9 4 1zm25.8 1.5l.4-6.5 7.3-9-2.8-.2-5.6 7.1h-.1l-4.6-7.8-2.7-.2 6 10-.5 6.4z"/>
    </g>
  </g>
  <path d="M308 595.8l135.7.2-.2-144.8" class="E F"/>
</svg>