<svg xmlns="http://www.w3.org/2000/svg" fill="#fff" width="350" height="350" aria-label="Writing hand">
  <g stroke="currentColor">
    <path d="M1 293c-2 8 7-2 13-8a515 515 0 0 0 20-33l24-32c13-17-19-40-31-12-17 34-25 74-26 85z"/>
    <path d="M24 299c2 9 7-4 10-11l7-38 10-39c6-21-30-31-32-1a386 386 0 0 0 5 89z"/>
    <path d="M44 209c-2 2 6 61 5 78-1 9-5 23-11 8-2-11-24-82-21-89 6-14 24-32 35-38L350 15v112c-141 20-222 63-253 105l-24 38c-11 25-18 3-10-31 6-19 4-33 4-33s-20-7-23-3m3 135 3 10 5-10z"/>
  </g>
  <path fill="currentColor" d="m71 123-8 184-8 31h-8l-7-33 8-183c6-6 16-6 23 1z"/>
  <path fill="currentColor" d="M104 223s14-23 18-37c0 0 1 19-2 21l-16 16"/>
  <path d="m97 232-24 38c-11 25-18 3-10-31 6-19 4-33 4-33"/>
  <path d="M44 209c-2 2 6 61 5 78-1 9-5 23-11 8-2-11-24-82-21-89"/>
</svg>
