<svg xmlns="http://www.w3.org/2000/svg" fill="#fff" viewBox="0 0 447 308" height="308" width="447" stroke="currentColor" aria-label="Finger pointing right">
  <path d="m1 119-2 184c88-98 134-137 236-184 53-33-26-91-78-69" stroke="none"/>
  <path d="M-1 303c55-71 135-131 236-184 53-33-26-91-78-69"/>
  <path d="M311 139c-5 12-10 4-9-10 2-14 2-113 2-113 4-31 36 12 33 37-5 45-21 75-26 86Z"/>
  <path d="M299 129c-3 13-10 6-11-8s-14-76-14-76c-1-33 28-33 29-8 2 47-1 79-4 92Z"/>
  <path d="M393 84c7 9-11 9-19 6-9-3-65-36-65-36s-11 1-34-9c-22-10 36-46 62-21 31 28 50 51 56 60Z"/>
  <path d="M182 117c47 17 142 5 178-7 26-9 32-23 14-24-26-2-66-10-81-20 10-17 30-16 81-23 50-7 66-7 71-23 3-9-26-4-131-19-32-4-119 32-158 48-35 14-79 32-155 70"/>
  <path fill="currentcolor" d="m297 39 35 18c-4 0-9 0-16 2l-9 2c-10 7-8 29-12 29-6 0-10-12 2-51Z"/>
  <path fill="currentcolor" d="M369 56c-16-3-39 10-48 5l-15-9c11-6 46-15 53-7l10 11Z"/>
  <path fill="currentcolor" d="m275 40 28 10 1 31-29 11V40Z"/>
  <path d="M182 117c47 17 142 5 178-7 26-9 32-23 14-24-26-2-66-10-81-20 10-17 30-16 81-23 50-7 66-7 71-23 3-9-26-4-131-19-32-4-119 32-158 48-35 14-79 32-155 70"/>
  <path fill="currentcolor" d="M148 171c-11 4 65-47 69-47l9 1s-67 41-78 46Z"/>
</svg>
