<svg xmlns="http://www.w3.org/2000/svg" viewBox="0 0 24 24" width="24" height="24" aria-label="Eyes reading code">
  <style>
    @-webkit-keyframes code-scroll-down {
      0% { transform: translateY(0); }
      100% { transform: translateY(38%); }
    }
    @keyframes code-scroll-down {
      0% { transform: translateY(0); }
      100% { transform: translateY(38%); }
    }
    .right-eye-code {
      -webkit-animation: .5s linear 0s infinite running code-scroll-down;
              animation: .5s linear 0s infinite running code-scroll-down;
    }
    @-webkit-keyframes code-scroll-up {
      0% { transform: translateY(0); }
      100% { transform: translateY(-38%); }
    }
    @keyframes code-scroll-up {
      0% { transform: translateY(0); }
      100% { transform: translateY(-38%); }
    }
    .left-eye-code {
      -webkit-animation: .5s linear 0s infinite running code-scroll-up;
              animation: .5s linear 0s infinite running code-scroll-up;
    }
    .right-eye-code, .left-eye-code { animation-play-state: paused; }
    .scrolling .right-eye-code, .scrolling .left-eye-code { animation-play-state: running; }

  </style>
  <defs>
    <clipPath id="right-eye">
      <path d="M9.7 14C5.3 8.2 0 11.9 0 11.9V16s4.7 3.4 9.7-2z"/>
    </clipPath>
    <clipPath id="left-eye">
      <path d="M14.4 14C19 8.2 24 12 24 12v4s-4.7 3.3-9.6-2z"/>
    </clipPath>
  </defs>
  <g stroke="#010111" stroke-width=".3">
    <path fill="#d7f5db" d="M.1.1h23.8v23.8H.1z"/>
    <path d="M24 12c-4.8-2.8-7.6-.3-9.6 2 2 2.1 5.4 4.5 9.6 2" fill="#fff"/>
    <path fill="none" d="M.2 4.6c3-1.4 5.4-.6 7.8.7h0m7.8 0a9.6 9.6 0 017.9-1M10 16.5c-.2 3.3-.1 4.8-1.4 7.3"/>
    <path d="M0 16c2.8 1 5.4 2.4 9.6-2-2.1-3-5.9-4.5-9.6-2" fill="#fff"/>
    <g fill="none">
      <g clip-path="url(#right-eye)">
       <g class="right-eye-code">
        <ellipse cx="4.8" cy="4" rx=".7" ry="1"/>
        <path d="M5.5 3.6l-1.3 1m4.2.4H7m.8 0V3l-.8.4M2.4 4.9H1m.8 0v-2l-.8.4m1.4 4.6H1m.8 0V6l-.8.4M5.5 8H4.1M5 8V6l-.8.4"/>
        <ellipse ry="1" rx=".7" cy="7" cx="7.9"/>
        <path d="M8.5 6.6l-1.3 1"/>
        <ellipse ry="1" rx=".7" cy="9.9" cx="1.7"/>
        <path d="M2.4 9.5l-1.3.9"/>
        <ellipse ry="1" rx=".7" cy="10" cx="7.8"/>
        <path d="M8.5 9.6l-1.3.9m-1.8.5H4m.8 0V9l-.8.4"/>
        <ellipse ry="1" rx=".7" cy="12.9" cx="4.8"/>
        <path d="M5.5 12.5l-1.3.9m4.2.6H7m.8 0v-2l-.8.4m-4.6 1.5H1m.8 0v-2l-.8.4M2.3 17H.9m.7 0v-2l-.7.4M5.4 17H4m.7 0v-2l-.7.4"/>
        <ellipse cx="7.7" cy="15.9" rx=".7" ry="1"/>
        <path d="M8.4 15.5l-1.3.9"/>
       </g>
      </g>
      <g clip-path="url(#left-eye)">
       <g class="left-eye-code">
        <ellipse ry="1" rx=".7" cy="13" cx="19.8"/>
        <path d="M20.5 12.6l-1.3.9m4.3.5H22m.8 0v-2l-.8.4m-4.5 1.5H16m.8 0v-2l-.8.4m1.5 4.6H16m.8 0v-2l-.8.4m4.6 1.7H19m.8 0v-2l-.8.3"/>
        <ellipse cx="22.9" cy="16" rx=".7" ry="1"/>
        <path d="M23.5 15.6l-1.3.9"/>
        <ellipse cx="16.8" cy="18.9" rx=".7" ry="1"/>
        <path d="M17.4 18.5l-1.3.9"/>
        <ellipse cx="22.8" cy="19" rx=".7" ry="1"/>
        <path d="M23.5 18.6l-1.3.9m-1.7.5H19m.8 0v-2l-.8.4"/>
        <ellipse cx="19.8" cy="21.9" rx=".7" ry="1"/>
        <path d="M20.5 21.5l-1.3.9m4.3.6H22m.8 0v-2l-.8.4m-4.5 1.5H16m.8 0v-2l-.8.3m1.3 4.8H16m.8 0v-2l-.8.3m4.5 1.7H19m.8 0v-2l-.8.3"/>
        <ellipse ry="1" rx=".7" cy="24.9" cx="22.7"/>
        <path d="M23.4 24.5l-1.3.9"/>
       </g>
      </g>
    </g>
  </g>
</svg>
