<svg xmlns="http://www.w3.org/2000/svg" height="211.2" width="106.4" aria-label="Buy OK products." viewBox="0 0 106 211" stroke="currentColor" fill="#fff">
  <path d="M86 212H17l18-74 45-1z"/>
  <path d="m80 138 6 74H17l18-73z" fill="none"/>
  <path d="M95 30c2 1-4 8-7 11S72 57 71 60s-11 30-5 43c2 4-30-9-30-10 1-2 18-40 23-44s33-22 36-19"/>
  <path d="M95 30c2 1-4 8-7 11S72 57 71 60s-11 30-5 43c2 4-30-9-30-10 1-2 18-40 23-44s33-22 36-19z" fill="none"/>
  <path fill="currentColor" d="M59 49c-5 4-23 49-24 51 0 2 45 6 41 4-11-6-8-34-7-37L59 49z"/>
  <path d="M92 11c1 1 0 5-2 9-2 3-20 24-21 27S57 72 54 74c-4 2-8-9-8-11s8-22 12-26l27-23c3-2 6-4 7-3"/>
  <path d="M92 11c1 1 0 5-2 9-2 3-20 24-21 27S57 72 54 74c-4 2-8-9-8-11s8-22 12-26l27-23c3-2 6-4 7-3z" fill="none"/>
  <path d="M78 1c2 0 1 7-1 11-3 5-18 28-18 32-1 4-2 25-6 28-4 4-25 14-25 11-1-2 11-39 15-45L70 7c2-3 6-7 8-6"/>
  <path d="M78 1c2 0 1 7-1 11-3 5-18 28-18 32-1 4-2 25-6 28-4 4-25 14-25 11-1-2 11-39 15-45L70 7c2-3 6-7 8-6z" fill="none"/>
  <path d="m1 301 29-156a176 176 0 0 1-7-55c1-10 7-27 15-30 9-4 28-10 35-8l27 8c3 1 6 3 6 6l-6 2-24-2c-16 1-19 6-22 15s5 20 11 21c4 1 11 2 16-4 7-8 12-19 15-24s5-6 7-6c3 0 2 7 1 13-2 18-8 33-11 40a66 66 0 0 1-35 30" fill="#fff"/>
  <path d="m17 212 13-67c-5-18-7-36-7-55 1-10 7-27 15-30 9-4 28-10 35-8l27 8c3 1 6 3 6 6l-6 2-24-2c-16 1-19 6-22 15s5 20 11 21c4 1 11 2 16-4 7-8 12-19 15-24s5-6 7-6c3 0 2 7 1 13-2 18-8 33-11 40-8 14-20 25-35 30" fill="none"/>
  <path fill="currentColor" d="m80 138 1 7s-6 9-23 6"/>
</svg>
