<svg xmlns="http://www.w3.org/2000/svg" viewBox="0 0 1208 1208" height="604" width="604" aria-label="A magnifying glass, searching for the word `business`.">
    <style>
        @-webkit-keyframes search {
        0%,100% { transform: translate(0, 0); }
        50%     { transform: translate(-30%, 20%); }
        }
        @keyframes search {
        0%,100% { transform: translate(0, 0); }
        50%     { transform: translate(-30%, 20%); }
        }
        .hand {
        -webkit-animation: 2s ease 0s infinite alternate search;
                animation: 2s ease 0s infinite alternate search;
        animation-play-state: paused;
        }
        .scrolling .hand { animation-play-state: running; }
    </style>
    <defs>
        <clipPath id="lens" class="hand">
        <circle cx="813" cy="375" r="197.1" stroke-width="40"/>
        </clipPath>
    </defs>
    <path stroke-width="2" stroke="#01010b" fill="#d7f5db" d="M4 4h1200v1200H4z"/>
    <g clip-path="url(#lens)">
        <path fill="#fff" d="M0 0h1200v1200H0z"/>
        <path d="M795.6 389l30 7.4c12.8 3.1 21.1-1.1 23.6-11.4 2.4-9.5-4.6-15.3-9.4-16.8 3.9.2 10.4-2.7 12.4-10.7 3-11.9-7.3-16.5-16.7-18.8l-26-6.4zm16.4-30.4l4.4-17.8 17.1 4.2c6.6 1.6 11.6 4.4 10 11.4-1.7 6.3-7.3 8.1-13.5 6.6zm-6.4 26.1l4.9-19.8 20.5 5c5.6 1.4 11.4 5 9.6 12.6-1.8 7.3-7.8 9-15.2 7.1zm83.9 28.4c14.4 3.5 28.1.2 32.5-17.6l8.2-33.4-8.4-2.1-8.3 33.4c-3 12.3-11.4 15.7-22.4 13s-17-9.7-14-22l8.2-33.4-8.4-2-8.3 33.4c-4.4 17.7 6.6 27.2 20.9 30.7zm70 17.3c14.8 3.6 29 1.9 32-9.9 2.7-11.2-9.4-18-21.8-23.2-10.2-4.1-16-8.4-14.6-13.9 1.3-5.5 10-6.2 18.6-4.1 8.7 2.1 14.2 6.6 16.3 10.8l8-3.1c-2.6-5.3-10.9-11.4-22.1-14.2-13.4-3.3-27.3-1.9-29.8 8.5-2.5 10.1 5.9 16.6 19 22 11.2 4.6 18.8 9.5 17.2 15.6-1.4 6-9.6 7.7-20.6 5-10-2.5-16.4-8.1-18.5-12.9l-8 3.1c2.7 6.3 11.6 13.1 24.4 16.3z"/>
        <g fill="none" stroke="#01010b" stroke-width="2">
        <path d="M779.8 297l252.6 53.3-24.7 117.5L755 414.5z"/>
        <path d="M797 31.8l334.8 70.6-86.9 411.9-334.7-70.6z"/>
        </g>
    </g>
    <g class="hand">
        <g fill="#fff">
            <path d="M430.2 711.3l133.3-136.7 36.1 35.2-133.3 136.7z"/>
            <g stroke="#010111" stroke-width="2">
            <path d="M672.4 788.9a67 67 0 01-25-2c-14-4-85-34-85-34l30-42s72 60 80 78zm38-45s-10 3-24-1-85-28-85-28l29-39s72 50 80 68zm11-52s-2 7-24-2c-18-5-112-34-112-34l36-45s104 66 100 81z"/>
            <path d="M-576.2 1889c68-98 852.6-1075.1 857.6-1081.1 10-15 131-193 146-205 6-5 117-62 143-53s150 48 146 64c0 0-2 4-26 1-19-2-110-12-123-7-17 7-63 49-83 81-4 6-16 47-5 51 25 8 42-3 55-13 31-24 117-80 126-69 3 4-19 28-59 111"/>
            </g>
        </g>
        <path d="M434.4 840.9l-24-21c-9-9-10-24-1-34l193-210c23-25 36-13 59-64 5-12 24-10 33-1l24 21c10 9 13 27 1 34-49 27-36 39-58 64l-193 210c-9 10-24 10-34 1z"/>
        <circle cx="813" cy="375" r="197.1" fill="none" stroke="#010111" stroke-width="40"/>
        <path d="M484.4 688.9c-4 6-16 47-5 51 25 8 42-3 55-13 31-24 117-80 126-69 2 3-7 14-24 44-11 19-48 114-86 159-45 53-94 65-136 90-76 46-495 923-497 931l-493.6 7" fill="#fff" stroke="#010111" stroke-width="2"/>
    </g>
</svg>
