<svg
  xmlns="http://www.w3.org/2000/svg"
  xmlns:xlink="http://www.w3.org/1999/xlink" viewBox="0 0 348 538" fill="#010111" role="img">
  <defs>
    <path d="M.8 19.8s15.4 19 34.3 19c19 0 34.4-19 34.4-19S54 .8 35 .8.8 19.8.8 19.8" id="d"/>
    <path d="M.5 19.8s15.4 19 34.3 19c19 0 34.4-19 34.4-19S53.8.8 34.8.8.5 19.8.5 19.8" id="f"/>
    <path id="a" d="M1.3 521.9l21.3-293.5 204.1 14.8-21.2 293.5z"/>
    <path id="b" d="M115.6 496.5l2.6-35.3 73 5.2-2.5 35.4z"/>
    <path id="c" d="M119.7 327.1l-15.8-1.9 4.9 14s-6.1 9.4-8.3 13.9c-2 4-3.2 12.2-2.4 18.2l4.5 32.2 16.4 2 12-30.3c2.2-5.6 2.6-14 1.4-17.4l-6.7-17.4 7.4-11.7-12.7-1.5z"/>
  </defs>
  <path d="M41 517h290V204H41z" fill="#fff"/>
  <path d="M330.7 517.6v-313H40.5v313z" stroke-width=".8" fill="none" stroke="#02023d"/>
  <path d="M225.3 284.3c9.4.2 9.4-30.1 4.4-29.7-19.5-4.9-9.9 29.7-4.4 29.7z"/>
  <path d="M218.8 269.5l5.5 13.6" stroke-width=".8" stroke="#010111" fill="none"/>
  <use xlink:href="#a" fill="#fee2dc"/>
  <g stroke-width=".8" stroke="#010111" fill="none">
    <use xlink:href="#a"/>
    <path d="M42.5 341.6a74.3 74.3 0 11148.2 10.9 74.3 74.3 0 01-148.2-10.9zm-17 112.9l75 5.4M24.3 472l75 5.5M23 489.8l75 5.4"/>
  </g>
  <use xlink:href="#b" fill="#fff"/>
  <path d="M132.7 486.8c1 0 2 0 2.8-.3s1.3-.6 1.7-1.2.6-1.3.7-2.1c0-1-.2-1.8-.8-2.4s-1.2-1-2.1-1.2c.4 0 .8-.2 1.2-.5a2.9 2.9 0 00.9-1c.2-.4.4-.9.4-1.5 0-1-.2-1.7-.7-2.2s-1.1-.9-2-1.1l-2.6-.4-6.3-.5-1 13.9zm-.3-8l-4.7-.4.3-4.2 4.3.3c.7 0 1.2.2 1.6.3s.8.4 1 .7.4.8.4 1.3c0 .7-.3 1.2-.8 1.6s-1.3.4-2.1.4zm-.2 6.3l-5-.4.4-4.6 5.2.4c1 0 1.6.2 2.1.6s.8 1 .7 1.8c0 .9-.3 1.5-.9 1.8s-1.4.5-2.5.4zm19.8 3.3c1.3 0 2.5 0 3.5-.3a4.6 4.6 0 002.4-1.7c.6-.8 1-2 1-3.3l.6-8.3-2.2-.2-.6 8.4c0 1.4-.5 2.3-1.3 3s-1.9.7-3.3.6c-1 0-1.7-.2-2.4-.5s-1-.8-1.4-1.4-.4-1.4-.4-2.3l.6-8.4-2.2-.2-.6 8.4c0 1.3.1 2.5.6 3.4s1.3 1.5 2.2 2 2.1.7 3.5.8zm22.3 1.3l.4-5.7 6.2-7.7-2.4-.2-4.8 6.2h-.1l-4-6.8-2.4-.2 5.2 8.6-.4 5.6z"/>
  <use xlink:href="#b" stroke-width=".8" stroke="#010111" fill="none"/>
  <use xlink:href="#c" fill="#fff"/>
  <g fill="none" stroke-width=".8">
    <use xlink:href="#c" stroke="#010111"/>
    <path d="M131.2 354.6l-29.7-3.5M101 391.7l22.4 2.7" stroke="#010111"/>
    <path d="M113.2 326.3a63.4 63.4 0 00-9.1-22.8m22.3 24.4a63.5 63.5 0 0114.3-20m-23.8-15.6c1.7 9.5 3 21.3 2.2 34.7" stroke="#02023d"/>
  </g>
  <path d="M108 304a4 4 0 11-8-1 4 4 0 018 1m12.9-11.2a4 4 0 01-8-1 4 4 0 018 1m23.8 15.5a4 4 0 01-8-1 4 4 0 018 1"/>
  <path d="M249.2 265.9c-1.8-3.7-26-51.8-28.5-50.8s12.1 56.7 12.1 56.7l-10.5 14c-2-8.4-3.4-15.5-3.8-19-1.2-11.5-4.3-3.6-5.8.3s-9.1 36-8 45.7c8.2 63 55.8 119.3 76.7 203.7h49.8v-71.8l-35.6-48.4a2459.6 2459.6 0 00-54.4-69.6l9.1-48.6c.3-1 2.7-4.6-1.1-12.2" fill="#fee2dc"/>
  <g stroke-width=".8" fill="none">
    <g stroke="#010111">
      <path d="M241.2 326.7a2454.3 2454.3 0 0163 81l27 37M238 343.1l12.2-65c1.3-5.8.7-8.6-1.1-12.2s-26.5-51.7-28.5-50.8c-2.4 1 5 27.8 5.6 31l6.5 25.7-10.3 13.7"/>
      <path d="M224.8 296.3s-5-17.8-6.3-29.4-4.3-3.7-5.8.2c-9.9 26.5-6.7 45.7-6.7 45.7 3.3 36 30 90.4 40.7 112.6 10.1 21 23.3 51.7 34.7 91"/>
    </g>
    <path d="M229.3 517.3h101.9v-71.7" stroke="#02023d"/>
  </g>
  <path d="M330 516.5h1.2v-71.8l-7.3-10zm-91.6-175l7.4-9.1-4.6-5.7z"/>
  <path d="M330.4 162.2H187.6V19.4h142.8z" fill="#fee2dc"/>
  <path d="M330.4 19.4v142.8H187.6V19.4z" stroke-width=".8" stroke="#010111" fill="none"/>
  <path d="M275.8 102.3s15.4-19 34.4-19 34.3 19 34.3 19-15.4 19-34.3 19-34.4-19-34.4-19" fill="#fff"/>
  <path d="M275.8 102.3s15.4-19 34.4-19 34.3 19 34.3 19-15.4 19-34.3 19-34.4-19-34.4-19zm0-28.5s15.4-12 34.4-12 34.3 12 34.3 12m-169 0s15.4-12 34.4-12 34.3 12 34.3 12" stroke="#010111" fill="none" stroke-width=".8"/>
  <path d="M175.5 102.3s15.4 19 34.4 19 34.3-19 34.3-19-15.4-19-34.3-19-34.4 19-34.4 19" fill="#fff"/>
  <path d="M175.5 102.3s15.4 19 34.4 19 34.3-19 34.3-19-15.4-19-34.3-19-34.4 19-34.4 19zm96.8 15s2 30.3 7.8 44.9" stroke="#010111" fill="none" stroke-width=".8"/>
  <g transform="matrix(-1 0 0 1 245 82.5)">
    <mask id="e" fill="#fff">
      <use xlink:href="#d"/>
    </mask>
    <path d="M24 15.5a19 19 0 1138 0 19 19 0 01-38 0" mask="url(#e)"/>
  </g>
  <g transform="matrix(-1 0 0 1 345 82.5)">
    <mask id="g" fill="#fff">
      <use xlink:href="#f"/>
    </mask>
    <path d="M23.7 15.5a19 19 0 1138 0 19 19 0 01-38 0" mask="url(#g)"/>
  </g>
</svg>