<svg
  xmlns="http://www.w3.org/2000/svg"
  xmlns:xlink="http://www.w3.org/1999/xlink" viewBox="0 0 347.306 341.152">
  <style>
    <![CDATA[.B{fill-rule:evenodd}.C{stroke:#010111}.D{fill:#d7f2db}.E{fill:none}.F{fill:#010111}]]>
  </style>
  <path d="M332.312 49.318V.5h-321v49" class="C E"/>
  <use xlink:href="#B" class="B D"/>
  <g class="E">
    <use xlink:href="#B" class="C"/>
    <g class="B">
      <use xlink:href="#C" class="D"/>
      <use xlink:href="#C" class="C"/>
    </g>
  </g>
  <path d="M20.84 269.534l19.46 27.407c-.588-4.202-1.084-8.647-1.446-13.317a215.95 215.95 0 0 1-.546-10.095l-17.467-3.996" class="B F"/>
  <g class="B E">
    <use xlink:href="#D" class="D"/>
    <use xlink:href="#D" class="C"/>
  </g>
  <path d="M322.53 268.942l-19.46 27.407c.588-4.202 1.085-8.647 1.447-13.317.27-3.485.446-6.853.546-10.094l17.466-3.996" class="B F"/>
  <path d="M327.874 267.805l-153.25 35.053c-2.664.61-5.43.61-8.094 0l-153.25-35.053C6.122 265.905.5 262.078.5 255.012V75.33c0-7.065 5.72-12.792 12.778-12.792l156.965 35.98 157.63-35.98c7.057 0 12.778 5.727 12.778 12.792v179.68c0 7.065-5.72 12.793-12.778 12.793" class="B D"/>
  <g class="C E">
    <path d="M327.874 267.805l-153.25 35.053c-2.664.61-5.43.61-8.094 0l-153.25-35.053C6.122 265.905.5 262.078.5 255.012V75.33c0-7.065 5.72-12.792 12.778-12.792l156.965 35.98 157.63-35.98c7.057 0 12.778 5.727 12.778 12.792v179.68c0 7.065-5.72 12.793-12.778 12.793z"/>
    <path d="M170.576 112.374v177.72"/>
  </g>
  <path d="M126.62 287.917c1.66-13.257 14.07-54.554 12.214-63.4s-8.347-13.74-12.812-3.453-14.284 42.17-19.29 61.92c-.745 2.938-4.162 2.734-4.13-.047.114-10.022 2.078-29.795 3.932-39.895s4.105-16.82 6.837-33.476c1.905-11.613-21.74-17.985-27.227-5.57h6.423c2.49-11.337-16.11-18.308-20.928-4.167l.007-.067c1.708-11.618-9.15-16.563-13.58-1.48 0 0-19.743 43.87-19.77 73.467-.02 20.894 7.638 59.577 8.954 75.337l46.253-.516 31.675.516c2.355-14.357-.426-44.243 1.444-59.178" class="B D"/>
  <g class="E">
    <g class="C">
      <path d="M71.645 199.77c.88-5.992 2.054-16.206-.866-16.844-2.742-.6-9.45 7.95-12.712 15.364-7.658 17.407-19.743 43.87-19.772 73.467-.02 20.895 5.306 40.675 6.897 54.298"/>
      <path d="M59.033 274.9c.03-29.598 12.367-74.373 12.367-74.373 2.204-7.507 9.482-18.55 14.057-17.6 7.582 1.556-2 62.647-2 62.647"/>
    </g>
    <g class="B">
      <use xlink:href="#E" class="D"/>
      <use xlink:href="#E" class="C"/>
    </g>
  </g>
  <g class="F B">
    <path d="M209.656 128.86l.02 1.093-10.634 2.516-.226-13.194 10.635-2.516.02 1.093-9.268 2.193.087 5.07 8.604-2.036.02 1.093-8.604 2.036.083 4.846zm10.34-7.038l-3.387 6.8-1.57.37 3.84-7.457-4.065-5.738 1.57-.37 3.557 5.3 2.493-.6 3.366-6.948 1.57-.37-3.855 7.612 4.08 5.583-1.57.37-3.6-5.145zm15.524-3.097l4.468-1.058c1.662-.392 3.7-1.08 3.637-4.153-.05-2.96-2.084-2.63-3.746-2.236l-4.468 1.057zm.02 1.093l.08 4.618-1.366.323-.226-13.195 5.613-1.328c2.215-.525 5.302-1.066 5.37 2.912.07 4.072-3.008 5.14-5.223 5.665zm26.156-2.34l.02 1.094-10.634 2.516-.226-13.195 10.635-2.516.02 1.093-9.268 2.193.087 5.07 8.604-2.036.02 1.093-8.604 2.036.083 4.845zm13.628-8.78c1.662-.394 2.647-1.307 2.613-3.306-.033-1.923-1.076-2.244-2.812-1.832l-5.797 1.37.1 5.165zm1.548.542l2.28 5.516-1.44.34-2.168-5.373-.1.026-6 1.42.1 5.862-1.385.328-.225-13.195 7.016-1.66c2.03-.48 4.308-.64 4.363 2.545.04 2.3-1.108 3.536-2.43 4.2z"/>
    <use xlink:href="#F"/>
    <path d="M308.016 107.62c3.046-.72 4.896-2.03 4.872-3.48-.026-1.47-1.864-1.62-5.1-1.7-3.264-.08-5.64-.312-5.68-2.517-.04-2.337 2.676-3.982 5.962-4.76 2.86-.677 4.666-.3 5.738.554l-1.15 1.086c-.863-.6-2.224-1.063-4.57-.5-2.307.546-4.567 1.725-4.54 3.233.023 1.395 1.9 1.613 4.476 1.647 3.542.05 6.234.285 6.273 2.528.04 2.413-2.506 4.152-6.3 5.047-3.23.764-5.13.268-6.295-.65l1.188-1.057c.863.628 2.54 1.178 5.107.57m-79.12 36.89l.017.942c.076 4.448-2.754 6.954-5.782 7.67-3.156.747-6.43.083-6.522-5.252-.1-5.316 3.226-7.54 6.402-8.3 2.53-.6 4.24-.2 5.242.86l-1.187 1.057c-.7-.875-2.153-1.27-4.036-.824-3.028.716-5.105 2.836-5.036 6.87.07 4.166 2.2 5.176 5.137 4.48 2.382-.564 4.557-2.365 4.493-6.117l-4.284 1.014-.02-1.093z"/>
    <path d="M234.168 145.2l-.134-7.804 1.385-.328.136 7.898c.05 3.035 1.847 3.954 4.67 3.285 2.843-.672 4.556-2.422 4.504-5.456l-.135-7.898 1.366-.323.133 7.804c.07 4.1-2.397 6.188-5.85 7.006-3.434.812-6.007-.074-6.078-4.183m21.41-.468l-.188-11-4.357 1.03-.02-1.093 10.117-2.394.02 1.093-4.375 1.035.188 11 4.376-1.036.02 1.094-10.117 2.394-.02-1.093zm21.222-10.263c-.072-4.223-1.812-5.098-4.968-4.35l-3.766.892.2 11.008 3.766-.9c3.157-.747 4.852-2.454 4.78-6.657m1.403-.332c.113 6.597-4.004 7.57-6.57 8.178l-4.726 1.12-.225-13.195 4.726-1.118c2.567-.607 6.684-1.582 6.796 5.016m16.736 1.872l.02 1.094-10.635 2.516-.225-13.195 10.635-2.516.02 1.092-9.268 2.193.087 5.07 8.604-2.036.02 1.093-8.604 2.036.083 4.845zm-80.1 44.5l-1.366.323-.207-12.102-5.705 1.35-.02-1.093 12.795-3.028.02 1.094-5.723 1.354zm21.63-11.394c-.075-4.354-2.958-4.96-5.285-4.408-2.38.563-5.222 2.522-5.147 6.877.075 4.373 2.958 4.978 5.34 4.414 2.327-.55 5.166-2.5 5.1-6.883m-11.816 2.796c-.1-5.316 3.484-7.6 6.513-8.316 3-.708 6.615-.127 6.706 5.188.1 5.335-3.484 7.62-6.475 8.327-3.028.716-6.652.136-6.744-5.2M264 169.777l-1.366.323-.207-12.102-5.705 1.35-.02-1.093 12.795-3.028.02 1.094-5.723 1.354zm11.144-2.327l-.225-13.195 1.385-.328.1 5.787 8.327-1.97-.1-5.787 1.385-.327.226 13.194-1.385.328-.108-6.315-8.326 1.97.108 6.315z"/>
    <use xlink:href="#G"/>
    <path d="M194.863 209.627l-.188-11-4.357 1.03-.02-1.093 10.117-2.394.02 1.094-4.375 1.035.188 11 4.376-1.036.02 1.094-10.118 2.394-.02-1.093zm20.88-5.262l-.197-11.498 1.366-.323.225 13.194-1.495.355-8.818-9.383.196 11.422-1.367.323-.225-13.195 1.477-.35z"/>
    <use xlink:href="#F" x="-62.162" y="91.018"/>
    <path d="M251.574 197.114l.02 1.093-10.635 2.516-.225-13.195 10.635-2.516.02 1.093-9.268 2.193.087 5.07 8.604-2.036.02 1.093-8.604 2.036.083 4.845zm13.628-8.78c1.662-.393 2.647-1.307 2.612-3.306-.033-1.923-1.076-2.244-2.812-1.833l-5.797 1.37.088 5.165zm1.548.542l2.28 5.516-1.44.34-2.17-5.373-.1.026-6 1.42.1 5.862-1.385.328-.225-13.195 7.015-1.66c2.03-.48 4.3-.64 4.363 2.545.04 2.3-1.108 3.536-2.43 4.2zm18.38.325l-.197-11.498 1.366-.323.226 13.194-1.496.354-8.817-9.383.196 11.422-1.366.324-.225-13.195 1.477-.35z"/>
    <use xlink:href="#G" y="25.808"/>
    <use xlink:href="#F" x="24.57" y="72.048"/>
  </g>
  <path d="M216.75 287.682c-1.66-13.257-14.07-54.554-12.214-63.4s8.347-13.74 12.812-3.452 14.284 42.17 19.29 61.92c.745 2.938 4.16 2.734 4.13-.047-.114-10.022-2.078-29.794-3.932-39.894s1.327-17.354-1.406-34c-1.905-11.612 8.896-16.26 14.382-3.846l6.166-1.19c-1.338-6.087-2.317-20.262 1.933-21.08 4.67-.897 11.59 10.362 13.82 16.91l-.008-.067c-.718-4.88-1.442-15.307.866-16.844 3.188-2.122 10.144 6.615 12.713 15.364 0 0 19.743 43.87 19.77 73.467.02 20.894-7.64 59.577-8.954 75.337l-46.758-.516h.505l-31.674.516c-2.356-14.357.426-44.243-1.444-59.178" class="B D"/>
  <g class="E">
    <g class="C">
      <path d="M271.725 199.77c-.88-5.992-2.054-16.206.866-16.844 2.742-.6 9.45 7.95 12.712 15.364 7.658 17.407 19.743 43.87 19.772 73.467.02 20.895-5.306 40.675-6.897 54.298"/>
      <path d="M284.337 274.9c-.03-29.598-12.367-74.373-12.367-74.373-2.204-7.507-9.482-18.55-14.058-17.6-7.58 1.556 2 62.647 2 62.647"/>
    </g>
    <g class="B">
      <use xlink:href="#H" class="D"/>
      <use xlink:href="#H" class="C"/>
    </g>
    <path d="M11.478 267.216v79.493h320.107v-79.606" class="C"/>
  </g>
  <defs >
    <path id="B" d="M327.013 51.038V45.5L169.85 100.448 17.6 45.5v5.6l-5.024-1.665v8.627l-5.275-1.757v174.092l165 53.113 165-53.113V56.294l-5.293 1.702v-8.57z"/>
    <path id="C" d="M47.25 347.096s-14.165-30.518-17.238-40.71-8.95-30.237-9.172-36.333v-18.67l60.747 3.584-2.14 91.612"/>
    <path id="D" d="M296.122 347.096s14.165-30.518 17.238-40.71 8.95-30.237 9.17-36.333v-18.67l-60.747 3.584 2.14 91.612"/>
    <path id="E" d="M125.176 347.095c5.157-26.787-.426-44.243 1.444-59.178 1.66-13.257 18.272-77.82 10.325-81.465-2.445-1.122-9.934 9.945-13.4 18.4-4.266 10.372-13.148 39.07-18.156 58.82-.745 2.938-2.774 2.06-2.778-.723-.04-23.108 10.423-91.587 2.392-94.07-9.492-2.935-25.402 57.406-25.43 87.005"/>
    <path id="F" d="M291.46 112.154l-1.367.323-.207-12.102-5.705 1.35-.02-1.093 12.795-3.028.02 1.094-5.723 1.354z"/>
    <path id="G" d="M303.614 159.925l.02 1.093-10.635 2.516-.225-13.195 10.635-2.516.02 1.093-9.27 2.193.087 5.07 8.604-2.036.02 1.093-8.604 2.036.083 4.845z"/>
    <path id="H" d="M218.194 347.095c-5.158-26.787.426-44.243-1.444-59.178-1.66-13.257-18.272-77.82-10.325-81.465 2.444-1.122 9.934 9.945 13.4 18.4 4.266 10.372 13.148 39.07 18.155 58.82.745 2.938 2.774 2.06 2.78-.723.04-23.108-10.423-91.587-2.392-94.07 9.492-2.935 25.402 57.406 25.43 87.005"/>
  </defs>
</svg>