<svg
  xmlns="http://www.w3.org/2000/svg"
  xmlns:xlink="http://www.w3.org/1999/xlink" viewBox="0 0 568 600">
  <style>.E{fill-rule:evenodd}.F{fill:none}.G{stroke:#010111}.H{fill:#d7f2db}.I{fill:#010111}.J{stroke-width:.764}</style>
  <defs>
    <path id="A" d="M.8 19.8s15.4 19 34.3 19c19 0 34.4-19 34.4-19S54 .8 35 .8.8 19.8.8 19.8"/>
    <path id="B" d="M.5 19.8s15.4 19 34.3 19c19 0 34.4-19 34.4-19S53.8.8 34.8.8.5 19.8.5 19.8"/>
    <path d="M535.7 58.3v-8.6l-5 1.6v-5.5l-157.2 54.9-152.2-55v5.7l-5-1.7v8.6l-5.3-1.7v174l165 53.2 165-53.1V56.6z" id="C"/>
    <path d="M251 347.4s-14.2-30.6-17.3-40.7-9-30.3-9.2-36.4v-18.6l60.8 3.5L283 347" id="D"/>
    <path d="M499.8 347.4s14.2-30.6 17.2-40.7 9-30.3 9.2-36.4v-18.6l-60.7 3.5 2.1 91.7" id="E"/>
    <path d="M328.9 347.4c5.1-26.8-.5-44.3 1.4-59.2 1.7-13.3 18.3-77.8 10.3-81.5-2.4-1.1-9.9 10-13.4 18.4-4.2 10.4-13.1 39-18.1 58.8-.8 3-2.8 2.1-2.8-.7 0-23.1 10.4-91.6 2.4-94-9.5-3-25.4 57.3-25.4 87" id="F"/>
    <path d="M500.7 99l-5.8 1.3.2 12.1-1.3.3-.2-12-5.7 1.3v-1.1l12.7-3z" id="G"/>
    <path d="M424 167.3l-5.7 1.4.2 12-1.3.4-.2-12-5.7 1.3v-1.1l12.7-3z" id="H"/>
    <path d="M497.8 151.4l.1 5 8.6-2v1.1l-8.5 2v4.9l9.3-2.2v1l-10.6 2.6-.2-13.2 10.6-2.5v1z" id="I"/>
    <path d="M421.9 347.4c-5.2-26.8.4-44.3-1.5-59.2-1.6-13.3-18.2-77.8-10.3-81.5 2.5-1.1 10 10 13.4 18.4 4.3 10.4 13.2 39 18.2 58.8.7 3 2.7 2.1 2.7-.7 0-23.1-10.4-91.6-2.3-94 9.4-3 25.4 57.3 25.4 87" id="J"/>
    <path id="K" d="M152.6 567.2h142.8V424.4H152.6z"/>
  </defs>
  <use xlink:href="#K" class="E H"/>
  <use xlink:href="#K" class="B F G" stroke-width=".8"/>
  <path d="M207.2 507.3s-15.4-19-34.4-19-34.3 19-34.3 19 15.4 19 34.3 19 34.4-19 34.4-19" fill="#fff" class="E"/>
  <path d="M207.2 507.3s-15.4-19-34.4-19-34.3 19-34.3 19 15.4 19 34.3 19 34.4-19 34.4-19zm0-28.5s-15.4-12-34.4-12-34.3 12-34.3 12m169 0s-15.4-12-34.4-12-34.3 12-34.3 12" class="F G J"/>
  <path d="M307.5 507.3s-15.4 19-34.4 19-34.3-19-34.3-19 15.4-19 34.3-19 34.4 19 34.4 19" fill="#fff" class="E"/>
  <path d="M307.5 507.3s-15.4 19-34.4 19-34.3-19-34.3-19 15.4-19 34.3-19 34.4 19 34.4 19zm-96.8 15s-2 30.3-7.8 44.9" class="F G J"/>
  <g class="E">
    <g transform="translate(238 487.5)">
      <mask fill="#fff" id="L">
        <use xlink:href="#A"/>
      </mask>
      <path class="D I" mask="url(#L)" d="M10.2 19.7a19 19 0 1138 0 19 19 0 01-38 0"/>
    </g>
    <g transform="translate(138 487.5)">
      <mask fill="#fff" id="M">
        <use xlink:href="#B"/>
      </mask>
      <path class="D I" mask="url(#M)" d="M10 19.7a19 19 0 0119-19 19 19 0 0119 19 19 19 0 01-19 19 19 19 0 01-19-19"/>
    </g>
    <path d="M215 346.8h321V1.8H215z" fill="#fff"/>
  </g>
  <path d="M536 49.6V.8H215v49" class="B F G"/>
  <use xlink:href="#C" class="E H"/>
  <use xlink:href="#C" class="B F G"/>
  <use xlink:href="#D" class="E H"/>
  <use xlink:href="#D" class="B F G"/>
  <g class="E">
    <path d="M224.5 269.8l19.5 27.4c-.6-4.2-1.1-8.6-1.5-13.3a216 216 0 01-.5-10.1l-17.5-4" class="D I"/>
    <use xlink:href="#E" class="H"/>
  </g>
  <use xlink:href="#E" class="B F G"/>
  <g class="E">
    <path d="M526.2 269.2l-19.4 27.4 1.4-13.3a216.6 216.6 0 00.6-10.1l17.4-4" class="D I"/>
    <path d="M531.6 268l-153.3 35.1a18.1 18.1 0 01-8 0l-153.3-35c-7.2-2-12.8-5.8-12.8-12.8V75.6c0-7 5.7-12.8 12.8-12.8l157 36 157.6-36c7 0 12.7 5.7 12.7 12.8v179.7c0 7-5.7 12.8-12.7 12.8" class="H"/>
  </g>
  <g class="B F G">
    <path d="M531.6 268l-153.3 35.1a18.1 18.1 0 01-8 0l-153.3-35c-7.2-2-12.8-5.8-12.8-12.8V75.6c0-7 5.7-12.8 12.8-12.8l157 36 157.6-36c7 0 12.7 5.7 12.7 12.8v179.7c0 7-5.7 12.8-12.7 12.8zM374.3 112.6v177.8"/>
  </g>
  <path d="M330.3 288.2c1.7-13.3 14-54.6 12.2-63.4s-8.3-13.8-12.8-3.5-14.3 42.2-19.3 62c-.7 2.9-4.2 2.7-4.1-.1 0-10 2-29.8 3.9-39.9s4.1-16.8 6.8-33.5c2-11.6-21.7-18-27.2-5.5h6.4c2.5-11.4-16-18.3-20.9-4.2 1.7-11.7-9.1-16.6-13.6-1.6 0 0-19.7 44-19.7 73.5 0 20.9 7.6 59.6 9 75.3l46.2-.5 31.6.5c2.4-14.3-.4-44.2 1.5-59.1" class="E H"/>
  <g class="B F G">
    <path d="M275.3 200c1-6 2-16.2-.8-16.8-2.8-.6-9.5 8-12.7 15.4C254 216 242 242.4 242 272c0 21 5.3 40.7 6.9 54.3"/>
    <path d="M262.7 275.2c0-29.6 12.4-74.4 12.4-74.4 2.2-7.5 9.5-18.6 14-17.6 7.6 1.6-2 62.6-2 62.6"/>
  </g>
  <use xlink:href="#F" class="E H"/>
  <use xlink:href="#F" class="B F G"/>
  <g class="E">
    <g class="I">
      <path d="M403.9 120.3v5l8.7-2v1.1l-8.6 2v5l9.3-2.3v1.1l-10.6 2.5-.2-13.2 10.6-2.5v1.1zm23.3.4l4 5.6-1.5.4-3.6-5.2-2.4.6-3.4 6.8-1.6.4 3.9-7.5-4-5.7 1.5-.4 3.5 5.3 2.5-.6 3.4-7 1.6-.3zm12-1.7l4.5-1c1.6-.5 3.7-1.1 3.6-4.2 0-3-2-2.7-3.7-2.3l-4.5 1.1.1 6.4zm0 1l.1 4.7-1.4.3-.2-13.2 5.6-1.3c2.2-.5 5.3-1 5.4 3 0 4-3 5-5.2 5.6l-4.3 1zm16.7-11l.1 5 8.6-2v1l-8.6 2 .1 5 9.3-2.3v1.1l-10.6 2.6-.3-13.2 10.7-2.6v1.1zm23.1 0c1.7-.4 2.7-1.3 2.6-3.3 0-2-1-2.3-2.8-1.9l-5.8 1.4.1 5.2 6-1.4zm1.6.5l2.2 5.5-1.4.4-2.2-5.4-6 1.4v5.9l-1.4.3-.2-13.2 7-1.6c2-.5 4.3-.7 4.4 2.5 0 2.3-1.1 3.5-2.4 4.2z"/>
      <use xlink:href="#G"/>
      <path d="M511.7 107.9c3-.7 4.9-2 4.9-3.5s-1.9-1.6-5.1-1.7c-3.3 0-5.7-.3-5.7-2.5 0-2.4 2.7-4 6-4.8 2.8-.7 4.6-.3 5.7.6l-1.2 1c-.8-.5-2.2-1-4.5-.4-2.3.5-4.6 1.7-4.6 3.2 0 1.4 2 1.6 4.5 1.6 3.6.1 6.2.3 6.3 2.6 0 2.4-2.5 4.1-6.3 5-3.2.8-5.1.3-6.3-.6l1.2-1c.8.5 2.5 1 5 .5m-79 36.9v1c0 4.4-2.8 6.9-5.8 7.6-3.2.7-6.4 0-6.5-5.3-.1-5.3 3.2-7.5 6.4-8.3 2.5-.6 4.2-.2 5.2.9l-1.2 1c-.7-.8-2.1-1.2-4-.8-3 .8-5.1 2.9-5 7 0 4 2.2 5 5.1 4.4 2.4-.6 4.6-2.4 4.5-6.1l-4.3 1V146l5.6-1.3zM437.9 145.5l-.2-7.8 1.4-.4.1 8c0 3 1.9 3.9 4.7 3.2 2.9-.7 4.6-2.4 4.5-5.4l-.1-8 1.3-.3.2 7.8c0 4.1-2.4 6.2-5.9 7-3.4.9-6 0-6-4.1m22.6-11.8l.1 11 4.4-1v1l-10 2.4v-1l4.3-1.1-.2-11-4.4 1v-1l10.1-2.5v1.1zm20 1c0-4.2-1.8-5-5-4.3l-3.7.9.2 11 3.7-1c3.2-.7 4.9-2.4 4.8-6.6m1.4-.3c.1 6.6-4 7.6-6.6 8.2l-4.7 1-.2-13.1 4.7-1.1c2.6-.6 6.7-1.6 6.8 5m7.3-7v5.1l8.7-2v1l-8.6 2.1v4.9l9.3-2.2v1L488 140l-.2-13.2 10.6-2.5v1z"/>
      <use xlink:href="#H"/>
      <path d="M440.2 169.4c-.1-4.4-3-5-5.3-4.4a6.5 6.5 0 00-5.2 6.9c.1 4.3 3 5 5.4 4.4a6.5 6.5 0 005-7m-11.8 2.9c0-5.3 3.5-7.6 6.6-8.3 3-.7 6.6-.1 6.7 5.2 0 5.3-3.5 7.6-6.5 8.3-3 .7-6.7.1-6.8-5.2"/>
      <use y="-10.7" x="49.1" xlink:href="#H"/>
      <path d="M489.7 151.9l.2 13.2-1.4.3v-6.3l-8.4 2 .1 6.3-1.4.3-.2-13.2 1.4-.3v5.8l8.4-2v-5.8z"/>
      <use xlink:href="#I"/>
      <path d="M399.7 198.6l.2 11 4.4-1v1l-10 2.4-.1-1 4.4-1.1-.2-11-4.4 1v-1l10.1-2.5v1.1zm20.9-5.8l.2 13.2-1.5.4-8.8-9.4.2 11.4-1.4.3-.2-13.2 1.5-.3 8.8 9.4-.2-11.5z"/>
      <use y="91" x="-62.2" xlink:href="#G"/>
      <use y="37.2" x="-52" xlink:href="#I"/>
      <path d="M468.9 188.6c1.7-.4 2.6-1.3 2.6-3.3 0-2-1-2.3-2.8-1.8l-5.8 1.3v5.2l6-1.4zm1.5.5l2.3 5.6-1.4.3-2.2-5.4-6 1.5v5.8l-1.4.4-.2-13.2 7-1.7c2-.5 4.3-.6 4.4 2.5 0 2.3-1.1 3.6-2.4 4.2zm19.6-11.5l.2 13.2-1.5.4-8.8-9.4.2 11.4-1.4.3-.2-13.2 1.5-.3 8.8 9.5-.2-11.5z"/>
      <use y="25.8" xlink:href="#I"/>
      <use y="72" x="24.6" xlink:href="#G"/>
    </g>
    <path d="M420.4 288c-1.6-13.3-14-54.6-12.2-63.5s8.4-13.7 12.8-3.4 14.3 42.2 19.3 62c.8 2.9 4.2 2.6 4.2-.1-.1-10-2.1-29.8-4-40s1.4-17.3-1.4-34c-1.9-11.5 9-16.2 14.4-3.8l6.2-1.2c-1.4-6-2.3-20.2 2-21 4.6-1 11.5 10.3 13.7 16.8-.7-4.9-1.4-15.3.9-16.9 3.2-2 10.1 6.6 12.7 15.4 0 0 19.7 43.9 19.8 73.5 0 20.9-7.7 59.5-9 75.3l-46.7-.5h.5l-31.7.5c-2.4-14.4.4-44.2-1.5-59.2" class="H"/>
  </g>
  <g class="B F G">
    <path d="M475.4 200c-.9-6-2-16.2.9-16.8 2.7-.6 9.4 8 12.7 15.4 7.6 17.4 19.7 43.8 19.8 73.4 0 21-5.3 40.7-7 54.3"/>
    <path d="M488 275.2c0-29.6-12.3-74.4-12.3-74.4-2.2-7.5-9.5-18.6-14.1-17.6-7.6 1.6 2 62.6 2 62.6"/>
  </g>
  <use xlink:href="#J" class="E H"/>
  <g class="B F G">
    <use xlink:href="#J"/>
    <path d="M215.2 267.5V347h320v-79.6"/>
  </g>
</svg>