<svg
  xmlns="http://www.w3.org/2000/svg"
  xmlns:xlink="http://www.w3.org/1999/xlink" viewBox="0 0 523 294" aria-label="Buy OK products.">
  <style>.B{stroke:#010111}.C{fill:#fff}.D{fill:#d7f2db}.E{fill:#010111}.F{stroke-width:.75}</style>
  <defs>
    <path id="A" d="M0 240h240V0H0z"/>
    <path id="B" d="M75.9 256.3l-9.8-159a176 176 0 0013.1-53c0-10-3.3-27.6-11.1-32.3C59.8 7 42-.5 34.4.3S9.8 4.3 6.4 5C3.3 5.7.2 7.4.2 9.8c0 1.6 4 2.7 5.8 2.9 5.2.5 20.2.3 24 1.2 16 2.8 17.5 7.9 19.6 17.5 2 9.1-7.2 19.5-13.7 19.5-3.4 0-10.2.2-14.8-6.3-6-8.6-10.1-20.3-12-25.3-2.3-5.7-4-7-6.5-7-2.6 0-2.5 6.6-2.6 13-.5 18.1 4 34 6.5 40.7A65.6 65.6 0 0037 100.6"/>
    <path id="C" d="M159.9 50.1s-7.9-3.4-10-4-2.5 1.7-.4 3.4l8.8 7.2"/>
    <path id="D" d="M154.9 253.1L.3 242l16-223L171 30.2z"/>
    <path id="E" d="M142.2 226.6l-55.4-4 2-26.8 55.3 4z"/>
    <path id="F" d="M90.2 94.5l-12-1.5 3.7 10.7s-4.6 7-6.3 10.5c-1.5 3-2.4 9.3-1.8 13.8l3.4 24.5 12.5 1.5 9-23c1.7-4.3 2-10.7 1-13.3l-5-13.2 5.7-8.8-10.2-1.2z"/>
  </defs>
  <g transform="translate(1 1.6)" fill="none" fill-rule="evenodd">
    <g transform="translate(281 50.4)">
      <mask id="G" class="C">
        <use xlink:href="#A"/>
      </mask>
      <use xlink:href="#A" class="D"/>
      <g mask="url(#G)">
        <path d="M86.4 341.2l95.3-11.7L147 167.2l-44.7-1.2z" class="C"/>
        <path d="M102 166.5L86.4 341.7l95-11.7-34.6-162.3z" class="B"/>
        <path d="M86.8 58.4c-1.5 1.2 4.2 8.1 7.1 11.2 3.3 3.4 15.7 16.3 17 19.4s10.7 29.6 5.1 42.8c-1.7 4 29.9-8.6 29.7-10.5s-17.5-39.6-22.6-43.4-32.8-22.5-36.3-19.5" class="C"/>
        <path d="M86.8 58.4c-1.5 1.2 4.2 8.1 7.1 11.2 3.3 3.4 15.7 16.3 17 19.4s10.7 29.6 5.1 42.8c-1.7 4 29.9-8.6 29.7-10.5s-17.5-39.6-22.6-43.4-32.8-22.5-36.3-19.5z" class="B"/>
        <path d="M123.1 78c5 3.8 23.4 48.3 23.5 50.3s-44.4 6.8-40.5 4.7c10.8-5.9 8.3-34.4 7-37.5l10-17.6z" class="E"/>
        <path d="M90.3 39.6c-1.6 1.3-.3 5 1.8 8.7 2 3.6 19.8 24.7 21 27.8s11.6 24.5 15.3 26.8 8-9.5 7.8-11.5-7.7-22-12.6-26c-3.5-3-17.6-16-26.3-22.4-3.5-2.6-6.2-4-7-3.4" class="C"/>
        <path d="M90.3 39.6c-1.6 1.3-.3 5 1.8 8.7 2 3.6 19.8 24.7 21 27.8s11.6 24.5 15.3 26.8 8-9.5 7.8-11.5-7.7-22-12.6-26c-3.5-3-17.6-16-26.3-22.4-3.5-2.6-6.2-4-7-3.4z" class="B"/>
        <path d="M104.1 29.3c-2.5.3-1.5 7.2 1 11.8 2.5 5 17.6 27.3 18.2 31.3s2 24.9 6 28.6 24.6 13.6 25 11.2-10.8-39.4-15.7-45.5c-3.8-4.6-19.3-22-26.2-30.6-2.4-3-6.2-7-8.3-6.8" class="C"/>
        <path d="M104.1 29.3c-2.5.3-1.5 7.2 1 11.8 2.5 5 17.6 27.3 18.2 31.3s2 24.9 6 28.6 24.6 13.6 25 11.2-10.8-39.4-15.7-45.5c-3.8-4.6-19.3-22-26.2-30.6-2.4-3-6.2-7-8.3-6.8z" class="B"/>
        <g transform="rotate(-7 731.1 -568.6)">
          <use xlink:href="#B" class="C"/>
          <use xlink:href="#B" class="B"/>
        </g>
        <path d="M102 166.5l-.5 7.4s5.8 9 22.3 6.3a77.5 77.5 0 01-21.7-13.7" class="E"/>
      </g>
      <use xlink:href="#B" class="B" href="#A"/>
    </g>
    <path d="M30 239.4h220V1.4H30z" class="C"/>
    <path d="M30 238.7h219.8V.8H29.9z" class="B"/>
    <path d="M156.1 39.3l5.5 6.5 4.4 9.4 4 6.2 6 5.2 4.2-5.8 1-9.3-1.9-6-3.3-4.3-2.7-2.4-5-1.7-7.6-1.3-3.3.1-1.3 3.4z" fill="#000"/>
    <g class="D">
      <path d="M168 37s-18.9-6.2-22.6-7 .6 3.5 3.2 5.8 13 9 13 9"/>
      <use xlink:href="#C"/>
    </g>
    <g class="B F">
      <use xlink:href="#C"/>
      <path d="M165 50.1l4.2 10.4m3.7-21.9L145.4 30c-3.7-.8.6 3.5 3.2 5.8s13 9 13 9"/>
    </g>
    <use xlink:href="#D" class="D"/>
    <g class="B">
      <use xlink:href="#D"/>
      <path d="M31.4 105a56.3 56.3 0 11112.4 8 56.3 56.3 0 01-112.4-8zm-12.8 85.7l56.8 4m-57.8 9.4l56.8 4.1m-57.7 9.3l56.8 4.1"/>
    </g>
    <use xlink:href="#E" class="C"/>
    <use xlink:href="#E" class="B"/>
    <use xlink:href="#F" class="C"/>
    <use xlink:href="#F" class="B"/>
    <path d="M98.9 115.4l-22.5-2.7" class="C"/>
    <path d="M98.9 115.4l-22.5-2.7" class="B"/>
    <path d="M76 143.5l17 2" class="C"/>
    <path d="M76 143.5l17 2" class="B"/>
    <path d="M85.3 93.9c-1.5-8-4.8-14-7-17.3m17 18.5c3.3-7.5 7.9-12.5 10.8-15.2M88 68c1.2 7.2 2.2 16.1 1.6 26.3" stroke="#02023d" class="F"/>
    <path d="M81.4 77a3 3 0 01-3.4 2.6 3 3 0 01-2.7-3.4 3 3 0 013.4-2.7 3 3 0 012.7 3.4m9.7-8.5a3 3 0 01-6-.7 3 3 0 013.3-2.7 3 3 0 012.7 3.4m18 11.8a3 3 0 01-6-.7 3 3 0 013.3-2.7 3 3 0 012.7 3.4" class="E"/>
    <path d="M224.3 139.9l-42.1-47.3" class="C"/>
    <path d="M188.3 48c-1.4-2.8-19.8-39.3-21.6-38.6s9.2 43 9.2 43l-8 10.7a164 164 0 01-2.8-14.3c-1-8.8-3.3-2.8-4.5.2s-6.9 27.3-6 34.6c6.2 47.9 42.3 90.6 58 154.6h37.8v-54.4l-27-36.8a1865 1865 0 00-41.2-52.8l7-37c.1-.7 2-3.4-1-9.2" class="D"/>
    <g class="B">
      <path d="M182.2 94.2a1863.4 1863.4 0 0147.7 61.5l20.5 28m-70.5-77.1l9.2-49.4c1-4.3.5-6.4-.8-9.2S168.2 8.8 166.7 9.4c-1.8.8 3.7 21.1 4.3 23.5.7 3.3 4.9 19.6 4.9 19.6L168 62.9"/>
      <path d="M169.8 71.1s-3.8-13.5-4.7-22.3-3.3-2.8-4.5.2c-7.5 20-5 34.6-5 34.6 2.4 27.3 22.7 68.6 30.8 85.5a444 444 0 0126.2 69.1"/>
    </g>
    <path stroke="#02023d" d="M173.2 238.9h77.2v-54.5" class="F"/>
    <path d="M244.8 176.1l4.7 62.1h.9v-54.4zm-64.7-70.7l5.6-6.9-3.5-4.3z" fill="#000"/>
    <path d="M100.2 215.1c.8 0 1.5 0 2-.2s1-.5 1.4-.9.5-1 .5-1.6c0-.7-.1-1.3-.6-1.8s-1-.7-1.6-.9l1-.3a2.2 2.2 0 00.6-.8c.2-.3.3-.7.3-1.1 0-.7-.1-1.3-.5-1.7s-.9-.7-1.4-.8l-2-.3-4.8-.4-.7 10.4 5.8.4zm-.2-6l-3.5-.2.2-3.2 3.2.2 1.2.2c.3.1.6.3.8.6s.3.5.3.9c0 .5-.3 1-.7 1.2s-.9.3-1.5.3zm-.2 4.7l-3.7-.2.3-3.5 3.9.3c.7 0 1.2.2 1.6.4s.6.8.5 1.4c0 .7-.3 1.1-.7 1.4s-1 .3-1.9.2zm14.9 2.5c1 0 1.9 0 2.6-.2s1.4-.7 1.8-1.3.7-1.4.8-2.5l.4-6.2-1.6-.1-.5 6.3c0 1-.4 1.7-1 2.2s-1.4.6-2.4.5c-.7 0-1.3-.2-1.8-.4a2.3 2.3 0 01-1-1c-.3-.5-.4-1-.3-1.8l.4-6.3h-1.7l-.4 6.1c0 1 0 2 .5 2.6s.9 1.2 1.6 1.5 1.6.5 2.6.6zm16.7 1l.3-4.3 4.7-5.8-1.8-.1-3.7 4.6-3-5-1.8-.2 3.9 6.5-.3 4.2h1.7z" fill-rule="nonzero" class="E"/>
  </g>
</svg>