<svg xmlns="http://www.w3.org/2000/svg" xmlns:xlink="http://www.w3.org/1999/xlink" viewBox="0 0 406.8 567.3" width="406.8" height="567.3">
  <style>
    @-webkit-keyframes flap {
      0%,100% { transform: skew(0deg); }
      50%     { transform: skew(0deg, 5deg); }
    }
    @keyframes flap {
      0%,100% { transform: skew(0deg); }
      50%     { transform: skew(0deg, 5deg); }
    }
    @-webkit-keyframes flip {
      0%,100% { transform: skew(0deg) translate(0,0); }
      50%     { transform: skew(0deg, -3deg) translate(1%,2%); }
    }
    @keyframes flip {
      0%,100% { transform: skew(0deg) translate(0,0); }
      50%     { transform: skew(0deg, -3deg) translate(1%,2%); }
    }
    @-webkit-keyframes peek {
      0%,12.5%,87.5%,100% { transform: translate(0); }
      37.5%,62.5%         { transform: translate(20px); }
    }
    @keyframes peek {
      0%,12.5%,87.5%,100% { transform: translate(0); }
      37.5%,62.5%         { transform: translate(20px); }
    }
    .fingers, .book {
      -webkit-animation: 2s ease 0s infinite alternate flap;
              animation: 2s ease 0s infinite alternate flap;
    }
    .thumbs {
      -webkit-animation: 2s ease 0s infinite alternate flip;
              animation: 2s ease 0s infinite alternate flip;
    }
    .pupil {
      -webkit-animation: 2s ease 0s infinite alternate peek;
              animation: 2s ease 0s infinite alternate peek;
    }
    .finger, .book, .thumbs, .pupil { animation-play-state: paused; }
    .scrolling .finger, .scrolling .book, .scrolling .thumbs, .scrolling .pupil { animation-play-state: running; }
  </style>
  <defs>
    <path d="M535.7 58.3v-8.6l-5 1.6v-5.5l-157.2 54.9-152.2-55v5.7l-5-1.7v8.6l-5.3-1.7v174l165 53.2 165-53.1V56.6z" id="c"/>
    <path d="M500.7 99l-5.8 1.3.2 12.1-1.3.3-.2-12-5.7 1.3v-1.1l12.7-3z" id="d"/>
    <path d="M424 167.3l-5.7 1.4.2 12-1.3.4-.2-12-5.7 1.3v-1.1l12.7-3z" id="e"/>
    <path d="M497.8 151.4l.1 5 8.6-2v1.1l-8.5 2v4.9l9.3-2.2v1l-10.6 2.6-.2-13.2 10.6-2.5v1z" id="f"/>
    <path id="a" d="M152.6 567.2h142.8V424.4H152.6z"/>
    <clipPath id="right-eye">
      <path d="m 69.2,487 c 0,0 -15.4,-19 -34.4,-19 -19,0 -34.3,19 -34.3,19 0,0 15.4,19 34.3,19 18.9,0 34.4,-19 34.4,-19"/>
    </clipPath>
    <clipPath id="left-eye">
      <path d="m 169.5,487 c 0,0 -15.5,19 -34.5,19 -19,0 -34.3,-19 -34.3,-19 0,0 15.4,-19 34.3,-19 18.9,0 34.4,19 34.4,19"/>
    </clipPath>
    <clipPath id="fingers">
      <path d="M77 .5h321V347H77z"/>
    </clipPath>
    <clipPath id="thumbs">
      <path d="M55.9-220.8h323.7v174H56zm-77 88.4V41.4h401.6v-173.8z"/>
    </clipPath>
  </defs>
  <path d="M 398,345.81135 V 0.5 H 77 v 346.72656" fill="#fff" stroke="#010111"/>
  <g stroke="#010111" fill="none">
    <use stroke-width=".8" xlink:href="#a" x="-138" y="-.3" fill="#d7f2db"/>
    <path d="M69.2 487s-15.4-19-34.4-19S.5 487 .5 487s15.4 19 34.3 19 34.4-19 34.4-19" fill="#fff"/>
    <path d="M169.5 458.5s-15.4-12-34.4-12-34.3 12-34.3 12m-31.6 0s-15.4-12-34.4-12-34.3 12-34.3 12"/>
    <path d="M169.5 487S154 506 135 506s-34.3-19-34.3-19 15.4-19 34.3-19 34.4 19 34.4 19" fill="#fff"/>
    <path d="M82 523.4A150 150 0 0170.7 567"/>
  </g>

  <g clip-path="url(#thumbs)" transform="translate(21.6 478.8)" fill="#d7f2db" stroke="#010111">
    <path d="M334.6-51.8c4.8-21.7 29.7-134.5 39.4-163.2-18-4.2-45.2 42.9-56 72.2m-225.2 91L61.5-215c12.7.2 28.8 13.2 56.7 71.2" class="thumbs"/>
  </g>

  <g class="book">
    <use xlink:href="#c" x="-138" y="-.3" fill="#d7f2db"/>
    <g stroke="#010111">
        <use xlink:href="#c" x="-138" y="-.3" fill="none"/>
        <path d="M393 269.7l-153.4 35.1a18.1 18.1 0 01-8 0l-153.3-35c-7.2-2-12.8-5.8-12.8-12.8V77.3c0-7 5.7-12.8 12.8-12.8l157 36 157.6-36c7 0 12.7 5.7 12.7 12.8V257c0 7-5.7 12.8-12.7 12.8zM235.5 114.3v177.8" fill="#d7f2db"/>
    </g>
    <g transform="translate(-127.1 2.8)" fill="#010111">
        <path d="M403.9 120.3v5l8.7-2v1.1l-8.6 2v5l9.3-2.3v1.1l-10.6 2.5-.2-13.2 10.6-2.5v1.1zm23.3.4l4 5.6-1.5.4-3.6-5.2-2.4.6-3.4 6.8-1.6.4 3.9-7.5-4-5.7 1.5-.4 3.5 5.3 2.5-.6 3.4-7 1.6-.3zm12-1.7l4.5-1c1.6-.5 3.7-1.1 3.6-4.2 0-3-2-2.7-3.7-2.3l-4.5 1.1zm0 1l.1 4.7-1.4.3-.2-13.2 5.6-1.3c2.2-.5 5.3-1 5.4 3 0 4-3 5-5.2 5.6l-4.3 1zm16.7-11l.1 5 8.6-2v1l-8.6 2 .1 5 9.3-2.3v1.1l-10.6 2.6-.3-13.2 10.7-2.6v1.1zm23.1 0c1.7-.4 2.7-1.3 2.6-3.3 0-2-1-2.3-2.8-1.9l-5.8 1.4.1 5.2 6-1.4zm1.6.5l2.2 5.5-1.4.4-2.2-5.4-6 1.4v5.9l-1.4.3-.2-13.2 7-1.6c2-.5 4.3-.7 4.4 2.5 0 2.3-1.1 3.5-2.4 4.2z"/>
        <use xlink:href="#d"/>
        <path d="M511.7 107.9c3-.7 4.9-2 4.9-3.5s-1.9-1.6-5.1-1.7c-3.3 0-5.7-.3-5.7-2.5 0-2.4 2.7-4 6-4.8 2.8-.7 4.6-.3 5.7.6l-1.2 1c-.8-.5-2.2-1-4.5-.4-2.3.5-4.6 1.7-4.6 3.2 0 1.4 2 1.6 4.5 1.6 3.6.1 6.2.3 6.3 2.6 0 2.4-2.5 4.1-6.3 5-3.2.8-5.1.3-6.3-.6l1.2-1c.8.5 2.5 1 5 .5m-79 36.9v1c0 4.4-2.8 6.9-5.8 7.6-3.2.7-6.4 0-6.5-5.3s3.2-7.5 6.4-8.3c2.5-.6 4.2-.2 5.2.9l-1.2 1c-.7-.8-2.1-1.2-4-.8-3 .8-5.1 2.9-5 7 0 4 2.2 5 5.1 4.4 2.4-.6 4.6-2.4 4.5-6.1l-4.3 1V146l5.6-1.3zm5.3.7l-.2-7.8 1.4-.4.1 8c0 3 1.9 3.9 4.7 3.2 2.9-.7 4.6-2.4 4.5-5.4l-.1-8 1.3-.3.2 7.8c0 4.1-2.4 6.2-5.9 7-3.4.9-6 0-6-4.1m22.6-11.8l.1 11 4.4-1v1l-10 2.4v-1l4.3-1.1-.2-11-4.4 1v-1l10.1-2.5v1.1zm20 1c0-4.2-1.8-5-5-4.3l-3.7.9.2 11 3.7-1c3.2-.7 4.9-2.4 4.8-6.6m1.4-.3c.1 6.6-4 7.6-6.6 8.2l-4.7 1-.2-13.1 4.7-1.1c2.6-.6 6.7-1.6 6.8 5m7.3-7v5.1l8.7-2v1l-8.6 2.1v4.9l9.3-2.2v1L488 140l-.2-13.2 10.6-2.5v1z"/>
        <use xlink:href="#e"/>
        <path d="M440.2 169.4c-.1-4.4-3-5-5.3-4.4a6.5 6.5 0 00-5.2 6.9c.1 4.3 3 5 5.4 4.4a6.5 6.5 0 005-7m-11.8 2.9c0-5.3 3.5-7.6 6.6-8.3 3-.7 6.6-.1 6.7 5.2 0 5.3-3.5 7.6-6.5 8.3s-6.7.1-6.8-5.2"/>
        <use y="-10.7" x="49.1" xlink:href="#e"/>
        <path d="M489.7 151.9l.2 13.2-1.4.3v-6.3l-8.4 2 .1 6.3-1.4.3-.2-13.2 1.4-.3v5.8l8.4-2v-5.8z"/>
        <use xlink:href="#f"/>
        <path d="M399.7 198.6l.2 11 4.4-1v1l-10 2.4-.1-1 4.4-1.1-.2-11-4.4 1v-1l10.1-2.5v1.1zm20.9-5.8l.2 13.2-1.5.4-8.8-9.4.2 11.4-1.4.3-.2-13.2 1.5-.3 8.8 9.4-.2-11.5z"/>
        <use y="91" x="-62.2" xlink:href="#d"/>
        <use y="37.2" x="-52" xlink:href="#f"/>
        <path d="M468.9 188.6c1.7-.4 2.6-1.3 2.6-3.3s-1-2.3-2.8-1.8l-5.8 1.3v5.2zm1.5.5l2.3 5.6-1.4.3-2.2-5.4-6 1.5v5.8l-1.4.4-.2-13.2 7-1.7c2-.5 4.3-.6 4.4 2.5 0 2.3-1.1 3.6-2.4 4.2zm19.6-11.5l.2 13.2-1.5.4-8.8-9.4.2 11.4-1.4.3-.2-13.2 1.5-.3 8.8 9.5-.2-11.5z"/>
        <use y="25.8" xlink:href="#f"/>
        <use y="72" x="24.6" xlink:href="#d"/>
    </g>
  </g>

  <g clip-path="url(#right-eye)">
    <circle cx="25.8" cy="475" r="16.2" class="pupil"/>
  </g>
  <g clip-path="url(#left-eye)">
    <circle r="16.2" cy="476" cx="125.5" class="pupil"/>
  </g>

  <g clip-path="url(#fingers)" fill="#d7f2db" stroke="#010111">
   <g class="fingers">
    <path d="M281 287.9c-1.6-13.3-11.8-54.4-12.2-63.5-1-20.8 1.4-26.2 12.8-3.4 5 10 14.3 42.2 19.3 62 .8 3 4.2 2.6 4.2 0 0-10-2-29.9-4-40-2-10.1 1.4-17.4-1.4-34-1-35.4 9-16.3 14.4-3.9l6.2-1.2c-1.4-6-2.3-20.2 2-21 4.6-1 11.5 10.3 13.7 16.8-.7-4.9-1.4-15.3 1-16.9 3.1-2 8.7 5.3 12.6 15.4 0 0 27.4 53.7 17.8 98.8L353 440h-69.5L281 287.9m-90 .3c1.6-13.3 14-54.6 12.1-63.4-1.9-8.8-8.3-13.8-12.8-3.5a592.7 592.7 0 00-19.3 62c-.7 3-4.2 2.7-4 0 0-10 2-29.9 3.8-40 1.8-10.1 4-16.8 6.8-33.5 2-11.6-21.7-18-27.2-5.5h6.4c2.5-11.4-16-18.3-21-4.2 1.8-11.7-9-16.6-13.5-1.6 0 0-27.6 34.4-15.9 110.6l4.8 131h74.5c1.4-8.1-3-37.6-2-76.2.6-29 6.4-69.3 7.2-75.7" stroke="none"/>
    <path d="M136 199.9c1-6 2-16.2-.9-16.8-2.9-.6-9.5 8-12.7 15.4-7.8 17.4-19.8 43.8-19.8 73.4 0 8 3 32.2 3.2 52m17.5-48.8c0-29.6 12.4-74.4 12.4-74.4 2.2-7.5 9.5-18.6 14-17.6 7.6 1.6-2 62.6-2 62.6"/>
    <path d="M185.7 440.1c-8-91.4 4.3-115.5 5-150.3 1.7-13.3 18.3-77.8 10.3-81.5-2.4-1-10 10-13.4 18.4a623 623 0 00-18.1 58.8c-.8 3-2.8 2.1-2.8-.7 0-23 10.4-91.6 2.4-94-9.5-3-25.4 57.3-25.4 87M336 199.9c-1-6-2-16.2 1-16.8 2.6-.6 6.6-.4 12.6 15.4 7.6 17.4 19.7 43.8 19.8 73.4 0 21-5.3 40.7-7 54.3"/>
    <path d="M348.6 275.1c0-29.6-12.3-74.4-12.3-74.4-2.2-7.5-9.5-18.6-14-17.6-7.7 1.6 2 62.6 2 62.6"/>
    <path d="M283.5 440.1L281 287.8c-1.6-13.3-18.2-77.8-10.3-81.5 2.5-1 10 10 13.4 18.4 4.3 10.4 13.2 39 18.2 58.8.7 3 2.7 2.1 2.7-.7 0-23-10.4-91.6-2.3-94 9.4-3 25.4 57.3 25.4 87"/>
   </g>
  </g>

  <line x1="77" y1="347" x2="398" y2="347" stroke="#010111"/>
</svg>
