<svg xmlns="http://www.w3.org/2000/svg" xmlns:xlink="http://www.w3.org/1999/xlink" aria-label="One of the greatest websites ever made." viewBox="0 0 496 242" width="496" height="242">
    <style>
      @-webkit-keyframes web-browse {
        0%,100% { transform: translate(0, 0); }
        40%     { transform: translate(-4%, 4%); }
        60%     { transform: translate(0, 3%); }
        80%     { transform: translate(1%, 1%); }
      }
      @keyframes web-browse {
        0%,100% { transform: translate(0, 0); }
        40%     { transform: translate(-4%, 4%); }
        60%     { transform: translate(0, 3%); }
        80%     { transform: translate(1%, 1%); }
      }
      .laptop-arm {
         -webkit-animation: 2s ease 0s infinite running web-browse;
                 animation: 2s ease 0s infinite running web-browse;
         animation-play-state: paused;
      }
      @-webkit-keyframes finger-wiggle {
        0%   { transform: rotate(-6deg); }
        100% { transform: rotate(4deg); }
      }
      @keyframes finger-wiggle {
        0%   { transform: rotate(-6deg); }
        100% { transform: rotate(4deg); }
      }
      .laptop-fingers {
         -webkit-animation: .4s ease 0s infinite alternate finger-wiggle;
                 animation: .4s ease 0s infinite alternate finger-wiggle;
         animation-play-state: paused;
         transform-origin: 60% 80%;
      }
      .scrolling .laptop-fingers, .scrolling .laptop-arm { animation-play-state: running; }
    </style>
  <rect width="496" height="242" fill="#d7f2db"/>
  <g id="laptop">
    <path transform="translate(51 22.3)" mask="url(#d)" fill="#010111" d="M8.5 14.2c-7 1.2-8.5 3.4-8.5 6l.7 155c0 .8 0 3.2 1.7 4.3 1.2.8 2.6 1.2 6.8 1.7C19.8 182.6 147 191 147 191s8.3.6 13-1.4c4.2-1.7 84.4-31.7 85.8-33.7 1.4-2 1.8-4-1.4-4.4-3.2-.4-148.4-9-148.4-9L95.3 3.3C95.3.4 91.8 0 89.6.5l-81 13.7z"/>
    <path fill="none" d="M143 161.3l-86.7 29.8-.4-148.5 87.8-16z" stroke="#010111"/>
    <path fill="#fff" d="M70.5 89.3c.3-.4.6-.9.8-1.6a9 9 0 00.3-2.5c0-1-.1-1.7-.3-2.3-.2-.6-.5-1-.8-1.2a1.2 1.2 0 00-1-.2l-1 .7c-.3.4-.5.8-.7 1.5a9 9 0 00-.3 2.5c0 1 0 1.8.3 2.3.3.5.5 1 .8 1.2a1.2 1.2 0 001 .2 2 2 0 00.9-.7M68.1 91c-.4-.2-.8-.7-1-1.5-.2-.8-.5-1.8-.5-3.1s.2-2.5.4-3.3c.2-.8.7-1.6 1.1-2 .4-.4 1-.7 1.4-.8a2 2 0 011.4.2c.5.2.8.7 1.1 1.4a11 11 0 010 6.5c-.3.9-.6 1.5-1 2s-1 .6-1.4.8a2 2 0 01-1.5-.2m11-12.8v10.5l-1 .2-3.3-8.2.1-.1v9.1l-.8.2V79.3l1-.2 3.4 8.4h-.2v-9.1zm3 .5v3.6l3.5-.8v1.2l-3.4.8v3.3l3.7-.9v1.3l-4.6 1V77.8l4.6-1V78zM96.7 83c.3-.3.5-.8.7-1.4.2-.6.3-1.5.3-2.5s0-1.7-.3-2.2c-.3-.5-.4-1-.7-1.2-.3-.2-.6-.2-.9-.2l-.9.6c-.3.3-.5.8-.7 1.5-.2.7-.3 1.5-.3 2.4 0 .9 0 1.8.3 2.3.3.5.4 1 .7 1.2a1.1 1.1 0 001 .1c.2 0 .5-.2.8-.6m-2.2 1.7c-.4-.2-.8-.7-1-1.4-.2-.7-.4-1.8-.4-3s.1-2.5.4-3.3c.3-.8.6-1.5 1-2s.9-.6 1.3-.7a1.8 1.8 0 011.3.2c.5.2.8.7 1 1.4.2.7.5 1.7.5 3s-.2 2.4-.4 3.3c-.2.9-.6 1.5-1 1.9-.4.4-1 .7-1.4.8a2 2 0 01-1.3-.2m7.1-10.4v3.4l3.2-.7v1.2l-3.2.8v4.3l-.8.2V73.3l4.2-1v1.2zm15.2-3.5l-2.1.5v9l-.8.1v-8.9l-2.1.5v-1.2l5-1.2zm6-2.5v10l-.7.2v-4.6l-3 .6v4.8l-.8.2V69.3l.9-.2v4.2l2.9-.6v-4.4zm2.9.5v3.3l3-.7v1.2l-3 .7v3l3.3-.8v1.2l-4.1 1v-10l4.1-1v1.2zm-47.4 32.5v1c0 1-.1 2-.3 2.8-.2.8-.6 1.5-1 1.9-.4.4-.8.7-1.2.8-.8.2-1.5 0-2-.7s-.8-2-.8-4c0-1.3 0-2.4.4-3.2.4-.8.6-1.6 1-2 .4-.4.9-.7 1.4-.9.5-.1 1 0 1.4.2.4.2.7.6 1 1.2l-.8 1a3.2 3.2 0 00-.2-.3l-.6-.7c-.2 0-.5-.2-.8 0-.6 0-1 .5-1.4 1.2-.4.7-.5 1.9-.5 3.3 0 1 0 1.9.2 2.4s.4 1 .7 1.2c.3.2.6.2 1 0 .3 0 .6-.2.9-.5.3-.3.4-.8.6-1.3.2-.5.2-1.2.2-2l-1.6.4v-1.2zm5.1-.4l.8-.5 1 4.9-1 .2zm-2.3-.3l2.2-.5c.4 0 .6-.3.8-.6.2-.3.3-.8.3-1.5 0-.6-.1-1-.3-1.3-.2-.3-.4-.3-.8-.2l-2.2.6zm0 1.3v4.4l-.8.2V95.9l3-.7h1c.3 0 .4.3.6.6.2.3.3 1 .3 1.8 0 .9 0 1.5-.3 2l-.6 1.2-.9.4-2.3.6zm7-6.6v3.5l3.3-.9v1.2l-3.3 1v3.1l3.6-.9v1.2l-4.5 1.2V94.3l4.5-1v1zm9.7 2.7v1.3l-3.5.9v-1.3zm-1.4-4.7l-.6.1-1.6 9.5-.8.2L95 92.3l2-.5 1.6 9.8-.9.3-1.5-8.7zm8.4-2.1l-2.2.5v9l-.8.2v-9l-2.2.6v-1.3l5.2-1.2zm2.7-.7v3.4l3.2-.9v1.3l-3.2.8v3.1l3.4-.9v1.3l-4.3 1V89.5l4.3-1v1.1zm6.2 5.5l.6.4h.8c.5-.1.9-.4 1.2-.7a1.7 1.7 0 00.5-1.2l-.2-.7a1.3 1.3 0 00-.6-.4l-1-.3a1 1 0 00-.2 0 1 1 0 01-.1 0l-1-.5-.7-.7c-.2-.3-.2-.8-.2-1.3 0-.6 0-1.2.3-1.6.3-.4.5-.8.9-1.1a3.2 3.2 0 011.2-.6h1c.3 0 .5.1.7.3l.5.7-.6 1-.4-.5c-.1-.2-.4-.2-.6-.2a1.2 1.2 0 00-.6 0c-.5 0-.8.3-1.1.6-.3.3-.5.7-.5 1.1 0 .3 0 .5.2.7l.5.4.9.3a.3.3 0 00.2 0l1.1.4c.3.2.6.4.8.8.2.4.3.7.3 1.3a4 4 0 01-.3 1.7 3 3 0 01-1 1.1 3.5 3.5 0 01-1.2.6c-.6.2-1.1.2-1.5 0-.4-.2-.8-.6-1-1l.7-1a2.2 2.2 0 00.4.4m10.2-9.7l-2 .5v8.8l-.9.2V87l-2 .6v-1.3l5-1.3zm-39.7 35.8l1-9.5 1-.3-1.3 10.7-.8.2zm-1.7-6.7l-.2-2 .5-.1 1.6 8.8-.2 1.1-.3.1-1.4-7.8zm-2 7.8l1.6-9.7.5-.2-.1 2.2-1.5 8.6-.4.1v-1zm-1.8-9l1-.2 1 9.1v1l-.7.3-1.3-10.1zm10-1.3v3.4l3.3-1v1.3l-3.4 1v3.1l3.7-1v1.3l-4.5 1.2v-10.3l4.5-1.2v1.2zm9.4 4.8c.2-.3.3-.8.3-1.5 0-.6-.1-1-.3-1.1-.2-.1-.5-.3-.8-.2l-2 .5v3.5l1.9-.5c.4-.1.7-.4.9-.7zm-2.8-3.4l1.8-.5a1.2 1.2 0 00.7-.6c.2-.3.3-.7.3-1.3 0-.4 0-.6-.2-.8l-.4-.4H97l-1.6.5v3.1zm3.6.3c.2.3.3.9.3 1.6 0 .6 0 1.2-.2 1.7s-.3.8-.6 1.1a2 2 0 01-1 .6l-2.9.8v-10.3l2.5-.8h1c.3 0 .5.1.7.5.2.4.3.8.3 1.5l-.1 1.2-.3.8-.4.5c.3 0 .6.2.8.6zm2.8 2a1.7 1.7 0 00.7.3h.7c.6-.1 1-.4 1.3-.7a1.8 1.8 0 00.5-1.2c0-.3 0-.6-.2-.7a1.2 1.2 0 00-.6-.4l-1-.3a1 1 0 00-.2 0 .9.9 0 01-.1 0l-1-.5c-.3-.2-.6-.4-.7-.7-.1-.3-.3-.7-.3-1.3 0-.6.1-1.1.3-1.6.2-.5.6-.8 1-1.1a3.4 3.4 0 011.2-.7h1c.3 0 .6.1.8.3a2.1 2.1 0 01.5.7l-.7 1a2.6 2.6 0 00-.4-.4.5.5 0 00-.5-.3 1.3 1.3 0 00-.7 0 2.5 2.5 0 00-1.2.7c-.3.3-.4.7-.4 1.1 0 .3 0 .5.2.7a1.3 1.3 0 00.5.4l.9.3h.2c.5 0 .9.2 1.2.4l.7.7c.2.3.3.8.3 1.3 0 .7 0 1.3-.3 1.8s-.5.8-1 1.1l-1.2.7c-.7.2-1.2.1-1.6 0-.4-.1-.7-.6-1-1l.7-1 .5.4m7.8-9.3v7.7l1.6-.4v1.2l-4 1.1v-1.2l1.6-.5v-7.6l-1.6.4v-1.2l4-1.1v1.2zm7.9-2l-2.1.5v8.8l-.9.3V106l-2 .6v-1.3l5-1.4zm2.5-1v3.3l3.1-.8v1.1l-3.1 1v3l3.3-1v1.4l-4 1v-10l4.2-1v1.1zM73.1 135v3.4l3.5-1v1.2l-3.5 1v3.3l3.8-1v1.2l-4.6 1.3v-10.5l4.6-1.3v1.3zm11-4.4l-1.9 10.9-1.7.5-1.8-9.9.9-.3 1.6 8.7h.4l1.6-9.7zm2.8.4v3.4l3.4-1v1.2l-3.4 1v3.2l3.6-1v1.2l-4.5 1.3V130l4.5-1.3v1.2zm8.8 1.8l.8-.6.8 4.7-.8.3zm-2.2-.2l2.1-.7a1.2 1.2 0 00.8-.6l.2-1.4c0-.7 0-1.1-.2-1.3-.2-.2-.5-.2-.8-.1l-2.1.6zm0 1.2v4.3l-.8.2v-10l3-.9h.8c.2 0 .5.3.7.6.2.3.2 1 .2 1.8s0 1.4-.2 2c-.2.6-.4.8-.7 1l-.8.6-2.2.6zm16-10.6l.7-.2.8 9.8-.8.3zm-1.8 7.5l1.7-7.4.3-.1v1.5l-1.7 8-.5.2zm-2-4.8v-1.6h.3l1.7 6.5.2 2-.5.1zm-.5-1.4l.7-.2-.7 10.3-.8.2zm11.3 2.9v1.2l-3.4 1v-1.2zm-1.4-4.6l-.6.2-1.4 9.2-.9.3 1.8-10.4 1.8-.6 1.6 9.6-.8.2-1.4-8.4zm7 5.2c.2-.3.4-.7.5-1.3a13 13 0 000-4.5c-.1-.5-.3-.9-.5-1-.2-.1-.6-.2-1-.1l-1.2.3v7.6l1.2-.4c.4 0 .7-.3 1-.6m.2-8.2c.3 0 .6.4.9 1a14.6 14.6 0 010 6.8c-.2.8-.6 1.4-1 1.6l-1.2.7-2 .5v-10l2-.5c.5-.1 1-.2 1.3 0m3.9-.3v3.3l3-1v1.3l-3 .9v3l3.2-1v1.2l-4 1.3v-10l4-1.1v1.2z"/>
    <path fill="none" stroke-width=".8" stroke="#fff" d="M143 161.3l-86.7 29.8-.4-149 87.8-15.5zm-67.8 37l73.7 4.5m-65.5-7.5l73.5 4.4m-65.2-7.4l73.3 4.3m-65-7.3l73 4.4m-64.7-7.4l72.8 4.3m-64.6-7.3l72.7 4.2m-64.4-7.3l72.4 4.3m-64.1-7.3l72.2 4.2m-64-7.2l72 4.1m-63.7-7.2l71.8 4.2"/>
    <path fill="none" d="M51.7 198.6l95.3-34" stroke-width=".8" stroke="#efeff1"/>
    <path d="M197.5 197.7l22.6 1 35-12-24.2-.8z" fill="#35353a"/>
    <path fill="none" stroke-width=".8" stroke="#fff" d="M75.2 198.3l74.4-27.3m-62.2 28l74.3-27.3m-62 28.1l74-27.4m-61.8 28.2l73.8-27.5m-61.6 28.2l73.6-27.5M136.3 202l73.4-27.5m-61.1 28.2l73.2-27.5m-61 28.3l73-27.6"/>
  </g>
  <g class="laptop-arm">
   <g class="laptop-fingers">
    <path fill="#fff" d="M220.7 159.8c-3.4 1.7 5.2 4.4 8.6 4.6l36.4 1.9c10.7 0 36.7 1.9 29.1-6.1-5.3-5.3-20.1-11.1-25.5-9.4-14.7 4.6-45.1 7.2-48.6 9z" stroke="#010111"/>
    <path fill="#fff" d="M224.6 141.3c-5.3-1-4 2.4.6 6.3a219.9 219.9 0 0042.3 13.4s25.3 7.7 28.2-2.4c-3.3-7.3-11-4.3-21.7-8.8-16-2-45.6-7.7-49.4-8.5z" stroke="#010111"/>
   </g>
    <path d="M656.2-90.4c-16 18-342.9 246.5-342.9 246.5s-33.6-3.5-42 .7c-20.7 10-51.5 24.9-45.4 30.5 2.3 2.2 33.6-7 44.2-10.7 11.2-4 23-1.7 27.8 3.2.8.8.5 2-.6 2.4-7 2.4-22.1 2-31 3.4-7 1-.3 6.1 5.3 8.4a97 97 0 0034.6 4.9c13-2.2 30-11.3 55.3-23.1L657 35.3" fill="#fff" stroke="#010111"/>
    <path d="M338.2 186.8l317-166.9 1.8 15.4z"/>
  </g>
  <rect width="496" height="242" fill="none" stroke="#010111"/>
</svg>
