<svg
  xmlns="http://www.w3.org/2000/svg"
  xmlns:xlink="http://www.w3.org/1999/xlink" viewBox="0 0 24 24" role="img" aria-label="Eyes reading code">
  <defs>
    <clipPath id="a">
      <path d="M166.5 246.4c2.65 1.33 5.3 2.65 9.63-1.9-2.18-3-5.57-4.34-9.63-2.06" fill="#fff"/>
    </clipPath>
    <clipPath id="d">
      <path d="M190.31 242.44c-4.9-2.77-7.17.04-9.4 2.13 2.55 2.02 5.43 4.5 9.4 1.84" fill="#fff"/>
    </clipPath>
    <path id="b" d="M169.54 242.82h-1.41v-.28h.58v-1.65l-.54.3-.1-.26.71-.37h.27v1.98h.5z"/>
    <path id="c" d="M174.99 244.53q0 .25-.05.47-.05.21-.16.36-.1.16-.26.24-.16.08-.37.08-.18 0-.33-.06-.14-.07-.25-.2-.1-.14-.16-.36-.06-.22-.06-.52 0-.26.05-.48.06-.21.16-.36t.26-.24q.16-.08.37-.08.18 0 .33.07.15.07.25.2.1.14.16.36.06.22.06.52zm-.3 0v-.1l-.02-.12-.95.7.06.17q.04.08.1.13.06.05.13.08t.16.03q.12 0 .21-.05.1-.06.17-.17.06-.11.1-.28.03-.17.03-.38zm-1.03-.01v.2l.96-.7-.07-.16q-.04-.07-.1-.12-.05-.06-.12-.09-.07-.03-.16-.03-.11 0-.21.06-.1.06-.16.17-.07.11-.1.28-.04.17-.04.39z"/>
  </defs>
  <g stroke-width=".2" stroke="#010111">
    <path d="M0 .19h24v24H0z" fill="#d7f5db"/>
    <path fill="#fff" d="M23.81 12.1c-4.9-2.78-7.17.03-9.4 2.12 2.56 2.03 5.43 4.5 9.4 1.84"/>
    <path d="M.07 4.76c3.02-1.44 5.52-.63 7.87.72h0m7.94 0c2.1-1.46 4.76-1.82 7.9-1.02M10.01 16.73c-.24 3.31-.16 4.82-1.44 7.34" fill="none"/>
    <path fill="#fff" d="M0 16.06c2.65 1.33 5.3 2.65 9.63-1.9-2.18-3-5.57-4.35-9.63-2.07"/>
  </g>
  <g clip-path="url(#a)" transform="translate(-166.5 -230.34)">
    <use xlink:href="#b"/>
    <path d="M172.35 241.7c0 .16-.02.32-.06.46s-.08.27-.15.37a.73.73 0 01-.26.24.76.76 0 01-.37.08.8.8 0 01-.33-.07.66.66 0 01-.25-.2c-.07-.1-.13-.22-.17-.37a2.08 2.08 0 01-.05-.52c0-.17.01-.33.05-.47.18-.8 1.26-.59 1.53-.05a2.08 2.08 0 01.05.52zm-.3 0l-.01-.11-.01-.12-.95.71a.88.88 0 00.06.17l.1.13a.45.45 0 00.12.08c.05.02.1.03.17.03a.41.41 0 00.2-.06.47.47 0 00.17-.17.89.89 0 00.1-.27 1.84 1.84 0 00.04-.39zm-1.04-.02v.1l.01.11.95-.7c-.17-.45-.5-.42-.82-.17a.89.89 0 00-.1.28 1.9 1.9 0 00-.04.38zm-1.57 3.97h-1.41v-.28h.58v-1.64l-.54.3-.1-.26.72-.38h.26v1.98h.5zm2.74 0h-1.42v-.28h.59v-1.64l-.54.3-.1-.26.71-.38h.27v1.98h.5z"/>
    <use xlink:href="#c"/>
    <path d="M169.8 247.27q0 .25-.05.47-.05.21-.16.36-.1.16-.26.24-.16.08-.37.08-.18 0-.33-.06-.14-.07-.25-.2-.1-.14-.16-.36-.06-.22-.06-.52 0-.26.05-.48.06-.21.16-.36t.26-.24q.16-.08.37-.08.18 0 .33.07.15.07.25.2.1.14.16.36.06.22.06.52zm-.3 0v-.1l-.02-.12-.95.7.06.17q.04.08.1.13.06.05.13.08t.16.03q.12 0 .21-.05.1-.06.17-.17.06-.11.1-.28.03-.17.03-.38zm-1.03-.01v.2l.96-.7-.07-.16q-.04-.07-.1-.12-.05-.06-.12-.09-.07-.03-.16-.03-.11 0-.21.06-.1.06-.16.17-.07.11-.1.28-.04.17-.04.39zm4 1.13h-1.42v-.28h.58v-1.64l-.54.3-.1-.26.72-.38h.26v1.98h.5z"/>
  </g>
  <g clip-path="url(#d)" transform="translate(-166.5 -230.34)">
    <path d="M184.9 245.7h-1.42v-.28h.58v-1.64l-.54.29-.1-.26.72-.37h.26v1.98h.5zm2.8-1.13q0 .26-.05.48-.05.2-.16.36-.1.15-.26.24-.15.08-.36.08-.18 0-.33-.07-.15-.07-.26-.2-.1-.14-.16-.36-.06-.22-.06-.52 0-.26.06-.47.05-.21.15-.36.1-.16.26-.24.16-.08.37-.08.18 0 .33.07.15.06.25.2t.17.36q.05.22.05.52zm-.3.01v-.11l-.02-.12-.95.71q.03.1.07.17.04.07.1.13.05.05.12.08.07.03.16.03.12 0 .21-.06.1-.05.17-.17.06-.1.1-.27.04-.17.04-.39zm-1.03-.02V244.77l.96-.7-.07-.16q-.04-.07-.1-.13-.05-.05-.12-.08-.07-.03-.15-.03-.12 0-.22.06t-.16.17q-.07.11-.1.28-.04.16-.04.38zm4 1.14h-1.42v-.28h.59v-1.64l-.54.29-.1-.26.71-.37h.27v1.98h.5zm-5.45-4q0 .25-.05.46-.05.22-.16.37-.1.15-.26.23-.16.09-.37.09-.18 0-.33-.07-.15-.07-.25-.2-.1-.14-.16-.36-.06-.22-.06-.52 0-.26.05-.47.06-.22.16-.37t.26-.23q.16-.09.37-.09.18 0 .33.07.15.07.25.2.1.14.16.36.06.22.06.52zm-.3 0v-.11l-.02-.12-.95.71q.02.1.06.17.04.07.1.13.06.05.13.08t.16.03q.12 0 .21-.06.1-.05.17-.17.06-.1.1-.27.03-.17.03-.39zm-1.03-.02V241.9l.96-.7q-.03-.1-.07-.16-.04-.08-.1-.13-.05-.05-.12-.08-.07-.03-.16-.03-.11 0-.21.06-.1.05-.16.17-.07.1-.1.28-.04.16-.04.38zm4 1.14h-1.42v-.28h.58v-1.65l-.54.3-.1-.26.72-.38h.26v1.99h.5zm2.73 0h-1.41v-.28h.58v-1.65l-.54.3-.1-.26.72-.38h.26v1.99h.5zm-5.1 5.52h-1.4v-.28h.57v-1.64l-.54.3-.1-.26.72-.38h.27v1.99h.5zm2.74 0h-1.41v-.28h.58v-1.64l-.54.3-.1-.26.72-.38h.26v1.99h.5zM190.77 247.22q0 .26-.05.47-.05.21-.16.37-.1.15-.26.23-.16.09-.37.09-.18 0-.33-.07-.14-.07-.25-.2-.1-.14-.16-.36-.06-.22-.06-.52 0-.26.05-.47.06-.22.16-.37t.26-.23q.16-.09.37-.09.18 0 .33.07.15.07.25.2.1.14.16.36.06.22.06.52zm-.3.01v-.12l-.02-.1-.95.7.06.16q.04.08.1.13.06.06.13.09t.16.03q.12 0 .21-.06.1-.06.17-.17.06-.11.1-.28.03-.16.03-.38zm-1.03-.02V247.42l.96-.7q-.03-.1-.07-.17-.04-.07-.1-.12-.05-.05-.12-.08-.07-.03-.16-.03-.11 0-.21.05-.1.06-.16.17-.07.12-.1.28-.04.17-.04.39z"/>
  </g>
</svg>