<svg
  xmlns="http://www.w3.org/2000/svg" viewBox="0 0 121 362.3" fill="#fff">
  <path d="M20 26.7c-3.7-5-5.1 1.6-5 10.6.2 6 3 20.3 4.4 26.7s4.4 13.7 7.4 29.7 31.5 9.5 23.7-11.2c-9.4-25-27-51-30.6-55.8"/>
  <path d="M20 26.7c-3.7-5-5.1 1.6-5 10.6.2 6 3 20.3 4.4 26.7s4.4 13.7 7.4 29.7 31.5 9.5 23.7-11.2c-9.4-25-27-51-30.6-55.8z" fill="none" stroke="#010111"/>
  <path d="M92.8 153.5l-71.4-11.4a3.9 3.9 0 01-3.2-4.4L39.6 3.3A3.9 3.9 0 0144 0l71.5 11.4c2 .4 3.5 2.4 3.2 4.5L97.2 150.3a3.9 3.9 0 01-4.4 3.2" fill="#010111"/>
  <path d="M53.2 138.2A5 5 0 0159 134a5 5 0 014.2 5.7 5 5 0 01-5.7 4.2 5 5 0 01-4.2-5.7"/>
  <path d="M53.2 138.2A5 5 0 0159 134a5 5 0 014.2 5.7 5 5 0 01-5.7 4.2 5 5 0 01-4.2-5.7z" stroke-width=".5" fill="none" stroke="#010111"/>
  <path d="M23.9 125.2L95 136.5 113.3 22 42 10.7z" fill="#010111"/>
  <path d="M23.9 125.2L95 136.5 113.3 22 42 10.7z" fill="none" stroke="#fff" stroke-width=".5"/>
  <path d="M76.9 10.4a2 2 0 014 .6 2 2 0 11-4-.6"/>
  <path d="M76.9 10.4a2 2 0 014 .6 2 2 0 11-4-.6z" stroke-width=".5" fill="none" stroke="#010111"/>
  <path d="M51.8 63.9l36.8 5.8L94.5 33l-36.8-5.8z" fill="#010111"/>
  <path d="M51.8 63.9l36.8 5.8L94.5 33l-36.8-5.8z" fill="none" stroke="#fff" stroke-width=".5"/>
  <path d="M51.9 91l6 1 .1-.9-6-1zm4.4-4.6l-1.1-.1-4 6.9L50 93l4.4-7.7 3 .5 1.6 8.6-1.2-.2zm6 9l1.2-8.2 1.1.2-1.1 7.3 5.4.9-.2.8zm9 1.2l1.3-8.2 7.4 1.2-.1.8-6.2-1-.5 3 5.8.8-.2.9-5.7-1-.4 2.8 6.1 1-.1.8zm12.7.9l1 .6 1.2.4h2.3c.6-.2.9-.5 1-1 0-.3 0-.5-.3-.8l-.8-.6-1.7-.8-.3-.2H86l-1.5-1-1-.8c-.2-.3-.2-.8-.2-1.2.1-.5.4-1 .8-1.2s.9-.5 1.5-.6 1.3 0 2 .1l1.6.4a4.4 4.4 0 011.2.7 3.7 3.7 0 01.7.8l-1 .5a3.6 3.6 0 00-.6-.6 4.1 4.1 0 00-2-.9h-2c-.5 0-1 .5-1 1 0 .2 0 .4.2.7s.5.4.9.6a14.3 14.3 0 001.4.7h.1a.9.9 0 00.2.1l1.8 1c.5.3.9.6 1.1 1a1.7 1.7 0 01.3 1.2c0 .6-.3 1-.7 1.3s-1 .5-1.6.6-1.4 0-2.2-.1c-1-.2-1.7-.4-2.3-.8s-1.1-.8-1.5-1.4l1-.4.7.7M50.5 108c-.6.2-1.4.2-2.2 0-.9-.1-1.6-.4-2.3-.8s-1-1-1.3-1.8-.4-1.6-.2-2.6.5-1.8 1-2.4 1.1-1 1.9-1.2 1.5-.3 2.3-.2c.7.1 1.2.3 1.6.5l1 .8a5.3 5.3 0 01.8 1l-1 .5v-.1c-.3-.5-.7-.9-1-1.1s-.9-.5-1.5-.6c-.7-.2-1.3-.1-1.8 0s-1 .6-1.4 1.1-.6 1.1-.7 1.9c-.2.8-.1 1.5 0 2s.6 1.1 1 1.4 1 .6 1.7.7c.6.1 1.2.1 1.6 0s.9-.5 1.2-.7h.1a.4.4 0 000-.2l1 .8c-.6.5-1.2.8-1.8 1m6-1.3l6 1v-.9l-5.9-1zm4.3-4.6l-1-.1-4 6.9-1.2-.2L59 101l3 .5 1.7 8.6-1.2-.2zm5.7 7.8l1.3-8.2 1.2.2-1.2 7.4 5.4.8-.1.8zm9.5 2.2l1.3-8.2 1.1.2-1.2 7.3 5.4 1-.1.7z"/>
  <path d="M78.2 32.6L77 37.2l-5.2-.9.2-4.7" fill="#010111"/>
  <path d="M78.2 32.6L77 37.2l-5.2-.9.2-4.7" stroke="#fff" stroke-width=".5" fill="none"/>
  <g fill="#010111">
    <path d="M77.3 42.4l2.2 8.5-.8 2.3-1.9-.9"/>
    <path d="M77.3 42.4l2.2 8.5-.8 2.3-1.9-.9" stroke="#fff" stroke-width=".5"/>
  </g>
  <path d="M77 37l-1 28-7.4 6-4.8-8 7.8-26.8z" fill="#010111"/>
  <path d="M77 37l-1 28-7.4 6-4.8-8 7.8-26.8zm-2.8-7L68 35.7l-11-8.5m19.8 3l4.2 7.4L94 33" fill="none" stroke="#fff" stroke-width=".5"/>
  <path d="M54.4 69.4c3.9.2 1.8 3.7-2.3 5.2-2.8 1-27.1 17-27.5 19.5-2.3 14.4-7.9 5.5-16 5.8S-2.8 80.4 4.8 77.8c14-4.8 45.7-8.5 49.6-8.4"/>
  <path d="M54.4 69.4c3.9.2 1.8 3.7-2.3 5.2-2.8 1-27.1 17-27.5 19.5-2.3 14.4-7.9 5.5-16 5.8S-2.8 80.4 4.8 77.8c14-4.8 45.7-8.5 49.6-8.4z" fill="none" stroke="#010111"/>
  <path d="M59.5 88.8c3.9 0 1.9 3.6-2.3 5-2.7 1-35.1 15-35.5 17.5-1 6.3-1.8 15.6-10 15.9s-15.1-28.5-7.5-31c13.8-4.8 51.4-7.6 55.3-7.4"/>
  <path d="M59.5 88.8c3.9 0 1.9 3.6-2.3 5-2.7 1-35.1 15-35.5 17.5-1 6.3-1.8 15.6-10 15.9s-15.1-28.5-7.5-31c13.8-4.8 51.4-7.6 55.3-7.4z" fill="none" stroke="#010111"/>
  <path d="M50.4 109.3c-2.7 2.5-30.5 21.7-30.5 21.7-1.7 2.6-.7 1-2 9-.2 1 29 4.6 49 8.6 20.1 4 51.6 208.6 53.4 213.2H16.7c1.2-5.9 5-184.5 4.8-185.1-1-2.1-23.2-53.7-18.6-59.9 2.9-3.9 39.9-10.8 46-12.5 4.5-1.3 5 1.6 1.5 5z"/>
  <g stroke="#010111">
    <path d="M16.7 361.7c1.2-5.8 5-184.4 4.8-185-1-2.1-23.2-53.7-18.6-59.9 2.9-3.9 39.9-10.8 46-12.5 4.5-1.3 5 1.6 1.5 5-2.7 2.5-30.5 21.7-30.5 21.7-1.7 2.6-.7 1-2 9-.2 1 29 4.6 49 8.6 20.1 4 51.6 208.6 53.4 213.2z" fill="none"/>
    <path d="M120.3 361.8L90 176.2l16.8-30.4c2.2-4.6 2.4-16.2-4.5-29.4 0 0-16-37.4-19.5-33.1s5.2 43.3 1.2 49.2c-4.8 7-22.4 18.4-25 24.1"/>
  </g>
  <path d="M90 176.2l-11.6 24 12.9-13.4z" fill="#010111"/>
</svg>