<?xml version="1.0" encoding="UTF-8" standalone="no"?>
<svg
   xmlns:dc="http://purl.org/dc/elements/1.1/"
   xmlns:cc="http://creativecommons.org/ns#"
   xmlns:rdf="http://www.w3.org/1999/02/22-rdf-syntax-ns#"
   xmlns:svg="http://www.w3.org/2000/svg"
   xmlns="http://www.w3.org/2000/svg"
   xmlns:xlink="http://www.w3.org/1999/xlink"
   xmlns:sodipodi="http://sodipodi.sourceforge.net/DTD/sodipodi-0.dtd"
   xmlns:inkscape="http://www.inkscape.org/namespaces/inkscape"
   inkscape:version="1.0 (4035a4fb49, 2020-05-01)"
   sodipodi:docname="img-dashboard.svg"
   id="svg937"
   version="1.1"
   viewBox="0 0 496 242"
   aria-label="One of the greatest websites ever made.">
  <metadata
     id="metadata941">
    <rdf:RDF>
      <cc:Work
         rdf:about="">
        <dc:format>image/svg+xml</dc:format>
        <dc:type
           rdf:resource="http://purl.org/dc/dcmitype/StillImage" />
        <dc:title></dc:title>
      </cc:Work>
    </rdf:RDF>
  </metadata>
  <sodipodi:namedview
     inkscape:guide-bbox="true"
     showguides="true"
     inkscape:current-layer="svg937"
     inkscape:window-maximized="1"
     inkscape:window-y="-9"
     inkscape:window-x="-9"
     inkscape:cy="96.846774"
     inkscape:cx="229.44476"
     inkscape:zoom="1.6564544"
     showgrid="true"
     id="namedview939"
     inkscape:window-height="1001"
     inkscape:window-width="1920"
     inkscape:pageshadow="2"
     inkscape:pageopacity="0"
     guidetolerance="10"
     gridtolerance="10"
     objecttolerance="10"
     borderopacity="1"
     bordercolor="#666666"
     pagecolor="#ffffff">
    <inkscape:grid
       id="grid1003"
       type="xygrid" />
  </sodipodi:namedview>
  <defs
     id="defs891">
    <inkscape:path-effect
       overflow_perspective="false"
       vertical_mirror="false"
       horizontal_mirror="false"
       deform_type="perspective"
       lpeversion="1"
       is_visible="true"
       id="path-effect1095"
       down_right_point="136.39125,155.77274"
       down_left_point="64.416003,178.11826"
       up_right_point="136.39125,35.106955"
       up_left_point="64.414697,48.8896"
       effect="perspective-envelope" />
    <path
       id="a"
       d="M0 240h494V0H0z" />
    <path
       id="b"
       d="M0 .3h246.8V191H0z" />
    <path
       id="c"
       d="M285.7.2c-16 18-197.4 145.6-197.4 145.6s-33.6-3.5-42 .7C25.6 156.5-5.2 171.4.9 177c2.3 2.2 33.6-7 44.2-10.7 11.2-4 23-1.7 27.8 3.2.8.8.5 2-.6 2.4-7 2.4-22.1 2-31 3.4-7 1-.3 6.1 5.3 8.4a97 97 0 0 0 34.6 4.9c13-2.2 30-11.3 55.3-23.1l181.3-85.6" />
  </defs>
  <use
     id="use893"
     height="100%"
     width="100%"
     xlink:href="#a"
     fill="#d7f2db"
     transform="translate(1 1)" />
  <path
     id="path895"
     d="M59.5 36.5c-7 1.2-8.5 3.4-8.5 6l.7 155c0 .8 0 3.2 1.7 4.3 1.2.8 2.6 1.2 6.8 1.7 10.6 1.4 137.8 9.8 137.8 9.8s8.3.6 13-1.4c4.2-1.7 84.4-31.7 85.8-33.7 1.4-2 1.8-4-1.4-4.4-3.2-.4-148.4-9-148.4-9l-.7-139.2c0-2.9-3.5-3.3-5.7-2.8l-81 13.7z" />
  <path
     id="path897"
     fill="none"
     d="m143 161.3-86.7 29.8-.4-148.5 87.8-16Z" />
  <path
     id="path899"
     stroke="#feffff"
     fill="none"
     d="m143 161.3-86.7 29.8-.4-149 87.8-15.5Z" />
  <path
     id="path901"
     fill="none"
     d="m148.6 27.7-93 15.6" />
  <path
     id="path903"
     d="M256.8 173.8c-3.5 1.8 5.1 4.5 8.5 4.7l36.4 2.2s21.7-6.8 31-6.7c5.4.1 23.5-2.2 16.5-9.2-5.3-5.3-38.4-1.2-43.8.4-14.7 4.5-45.2 6.9-48.6 8.6"
     fill="#fff" />
  <path
     id="path905"
     fill="none"
     d="M256.8 173.8c-3.5 1.8 5.1 4.5 8.5 4.7l36.4 2.2s21.7-6.8 31-6.7c5.4.1 23.5-2.2 16.5-9.2-5.3-5.3-38.4-1.2-43.8.4-14.7 4.5-45.2 6.9-48.6 8.6z"
     stroke="#010111"
     stroke-width=".9" />
  <path
     id="path907"
     d="M229.1 162.3c-3.4 1.7 5.2 4.4 8.6 4.6l36.4 1.9s21.8 9.6 31.2 9.7c5.3 0 23.4-2.4 16.3-9.4-5.3-5.3-38.5-17.5-43.9-15.8-14.7 4.6-45.1 7.2-48.6 9"
     fill="#fff" />
  <path
     id="path909"
     fill="none"
     d="M229.1 162.3c-3.4 1.7 5.2 4.4 8.6 4.6l36.4 1.9s21.8 9.6 31.2 9.7c5.3 0 23.4-2.4 16.3-9.4-5.3-5.3-38.5-17.5-43.9-15.8-14.7 4.6-45.1 7.2-48.6 9z"
     stroke="#010111" />
  <g
     id="g915"
     fill="#010111">
    <path
       id="path911"
       d="M309.3 181.9c1.5-.3-2.3-6.4-1.8-8.2.5-1.8-2.1-4-2.1-4s-7.8-10.6-20.5-7.6-27.6 2.1-27.6 6.6c0 4.3-1.2 9.3 8 9.8 13 .8 40.7 4 44 3.4" />
    <path
       id="path913"
       d="m244.4 159.5 39 12.1 6.7-9.5-24.9-5.5z" />
  </g>
  <path
     id="path917"
     d="M235.1 144.8c-5.3-1-4 2.4.6 6.3 19.1 8.8 42.3 13.4 42.3 13.4s26.8 14.2 35.5 17.6c5 1.9 14 1.7 9.8-7.3-3.2-6.8-33.2-20.8-38.8-21.5-16-2-45.6-7.7-49.4-8.5"
     fill="#fff" />
  <path
     id="path919"
     fill="#35353a"
     d="m197.5 197.7 22.6 1 35-12-24.2-.8z" />
  <path
     id="path921"
     stroke="#fff"
     fill="none"
     d="m75.2 198.3 74.4-27.3m-62.2 28 74.3-27.3m-62 28.1 74-27.4m-61.8 28.2 73.8-27.5m-61.6 28.2 73.6-27.5M136.3 202l73.4-27.5m-61.1 28.2 73.2-27.5m-61 28.3 73-27.6M75.2 198.3l73.7 4.5m-65.5-7.5 73.5 4.4m-65.2-7.4 73.3 4.3m-65-7.3 73 4.4m-64.7-7.4 72.8 4.3m-64.6-7.3 72.7 4.2m-64.4-7.3 72.4 4.3m-64.1-7.3 72.2 4.2m-64-7.2 72 4.1m-63.7-7.2 71.8 4.2M51.7 198.6l95.3-34" />
  <path
     id="path923"
     fill="none"
     d="M235.1 144.8c-5.3-1-4 2.4.6 6.3 19.1 8.8 42.3 13.4 42.3 13.4s26.8 14.2 35.5 17.6c5 1.9 14 1.7 9.8-7.3-3.2-6.8-33.2-20.8-38.8-21.5-16-2-45.6-7.7-49.4-8.5z"
     stroke="#010111" />
  <g
     id="g931"
     fill="none"
     transform="translate(225 10.3)">
    <use
       id="use925"
       xlink:href="#c"
       fill="#fff"
       width="100%"
       height="100%" />
    <use
       id="use927"
       xlink:href="#c"
       stroke="#010111"
       width="100%"
       height="100%" />
    <path
       id="path929"
       d="m65.7 165.5 16.7 5.6-19.8 2.5 9.7-1.7s2-.4.6-2.4m40.3 7 202.6-103 2 6.4z"
       fill="#010111" />
  </g>
  <path
     id="path933"
     fill="none"
     d="M1 241h494V1H1Z"
     stroke="#010111" />
  <path
     inkscape:original-d="m 83.588695,173.33202 h 15.978332 m 9.586993,0 h 12.78267 m -12.78267,-4.78625 h 22.36967 M 83.588695,154.18701 h 14.380496 m 11.150719,4.78625 h 16.01245 m -16.01245,-4.78625 h 12.81678 m -12.78267,9.57249 h 19.174 m -19.174,-14.35872 h 17.57618 m -17.57618,-4.78624 h 19.174 m -19.20811,-4.78625 h 16.01245 m -16.01245,-4.78623 h 22.40378 m -23.9675,-4.78628 h 27.16317 v 47.86248 h -27.16317 z m -43.141493,0 h 41.543663 v 47.86248 H 64.414697 Z m 19.173998,38.28999 h 7.989169 M 83.588695,163.7595 H 99.567028 M 83.588695,158.97326 H 102.7627 m -19.174005,-9.57248 h 17.576165 m -17.576165,-4.78624 h 20.771835 m -20.771835,-4.78625 h 17.576165 m -17.576165,-4.78623 h 7.989169 m 29.612056,-46.420399 -6.34337,16.345209 m 6.34337,-16.345209 -6.95724,-17.979737 m 7.23006,-10.420073 -0.27282,28.39981 -3.13758,-26.765287 m 11.8617,24.787082 a 8.8329692,26.458814 0 0 1 -8.83297,26.458804 8.8329692,26.458814 0 0 1 -8.83297,-26.458804 8.8329692,26.458814 0 0 1 8.83297,-26.458811 8.8329692,26.458814 0 0 1 8.83297,26.458811 z m -63.901508,-9.036376 3.195663,23.93124 3.195665,-19.144994 3.195671,-4.786246 3.195663,23.93124 3.195672,-23.93124 3.195664,9.572494 3.195663,14.358746 3.195671,-14.358746 3.195664,14.358746 h 3.195663 l 1.597836,-19.144994 4.793503,9.572496 m -38.347998,4.78624 3.195663,19.144988 3.195665,-23.931228 3.195671,4.78624 3.195663,14.358748 3.195672,-19.144988 3.195664,4.78624 3.195663,14.358748 3.195671,-14.358748 3.195664,14.358748 3.195663,-4.78625 1.597837,-9.572498 h 4.793502 M 107.55619,48.8896 h 27.16317 v 76.57994 h -27.16317 z m -43.141493,0 h 41.543663 v 76.57994 H 64.414697 Z"
     inkscape:path-effect="#path-effect1095"
     d="m 85.039457,167.02018 16.597333,-5.07969 m 9.71251,-2.97256 12.67367,-3.87884 m -12.67369,-0.70054 21.97792,-6.62961 m -48.287879,0.47998 14.960939,-4.31517 m 11.31475,1.31604 15.82821,-4.63506 m -15.82822,0.0555 12.70793,-3.66535 m -12.67366,12.81425 18.8953,-5.61649 m -18.89535,-8.12167 17.34703,-4.92696 m -17.34705,0.34756 18.89536,-5.28346 m -18.92961,0.71347 15.82824,-4.3561 m -15.82826,-0.22345 22.01226,-5.961 m -23.58428,1.80017 26.64834,-7.09905 v 44.69057 l -26.64817,8.27322 z m -45.327391,12.07511 43.716161,-11.64588 1.9e-4,45.93573 -43.715867,13.57208 z m 20.623904,32.06855 8.363811,-2.52293 m -8.363845,-2.1724 16.597351,-4.93343 m -16.597385,0.23812 19.854995,-5.81425 m -19.855063,-3.57638 18.228733,-5.17738 m -18.228767,0.48206 21.476267,-6.00512 m -21.4763,1.30978 18.22876,-5.01674 m -18.228794,0.32141 8.363851,-2.26496 m 29.887883,-51.998155 -6.25937,16.981106 m 6.25937,-16.981106 -6.86926,-15.552425 m 7.13673,-11.362376 -0.26747,26.914801 -3.08661,-24.686946 m 11.57246,20.896058 c 1e-5,13.70668 -3.82918,25.777714 -8.59257,26.971444 -4.80798,1.204905 -8.73879,-9.110445 -8.73884,-23.050279 -4e-5,-13.939891 3.93074,-26.034024 8.73874,-27.004696 4.76343,-0.961674 8.59266,9.376797 8.59267,23.083531 z m -65.612689,5.822694 3.481559,23.057489 3.458876,-19.821984 3.436955,-5.497017 3.415318,22.844749 3.393306,-24.32853 3.372106,8.641136 3.350885,13.259898 3.32967,-14.774646 3.308989,13.181639 L 100,92.999999 l 1.63636,-18.881761 4.87895,8.116811 m -40.35104,14.105557 3.481504,18.232804 3.458826,-24.615604 3.43703,3.938386 3.415234,13.348908 3.393336,-19.655525 3.372066,3.908542 3.35088,13.230333 3.329666,-14.803953 3.308984,13.152443 3.288224,-5.447484 1.63641,-9.644409 4.8789,-1.149237 m 3.22728,-46.625961 26.64864,-5.102894 0,71.506135 -26.64836,6.98164 z m -45.327913,8.679751 43.716673,-8.371218 2.9e-4,73.498468 -43.716189,11.45326 z"
     style="fill:none;stroke:#ffffff;stroke-width:0.553086px;stroke-linecap:butt;stroke-linejoin:miter;stroke-opacity:1"
     id="path1015" />
</svg>
