<svg xmlns="http://www.w3.org/2000/svg" height="242" width="496" viewBox="0 0 496 242" aria-label="One of the greatest websites ever made.">
  <style>
      @-webkit-keyframes web-browse {
        0%,100% { transform: translate(0, 0); }
        40%     { transform: translate(-4%, 4%); }
        60%     { transform: translate(0, 3%); }
        80%     { transform: translate(1%, 1%); }
      }
      @keyframes web-browse {
        0%,100% { transform: translate(0, 0); }
        40%     { transform: translate(-4%, 4%); }
        60%     { transform: translate(0, 3%); }
        80%     { transform: translate(1%, 1%); }
      }
      .laptop-arm {
         -webkit-animation: 2s ease 0s infinite running web-browse;
                 animation: 2s ease 0s infinite running web-browse;
         animation-play-state: paused;
      }
      @-webkit-keyframes finger-wiggle {
        0%   { transform: rotate(-6deg); }
        100% { transform: rotate(4deg); }
      }
      @keyframes finger-wiggle {
        0%   { transform: rotate(-6deg); }
        100% { transform: rotate(4deg); }
      }
      .laptop-fingers {
         -webkit-animation: .4s ease 0s infinite alternate finger-wiggle;
                 animation: .4s ease 0s infinite alternate finger-wiggle;
         animation-play-state: paused;
         transform-origin: 60% 80%;
      }
      .scrolling .laptop-fingers, .scrolling .laptop-arm { animation-play-state: running; }
    </style>
 <rect fill="#d7f2db" height="242" width="496"/><path d="m 59.5,36.5 c -7,1.2 -8.5,3.4 -8.5,6 l 0.7,155 c 0,0.8 0,3.2 1.7,4.3 1.2,0.8 2.6,1.2 6.8,1.7 10.6,1.4 137.8,9.8 137.8,9.8 0,0 8.3,0.6 13,-1.4 4.2,-1.7 84.4,-31.7 85.8,-33.7 1.4,-2 1.8,-4 -1.4,-4.4 -3.2,-0.4 -148.4,-9 -148.4,-9 L 146.3,25.6 c 0,-2.9 -3.5,-3.3 -5.7,-2.8 l -81,13.7 z"/><path fill="#35353a" d="m 197.5,197.7 22.6,1 35,-12 -24.2,-0.8 z"/><path stroke="#fff" d="M 75.2,198.3 149.6,171 m -62.2,28 74.3,-27.3 m -62,28.1 74,-27.4 m -61.8,28.2 73.8,-27.5 m -61.6,28.2 73.6,-27.5 m -61.4,28.2 73.4,-27.5 m -61.1,28.2 73.2,-27.5 m -61,28.3 73,-27.6 m -182.1,22.7 95.3,-34 m -4,-3.3 -86.7,29.8 -0.4,-149 87.8,-15.5 z m -67.8,37 73.7,4.5 m -65.5,-7.5 73.5,4.4 m -65.2,-7.4 73.3,4.3 m -65,-7.3 73,4.4 m -64.7,-7.4 72.8,4.3 m -64.6,-7.3 72.7,4.2 m -64.4,-7.3 72.4,4.3 m -64.1,-7.3 72.2,4.2 m -64,-7.2 72,4.1 m -63.7,-7.2 71.8,4.2 m -78.4,-14 -86.7,29.8 -0.4,-148.5 87.8,-16 z"/><g class="laptop-arm"><g class="laptop-fingers"><path stroke="#010111" d="M220.7 159.8c-3.4 1.7 5.2 4.4 8.6 4.6l36.4 1.9c10.7 0 36.7 1.9 29.1-6.1-5.3-5.3-20.1-11.1-25.5-9.4-14.7 4.6-45.1 7.2-48.6 9z" fill="#fff"/><path stroke="#010111" d="M224.6 141.3c-5.3-1-4 2.4.6 6.3a219.9 219.9 0 0042.3 13.4s25.3 7.7 28.2-2.4c-3.3-7.3-11-4.3-21.7-8.8-16-2-45.6-7.7-49.4-8.5z" fill="#fff"/></g><path stroke="#010111" fill="#fff" d="M656.2-90.4c-16 18-342.9 246.5-342.9 246.5s-33.6-3.5-42 .7c-20.7 10-51.5 24.9-45.4 30.5 2.3 2.2 33.6-7 44.2-10.7 11.2-4 23-1.7 27.8 3.2.8.8.5 2-.6 2.4-7 2.4-22.1 2-31 3.4-7 1-.3 6.1 5.3 8.4a97 97 0 0034.6 4.9c13-2.2 30-11.3 55.3-23.1L657 35.3"/><path d="M338.2 186.8l317-166.9 1.8 15.4z"/></g><rect stroke="#010111" fill="none" height="242" width="496"/><path d="m 122.0817,111.44073 a 1.7,1.7 0 0 0 0.7,0.3 h 0.7 c 0.6,-0.1 1,-0.4 1.3,-0.7 a 1.8,1.8 0 0 0 0.5,-1.2 c 0,-0.3 0,-0.6 -0.2,-0.7 a 1.2,1.2 0 0 0 -0.6,-0.4 l -1,-0.3 a 1,1 0 0 0 -0.2,0 0.9,0.9 0 0 1 -0.1,0 l -1,-0.5 c -0.3,-0.2 -0.6,-0.4 -0.7,-0.7 -0.1,-0.3 -0.3,-0.7 -0.3,-1.3 0,-0.6 0.1,-1.1 0.3,-1.6 0.2,-0.5 0.6,-0.8 1,-1.1 a 3.4,3.4 0 0 1 1.2,-0.7 h 1 c 0.3,0 0.6,0.1 0.8,0.3 a 2.1,2.1 0 0 1 0.5,0.7 l -0.7,1 a 2.6,2.6 0 0 0 -0.4,-0.4 0.5,0.5 0 0 0 -0.5,-0.3 1.3,1.3 0 0 0 -0.7,0 2.5,2.5 0 0 0 -1.2,0.7 c -0.3,0.3 -0.4,0.7 -0.4,1.1 0,0.3 0,0.5 0.2,0.7 a 1.3,1.3 0 0 0 0.5,0.4 l 0.9,0.3 h 0.2 c 0.5,0 0.9,0.2 1.2,0.4 l 0.7,0.7 c 0.2,0.3 0.3,0.8 0.3,1.3 0,0.7 0,1.3 -0.3,1.8 -0.3,0.5 -0.5,0.8 -1,1.1 l -1.2,0.7 c -0.7,0.2 -1.2,0.1 -1.6,0 -0.4,-0.1 -0.7,-0.6 -1,-1 l 0.7,-1 0.5,0.4 M 70.5,89.3 c 0.3,-0.4 0.6,-0.9 0.8,-1.6 a 9,9 0 0 0 0.3,-2.5 c 0,-1 -0.1,-1.7 -0.3,-2.3 -0.2,-0.6 -0.5,-1 -0.8,-1.2 a 1.2,1.2 0 0 0 -1,-0.2 l -1,0.7 C 68.2,82.6 68,83 67.8,83.7 a 9,9 0 0 0 -0.3,2.5 c 0,1 0,1.8 0.3,2.3 0.3,0.5 0.5,1 0.8,1.2 a 1.2,1.2 0 0 0 1,0.2 2,2 0 0 0 0.9,-0.7 M 68.1,91 c -0.4,-0.2 -0.8,-0.7 -1,-1.5 -0.2,-0.8 -0.5,-1.8 -0.5,-3.1 0,-1.3 0.2,-2.5 0.4,-3.3 0.2,-0.8 0.7,-1.6 1.1,-2 0.4,-0.4 1,-0.7 1.4,-0.8 a 2,2 0 0 1 1.4,0.2 c 0.5,0.2 0.8,0.7 1.1,1.4 a 11,11 0 0 1 0,6.5 c -0.3,0.9 -0.6,1.5 -1,2 -0.4,0.5 -1,0.6 -1.4,0.8 A 2,2 0 0 1 68.1,91 m 11,-12.8 v 10.5 l -1,0.2 -3.3,-8.2 0.1,-0.1 v 9.1 l -0.8,0.2 V 79.3 l 1,-0.2 3.4,8.4 h -0.2 v -9.1 z m 3,0.5 v 3.6 l 3.5,-0.8 v 1.2 l -3.4,0.8 v 3.3 l 3.7,-0.9 v 1.3 l -4.6,1 V 77.8 l 4.6,-1 V 78 Z M 96.7,83 c 0.3,-0.3 0.5,-0.8 0.7,-1.4 0.2,-0.6 0.3,-1.5 0.3,-2.5 0,-1 0,-1.7 -0.3,-2.2 -0.3,-0.5 -0.4,-1 -0.7,-1.2 -0.3,-0.2 -0.6,-0.2 -0.9,-0.2 l -0.9,0.6 c -0.3,0.3 -0.5,0.8 -0.7,1.5 -0.2,0.7 -0.3,1.5 -0.3,2.4 0,0.9 0,1.8 0.3,2.3 0.3,0.5 0.4,1 0.7,1.2 a 1.1,1.1 0 0 0 1,0.1 c 0.2,0 0.5,-0.2 0.8,-0.6 m -2.2,1.7 c -0.4,-0.2 -0.8,-0.7 -1,-1.4 -0.2,-0.7 -0.4,-1.8 -0.4,-3 0,-1.2 0.1,-2.5 0.4,-3.3 0.3,-0.8 0.6,-1.5 1,-2 0.4,-0.5 0.9,-0.6 1.3,-0.7 a 1.8,1.8 0 0 1 1.3,0.2 c 0.5,0.2 0.8,0.7 1,1.4 0.2,0.7 0.5,1.7 0.5,3 0,1.3 -0.2,2.4 -0.4,3.3 -0.2,0.9 -0.6,1.5 -1,1.9 -0.4,0.4 -1,0.7 -1.4,0.8 a 2,2 0 0 1 -1.3,-0.2 m 7.1,-10.4 v 3.4 l 3.2,-0.7 v 1.2 l -3.2,0.8 v 4.3 l -0.8,0.2 V 73.3 l 4.2,-1 v 1.2 z m 15.2,-3.5 -2.1,0.5 v 9 l -0.8,0.1 v -8.9 l -2.1,0.5 v -1.2 l 5,-1.2 z m 6,-2.5 v 10 l -0.7,0.2 v -4.6 l -3,0.6 v 4.8 l -0.8,0.2 V 69.3 l 0.9,-0.2 v 4.2 l 2.9,-0.6 v -4.4 z m 2.9,0.5 v 3.3 l 3,-0.7 v 1.2 l -3,0.7 v 3 l 3.3,-0.8 v 1.2 l -4.1,1 v -10 l 4.1,-1 v 1.2 z m -47.4,32.5 v 1 c 0,1 -0.1,2 -0.3,2.8 -0.2,0.8 -0.6,1.5 -1,1.9 -0.4,0.4 -0.8,0.7 -1.2,0.8 -0.8,0.2 -1.5,0 -2,-0.7 -0.5,-0.7 -0.8,-2 -0.8,-4 0,-1.3 0,-2.4 0.4,-3.2 0.4,-0.8 0.6,-1.6 1,-2 0.4,-0.4 0.9,-0.7 1.4,-0.9 0.5,-0.1 1,0 1.4,0.2 0.4,0.2 0.7,0.6 1,1.2 l -0.8,1 a 3.2,3.2 0 0 0 -0.2,-0.3 l -0.6,-0.7 c -0.2,0 -0.5,-0.2 -0.8,0 -0.6,0 -1,0.5 -1.4,1.2 -0.4,0.7 -0.5,1.9 -0.5,3.3 0,1 0,1.9 0.2,2.4 0.2,0.5 0.4,1 0.7,1.2 0.3,0.2 0.6,0.2 1,0 0.3,0 0.6,-0.2 0.9,-0.5 0.3,-0.3 0.4,-0.8 0.6,-1.3 0.2,-0.5 0.2,-1.2 0.2,-2 l -1.6,0.4 v -1.2 z m 5.1,-0.4 0.8,-0.5 1,4.9 -1,0.2 z m -2.3,-0.3 2.2,-0.5 c 0.4,0 0.6,-0.3 0.8,-0.6 0.2,-0.3 0.3,-0.8 0.3,-1.5 0,-0.6 -0.1,-1 -0.3,-1.3 -0.2,-0.3 -0.4,-0.3 -0.8,-0.2 l -2.2,0.6 z m 0,1.3 v 4.4 l -0.8,0.2 V 95.9 l 3,-0.7 h 1 c 0.3,0 0.4,0.3 0.6,0.6 0.2,0.3 0.3,1 0.3,1.8 0,0.9 0,1.5 -0.3,2 l -0.6,1.2 -0.9,0.4 -2.3,0.6 z m 7,-6.6 v 3.5 l 3.3,-0.9 v 1.2 l -3.3,1 v 3.1 l 3.6,-0.9 v 1.2 l -4.5,1.2 V 94.3 l 4.5,-1 v 1 z m 9.7,2.7 v 1.3 l -3.5,0.9 v -1.3 z m -1.4,-4.7 -0.6,0.1 -1.6,9.5 -0.8,0.2 1.6,-10.8 2,-0.5 1.6,9.8 -0.9,0.3 -1.5,-8.7 z m 8.4,-2.1 -2.2,0.5 v 9 l -0.8,0.2 v -9 l -2.2,0.6 v -1.3 l 5.2,-1.2 z m 2.7,-0.7 v 3.4 l 3.2,-0.9 v 1.3 l -3.2,0.8 v 3.1 l 3.4,-0.9 v 1.3 l -4.3,1 V 89.5 l 4.3,-1 v 1.1 z m 6.2,5.5 0.6,0.4 h 0.8 c 0.5,-0.1 0.9,-0.4 1.2,-0.7 a 1.7,1.7 0 0 0 0.5,-1.2 l -0.2,-0.7 A 1.3,1.3 0 0 0 116,93.4 l -1,-0.3 a 1,1 0 0 0 -0.2,0 1,1 0 0 1 -0.1,0 l -1,-0.5 -0.7,-0.7 c -0.2,-0.3 -0.2,-0.8 -0.2,-1.3 0,-0.6 0,-1.2 0.3,-1.6 0.3,-0.4 0.5,-0.8 0.9,-1.1 a 3.2,3.2 0 0 1 1.2,-0.6 h 1 c 0.3,0 0.5,0.1 0.7,0.3 l 0.5,0.7 -0.6,1 -0.4,-0.5 c -0.1,-0.2 -0.4,-0.2 -0.6,-0.2 a 1.2,1.2 0 0 0 -0.6,0 c -0.5,0 -0.8,0.3 -1.1,0.6 -0.3,0.3 -0.5,0.7 -0.5,1.1 0,0.3 0,0.5 0.2,0.7 l 0.5,0.4 0.9,0.3 a 0.3,0.3 0 0 0 0.2,0 l 1.1,0.4 c 0.3,0.2 0.6,0.4 0.8,0.8 0.2,0.4 0.3,0.7 0.3,1.3 a 4,4 0 0 1 -0.3,1.7 3,3 0 0 1 -1,1.1 3.5,3.5 0 0 1 -1.2,0.6 c -0.6,0.2 -1.1,0.2 -1.5,0 -0.4,-0.2 -0.8,-0.6 -1,-1 l 0.7,-1 a 2.2,2.2 0 0 0 0.4,0.4 m 10.2,-9.7 -2,0.5 v 8.8 L 121,95.8 V 87 l -2,0.6 v -1.3 l 5,-1.3 z m -44.129662,37.42855 1,-9.5 1,-0.3 -1.3,10.7 -0.8,0.2 z m -1.7,-6.7 -0.2,-2 0.5,-0.1 1.6,8.8 -0.2,1.1 -0.3,0.1 -1.4,-7.8 z m -2,7.8 1.6,-9.7 0.5,-0.2 -0.1,2.2 -1.5,8.6 -0.4,0.1 v -1 z m -1.8,-9 1,-0.2 1,9.1 v 1 l -0.7,0.3 -1.3,-10.1 z m 10,-1.3 v 3.4 l 3.3,-1 v 1.3 l -3.4,1 v 3.1 l 3.7,-1 v 1.3 l -4.5,1.2 v -10.3 l 4.5,-1.2 v 1.2 z m 9.4,4.8 c 0.2,-0.3 0.3,-0.8 0.3,-1.5 0,-0.6 -0.1,-1 -0.3,-1.1 -0.2,-0.1 -0.5,-0.3 -0.8,-0.2 l -2,0.5 v 3.5 l 1.9,-0.5 c 0.4,-0.1 0.7,-0.4 0.9,-0.7 z m -2.8,-3.4 1.8,-0.5 a 1.2,1.2 0 0 0 0.7,-0.6 c 0.2,-0.3 0.3,-0.7 0.3,-1.3 0,-0.4 0,-0.6 -0.2,-0.8 l -0.4,-0.4 h -0.5 l -1.6,0.5 v 3.1 z m 3.6,0.3 c 0.2,0.3 0.3,0.9 0.3,1.6 0,0.6 0,1.2 -0.2,1.7 -0.2,0.5 -0.3,0.8 -0.6,1.1 a 2,2 0 0 1 -1,0.6 l -2.9,0.8 v -10.3 l 2.5,-0.8 h 1 c 0.3,0 0.5,0.1 0.7,0.5 0.2,0.4 0.3,0.8 0.3,1.5 l -0.1,1.2 -0.3,0.8 -0.4,0.5 c 0.3,0 0.6,0.2 0.8,0.6 z m 2.8,2 a 1.7,1.7 0 0 0 0.7,0.3 h 0.7 c 0.6,-0.1 1,-0.4 1.3,-0.7 a 1.8,1.8 0 0 0 0.500002,-1.2 c 0,-0.3 0,-0.6 -0.2,-0.7 a 1.2,1.2 0 0 0 -0.600002,-0.4 l -1,-0.3 a 1,1 0 0 0 -0.2,0 0.9,0.9 0 0 1 -0.1,0 l -1,-0.5 c -0.3,-0.2 -0.6,-0.4 -0.7,-0.7 -0.1,-0.3 -0.3,-0.7 -0.3,-1.3 0,-0.6 0.1,-1.1 0.3,-1.6 0.2,-0.5 0.6,-0.8 1,-1.1 a 3.4,3.4 0 0 1 1.2,-0.7 h 1 c 0.300002,0 0.600002,0.1 0.800002,0.3 a 2.1,2.1 0 0 1 0.5,0.7 l -0.7,1 a 2.6,2.6 0 0 0 -0.4,-0.4 0.5,0.5 0 0 0 -0.500002,-0.3 1.3,1.3 0 0 0 -0.7,0 2.5,2.5 0 0 0 -1.2,0.7 c -0.3,0.3 -0.4,0.7 -0.4,1.1 0,0.3 0,0.5 0.2,0.7 a 1.3,1.3 0 0 0 0.5,0.4 l 0.9,0.3 h 0.2 c 0.5,0 0.9,0.2 1.200002,0.4 l 0.7,0.7 c 0.2,0.3 0.3,0.8 0.3,1.3 0,0.7 0,1.3 -0.3,1.8 -0.3,0.5 -0.5,0.8 -1.000002,1.1 l -1.2,0.7 c -0.7,0.2 -1.2,0.1 -1.6,0 -0.4,-0.1 -0.7,-0.6 -1,-1 l 0.7,-1 0.5,0.4 m 7.800002,-9.3 v 7.7 l 1.6,-0.4 v 1.2 l -4,1.1 v -1.2 l 1.6,-0.5 v -7.6 l -1.6,0.4 v -1.2 l 4,-1.1 v 1.2 z m 7.9,-2 -2.1,0.5 v 8.8 l -0.9,0.3 v -8.9 l -2,0.6 v -1.3 l 5,-1.4 z m 2.5,-1 v 3.3 l 3.1,-0.8 v 1.1 l -3.1,1 v 3 l 3.3,-1 v 1.4 l -4,1 v -10 l 4.2,-1 v 1.1 z M 73.1,135 v 3.4 l 3.5,-1 v 1.2 l -3.5,1 v 3.3 l 3.8,-1 v 1.2 l -4.6,1.3 v -10.5 l 4.6,-1.3 v 1.3 z m 11,-4.4 -1.9,10.9 -1.7,0.5 -1.8,-9.9 0.9,-0.3 1.6,8.7 h 0.4 l 1.6,-9.7 z m 2.8,0.4 v 3.4 l 3.4,-1 v 1.2 l -3.4,1 v 3.2 l 3.6,-1 V 139 L 86,140.3 V 130 l 4.5,-1.3 v 1.2 z m 8.8,1.8 0.8,-0.6 0.8,4.7 -0.8,0.3 z m -2.2,-0.2 2.1,-0.7 a 1.2,1.2 0 0 0 0.8,-0.6 l 0.2,-1.4 c 0,-0.7 0,-1.1 -0.2,-1.3 -0.2,-0.2 -0.5,-0.2 -0.8,-0.1 l -2.1,0.6 z m 0,1.2 v 4.3 l -0.8,0.2 v -10 l 3,-0.9 h 0.8 c 0.2,0 0.5,0.3 0.7,0.6 0.2,0.3 0.2,1 0.2,1.8 0,0.8 0,1.4 -0.2,2 -0.2,0.6 -0.4,0.8 -0.7,1 l -0.8,0.6 -2.2,0.6 z m 16,-10.6 0.7,-0.2 0.8,9.8 -0.8,0.3 z m -1.8,7.5 1.7,-7.4 0.3,-0.1 v 1.5 l -1.7,8 -0.5,0.2 z m -2,-4.8 v -1.6 h 0.3 l 1.7,6.5 0.2,2 -0.5,0.1 z m -0.5,-1.4 0.7,-0.2 -0.7,10.3 -0.8,0.2 z m 11.3,2.9 v 1.2 l -3.4,1 v -1.2 z m -1.4,-4.6 -0.6,0.2 -1.4,9.2 -0.9,0.3 1.8,-10.4 1.8,-0.6 1.6,9.6 -0.8,0.2 -1.4,-8.4 z m 7,5.2 c 0.2,-0.3 0.4,-0.7 0.5,-1.3 a 13,13 0 0 0 0,-4.5 c -0.1,-0.5 -0.3,-0.9 -0.5,-1 -0.2,-0.1 -0.6,-0.2 -1,-0.1 l -1.2,0.3 v 7.6 l 1.2,-0.4 c 0.4,0 0.7,-0.3 1,-0.6 m 0.2,-8.2 c 0.3,0 0.6,0.4 0.9,1 a 14.6,14.6 0 0 1 0,6.8 c -0.2,0.8 -0.6,1.4 -1,1.6 l -1.2,0.7 -2,0.5 v -10 l 2,-0.5 c 0.5,-0.1 1,-0.2 1.3,0 m 3.9,-0.3 v 3.3 l 3,-1 v 1.3 l -3,0.9 v 3 l 3.2,-1 v 1.2 l -4,1.3 v -10 l 4,-1.1 v 1.2 z" fill="#fff"/></svg>
