<svg
  xmlns="http://www.w3.org/2000/svg"
  xmlns:xlink="http://www.w3.org/1999/xlink" viewBox="0 0 496 242" role="img" aria-label="One of the greatest websites ever made.">
  <defs>
    <path id="a" d="M0 240h494V0H0z"/>
    <path id="c" d="M0 .3h246.8V191H0z"/>
    <path id="e" d="M285.7.2c-16 18-197.4 145.6-197.4 145.6s-33.6-3.5-42 .7C25.6 156.5-5.2 171.4.9 177c2.3 2.2 33.6-7 44.2-10.7 11.2-4 23-1.7 27.8 3.2.8.8.5 2-.6 2.4-7 2.4-22.1 2-31 3.4-7 1-.3 6.1 5.3 8.4 7 2.8 21.8 5.5 34.6 4.9 13-2.2 30-11.3 55.3-23.1l181.3-85.6"/>
  </defs>
  <g transform="translate(1 1)" fill="none">
    <mask id="b" fill="#fff">
      <use xlink:href="#a"/>
    </mask>
    <use fill="#d7f2db" xlink:href="#a"/>
    <g mask="url(#b)">
      <g transform="translate(50 21.3)">
        <mask id="d" fill="#fff">
          <use xlink:href="#c"/>
        </mask>
        <path d="M8.5 14.2c-7 1.2-8.5 3.4-8.5 6l.7 155c0 .8 0 3.2 1.7 4.3 1.2.8 2.6 1.2 6.8 1.7C19.8 182.6 147 191 147 191s8.3.6 13-1.4c4.2-1.7 84.4-31.7 85.8-33.7s1.8-4-1.4-4.4-148.4-9-148.4-9L95.3 3.3C95.3.4 91.8 0 89.6.5l-81 13.7z" fill="#010111" mask="url(#d)"/>
        <path stroke="#010111" d="M92 139L5.3 168.8 4.9 20.3l87.8-16z"/>
        <path d="M19.5 67c.3-.4.6-.9.8-1.6s.3-1.5.3-2.5-.1-1.7-.3-2.3-.5-1-.8-1.2a1.2 1.2 0 00-1-.2l-1 .7c-.3.4-.5.8-.7 1.5s-.3 1.5-.3 2.5 0 1.8.3 2.3.5 1 .8 1.2a1.2 1.2 0 001 .2 2 2 0 00.9-.7m-2.4 1.8c-.4-.2-.8-.7-1-1.5s-.5-1.8-.5-3.1.2-2.5.4-3.3.7-1.6 1.1-2 1-.7 1.4-.8a2 2 0 011.4.2c.5.2.8.7 1.1 1.4s.5 1.8.5 3.1-.2 2.5-.5 3.4-.6 1.5-1 2-1 .6-1.4.8a2 2 0 01-1.5-.2m11-12.8v10.5l-1 .2-3.3-8.2.1-.1v9.1l-.8.2V57l1-.2 3.4 8.4h-.2v-9.1zm3 .5V60l3.5-.8v1.2l-3.4.8v3.3l3.7-.9v1.3l-4.6 1V55.5l4.6-1v1.2zm14.6 4.3c.3-.3.5-.8.7-1.4s.3-1.5.3-2.5 0-1.7-.3-2.2-.4-1-.7-1.2-.6-.2-.9-.2l-.9.6c-.3.3-.5.8-.7 1.5s-.3 1.5-.3 2.4 0 1.8.3 2.3.4 1 .7 1.2a1.1 1.1 0 001 .1c.2 0 .5-.2.8-.6m-2.2 1.7c-.4-.2-.8-.7-1-1.4s-.4-1.8-.4-3 .1-2.5.4-3.3.6-1.5 1-2 .9-.6 1.3-.7a1.8 1.8 0 011.3.2c.5.2.8.7 1 1.4s.5 1.7.5 3-.2 2.4-.4 3.3-.6 1.5-1 1.9-1 .7-1.4.8-.9 0-1.3-.2M50.6 52v3.4l3.2-.7v1.2l-3.2.8V61l-.8.2V51l4.2-1v1.2zm15.2-3.5l-2.1.5v9l-.8.1v-8.9l-2.1.5v-1.2l5-1.2zm6-2.5v10l-.7.2v-4.6l-3 .6V57l-.8.2V47l.9-.2V51l2.9-.6V46zm2.9.5v3.3l3-.7v1.2l-3 .7V54l3.3-.8v1.2l-4.1 1v-10l4.1-1v1.2zM27.3 79v1c0 1-.1 2-.3 2.8s-.6 1.5-1 1.9-.8.7-1.2.8c-.8.2-1.5 0-2-.7s-.8-2-.8-4c0-1.3 0-2.4.4-3.2s.6-1.6 1-2 .9-.7 1.4-.9c.5-.1 1 0 1.4.2s.7.6 1 1.2l-.8 1a3.2 3.2 0 00-.2-.3l-.6-.7c-.2 0-.5-.2-.8 0-.6 0-1 .5-1.4 1.2s-.5 1.9-.5 3.3c0 1 0 1.9.2 2.4s.4 1 .7 1.2.6.2 1 0c.3 0 .6-.2.9-.5s.4-.8.6-1.3.2-1.2.2-2l-1.6.4v-1.2l2.4-.6zm5.1-.4l.8-.5 1 4.9-1 .2-.8-4.6zm-2.3-.3l2.2-.5c.4 0 .6-.3.8-.6s.3-.8.3-1.5c0-.6-.1-1-.3-1.3s-.4-.3-.8-.2l-2.2.6v3.5zm0 1.3v4.4l-.8.2V73.6l3-.7h1c.3 0 .4.3.6.6s.3 1 .3 1.8c0 .9 0 1.5-.3 2s-.4 1-.6 1.2l-.9.4-2.3.6zm7-6.6v3.5l3.3-.9v1.2l-3.3 1v3.1l3.6-.9v1.2l-4.5 1.2V72l4.5-1V72zm9.7 2.7V77l-3.5.9v-1.3l3.5-.9zM45.4 71l-.6.1-1.6 9.5-.8.2L44 70l2-.5 1.6 9.8-.9.3-1.5-8.7zm8.4-2.1l-2.2.5v9l-.8.2v-9l-2.2.6v-1.3l5.2-1.2zm2.7-.7v3.4l3.2-.9V72l-3.2.8v3.1l3.4-.9v1.3l-4.3 1V67.2l4.3-1v1.1zm6.2 5.5l.6.4h.8c.5-.1.9-.4 1.2-.7a1.7 1.7 0 00.5-1.2l-.2-.7a1.3 1.3 0 00-.6-.4l-1-.3a1 1 0 00-.2 0 1 1 0 01-.1 0l-1-.5-.7-.7c-.2-.3-.2-.8-.2-1.3 0-.6 0-1.2.3-1.6s.5-.8.9-1.1a3.2 3.2 0 011.2-.6h1c.3 0 .5.1.7.3l.5.7-.6 1-.4-.5c-.1-.2-.4-.2-.6-.2a1.2 1.2 0 00-.6 0c-.5 0-.8.3-1.1.6s-.5.7-.5 1.1c0 .3 0 .5.2.7l.5.4.9.3a.3.3 0 00.2 0l1.1.4c.3.2.6.4.8.8s.3.7.3 1.3a4 4 0 01-.3 1.7 3 3 0 01-1 1.1 3.5 3.5 0 01-1.2.6c-.6.2-1.1.2-1.5 0s-.8-.6-1-1l.7-1a2.2 2.2 0 00.4.4M72.9 64l-2 .5v8.8l-.9.2v-8.8l-2 .6V64l5-1.3zM33.2 99.8l1-9.5 1-.3-1.3 10.7-.8.2.1-1.1zm-1.7-6.7l-.2-2 .5-.1 1.6 8.8-.2 1.1-.3.1-1.4-7.8zm-2 7.8l1.6-9.7.5-.2-.1 2.2-1.5 8.6-.4.1v-1zm-1.8-9l1-.2 1 9.1v1l-.7.3L27.7 92zm10-1.3V94l3.3-1v1.3l-3.4 1v3.1l3.7-1v1.3l-4.5 1.2V89.6l4.5-1.2v1.2zm9.4 4.8c.2-.3.3-.8.3-1.5 0-.6-.1-1-.3-1.1s-.5-.3-.8-.2l-2 .5v3.5l1.9-.5c.4-.1.7-.4.9-.7zM44.3 92l1.8-.5a1.2 1.2 0 00.7-.6c.2-.3.3-.7.3-1.3 0-.4 0-.6-.2-.8l-.4-.4H46l-1.6.5v3.1zm3.6.3c.2.3.3.9.3 1.6 0 .6 0 1.2-.2 1.7s-.3.8-.6 1.1-.6.5-1 .6l-2.9.8V87.8L46 87h1c.3 0 .5.1.7.5s.3.8.3 1.5l-.1 1.2-.3.8-.4.5c.3 0 .6.2.8.6zm2.8 2a1.7 1.7 0 00.7.3h.7c.6-.1 1-.4 1.3-.7a1.8 1.8 0 00.5-1.2c0-.3 0-.6-.2-.7a1.2 1.2 0 00-.6-.4l-1-.3a1 1 0 00-.2 0 .9.9 0 01-.1 0l-1-.5c-.3-.2-.6-.4-.7-.7s-.3-.7-.3-1.3c0-.6.1-1.1.3-1.6s.6-.8 1-1.1a3.4 3.4 0 011.2-.7h1c.3 0 .6.1.8.3a2.1 2.1 0 01.5.7l-.7 1a2.6 2.6 0 00-.4-.4c-.1-.2-.3-.3-.5-.3a1.3 1.3 0 00-.7 0 2.5 2.5 0 00-1.2.7c-.3.3-.4.7-.4 1.1 0 .3 0 .5.2.7a1.3 1.3 0 00.5.4l.9.3h.2c.5 0 .9.2 1.2.4s.5.4.7.7.3.8.3 1.3c0 .7 0 1.3-.3 1.8s-.5.8-1 1.1l-1.2.7c-.7.2-1.2.1-1.6 0s-.7-.6-1-1l.7-1 .5.4m7.8-9.3v7.7l1.6-.4v1.2l-4 1.1v-1.2l1.6-.5v-7.6l-1.6.4v-1.2l4-1.1v1.2zm7.9-2l-2.1.5v8.8l-.9.3v-8.9l-2 .6V83l5-1.4zM69 82v3.3l3.1-.8v1.1l-3.1 1v3l3.3-1V90L68.3 91v-10l4.2-1v1.1zm-46.9 30.7v3.4l3.5-1v1.2l-3.5 1v3.3l3.8-1v1.2l-4.6 1.3v-10.5l4.6-1.3v1.3zm11-4.4l-1.9 10.9-1.7.5-1.8-9.9.9-.3 1.6 8.7h.4l1.6-9.7zm2.8.4v3.4l3.4-1v1.2l-3.4 1v3.2l3.6-1v1.2l-4.5 1.3v-10.3l4.5-1.3v1.2zm8.8 1.8l.8-.6.8 4.7-.8.3-.8-4.4zm-2.2-.2l2.1-.7a1.2 1.2 0 00.8-.6l.2-1.4c0-.7 0-1.1-.2-1.3s-.5-.2-.8-.1l-2.1.6v3.5zm0 1.2v4.3l-.8.2V106l3-.9h.8c.2 0 .5.3.7.6s.2 1 .2 1.8 0 1.4-.2 2-.4.8-.7 1l-.8.6-2.2.6zm16-10.6l.7-.2.8 9.8-.8.3-.7-9.9zm-1.8 7.5l1.7-7.4.3-.1v1.5l-1.7 8-.5.2.2-2.2zm-2-4.8V102h.3l1.7 6.5.2 2-.5.1-1.7-7zm-.5-1.4l.7-.2-.7 10.3-.8.2.8-10.3zm11.3 2.9v1.2l-3.4 1v-1.2l3.4-1zm-1.4-4.6l-.6.2-1.4 9.2-.9.3L63 99.8l1.8-.6 1.6 9.6-.8.2-1.4-8.4zm7 5.2c.2-.3.4-.7.5-1.3a13 13 0 000-4.5c-.1-.5-.3-.9-.5-1s-.6-.2-1-.1l-1.2.3v7.6l1.2-.4c.4 0 .7-.3 1-.6m.2-8.2c.3 0 .6.4.9 1s.4 1.8.4 3.3-.2 2.7-.4 3.5-.6 1.4-1 1.6l-1.2.7-2 .5v-10l2-.5c.5-.1 1-.2 1.3 0m3.9-.3v3.3l3-1v1.3l-3 .9v3l3.2-1v1.2l-4 1.3v-10l4-1.1v1.2z" fill="#fff"/>
        <path d="M92 139L5.3 168.8l-.4-149L92.7 4.3zm-67.8 37l73.7 4.5M32.4 173l73.5 4.4M40.7 170l73.3 4.3M49 167l73 4.4m-64.7-7.4l72.8 4.3m-64.6-7.3l72.7 4.2m-64.4-7.3l72.4 4.3m-64.1-7.3l72.2 4.2m-64-7.2l72 4.1m-63.7-7.2l71.8 4.2" stroke="#fff" stroke-width=".8"/>
        <path stroke="#efeff1" stroke-width=".8" d="M.7 176.3l95.3-34"/>
        <path fill="#35353a" d="M146.5 175.4l22.6 1 35-12-24.2-.8z"/>
        <path d="M24.2 176l74.4-27.3m-62.2 28l74.3-27.3m-62 28.1l74-27.4m-61.8 28.2l73.8-27.5M73.1 179l73.6-27.5m-61.4 28.2l73.4-27.5m-61.1 28.2l73.2-27.5m-61 28.3l73-27.6" stroke="#fff" stroke-width=".8"/>
        <path stroke="#5abde0" stroke-width=".3" d="M97.6 5.4L4.6 21"/>
      </g>
      <path d="M255.8 172.8c-3.5 1.8 5.1 4.5 8.5 4.7l36.4 2.2s21.7-6.8 31-6.7c5.4.1 23.5-2.2 16.5-9.2-5.3-5.3-38.4-1.2-43.8.4-14.7 4.5-45.2 6.9-48.6 8.6" fill="#fff"/>
      <path d="M255.8 172.8c-3.5 1.8 5.1 4.5 8.5 4.7l36.4 2.2s21.7-6.8 31-6.7c5.4.1 23.5-2.2 16.5-9.2-5.3-5.3-38.4-1.2-43.8.4-14.7 4.5-45.2 6.9-48.6 8.6z" stroke="#010111" stroke-width=".9"/>
      <path d="M228.1 161.3c-3.4 1.7 5.2 4.4 8.6 4.6l36.4 1.9s21.8 9.6 31.2 9.7c5.3 0 23.4-2.4 16.3-9.4-5.3-5.3-38.5-17.5-43.9-15.8-14.7 4.6-45.1 7.2-48.6 9" fill="#fff"/>
      <path d="M228.1 161.3c-3.4 1.7 5.2 4.4 8.6 4.6l36.4 1.9s21.8 9.6 31.2 9.7c5.3 0 23.4-2.4 16.3-9.4-5.3-5.3-38.5-17.5-43.9-15.8-14.7 4.6-45.1 7.2-48.6 9z" stroke="#010111"/>
      <g fill="#010111">
        <path d="M308.3 180.9c1.5-.3-2.3-6.4-1.8-8.2s-2.1-4-2.1-4-7.8-10.6-20.5-7.6-27.6 2.1-27.6 6.6c0 4.3-1.2 9.3 8 9.8 13 .8 40.7 4 44 3.4"/>
        <path d="M243.4 158.5l39 12.1 6.7-9.5-24.9-5.5z"/>
      </g>
      <path d="M234.1 143.8c-5.3-1-4 2.4.6 6.3 19.1 8.8 42.3 13.4 42.3 13.4s26.8 14.2 35.5 17.6c5 1.9 14 1.7 9.8-7.3-3.2-6.8-33.2-20.8-38.8-21.5-16-2-45.6-7.7-49.4-8.5" fill="#fff"/>
      <path d="M234.1 143.8c-5.3-1-4 2.4.6 6.3 19.1 8.8 42.3 13.4 42.3 13.4s26.8 14.2 35.5 17.6c5 1.9 14 1.7 9.8-7.3-3.2-6.8-33.2-20.8-38.8-21.5-16-2-45.6-7.7-49.4-8.5z" stroke="#010111"/>
      <g transform="translate(224 9.3)">
        <use xlink:href="#e" fill="#fff"/>
        <use xlink:href="#e" stroke="#010111"/>
        <path d="M65.7 165.5l16.7 5.6-19.8 2.5 9.7-1.7s2-.4.6-2.4m40.3 7l202.6-103 2 6.4z" fill="#010111"/>
      </g>
    </g>
    <path stroke="#010111" d="M0 240h494V0H0z"/>
  </g>
</svg>