<svg xmlns="http://www.w3.org/2000/svg" xmlns:xlink="http://www.w3.org/1999/xlink" viewBox="0 0 343 347.2">
  <style>
    @-webkit-keyframes shut-front {
      0%,100% { transform: skew(0deg); }
      50%     { transform: skew(0, -5deg) translateY(-12.5%); }
    }
    @keyframes shut-front {
      0%,100% { transform: skew(0deg); }
      50%     { transform: skew(0, -5deg) translateY(-12.5%); }
    }
    .front {
      transform-origin: left center;
      -webkit-animation: 2s ease 0s infinite alternate shut-front;
              animation: 2s ease 0s infinite alternate shut-front;
    }
    @-webkit-keyframes shut-back {
      0%,100% { transform: skew(0deg); }
      50%     { transform: skew(0, 5deg) translateY(12.5%); }
    }
    @keyframes shut-back {
      0%,100% { transform: skew(0deg); }
      50%     { transform: skew(0, 5deg) translateY(12.5%); }
    }
    .back {
      transform-origin: left center;
      -webkit-animation: 2s ease 0s infinite alternate shut-back;
              animation: 2s ease 0s infinite alternate shut-back;
    }
    @-webkit-keyframes lift {
      0%,100% { transform: translateY(5%); }
      50%     { transform: translateY(0%); }
    }
    @keyframes lift {
      0%,100% { transform: translateY(5%); }
      50%     { transform: translateY(0%); }
    }
    .hands {
      -webkit-animation: 2s ease 0s infinite alternate lift;
              animation: 2s ease 0s infinite alternate lift;
    }
    .front, .back, .hands { animation-play-state: paused; }
    .scrolling .front, .scrolling .back, .scrolling .hands { animation-play-state: running; }
  </style>
  <defs>
    <path id="letter-t" d="M500.7 99l-5.8 1.3.2 12.1-1.3.3-.2-12-5.7 1.3v-1.1l12.7-3z"/>
    <path id="e" d="M424 167.3l-5.7 1.4.2 12-1.3.4-.2-12-5.7 1.3v-1.1l12.7-3z"/>
    <path id="letter-e" d="M497.8 151.4l.1 5 8.6-2v1.1l-8.5 2v4.9l9.3-2.2v1l-10.6 2.6-.2-13.2 10.6-2.5v1z"/>
  </defs>
  <path stroke="#010111" fill="#fff" d="M332 345.8V.5H11v346.7"/>
  <path d="M288.3 387.8c4.8-21.7 29.7-134.5 39.4-163.2-18-4.2-45.2 42.9-56 72.2m-225.2 91L15.2 224.6c12.7.2 28.8 13.2 56.7 71.2" fill="#d7f2db" stroke="#010111"/>
  <g transform="translate(670.4 -337.7)">
   <g class="front">
    <g fill="#d7f2db" stroke="#010111">
      <path d="M-336.7 375.9v-8.6l-5 1.6v-5.5l-157.2 54.9 2.5 183.1 165-53.1V374.2z"/>
      <path d="M-340.5 587.8L-493.9 623c-2.6.6-4.2.2-4.2.2l-.8-204.8 158.3-35.7c7 0 12.7 5.7 12.7 12.8v179.7c0 7-5.7 12.8-12.7 12.8z"/>
    </g>
    <path d="M-470.3 450.4v5l8.7-2v1.1l-8.6 2v5l9.3-2.3v1.1l-10.6 2.5-.2-13.2 10.6-2.5v1.1zm23.3.4l4 5.6-1.5.4-3.6-5.2-2.4.6-3.4 6.8-1.6.4 3.9-7.5-4-5.7 1.5-.4 3.5 5.3 2.5-.6 3.4-7 1.6-.3zm12-1.7l4.5-1c1.6-.5 3.7-1 3.6-4.2 0-3-2-2.7-3.7-2.3l-4.5 1.1zm0 1v4.7l-1.3.3-.2-13.2 5.6-1.3c2.2-.5 5.3-1 5.4 3 0 4-3 5-5.2 5.6l-4.3 1zm16.7-11v5l8.7-2v1l-8.6 2v5l9.4-2.3v1.1l-10.6 2.6-.3-13.2 10.7-2.6v1.1zm23 0c1.8-.4 2.8-1.3 2.7-3.3 0-2-1-2.3-2.8-1.9l-5.8 1.4v5.2l6-1.4zm1.7.5l2.2 5.5-1.4.4-2.2-5.4-6 1.4v6l-1.4.2-.2-13.2 7-1.6c2-.5 4.3-.7 4.4 2.5 0 2.3-1.1 3.5-2.4 4.2z"/>
    <use xlink:href="#letter-t" transform="translate(-874.2 330.1)"/>
    <path d="M-362.5 438c3-.7 4.9-2 4.9-3.5s-2-1.6-5.1-1.7c-3.3 0-5.7-.3-5.7-2.5 0-2.4 2.7-4 6-4.8 2.8-.7 4.6-.3 5.7.6l-1.2 1c-.8-.5-2.2-1-4.5-.4-2.3.5-4.6 1.7-4.6 3.2 0 1.4 2 1.6 4.5 1.6 3.6.1 6.2.3 6.3 2.6 0 2.4-2.5 4.1-6.3 5-3.2.8-5.1.3-6.3-.6l1.2-1c.8.5 2.5 1 5 .5m-79 37v1c0 4.3-2.8 6.8-5.8 7.5-3.2.7-6.4 0-6.5-5.3-.1-5.3 3.2-7.5 6.4-8.3 2.5-.6 4.2-.2 5.2 1l-1.2 1c-.7-.9-2.1-1.3-4-.9-3 .8-5.1 3-5 7 0 4 2.2 5 5 4.4 2.5-.6 4.7-2.4 4.6-6l-4.3 1V476l5.6-1.3zm5.3.6l-.2-7.8 1.4-.4v8c0 3 2 4 4.8 3.2 2.9-.7 4.6-2.4 4.5-5.4l-.1-8 1.3-.3.2 7.8c0 4.1-2.4 6.2-6 7-3.3 1-6 0-6-4m22.7-11.9v11l4.5-1v1l-10 2.4v-1l4.3-1-.2-11-4.4 1v-1l10-2.6v1.1zm20 1c0-4.2-1.8-5-5-4.3l-3.7 1 .2 11 3.7-1c3.2-.8 4.9-2.5 4.8-6.7m1.4-.3c0 6.6-4 7.6-6.6 8.2l-4.7 1-.2-13 4.7-1.2c2.6-.6 6.7-1.6 6.8 5m7.3-7v5.1l8.7-2v1l-8.6 2.1v5l9.3-2.3v1l-10.6 2.7-.2-13.2 10.6-2.5v1z"/>
    <use xlink:href="#e" transform="translate(-874.2 330.1)"/>
    <path d="M-434 499.5c-.1-4.4-3-5-5.3-4.4a6.5 6.5 0 00-5.2 7c0 4.2 3 5 5.4 4.3a6.5 6.5 0 005-7m-11.8 3c0-5.4 3.5-7.7 6.6-8.4 3-.7 6.6 0 6.7 5.2a8 8 0 01-6.5 8.3c-3 .7-6.7.1-6.8-5.2"/>
    <use xlink:href="#e" transform="translate(-824.2 319.6)"/>
    <path d="M-384.5 482l.2 13.2-1.4.3v-6.3l-8.4 2v6.3l-1.3.3-.2-13.2 1.4-.3v5.8l8.4-2v-5.8z"/>
    <use xlink:href="#letter-e" transform="translate(-874.2 330.1)"/>
    <path d="M-474.5 528.7l.2 11 4.4-1v1l-10 2.4-.1-1 4.4-1-.2-11-4.4 1v-1l10-2.6v1.1zm20.9-5.8l.2 13.2-1.5.4-8.8-9.4.2 11.4-1.4.3-.2-13.2 1.5-.3 8.8 9.4-.2-11.5z"/>
    <use xlink:href="#letter-t" transform="translate(-936.4 421.1)"/>
    <use xlink:href="#letter-e" transform="translate(-926.2 367.3)"/>
    <path d="M-405.3 518.7c1.7-.4 2.6-1.3 2.6-3.3 0-2-1-2.3-2.8-1.8l-5.8 1.3v5.2zm1.5.5l2.3 5.6-1.4.3-2.2-5.4-6 1.5v5.8l-1.4.4-.2-13.2 7-1.7c2-.5 4.3-.6 4.4 2.5 0 2.3-1.1 3.6-2.4 4.2zm19.6-11.5l.2 13.2-1.5.4-8.8-9.4.2 11.4-1.4.3-.2-13.2 1.5-.3 8.8 9.5-.2-11.5z"/>
    <use xlink:href="#letter-e" transform="translate(-874.2 356)"/>
    <use xlink:href="#letter-t" transform="translate(-850.2 402.1)"/>
   </g>
  </g>
  <g transform="translate(670.4 -337.7)">
   <g class="back">
    <g transform="matrix(-1 0 0 1 -997.7 0)" fill="#d7f2db" stroke="#010111">
      <path d="M-336.7 375.9v-8.6l-5 1.6v-5.5l-157.2 54.9 2.5 183.1 165-53.1V374.2z"/>
      <path d="M-340.5 587.8L-493.9 623c-2.6.6-4.2.2-4.2.2l-.8-204.8 158.3-35.7c7 0 12.7 5.7 12.7 12.8v179.7c0 7-5.7 12.8-12.7 12.8z"/>
    </g>
   </g>
  </g>
  <g transform="translate(268.2 138.7)" fill="#d7f2db">
   <g class="hands">
    <path d="M-51.7 133.7c-1.6-13.3-11.8-54.4-12.2-63.5-1-20.8 1.4-26.2 12.8-3.4 5 10 14.3 42.2 19.3 62 .8 3 4.2 2.6 4.2 0 0-10-2-30-4-40-2-10.1 1.4-17.4-1.4-34-1-35.4 9-16.3 14.4-4l6.2-1.1c-1.4-6-2.3-20.2 2-21 4.6-1 11.5 10.3 13.7 16.8-.7-5-1.4-15.3 1-17C7.4 26.6 13 34 17 44c0 0 27.4 53.7 17.8 98.8l-14.4 143h-69.5l-2.5-152.1m-90 .3c1.6-13.3 14-54.6 12.1-63.4-1.9-8.8-8.3-13.8-12.8-3.5a592.7 592.7 0 00-19.3 62c-.7 3-4.2 2.7-4 0 0-10 2-30 3.8-40 1.8-10.1 4-16.8 6.8-33.5 2-11.6-21.7-18-27.2-5.5h6.4c2.5-11.4-16-18.3-21-4.2 1.8-11.7-9-16.6-13.5-1.6 0 0-27.6 34.4-15.9 110.6l4.8 131h74.5c1.4-8.1-3-37.6-2-76.2.6-29 6.4-69.3 7.2-75.7"/>
    <path d="M-196.7 45.7c1-6 2-16.2-.9-16.8-2.9-.6-9.5 8-12.7 15.4C-218 61.7-230 88-230 117.7c0 8 3 32.2 3.2 52m17.5-48.8c0-29.6 12.4-74.4 12.4-74.4 2.2-7.5 9.5-18.6 14-17.6 7.6 1.6-2 62.6-2 62.6" stroke="#010111"/>
    <path d="M-147 285.9c-8-91.4 4.3-115.5 5-150.3 1.7-13.3 18.3-77.8 10.3-81.5-2.4-1-10 10-13.4 18.4a623 623 0 00-18 58.8c-.9 3-2.9 2-2.9-.7 0-23 10.4-91.6 2.4-94-9.5-3-25.4 57.3-25.4 87m192.3-78c-1-6-2-16.1 1-16.7C7 28.3 11 28.5 17 44.3c7.6 17.4 19.7 43.8 19.8 73.4 0 21-5.3 40.7-7 54.3" stroke="#010111"/>
    <path d="M16 120.9C16 91.3 3.5 46.5 3.5 46.5c-2.2-7.5-9.5-18.6-14-17.6-7.7 1.6 2 62.6 2 62.6" stroke="#010111"/>
    <path d="M-49.2 285.9l-2.5-152.3C-53.3 120.3-69.9 55.8-62 52c2.5-1 10 10 13.4 18.4 4.3 10.4 13.2 39 18.2 58.8.7 3 2.7 2 2.7-.7 0-23-10.4-91.6-2.3-94 9.4-3 25.4 57.3 25.4 87" stroke="#010111"/>
   </g>
  </g>
  <path stroke="#010111" d="M11 347h321"/>
  <path fill="#d7f2db" d="M166.7 81.4h9.8v203.3h-9.8z"/>
  <path d="M171.2 87.6v190.8" stroke="#010111"/>
</svg>
