<svg xmlns="http://www.w3.org/2000/svg" aria-label="Woo Commerce" fill="currentColor" viewBox="0 0 113 23">
  <path clip-rule="evenodd" fill-rule="evenodd" d="M34.7 0H3.6C1.6 0 0 1.6 0 3.6v11.9c0 2 1.6 3.5 3.6 3.5h14.7l6.8 3.8-1.6-3.8h11.2c2 0 3.6-1.6 3.6-3.5v-12c0-1.9-1.6-3.5-3.6-3.5zM3 2.8c-.6 0-1.1.6-1.2 1.4.9 6 1.7 10 2.5 12 .4.7.7 1 1.1 1 .7 0 1.5-1 2.4-2.7L10 10c.8 3 2 5.2 3.4 6.7.4.4.8.6 1.2.6.9-.3 1-.7 1.1-1.6-.1-4 .6-8 2-11.6.1-.7.2-1.2-.4-1.7-.6-.5-1.4-.1-2 .4a24 24 0 00-2 8.6C12.5 9.9 12 8 11.6 6c-.2-.9-.6-1.3-1.3-1.3-.4 0-.8.4-1.1 1l-3.5 6.5-1.5-8.3c-.3-1-.6-1.1-1.2-1.1zm32.7 2.9c.5.8.7 1.9.7 3 0 3.5-2.8 7.5-5.7 6.8-2.1-.5-3.3-2.7-3.3-4.9 0-1.7.4-3.1 1.2-4.5 2-2.9 5.2-3.2 7.1-.4zm-3.2.8c-2.7-.3-3.2 6.1-1.2 6.4 2 .3 4-6 1.2-6.4zm-6.7-.8c-2-2.9-5.4-2-7 .4a8.3 8.3 0 00-1.2 4.4c.1 3 1.7 4.8 3.3 5 2.6.2 5.7-3.4 5.7-6.7a6 6 0 00-.8-3.1zm-4.4 7.1c-2.2-.6-.8-6.7 1.4-6.4 2.2.3.8 7-1.4 6.4z"/>
  <path d="M42.2 5.6c-1 1-1.5 2.3-1.5 3.9 0 1.7.5 3.1 1.5 4.1 1 1 2.4 1.6 4 1.6.6 0 1.1 0 1.7-.2v-2.6l-1.4.3c-.9 0-1.5-.3-2-.9-.5-.5-.8-1.3-.8-2.2 0-1 .3-1.7.8-2.2.5-.6 1-.9 1.8-.9l1.6.3V4.2L46.2 4c-1.6 0-3 .5-4 1.6zM53.1 4c-1.4 0-2.6.5-3.4 1.4a6 6 0 00-1.2 4c0 2 .4 3.4 1.2 4.3.8 1 2 1.5 3.5 1.5s2.7-.5 3.4-1.5c.8-1 1.3-2.3 1.3-4.1 0-1.8-.5-3.2-1.3-4.2S54.6 4 53.1 4zm1.2 8.1c-.2.5-.7.7-1.2.7s-.9-.2-1.1-.7c-.3-.4-.4-1.3-.4-2.6 0-2 .5-3 1.5-3 1.1 0 1.7 1 1.7 3 0 1.3-.2 2.2-.5 2.6zm11.3-7.8l-1.3 6-1.2-6h-3.7L58.1 15h2.7l.7-7.4 2 7.4h1.8l1.8-7.4.8 7.4h2.8L69.3 4.3zm13 0l-1.3 6-1.2-6h-3.6L71 15h2.7l.8-7.4 1.8 7.4h2l1.8-7.4.7 7.4h2.9L82.3 4.3zm8.9 6.5H90V8.5h-2.5v-2h3V4.4h-5.9V15h5.8v-2.3h-3zM99 7.6c.1-1-.4-1.8-1.2-2.4a5 5 0 00-3.2-.9h-3.3V15H94v-5l2.4 4.9h3l-2.2-4.8c1.1-.6 1.7-1.5 1.8-2.5zm-4.9 1.3V6.4c.7 0 1.2 0 1.5.3.3.2.4.6.4 1 0 .8-.6 1.2-1.9 1.2zm6.6-3.3c-1 1-1.6 2.3-1.6 3.9 0 1.7.5 3.1 1.6 4.1 1 1 2.3 1.6 4 1.6.5 0 1 0 1.6-.2v-2.6l-1.4.3c-.8 0-1.5-.3-2-.9-.5-.5-.7-1.3-.7-2.2 0-1 .2-1.7.7-2.2.5-.6 1.1-.9 1.9-.9l1.5.3V4.2l-1.7-.2c-1.6.2-3.2.8-3.9 1.6zm9.3 7v-1.9h2.6V8.5H110v-2h3V4.4h-5.8V15h5.8v-2.3h-3z"/>
</svg>
