<svg xmlns="http://www.w3.org/2000/svg" height="68.379" width="220.3"  xmlns:v="https://vecta.io/nano"><g transform="matrix(1.333333 0 0 -1.333333 -286.70293 1092.1488)"><g fill="#8c7142"><path d="M242.24 802.3l4.578.78c.328.102.86.33 1.584.685h-1.246l-3-.685-1.926-.78m-5.104-9.683h.34l.092.345 2.65 3.517 1.43 1.618 1.465 1.653 3.516 2.8h-.53l-3.175-.87-2.272-.715-2.71-1.434c-.5-.518-.974-1.12-1.433-1.806-.06-.248-.174-.61-.342-1.09l-.184-1.464.184-1.337.406-.686c.145-.205.332-.384.564-.53m-14.794-12.142l3.7.06 1.75.372.87.343.904.374c.79.436 1.836 1.134 3.143 2.1h-.342l-2.305-1.217-2.27-.714-2.12-.34h-1.745l-.994.155-.933.186-.903.342c-.8.56-1.42 1.058-1.838 1.496l-.34.903v1.4l.37.936.406.37c.352.125.818.19 1.4.19.268-.146.48-.358.62-.63v-1.07l-.62-.787c.123-.124.704-.3 1.74-.532h2.57l1.006.263 1.035.3 1.15.717 1.184.715c.48.747.84 1.412 1.1 1.99v2.116l-.344 1.028-.807.996-.62.34-.595.374c-.29.063-.706.177-1.247.344h-3.703l-2.084-.53-1.43-.716-2.024-1.495c-.48-.602-.95-1.297-1.402-2.086l-.344-1.246v-2.116l.528-1.587 1.462-1.683.565-.342c.162-.125.34-.238.525-.34l1.494-.498 1.495-.47m-.34-.528l-1.526.467-1.494.497-1.152.812-1.184.806-.545.81-.545.808-.53 1.247v3l.344 1.4.715 1.155.715 1.12 1.84 1.525 1.243.684c.644.23 1.64.53 2.994.902h3.515l2.272-.715c.705-.477 1.3-.944 1.773-1.4l.81-1.152a52.52 52.52 0 0 1 .344-1.244v-1.9c-.125-.435-.364-1.088-.717-1.96l-1.463-1.433-2.15-1.12-1.398-.34h-3.365c-.953.228-1.846.538-2.674.935l-.125 1.274h-.346l-.092-1.097c.106-.336.333-.86.684-1.57l.967-.816 1.965-.688h2.986c.975.227 2.033.572 3.174 1.027l2.115 1.435 2.897 3.088 2.306 3.427c.227.334.373.593.434.778a5.58 5.58 0 0 0-.713.284l-.906.716-.965 1.466c-.104.538-.156 1.362-.156 2.46l.156.908c.5.83.988 1.545 1.465 2.15l2.336 1.466 1.396.685 1.436.717 4.734 1.4 6.69 1.312c-.064-.227-.105-.416-.125-.562l-1.525-.715-1.523-.747-3.084-3.05-1.403-2.118-2.5-4.577c-.266-.477-.467-.894-.594-1.245l.72.094c.5.354 1.14.737 1.926 1.15.066.23.322.634.78 1.215l.404 1.277c.082.02.22.06.407.124-.29-.913-.438-1.493-.438-1.744.125.166.334.28.62.343-.043-.188-.072-.362-.088-.53-.273-.374-.718-.81-1.342-1.31l-1.214-.714-2.338-.905-2.862-4.607a35.74 35.74 0 0 0-3.084-3.083l-.964-.714-.96-.718-2.932-1.278-1.305-.465-1.93-.374z"/><path d="M242.8 780.89l1.1.843v.682l-.998-1.18c-.022-.064-.055-.178-.092-.345m-1.842-.654l.535.127.87.84.838.87 1.34 1.9 1.34 1.93.684 1.68a1.42 1.42 0 0 0-.063.406l-.033.434-1.336-.093-1.092-.747-1.338-1.495-.652-1.1-.654-1.1-.373-.996-.31-.996v-1.183a2.87 2.87 0 0 1 .244-.499m-1.18-.683c-.147.145-.417.32-.81.53-.147.31-.344.86-.592 1.65l.065 1.244.087 1.276 1.342 1.493 1.213 1.03 1.215 1.06 1.186.654.712.248.778.28h1.994l.494-.376h1.342c.02.05.072.127.156.226l2.307.15-2.65-4.14-2.054-3.483a2.46 2.46 0 0 1-.155-1.033l.407-.032c.535.435 1.283 1.182 2.238 2.24l.838 1.184.875 1.213h.342l-1.37-1.8-1.37-1.766-.873-.84c.14-.042.238-.063.3-.063l3.992 3.82.348.088-.248-.65-2.492-2.492-1.432-1.276-.842-.342h-2c-.334.227-.635.538-.902.932a1.73 1.73 0 0 1-.098.312c-.207-.042-.816-.394-1.834-1.06-.437-.125-1.275-.217-2.52-.278"/><path d="M259.422 793.25l-.713.437c0 .31-.02.61-.06.903.205.27.568.633 1.085 1.088h1.03c.103-.185.236-.384.404-.59 0-.455-.064-.85-.187-1.183l-.526-.53zm-6.193-13.698c-.205.185-.508.53-.905 1.03l-.156 1.054.313 1.435 1.183 2.21c.125.227.238.384.342.465v.343c-.434-.496-1.146-1.214-2.143-2.148-.02.145-.03.296-.03.46l3.352 3.73 1.904 3.158c.184.312.342.5.47.592l1.84-.254-1.403-2.208-.1-.497.345-.094-3.086-4.762v-.435l.034-.437 1.056-.03 1 .655 2.524 3.022c.328.372.734.902 1.21 1.585v-.342l-2.678-3.487-1.557-1.433-.656-.342c-.37 0-.94-.01-1.71-.032-.227-.35-.53-.924-.902-1.713 0-.164.01-.3.033-.433l.03-.436c.436-.04.707-.053.81-.033.123 0 .308.052.558.158l1.674 1.3 1.217 1.34 1.213 1.308c.13.02.314.06.566.116l-.092-.34-1.34-1.433-1.305-1.398-1.28-1.09-.996-.497c-.29 0-.735-.033-1.336-.094"/><path d="M265.525 784.875h.344l.12.374 2.12 2.118.84.683.873.686h-.686l-.902-.56-2.115-2.272-.594-1.028m3.082-5.667c-.453.416-.945.924-1.463 1.526v1.745l.186.404.158.435 2.088 3.115.68 1.37c-.02.02-.043.174-.06.47l-1.065-.715-2.732-2.778-4.27-5.1-1.367-.2c-.2-.018-.55-.018-1.03 0l4.174 6.57.685 1.4a12.61 12.61 0 0 0 .248 1.028l-.685-.093-.53-.345-.498-.34-.997-1.184-.998-1.15-.1-.343-.403.094c-.293-.25-.7-.684-1.244-1.307a2.2 2.2 0 0 0-.281-.094l-.28-.06c.02.082.04.195.06.34l2.774 3.112 2.148 1.805c.33.104.84.158 1.525.158.124-.104.3-.186.53-.25l.25-.87v-1.713l1.37 1.713.963.778a12.56 12.56 0 0 1 1.027.343h1.9l.714-.56c.024-.04.094-.23.22-.56v-1.027l-.342-.872-.345-.84-2.922-4.486v-.342l.027-.375.748-.03 1.027.686 3.862 4.7v-.343l-1.557-2.054v-.34l.733.713.7.685.37.155-.094-.526-1.37-1.557-2.8-2.493-.38-.156a2.06 2.06 0 0 0-.308-.154l-1.06-.095m40.54 13.988l.75.653c-.043.125-.066.218-.066.28-.184-.084-.385-.156-.6-.22l-.594-.217v-.34a3.69 3.69 0 0 1 .5-.156m.158-2.15a3.46 3.46 0 0 1 .278.124l-.56.902-.87-.062v-.308c.308-.125.7-.345 1.15-.656m.496 9.403l.996.34a9.54 9.54 0 0 0-.095.688l-.432.6-.47.623-.56-.03-.994-1.06-.092-.312c.453-.186 1.002-.467 1.646-.84m-3.953-6.446l1.803.096 1.373.87 1.03 1.337.65 1.34c-.018.185-.07.466-.155.84l-.37.53-.375.53a3.23 3.23 0 0 1-.373-.032l-1.092-1.104-1.12-1.075-1.742-2.52c-.168-.27-.264-.48-.283-.622l.656-.2m-2.992-.807c.168.08.47.465.904 1.15l2.742 3.052c.184.207.655.653 1.4 1.337l1.402 1.308-1.15.8-.533-.032-1.557-1.866-2.645-4.456-.28-.65zm-.338-12.922l1.832.095.97.342-1.307.06-1.312.1c-.225.064-.62.232-1.178.502a1.32 1.32 0 0 0-.28-.03l.248-.438 1.03-.622m-.312 1.34l1.306.03 1.34.065c.3.103.84.383 1.65.838l1.555 1.402 1.34 2.46.156.56.186.6v1.494a5.16 5.16 0 0 0-.281.594l-.28.622-1.527 1.338-3.174.22v.402l3.174.065.842.312-.494.34h-1.342a13.92 13.92 0 0 0-.996-.34l-.594.03-.6.032-.22.185-1.806-3.642a1.64 1.64 0 0 0 .033-.281c.207.167.55.374 1.027.625a5.48 5.48 0 0 0-.125-.532l-1.588-1.462-.685-.996-.494-1.464v-.84c.1.33.38.882.838 1.65.457.56 1.203 1.308 2.242 2.245l1.492.65h1.62l.873-.372.717-.872c.1-.458.152-.953.152-1.493l-.498-1.465c-.082-.145-.217-.342-.406-.6a1.07 1.07 0 0 0-.342-.063c.022 0 .274.602.748 1.805v1.465l-.37.716-.268.185-.26.2c-.334.124-.885.187-1.653.187l-1.648-.686-.873-.683-.684-.873-.685-.84-.656-1.65v-1c.084-.125.234-.294.455-.513a5.15 5.15 0 0 1 .793-.637m-1.338 13.73c.082.02.205.06.373.124l2.023 2.834a37.75 37.75 0 0 0 3 2.988 1.63 1.63 0 0 0 .1.312l-2.832.437h-2.8a7.84 7.84 0 0 1-.468-.22c.06-.187.136-.476.218-.87v-2c-.226-.956-.34-1.612-.34-1.963l.5-.498.123-.593.125-.56m5.3 6.6l1 .095 1.644 1.338-2.3.8-2.152.34h-2.332c-.707-.084-1.682-.26-2.926-.53l.465-.715.438-.717 2.18-.125 2.176-.092.906-.22.9-.186m-15.72-11.738l.842.093 1.336.5 1 .65 1.025.72 2.024 2.18c.392.6.912 1.536 1.558 2.802l-1.465-.22-1.496-.683c-.662-.438-1.523-1.12-2.582-2.054l-1.308-1.682-.684-1.308-.25-.997m-2.303 6.446l2.832 2.397 3.6 1.992.937.342.903.312 2.46.6-.625 1.37-.28.186c-.703-.207-2.052-.758-4.047-1.65l-3.736-2.7-1.307-1.495c-.207-.3-.457-.736-.746-1.337m-.656-16.2l3.3.092 1.154.406 1.18.405 1.123.65.87.686.906.718 1.307 1.494c0 .082-.014.185-.033.3l-3.862-3.018-1.304-.686-.998-.3-.998-.346-2.334-.3c-.207-.022-.313-.052-.313-.092m1.65 9.743h.5l.032.498c0 .166.006.334.03.5l.498 1.308c.457.665 1.152 1.525 2.086 2.584l.904.655.936.654 1.306.65c.788.23 1.836.427 3.143.593l.408 2.148.026.995.066.997c-.873-.167-1.984-.477-3.332-.933l-1.213-.654-1.248-.654-1.838-1.308c-.994-.894-1.96-1.856-2.894-2.895l-1.307-2c0-.8.05-1.362.156-1.65l.748-.903.994-.594m.344-4.453l1.96.093.656.157.686.156 2.646 1.338 2.397 2.057 2.645 4.64v1.308l-.2.434-.182.437-.377.124c-.062-.334-.3-.945-.744-1.84-.396-.6-1.092-1.503-2.1-2.7l-.806-.684-.813-.653-1.148-.654-1.84-.654-1.836-.25c.084-.25.258-.498.53-.746l.967-.342-.158-.157h-.8l-.466.374-.467.373-.248.654c-.024.02-.407.103-1.15.25l-.718.373-.502.6-.522.623-.348.8-.312-1.338v-1.806c.107-.437.283-.882.53-1.34.13-.125.24-.246.344-.37l.373-.345c.375-.227 1.04-.53 1.994-.904m13.385-5.945l-1.334.562-.686.714-.357 1.073-.36 1.107v2.148l-.655-.8-1.742-1.402c-1.972-1.243-3.678-2.128-5.1-2.645l-1.184-.28-1.146-.218h-2.307c-.873.206-1.6.424-2.18.655a11.09 11.09 0 0 0-1.558 1.554l-.154.498v1.653c.208.33.507.633.904.904h1.338c.103-.2.3-.5.564-.904v-.996c-.088-.106-.203-.273-.348-.5v-.655a3.5 3.5 0 0 1 .934-.9h2.15l1.803.65.903.655.935.685 2.46 2.928a15.65 15.65 0 0 1 .934 1.275c.043.228.072.343.093.343l-3.644-2.057-1.338-.34h-2.647l-1.15.34c-.25.125-.584.346-.994.658-.522.598-.938 1.182-1.246 1.742-.043.166-.096.434-.156.808v2.957l.308 1.186.654 1.46.686 1.498 1.307 2.147c.935 1.057 1.9 2.024 2.894 2.895.108.082.77.53 1.994 1.337l2.8 1.3 1.342.437v.312l-2.15.748c-1.62 0-2.783-.055-3.486-.158l-1.648-.654-2.15-1.34-1.306-1.305-1.434-1.932-1.182-2.335c-.064-.04-.126-.063-.187-.063l-.2-.06.25.995.652 1.217.656 1.244 1.246 1.525c.164.207.424.488.774.84l2.058 1.37.903.408.904.403.994.188h3.457l.686-.188.652-.153 1.154-.658c.8 0 2.074.106 3.797.313h2.488l2.493-.313 1.058-.34 1.1-.3h.8c.392.208 1.005.446 1.835.717l-.125-.343a4.4 4.4 0 0 0-1.216-.622v-.344c.232-.06.627-.3 1.185-.747l.748-.933c.063-.02.633.07 1.713.28h3.145c.56-.23 1.172-.56 1.836-.998.25-.3.603-.832 1.058-1.557l.344-1.495v-.995l-.22-1.185-.185-1.152h-.348c.047.168.127.56.254 1.185v2.46c-.23.768-.447 1.38-.654 1.835-.25.2-.606.552-1.06 1.028-.064.042-.293.166-.687.374-1.036.23-1.813.344-2.332.344l-1.153-.28-1.152-.22-.125-.218.37-1.028v-2.5l-.338-.746a5.55 5.55 0 0 1-.266-.78c-.074-.27-.14-.696-.203-1.276l-.343-.592a3.59 3.59 0 0 1-.309-.56l-.717-.562a9.12 9.12 0 0 1-.717-.526l.87-.687c.166-.3.395-.643.686-1.058l.342-1.153v-2.5l-1.307-3.455-.654-1-2.586-2.052-1.836-.622c-.246-.065-.553-.12-.918-.174a7.1 7.1 0 0 0-1.04-.076zm11.814.11h.842v.37a1.95 1.95 0 0 1-.373.132l-.373.775-.157-.202.06-1.076m-.154-.437l-.717.472-.375.533-.154 1.347.312 1.194 1.213 2.228.3.503-.018.312-1.9-2.062-.488-.01c.145.25.38.6.713 1.06l3.582 3.733c.355.045.838.18 1.463.406l1.777-.063c-.025-.106-.252-.535-.687-1.3l-2.895-5.034-.717-1.353v-1.006c.02-.022.092-.064.22-.125l1.065.774 2.74 2.923 3.234 4.958 2.113.217a3.02 3.02 0 0 1 .06-.44l-2.55-4.027-1.498-2.613-.183-.442-.16-.407v-.663l.22-.22a8.82 8.82 0 0 1 .717-.061l2.863 2.755 2.088 2.66v-.378c-.168-.272-.4-.78-.654-1.518-1.018-1.16-2.006-2.15-2.96-2.97-.022-.022-.633-.484-1.834-1.4h-1l-.592.42-.188.356-.183.385-.156 1.706-1.338-1.497-1.092-.793-1.184-.512a15 15 0 0 1-1.18-.064"/><path d="M326.453 779.488l5.293 8.094c0 .124.03.406.092.842l-.684-.093-.87-.87c-.02 0-.064.092-.127.278l-.34-.06-3.672-3.836a3.5 3.5 0 0 0-.377-.119l.096.498 2.674 2.865.096.316a4.19 4.19 0 0 0 .341.095c.456.464 1.018.915 1.682 1.36l1.182.346h1.154a2.2 2.2 0 0 0 .59-.939v-1.348c-.457-1.025-.686-1.642-.686-1.852l1.028.996 1.34 2.365 1.277.75c.185 0 .52.028.998.09l-.096-1.194-.312-.504-2.614-2.14c-.105-.125-.236-.323-.404-.596v-1.352a.18.18 0 0 1 .092-.096l.094-.125h1.06c.102.04.266.092.494.156.56.464 1.155 1.062 1.778 1.8 0 .063.02.177.062.347l.498-.095-.748-.903-.156-.84-.81-.653-.78-.624c-.312-.102-.765-.156-1.367-.156-.084.02-.356.103-.81.248-.06.21-.093.99-.093 2.337l-1.336-1.345-2.03-3.038c-.013-.065-.046-.178-.09-.343l-.84-.097c-.147-.125-.248-.23-.313-.313l-2.365-.25"/><path d="M343.016 784.875h.344l.12.374 2.123 2.118.838.683.87.686h-.682l-.902-.56-2.12-2.272-.592-1.028m3.082-5.667c-.455.416-.943.924-1.46 1.526v1.745l.186.404.156.435 2.086 3.115.685 1.37c-.023.02-.043.174-.064.47l-1.06-.715-2.736-2.778-4.268-5.1-1.37-.19c-.205-.018-.548-.018-1.03 0l4.174 6.57.685 1.4.248 1.028-.68-.093-.53-.345-.5-.34-.998-1.184-.995-1.15-.093-.343-.405.094c-.29-.25-.703-.684-1.244-1.307a2.01 2.01 0 0 0-.281-.094l-.28-.06c.02.082.045.195.064.34l2.77 3.112 2.148 1.805c.33.104.84.158 1.527.158.124-.104.3-.186.53-.25l.248-.87v-1.713l1.37 1.713.965.778c.228.06.57.176 1.027.343h1.9l.71-.56a7.48 7.48 0 0 0 .223-.56v-1.027l-.346-.872-.34-.84-2.926-4.486v-.342l.033-.375.746-.03 1.03.686 3.856 4.7v-.343l-1.553-2.054v-.34l1.43 1.398.373.155-.094-.526-1.37-1.557-2.8-2.493-.375-.156a2.05 2.05 0 0 0-.312-.154l-1.057-.095"/><path d="M354.533 784.72l3.145 1.275.935.747.307.654-.026.53v.53a2.12 2.12 0 0 0-.373.032h-.343l-2.055-1.746c-.416-.413-.945-1.087-1.6-2.022m-.684-1.153l1.68.59 1.154.656h-.656l-.963-.25-.904-.28-.31-.716m-.187-4.014c-.166.145-.434.34-.81.6l-.748.934a5.34 5.34 0 0 0-.342.84l-.156 2.336c-.144-.146-.34-.258-.6-.34l.034.246a.99.99 0 0 0 .029.252l1.37 1.433 1.37 1.43 1.088.686 1.12.686c.145.06.533.185 1.156.37h2.862c.146-.124.384-.38.717-.775 0-.437-.05-.822-.157-1.152-.228-.333-.86-.977-1.898-1.93l-1.03-.654-1.1-.53-1.06-.498-.996-.185-.994-.218c-.065-.208-.096-.936-.096-2.182.127-.228.313-.415.56-.56h1.34c.184.064.465.177.838.345l1.838 1.308 2.74 3.083c.04.185.072.3.095.34h.34c-.062-.23-.21-.458-.435-.685v-.655l-2.71-2.862c-.604-.417-1.504-.936-2.708-1.557-.373 0-.935-.032-1.683-.093"/><path d="M368.887 785.064c.023.06.05.165.092.31l2.21 2.864v-.312c-.62-.87-1.39-1.827-2.303-2.863m-6.727-5.23c.29.02.748.104 1.373.246.313.2 1.204.998 2.676 2.368l-.998.19-.93.557-.344.842-1.15-1.68-.685-1.497.06-1.024m6.727 5.23c0-.064-.02-.177-.064-.344l-1.338-1.682-3.3-3.113-.994-.496h-1.182a7.53 7.53 0 0 0-.719.372l-.37.56-.156 1.34.313 1.183a26.63 26.63 0 0 0 1.71 2.862v.31l-2.275-2.273c-.144.022-.248.043-.31.065a19.72 19.72 0 0 1 .717 1.027l3.362 3.55 2.054 3.083-1.43.217c.017.04.058.176.125.405h1.865l.248.654 1.713 2.585h2.02l-.12-.405h.686c-.086-.25-.344-.724-.78-1.418s-.685-1.167-.748-1.416l2.866-.093-.344-.34-3.018-.064c-.187-.477-.822-1.65-1.902-3.517l-2.207-3.893.03-1.216.592-.03a6.19 6.19 0 0 1 .623-.032l1.148 1.06 1.186 1.06"/><path d="M376.357 785.064a4.59 4.59 0 0 1 .094.311l2.213 2.864v-.312c-.623-.87-1.393-1.827-2.307-2.863m-6.723-5.23c.29.02.746.104 1.368.246.308.2 1.203.998 2.677 2.368l-.994.19-.935.557-.342.842-1.153-1.68-.68-1.497.06-1.024m6.723 5.23c0-.064-.02-.177-.06-.344l-1.337-1.682-3.3-3.113-.996-.496h-1.184c-.228.103-.465.226-.717.372l-.373.56-.154 1.34.31 1.183c.476.934 1.046 1.888 1.7 2.862v.31l-2.27-2.273c-.145.022-.252.043-.313.065.15.186.385.53.717 1.027l1.68 1.774 1.682 1.775 2.054 3.083-1.433.217c.023.04.064.176.125.405h1.87a12 12 0 0 1 .25.654l1.71 2.585h2.025l-.127-.405h.688c-.084-.25-.342-.724-.78-1.418s-.683-1.167-.746-1.416l2.866-.093-.344-.34-3.022-.064c-.183-.477-.82-1.65-1.896-3.517l-2.21-3.893.03-1.216.592-.03a6.15 6.15 0 0 1 .621-.032l1.154 1.06 1.182 1.06"/></g><path d="M224.654 772.513h-1.756v-4.615h-.933v4.615h-1.77v.82h4.46zm6.87-4.615h-.934v2.295h-2.658v-2.295h-.933v5.438h.933v-2.287h2.658v2.287h.934zm3.715 3.164h2.082v-.856h-2.082v-1.443h2.22v-.865h-3.153v5.436h3.088v-.867h-2.154zm13.776-3.164h-.937v2.295h-2.657v-2.295h-.935v5.438h.935v-2.287h2.657v2.287h.937zm3.71-.001h-.934v5.438h.934zm7.457.395c-.37-.17-1.045-.46-1.97-.46-2.03 0-2.883 1.496-2.883 2.746 0 1.44 1.06 2.826 2.86 2.826.765 0 1.332-.236 1.892-.484v-1.002c-.302.18-1.013.62-1.9.62-.945 0-1.88-.7-1.88-1.926 0-1.262.92-1.924 1.936-1.924.314 0 .54.045 1 .2v.926h-.978v.854h1.914zm7.242-.394h-.936v2.295h-2.658v-2.295h-.93v5.438h.93v-2.287h2.658v2.287h.936zm3.706.864h2.293v-.865h-3.23v5.437h.936zm7.34 1.285l-.756 1.87-.7-1.87zm-1.807-.8l-.568-1.35h-.97l2.266 5.47h.65l2.366-5.47h-.97l-.604 1.35zm10.84-1.35h-.824l-3.162 3.85v-3.85h-.948v5.438h.788l3.2-3.884v3.884h.937zm3.693.878h.83c.272 0 .98 0 1.453.36.518.38.697 1.092.697 1.52 0 .505-.224 1.07-.652 1.427-.36.318-.8.383-1.52.383h-.8zm-.95 4.558h1.822c.926 0 1.543-.142 2.074-.583.643-.5 1.002-1.296 1.002-2.12 0-1.194-.754-1.98-1.293-2.306-.588-.373-1.375-.428-1.883-.428h-1.722zm16.6-1.44c-.404.248-1.014.62-1.893.62-1.224 0-1.88-.935-1.88-1.946 0-1.4 1.173-1.85 1.937-1.85.9 0 1.602.486 1.895.677v-1.057c-.63-.36-1.24-.5-1.96-.5-1.95 0-2.852 1.5-2.852 2.77 0 1.34.97 2.805 2.84 2.805.8 0 1.34-.215 1.912-.46zm7.127-3.996h-.934v2.295h-2.656v-2.295h-.933v5.438h.933v-2.287h2.656v2.287h.934zm5.387.82c.965 0 1.844.7 1.844 1.915 0 .96-.674 1.88-1.832 1.88-1.233 0-1.848-.967-1.848-1.915 0-1.17.875-1.88 1.836-1.88m-.014 4.686c1.76 0 2.862-1.32 2.862-2.782 0-1.553-1.16-2.793-2.895-2.793a2.72 2.72 0 0 0-2.793 2.77c0 1.5 1.094 2.805 2.826 2.805m9.954-1.51c-.406.248-1.016.62-1.9.62-1.228 0-1.88-.935-1.88-1.946 0-1.4 1.17-1.85 1.933-1.85.9 0 1.604.486 1.893.677v-1.057c-.63-.36-1.24-.5-1.96-.5-1.948 0-2.846 1.5-2.846 2.77 0 1.34.967 2.805 2.834 2.805.8 0 1.342-.215 1.916-.46zm5.216-3.177c.965 0 1.846.7 1.846 1.915 0 .96-.674 1.88-1.836 1.88-1.23 0-1.85-.967-1.85-1.915a1.81 1.81 0 0 1 1.84-1.881m-.01 4.686c1.754 0 2.856-1.32 2.856-2.782 0-1.553-1.157-2.793-2.9-2.793a2.72 2.72 0 0 0-2.793 2.77c0 1.5 1.092 2.805 2.828 2.805m6.337-4.64h2.3v-.865H339.9v5.437h.934zm7.342 1.285l-.754 1.87-.7-1.87zm-1.803-.8l-.572-1.35h-.97l2.264 5.47h.652l2.364-5.47h-.97l-.606 1.35zm9.414 3.266h-1.754v-4.615h-.935v4.615h-1.772v.82h4.46zm3.287-4.616h-.934v5.438h.934zm3.73 3.165h2.08v-.856h-2.08v-1.443h2.217v-.865h-3.153v5.436h3.084v-.867h-2.148zm5.572 1.44v-1.6h.316c.327 0 .62 0 .8.17.08.065.27.27.27.64 0 .7-.517.8-1.158.8zm.336.833c.543 0 2.006-.032 2.006-1.553 0-1.05-.666-1.295-.912-1.385.36-.33.506-.46.945-1.173.623-1.023.72-1.125.916-1.326h-1.13c-.28.54-.652 1.08-.967 1.54-.215.318-.508.675-.924.675h-.27v-2.216h-.947v5.437z" fill="#c41b31"/><g fill="#8c7142" fill-rule="evenodd"><path d="M259.998 809.558c2.658.44 4.592-.908 5.814-2.353-.814 1.7-3.53 3.47-5.814 2.353m7.062-4.428c.82 4.124-6.083 7.47-9.556 4.706 3.103 1.73 8.16-.188 9.002-3.183.576-2.054-.57-2.958-2.213-3.324 1.357-.24 2.568.8 2.767 1.8m.55 4.706c-.685 1.53-1.72 2.7-3.045 3.6-.015-.17-.04-.328-.273-.278 1.158-1.054 2.5-1.925 3.318-3.32m-12.732 9.275c.396-.165-.647-.665-.693-1.385-.016-.178.1-.623.136-.692 1.13-2.772 7.785-1.806 9.832-3.736.184.043.114.346.14.552 1.932-1.018 3.22-2.684 3.87-4.983-1.447 1.734-2.934 3.432-5.672 3.877 1.908-1.226 4.305-1.97 5.12-4.292-1.45 1.92-3.185 3.55-6.365 3.74.875-.366 1.797-.63 2.766-1.1 1.87-.922 3.466-2.16 3.88-4.707-1.125 2.955-3.817 5.28-7.752 5.26-.348 0-.745-.266-1.1-.137.274-.532.614-.1.97-.137 3.572-.263 7.324-2.167 7.338-5.538.002-.667-.213-1.646-.83-2.216-.875-.8-3.002-1.012-3.738.14-.48.752-.178 2.412.7 2.63 1.283.324 2.152-.775 1.387-1.66-.522-.385-.682.55-1.1.7-.488-1.23 1.627-1.468 1.94-.413.752 2.566-3.34 2.457-5.4 2.768.004.685.793.6 1.106.97-1.9.122-3.57-.323-4.703.97.158 1.13.822 1.758 1.8 2.076.048.514-.56.36-.416.97 1.248.916 3.095.33 4.845.275.338.017.028.46-.138.416.464.458.808-.38 1.105-.553.176.443-.426.877-.83.968-.473.1-.8-.226-1.385-.278-1.42-.114-3.342.14-4.154-.553-.4-.1.14-.296 0-.553-1.555.058-2.164 1.064-3.182 1.66.043.326.43.312.557.554-1.1.92-2.3 3.914 0 4.43M272.18 804.3c-.445-.226-.748-.067-1.244 0-.043-.58 1.3-.58 1.244 0m-2.906 0c-.496-.067-.8-.226-1.246 0-.04-.58 1.3-.58 1.246 0m-1.1 4.293c.8-1.222 2.567-2.527 1.25-4.293.653-.528.606-.5 1.385-.14-1.223 1.87.53 3.115 1.106 4.432.365-1.107-1.08-1.597-1.246-2.633.277-.342.517 1.048.966.552-.002-.502-.394-.618-.552-.965.43-.016.394.434.968.275-.1-.315-.416-.416-.693-.554-.02-.298.494-.063.693-.137.102-.378-.273-.278-.273-.554.004-.246.65.22.826-.14.02-.707-.527-.853-1.246-.83.363-.682 1.266-.006 1.666.138.13-.775-.496-.796-.973-.968.608-.506 1.03.35 1.526.415.574-2.156-3.32-2.354-3.323-.137-.642-.546-.943-2.117-2.632-1.663-.655.177-1.096 1.08-.97 1.8.58-.1.658-.728 1.52-.553-.314.376-1.03.352-.966 1.106.474-.135 1.086-.68 1.662-.278-.46.286-1.358.123-1.248.97a.68.68 0 0 0 .832 0c.103.425-.38.267-.28.694h.696c-.104.316-.416.414-.696.552.196.4.688-.038.832-.136.286.203-.472.534-.416.965.467.364.577-.548.973-.7-.143 1.245-1.318 1.452-1.4 2.77"/><path d="M267.754 808.036c.336-.306.53-.758.7-1.245-.457.2-.558.733-.7 1.245m4.566 0c.373-.382-.28-.915-.416-1.245-.287.3.412.78.416 1.245m-8.86-.968c-.656-.22-1.586-.166-2.213-.416.38-.327 1.096.2 1.8 0-.596-.465-1.772-.352-2.354-.83.397-.386.85.344 1.52.138-.385-.35-1.035-.436-1.383-.83.145-.27.565.35 1.108.137-.575-.438-1.252-.776-1.936-1.107-1.432 2.106 1.03 3.812 3.46 2.908m16.748-2.908c-.707.266-1.156.782-1.937.97.26.387.882-.027 1.107-.137-.182.555-.8.664-1.383.83.447.442.973-.216 1.522-.14-.46.603-1.522.603-2.356.83.445.392 1.258-.03 1.8 0-.492.385-1.285.466-2.215.415 2.123 1.207 5.068-.654 3.463-2.767m-18.135.554c-.17-.567-.8-.668-.973-1.246.274-.26.537.655 1.108.552.207-.653-1.08-.916-.965-1.936.584.292.5 1.243 1.38 1.244-.625-.665-1.147-1.434-.97-2.905-2.504.437-2.006 4.13.418 4.3m16.056.001c2.363-.154 2.945-3.746.557-4.3-.202 1.088-.186 2.396-1.1 2.768.57.334 1.018-.642 1.252-1.107.5.82-1.115 1.343-.832 1.936.58-.016.697-.5 1.106-.692.013.797-.83.74-.973 1.386m-15.372-1.662c.287-.432-.174-1.3 0-2.078.287.548.23 1.432.7 1.8.174-.505-.244-1.976.414-2.355.168.37-.543 1.917.42 2.08-.52-1.536.428-2.672 1.106-3.462-2.656-1.422-4.35 2.266-2.63 4.016m14.532-.001c1.994-1.512.186-5.54-2.492-4.016.703.766 1.638 1.915 1.1 3.462.836-.137.537-1.54.278-2.08.806.107.584 1.706.416 2.355.552-.28.664-.998.7-1.8.373.515.012 1.48 0 2.078m-11.214-.277c.453-.975.9-1.962 2.633-1.66-.592-2.802-4.72-1.85-4.154.97-.006-.034.068.47.416.416-.02-.896.275-1.478.83-1.8.1.33-.9 1.197-.414 1.94.445-.523.605-1.333 1.244-1.662-.135.6-.887 1.18-.555 1.8m7.892-.004c.6-.347-.205-1.255-.414-1.66.408-.085.934.908 1.107 1.523.688-.494-.1-1.573-.418-1.94.735.192.955.892.97 1.8 1.072-.927-.156-3.074-1.383-3.183-1.066-.097-2.1.666-2.218 1.798 1.54-.2 2.142.537 2.355 1.66m.554 4.432c.97 1.718 3.36 2.567 5.678 2.494-1.8 1.075-5.65-1.153-5.678-2.494m-1.383-.968c-.172-1.8 1-3.017 2.768-3.046-.36.414-.897.476-1.244.692-.422.26-.774.4-.97.97-1.078 3.182 3.537 6 6.78 5.673.852-.087 1.403-.614 2.217-.553-3.258 2.188-9.203-.088-9.55-3.737m2.768 6.922c-.633.424-1.418-.52-1.938-1.1-.578-.66-1.26-1.613-1.246-2.214.643 1.525 2.092 2.245 3.184 3.323m3.047-1.1c-2.85.127-5.04-1.604-6.23-3.6.428 2.062 2.98 3.205 4.987 4.155-2.44-.103-4.336-1.944-5.542-3.74.227 2.127 1.92 3.986 3.74 4.983v-.553c1.678 1.957 8.324.776 9.828 3.32.516.87.176 1.836-.553 2.493 2.367-.276 1.418-3.536.14-4.3-.028-.446.492-.337.7-.554-1.027-.68-1.693-1.722-3.322-1.8-.018.25.168.3.14.553-.955.625-2.696.44-4.153.553-.966.078-2.203.655-2.492-.7.598.092.5.884 1.383.7-.014-.262-.457-.095-.414-.413 1.627-.304 3.8.6 5.12-.418.023-.484-.47-.453-.55-.828.78-.557 1.707-.97 1.8-2.214-1.213-1.155-2.535-1.056-4.707-.832.117-.618 1.146-.328 1.107-1.107-2.045-.338-5.9-.167-5.4-2.63.184-.88 1.854-1.34 2.078.137-.455.464-.687-1-1.107-.553-1.004.662-.073 2 1.244 1.66.685-.17 1.265-1.573.83-2.5-.6-1.265-3.164-1.08-4.012-.14-.443.493-.68 1.427-.695 1.938-.098 3.536 4.433 5.986 8.3 5.538-.193.402-.652.396-.97.418-1.87.118-4.6-.934-5.815-1.94-1.017-.853-1.44-2.197-1.94-3.325.256 3.252 3.25 4.963 6.508 5.676m-23.943 6.375c-.914-3.82 6.52-2.705 8.857-4.154-.48-.198-.72.152-1.242.276-1.984.473-5.814.46-7.062 1.385-.473.347-1.483 1.703-.553 2.493m30.177-.14c1.053-.1-.14-2.045-.553-2.352-1.76-1.318-6.414-.577-8.17-1.8 1.514 1.747 9.455.254 8.723 4.152"/></g><text transform="matrix(1 0 0 -1 373.6973 773.7334)" font-size="4.087" font-family="Arial" writing-mode="lr-tb" fill="#c41b31"><tspan x="0" y="0">®</tspan></text></g></svg>