<svg xmlns="http://www.w3.org/2000/svg" aria-label="Mannequin" height="48" width="48" viewBox="0 0 48 48" fill="none" stroke="currentColor" stroke-width=".5">
  <!-- Text based on Capriola, Designed by Viktoriya Grabowska -->
  <path d="M21.9 21l3.4-.2c-1.3-.8-2.4-.9-3.4.2 1.6 1 2.1 1.1 3.4-.2m-.8-5.3c.8-1.3 2.2-1.8 3.5-.5-1 1-2.1 1.3-3.5.5zm-5.8 0c1.3-.8 1.6-.8 3 0-1.4 1.3-1.7 1.3-3 0zm0-1.5c2.7 0 2.7 0 4 1.3v4H24v-4c.7-1.3 1.3-1.9 4-1.9m-3.9-6.1c3.9 0 6.5 2.7 6.5 8 0 2.6-1.8 5-2.6 6.6l-.6 1.3c.6 1.3.8 2.6 1.9 4-1.3 2.6-8 2.6-9.3 0 .7-1.4 1.6-2.7 1.6-4a16 16 0 01-4.2-9.3c0-4 1.3-6.6 6.6-6.6z"/>
  <path d="M40.37 35.4q0-.25.24-.25h.19q.19 0 .26.15.1.2.16.54.31-.56.92-.72.19-.05.47-.05.29 0 .53.12.25.12.39.33.26.39.26 1.14v2.12q0 .1-.07.16-.06.07-.18.07h-.33q-.13 0-.2-.07-.06-.06-.06-.16v-2.12q0-.88-.64-.88-.37 0-.68.32-.34.33-.34.78v1.9q0 .1-.05.16-.06.07-.18.07h-.35q-.12 0-.19-.07-.06-.06-.06-.16v-2.1q0-.68-.04-.95l-.05-.33zm-1.92-.9q-.23 0-.4-.17-.16-.15-.16-.4 0-.23.17-.4.15-.15.4-.15.36 0 .5.34.05.1.05.22 0 .24-.16.4-.17.15-.4.15zm.4 3.57q0 .24.16.24.06 0 .13-.03.13-.06.18-.06.07 0 .11.1l.11.24q.03.06.03.11 0 .15-.26.27-.23.13-.47.13-.23 0-.37-.06-.14-.05-.24-.17-.2-.24-.2-.8v-2.66q0-.1.05-.16.06-.07.13-.07h.46q.08 0 .13.07.05.06.05.16zm-2.02.7q0 .24-.21.24h-.16q-.2 0-.27-.17-.07-.18-.15-.52-.14.36-.49.57-.34.2-.85.2-.67 0-1-.41-.3-.42-.3-1.24v-2.06q0-.1.05-.16.06-.07.17-.07H34q.22 0 .22.23v2.02q0 .82.38.95.12.04.3.04.16 0 .34-.08.18-.08.33-.21.32-.3.32-.68v-2.04q0-.1.05-.16.06-.07.19-.07h.36q.12 0 .17.07.06.06.06.16v2.13q0 .73.1 1.17l.01.1zm-4.97-3.62c.14 0 .21.1.21.27L32 40.67c2.53-2.06 4.66 1.14 1.13 2.33-.13 0-.13 0-.13-.12v-.28c0-.16.1-.2.1-.2 3.13-1.84-1.1-2.88-1.1.28 0 .24 0 .32-.18.32l-.42.01c-.2 0-.2-.1-.2-.32-.01-.76.04-3.76.07-4.3a1.3 1.3 0 01-.82.65c-.13.04-.29.05-.48.05-.2 0-.39-.05-.58-.16-.2-.11-.36-.26-.5-.45-.26-.38-.4-.86-.4-1.44 0-.55.16-1.02.48-1.4.32-.38.7-.57 1.13-.57.28 0 .52.05.71.16.2.12.37.28.51.5l.09-.32.03-.12c.01-.06.04-.1.08-.11a.33.33 0 01.12-.03zm-1.58 3.24a.8.8 0 00.41-.11c.13-.08.23-.17.33-.3.19-.26.28-.57.28-.92 0-.38-.1-.69-.32-.93a.95.95 0 00-.73-.35c-.29 0-.5.13-.67.4-.14.22-.21.52-.21.88 0 .37.07.67.22.92.17.27.4.4.69.4zm-5.08-1.12v.06q0 .47.3.76.3.3.84.3.48 0 .9-.3.08-.05.14-.05.13 0 .2.13l.08.19q.03.07.03.15 0 .07-.07.16-.07.08-.18.15-.11.07-.26.12l-.3.09q-.32.06-.66.06t-.7-.13q-.34-.13-.6-.38-.53-.53-.53-1.43 0-1.58 1.1-1.97.36-.12.72-.12.37 0 .63.08t.45.23q.4.33.4.91 0 .57-.47.87-.4.27-1.07.27-.41 0-.95-.15zm1.68-1q0-.49-.66-.49-.62 0-.87.46-.09.16-.12.4.3.14.75.14.9 0 .9-.51zm-6.92-.87q0-.25.24-.25h.19q.19 0 .26.15.1.2.16.54.3-.56.92-.72.19-.05.47-.05.29 0 .53.12.24.12.38.33.26.39.26 1.14v2.12q0 .1-.06.16-.06.07-.18.07h-.33q-.13 0-.2-.07-.06-.06-.06-.16v-2.12q0-.88-.64-.88-.38 0-.69.32-.33.33-.33.78v1.9q0 .1-.06.16-.05.07-.17.07h-.36q-.12 0-.18-.07-.06-.06-.06-.16v-2.1q0-.68-.04-.95l-.05-.33zm-4.66 0q0-.25.24-.25h.18q.2 0 .26.15.1.2.17.54.3-.56.91-.72.2-.05.48-.05.29 0 .53.12.24.12.38.33.26.39.26 1.14v2.12q0 .1-.06.16-.06.07-.18.07h-.34q-.13 0-.19-.07-.06-.06-.06-.16v-2.12q0-.88-.64-.88-.38 0-.69.32-.33.33-.33.78v1.9q0 .1-.06.16-.06.07-.18.07h-.35q-.12 0-.18-.07-.06-.06-.06-.16v-2.1q0-.68-.05-.95l-.04-.33zm-.99 3.43q0 .18-.18.18h-.33q-.13 0-.16-.05-.03-.06-.03-.1l-.01-.1-.06-.37q-.27.5-.84.65-.2.05-.44.05t-.49-.08q-.24-.08-.43-.23-.42-.36-.42-.94 0-.63.46-.96.39-.27.99-.27t1.02.35v-.3q0-.17-.06-.34-.07-.18-.2-.3-.26-.22-.72-.22-.42 0-.85.23-.08.04-.14.04-.1 0-.18-.18-.1-.18-.1-.27 0-.15.23-.29.43-.26 1.15-.26.66 0 1.1.36.5.43.5 1.21 0 .35-.11.88.29.83.3 1.3zm-2.29-1.45q-.14.1-.2.2t-.06.25q0 .13.05.24.05.1.14.18.19.15.42.15.24 0 .39-.06.15-.05.26-.14.23-.18.23-.39-.02-.25-.28-.4-.24-.14-.56-.14-.25 0-.39.1zm-5.69-2.31q.86 0 1.1.77.33-.55.9-.72.19-.06.48-.06t.56.15q.27.14.4.37.14.23.17.5.04.29.04.6v2.1q0 .1-.06.16-.06.07-.18.07H9.4q-.13 0-.2-.07-.05-.06-.05-.16v-2.13q0-.44-.16-.65-.15-.22-.47-.22-.38 0-.66.33-.3.34-.3.85v1.82q0 .1-.06.16-.06.07-.18.07h-.34q-.13 0-.19-.07-.06-.06-.06-.16v-2.13q0-.44-.15-.65-.15-.22-.48-.22-.37 0-.66.33-.3.34-.3.85v1.82q0 .1-.05.16-.06.07-.18.07h-.35q-.12 0-.18-.07-.07-.06-.07-.16v-2.1q0-.68-.04-.95l-.04-.33q0-.25.23-.25h.19q.2 0 .26.15.08.17.16.54.3-.54.86-.71.19-.06.4-.06z" fill="currentColor" stroke="none"/>
</svg>
