<svg xmlns="http://www.w3.org/2000/svg" viewBox="0 0 841.9 177.9" width="841.9" height="177.9" aria-label="We Are Pentagon">
  <path d="M10.3 6.7L0 77.7h101.2l75.6 31-10.3-91.8z"/>
  <path d="M49.5 58h-4l-4.3-14.6L36.7 58h-3.9l-6.4-24h5L35 49.1 39.4 34h3.5l4.4 15.1L51 34h5l-6.5 24zm9.4 0V34h15.8v4.2h-11v5.6H73V48h-9.5v5.8h11.2V58H59zm42 0l-1.5-4.2H91L89.4 58h-4.9l8.8-24h3.6l8.8 24h-4.9zm-5.7-17l-3 8.8h6l-3-8.7zm26.2 17l-4.7-9.6h-3.3V58h-4.7V34h9.4c4.9 0 7.8 3.3 7.8 7.3 0 3.4-2.1 5.5-4.4 6.4l5.3 10.3h-5.4zm-3.6-19.8h-4.4v6.3h4.4c2 0 3.4-1.3 3.4-3.1s-1.4-3.2-3.4-3.2zm13 19.8V34h15.7v4.2h-11v5.6h9.4V48h-9.5v5.8h11.1V58h-15.8z" fill="#fff"/>
  <path d="M287.4 70.5c0 24.6-15.7 38.9-43 38.9h-18.2V144h-20.8V31.5h39c27.3 0 43 14.3 43 39zm-20.7 0c0-11.9-4.2-19.7-23.8-19.7h-16.7v39.7h16.7c19.6 0 23.8-8 23.8-20zm96 50.2v16.9c-8 4.3-18.7 7.8-32.6 7.8-17.2 0-40.4-7-40.4-43.8 0-26 10.5-46 38.8-46 27.1 0 38.8 20.4 38.8 42.1 0 3.9 0 7.3-.4 10.8h-55.8c1.2 16.7 12 19 22 19a68 68 0 0029.6-6.8zm-51.6-26.6h35c-1.1-11-6.5-21.4-17.6-21.4-10.3 0-16.2 6-17.4 21.4zm139.2-2.3V144h-20.6V90c0-7.6-1.6-15.8-20.5-15.8-6 0-8.7.7-13.4 1.6V144h-20.9V65.4c.7-.3 15-9.5 37-9.5 24.2 0 38.4 13.4 38.4 36zm37.5-16.6v42.7c0 7.7 3 9.6 10.6 9.6 4 0 7.1-.7 9.9-2v17.3a35.3 35.3 0 01-13.7 2.6c-17.3 0-27.7-10.8-27.7-28.7V75.2h-14.6v-18H467V31.6h20.9v25.8h20.5v17.9h-20.5zm98.6 17.5v23.5c0 14-9.6 29.2-36.5 29.2-27.5 0-37.2-15.3-37.2-29.7 0-6.5 2.6-27.3 37.4-27.3 5.4 0 10.6.5 15.3 1.2 0-9.4-4.9-16.4-18.5-16.4-10.4 0-18.9 1.8-25.3 4.4V60.7c7.3-3 16.1-4.8 26.6-4.8 24.6 0 38.2 13 38.2 36.8zm-20.9 10c-3.6-.5-7.8-1-12.5-1-14 0-19.6 4.2-19.6 11.3 0 9 5.4 14 16.3 14 11.7 0 15.8-5.3 15.8-13.3v-10.9zm102.6-18.3V146c0 11.8-5 31.8-39.1 31.8a85.6 85.6 0 01-25-3.5v-18.6a71 71 0 0022.6 3.5c20.7 0 20.7-7.7 20.7-13.2v-4.7c-4.4.8-8.7 1.4-13.2 1.4-25.2 0-39.1-15.2-39.1-42.4 0-40.2 26.4-44.5 37.7-44.5 26.2 0 35.4 14.7 35.4 28.5zm-20.9-.2c0-7.8-6.7-9.7-14.6-9.7-10.4 0-16.8 6.6-16.8 26.2 0 20.9 7.3 25 19 25 4.8 0 9-.5 12.4-1.2V84.2zm111.3 16.5c0 28.8-14.6 44.6-41 44.6s-41-15.8-41-44.6c0-28.9 14.6-44.7 41-44.7s41 15.8 41 44.7zm-20.9 0c0-23-7.8-27.5-20.1-27.5s-20.2 4.5-20.2 27.5 7.8 27.4 20.2 27.4 20.1-4.4 20.1-27.4zM842 91.8V144h-20.7V90c0-7.6-1.6-15.8-20.5-15.8-6 0-8.7.7-13.4 1.6V144h-20.8V65.4c.7-.3 14.9-9.5 37-9.5 24.1 0 38.4 13.4 38.4 36z"/>
</svg>
