<svg xmlns="http://www.w3.org/2000/svg" viewBox="0 0 157 32" width="157" height="32" aria-label="Contentful">
  <path fill="#FFD85F" d="M9.7 22.3a8.8 8.8 0 01-.1-12.6c1.4-1.4 1.4-3.6 0-5s-3.6-1.4-5 0a16 16 0 00.1 22.6 3.5 3.5 0 005 0 3.7 3.7 0 000-5z"/>
  <path fill="#3BB4E7" d="M9.7 9.7a8.8 8.8 0 0112.6-.1c1.4 1.4 3.6 1.4 5 0s1.4-3.6 0-5a16 16 0 00-22.6.1 3.5 3.5 0 000 5 3.7 3.7 0 005 0z"/>
  <path fill="#ED5C68" d="M22.3 22.3a8.8 8.8 0 01-12.6.1c-1.4-1.4-3.6-1.4-5 0s-1.4 3.6 0 5a16 16 0 0022.6-.1 3.5 3.5 0 000-5 3.7 3.7 0 00-5 0z"/>
  <circle cx="7.2" cy="7.2" r="3.5" fill="#308BC5"/>
  <circle cx="7.2" cy="24.8" r="3.5" fill="#D5465F"/>
  <path fill="currentColor" d="M43 19.3c1-.8 1.2-.3 2 .5.4.4 1.6 1.2.8 1.8a7.4 7.4 0 01-5.1 1.9 7.5 7.5 0 01-7.7-8 7 7 0 012.5-5.3 7.6 7.6 0 015.2-1.7 8 8 0 014.4 1.4c1 .8.5 1.2-.2 2l-.5.5c-.4.4-.7.7-1.2.3-1-.7-2.4-1.1-3.6-.8-4 1-3.8 8.1 1.1 8.1.8.1 1.7-.2 2.3-.7zm111.1 3.9c-.7 0-1.2-.5-1.2-1.2V6.3c0-.7.5-1.2 1.2-1.2h1.3c.7 0 1.2.5 1.2 1.2V22c0 .7-.5 1.2-1.2 1.2h-1.3zm-6.9-1.8a6.6 6.6 0 01-4.8 2c-4.1 0-6-3.4-6-7.1V9.9c0-.7.5-1.2 1.2-1.2h1.3c.7 0 1.2.5 1.2 1.2v6.4c0 2.1 1.1 3.7 3.4 3.7 2.2 0 3.6-1.9 3.6-3.9V9.9c0-.7.5-1.2 1.2-1.2h1.3c.7 0 1.2.5 1.2 1.2V22c0 .7-.5 1.2-1.2 1.2h-1.1c-.7 0-1.1-.6-1.2-1.2l-.1-.6zM131.6 8.8h2.5c.7 0 1.2.6 1.2 1.2v.8c0 .7-.5 1.2-1.2 1.2h-2.5v10c0 .7-.5 1.2-1.2 1.2h-1.3c-.7 0-1.2-.5-1.2-1.2V8.3c0-3 1.7-5.4 4.8-5.7h1.9c.7 0 1.2.6 1.2 1.2v.8c0 .7-.5 1.2-1.2 1.2h-1c-1.5 0-2.1 1.1-2.1 2.5v.5h.1zm-9.1 0h2.8c.7 0 1.2.5 1.2 1.2v.8c0 .7-.5 1.2-1.2 1.2h-2.8v6.1c0 1.2.6 1.8 1.8 1.8h.6c.7 0 1.2.5 1.2 1.2v.9c0 .7-.5 1.2-1.2 1.2h-1.7c-3-.2-4.3-2.1-4.3-5.1V6.3c0-.7.5-1.2 1.2-1.2h1.3c.7 0 1.2.5 1.2 1.2v2.5h-.1zm-40.1 0h2.8c.7 0 1.2.5 1.2 1.2v.8c0 .7-.5 1.2-1.2 1.2h-2.8v6.1c0 1.2.6 1.9 1.8 1.9h.6c.7 0 1.2.5 1.2 1.2v.8c0 .7-.5 1.2-1.2 1.2H84c-3.3 0-5.2-1.4-5.2-5.1V6.3c0-.7.5-1.2 1.2-1.2h1.3c.7 0 1.2.5 1.2 1.2v2.5h-.1zm-16.3 1.7c1.3-1.3 2.8-2 4.6-2 4.1 0 6.2 3.3 6.2 7.1V22c0 .7-.5 1.2-1.2 1.2h-1.3c-.7 0-1.2-.5-1.2-1.2v-6.4c0-2.1-1.1-3.7-3.4-3.7-2.2 0-3.6 1.8-3.6 3.9V22c0 .7-.5 1.2-1.2 1.2h-1.3c-.7 0-1.2-.5-1.2-1.2V9.9c0-.7.5-1.2 1.2-1.2h1.1c.7 0 1.1.6 1.2 1.2l.1.6zm40.2 0c1.3-1.3 2.8-2 4.6-2 4.1 0 6.2 3.3 6.2 7.1V22c0 .7-.5 1.2-1.2 1.2h-1.3c-.7 0-1.2-.5-1.2-1.2v-6.4c0-2.1-1.1-3.7-3.4-3.7-2.2 0-3.6 1.8-3.6 3.9V22c0 .7-.5 1.2-1.2 1.2h-1.3c-.7 0-1.2-.5-1.2-1.2V9.9c0-.7.5-1.2 1.2-1.2h1.1c.7 0 1.1.6 1.2 1.2l.1.6zM53.8 8.4a7.3 7.3 0 00-7.5 7.6c0 4.4 3.1 7.6 7.5 7.6 4.5 0 7.6-3.1 7.6-7.6 0-4.4-3.2-7.6-7.6-7.6zm36.6 8.9c.3 2 2.3 2.9 4.2 2.9.9 0 1.9-.2 2.7-.6l.4-.2c.5-.3.9-.4 1.3 0l.7.7.6.6c.6.8.2 1-.5 1.4a9.5 9.5 0 01-5.2 1.5c-4.8 0-8-2.9-8-7.7 0-4.6 3.2-7.6 7.7-7.6 4.7 0 7.3 2.7 7.4 7.4 0 1.3.1 1.7-1.2 1.7H90.4v-.1zm-36.6-5.5c2.3 0 3.8 2 3.8 4.2 0 2.3-1.4 4.1-3.8 4.1S50 18.3 50 16s1.5-4.2 3.8-4.2zm36.7 2.4H98c-.3-1.9-1.8-2.6-3.6-2.6-1.9 0-3.4.9-3.9 2.6z"/>
</svg>
