<svg xmlns="http://www.w3.org/2000/svg" width="399" height="70" viewBox="0 0 399 70" aria-label="TakeShape">
  <path fill="#5edeb3" d="M47.6 0l34.6 34.7-34.6 34.6-34.7-34.6z"/>
  <path d="M38.5 9L34 13.6h14.6v42.1H33.9l4.8 4.8h14.4V9zm-34 46.7V13.6h24.3L33.3 9H0v51.5h33l-4.7-4.8zm371.7-17.6l.1-.6c.6-2 1.5-3.6 3-4.7s3.2-1.7 5.2-1.7 3.7.6 5.1 1.8a8.5 8.5 0 012.7 4.7l.1.5zm22.3 2.4c0-2.8-.7-5.4-1.8-7.7-1.1-2.2-2.8-4-5-5.2-2.2-1.3-4.7-2-7.5-2a14.5 14.5 0 00-10.3 4.2c-1.3 1.3-2.3 3-3 4.8-.8 2-1.1 4-1.1 6.2 0 3 .7 5.7 2 8 1.3 2.4 3 4.2 5.4 5.4a16 16 0 007.7 1.8c2.7 0 5.2-.5 7.3-1.5 2-.9 3.6-2.2 4.9-3.7l-4.3-3.7a9.5 9.5 0 01-7.5 3.4 8.6 8.6 0 01-9-7.2l-.1-.5h22.2l.1-2.3m-43 7.8a8.4 8.4 0 01-6.4 2.6c-2.5 0-4.7-.9-6.4-2.6a9.2 9.2 0 01-2.6-6.7c0-2.8.8-5 2.5-7A8.4 8.4 0 01349 32c2.5 0 4.6.9 6.3 2.7a9.6 9.6 0 012.6 7c0 2.7-.9 5-2.5 6.7m-6.4-16.6c-2.7 0-5 1-6.7 2.9a10.1 10.1 0 00-2.6 7c0 2.8 1 5.1 2.7 6.8a9 9 0 006.6 2.7c2.7 0 4.9-.9 6.6-2.7 1.6-1.7 2.5-4 2.5-6.8 0-3-.9-5.3-2.6-7.1a8.7 8.7 0 00-6.5-2.8m9.1 10c0 2.7-.8 5-2.5 6.8a8.8 8.8 0 01-6.6 2.7 9.2 9.2 0 01-9.3-9.6c0-2.8.9-5.2 2.6-7 1.7-2 4-3 6.7-3 2.6 0 4.7 1 6.5 2.8a9.8 9.8 0 012.6 7.1v.1m2.2-11a13.7 13.7 0 00-10.1-4.4c-4 0-7.1 1.4-9.3 4l-.2.1h-.7v-3.6H334v41.7h6.1v-16h.7l.2.2c2.2 2.7 5.3 4 9.2 4a14.5 14.5 0 0010.2-4c1.3-1.4 2.3-3 3-4.9a18 18 0 000-12.4c-.8-1.8-1.8-3.5-3-4.8m-40.2 11c0 2.9-.8 5.1-2.6 7a8.6 8.6 0 01-6.4 2.6c-2.7 0-4.9-.9-6.6-2.7a9.7 9.7 0 01-2.5-6.8c0-3 .9-5.4 2.6-7.2 1.8-1.8 4-2.7 6.6-2.7 2.5 0 4.7 1 6.4 2.9 1.7 1.8 2.5 4.2 2.5 7m-.2-11.3h-.7l-.2-.1c-2.2-2.7-5.3-4-9-4a14 14 0 00-10.2 4.3 16.8 16.8 0 00-4 11c0 2.3.3 4.4 1 6.3.8 1.9 1.7 3.5 3 4.8 1.2 1.2 2.8 2.2 4.5 3 1.8.7 3.7 1 5.7 1 4 0 7.1-1.4 9.3-4.3l.2-.2h.7v4.1h5.8V26.7H320zM286.8 29c-1-1-2.2-1.6-3.5-2a14.6 14.6 0 00-10 .4c-1.7.6-3.2 1.6-4.4 3H268.1v-19l-6.2 5v39.8h6.2v-15c0-3 .7-5.4 2.3-7a8.3 8.3 0 016.2-2.5c2.3 0 4.1.7 5.2 2 1.2 1.3 1.8 3.5 1.8 6.5v16h6.1V38.4c0-2.1-.2-4-.8-5.6a7.9 7.9 0 00-2.1-3.8M254 38.3l-1.4-2-2-1.6-2.3-1.4-2.7-1.2-3-1.1a5 5 0 00-.7-.3h-.1l-1.7-.7c-.4 0-1-.3-1.5-.6l-1.3-.6-1.1-.6-1-.7-.7-.7-.7-.9-.3-.9v-1.1a5 5 0 011.8-4.1c1.3-1 2.8-1.5 4.7-1.5 3 0 6.5 1.4 10 4.3l4-5.2a23 23 0 00-14-5c-2.4 0-4.7.5-6.8 1.6-2 1-3.7 2.5-4.9 4.3a10.8 10.8 0 00-1.4 9l1 2.6c.4.7 1 1.4 1.7 2a22.5 22.5 0 004.5 3.2l2.6 1.2 2.9 1a123.3 123.3 0 015.8 2.5l1.2 1 1 1a6 6 0 01.8 3c0 1.8-.7 3.2-2 4.3a9.3 9.3 0 01-5.8 1.5c-2 0-4-.5-6.1-1.5-2-1-3.6-2.3-5.2-4l-4.2 5.1a22.2 22.2 0 0015.5 6.4 18.9 18.9 0 008.1-2 15 15 0 003.4-2.4c1-1 1.8-2.2 2.3-3.6.6-1.4 1-3 1-4.7 0-1.1-.2-2.2-.4-3.1-.3-1-.6-1.8-1-2.5m-56.8.3l.1-.5c.5-2 1.5-3.6 3-4.7a8.4 8.4 0 015.2-1.7c2 0 3.7.6 5 1.8a8.5 8.5 0 012.8 4.6v.6zm15.5-10.4c-2.2-1.3-4.8-2-7.6-2a14.5 14.5 0 00-10.2 4.2c-1.3 1.3-2.3 3-3 4.8-.8 1.9-1.1 4-1.1 6.2 0 3 .6 5.7 2 8 1.3 2.3 3 4.1 5.3 5.4a16 16 0 007.7 1.8c2.8 0 5.3-.5 7.4-1.5 2-1 3.6-2.2 4.9-3.8l-4.3-3.6a9.5 9.5 0 01-7.6 3.4c-2.3 0-4.3-.6-5.9-2a8.6 8.6 0 01-3-5.2l-.2-.5h22.2a18.2 18.2 0 00-1.6-10c-1.2-2.2-2.8-4-5-5.2M188 26.7h-7.2l-12.3 13.8h-.7V11.4l-6.2 5v39.8h6.2v-6.9l5.3-5.9h.5l7.8 12.8h7l-11-17.7zm-43.5 21.7a8.6 8.6 0 01-6.4 2.7c-2.6 0-4.8-.9-6.5-2.7a9.7 9.7 0 01-2.6-6.8c0-3 .9-5.4 2.7-7.2 1.7-1.8 3.9-2.7 6.5-2.7s4.7 1 6.4 2.9a10 10 0 012.6 7c0 2.8-1 5-2.7 6.8m2.4-18.1h-.7l-.1-.1c-.8-1-1.6-1.6-2.5-2.2l-.6-.4-.6-.2-.6-.3-.3-.1a11.9 11.9 0 00-4.5-.8 14 14 0 00-10.1 4.3 16.8 16.8 0 00-4 11c-.1 2.3.3 4.4 1 6.3a13.6 13.6 0 007.5 7.8c1.7.7 3.7 1 5.7 1 4 0 7-1.4 9.3-4.3l.2-.2h.7v4.1h5.8V26.7H147zm-22.7-17H92.4V19H105v37h6.6v-37h12.7z" fill="currentColor"/>
</svg>
