<svg xmlns="http://www.w3.org/2000/svg" height="31.7" width="99.1" viewBox="0 0 99.1 31.7" fill="currentColor" aria-label="Centra">
  <path d="M99.1 25.4h-3.4l-.4-1.5-.1-.2-.2.2a7 7 0 01-5 1.9 9 9 0 01-9-9.3 9 9 0 019-9.3 7 7 0 015 2l.2.1.1-.2.4-1.5h3.4v17.8zm-8.8-14.8c-3.6 0-5.5 2.7-5.5 5.9s2 5.9 5.5 5.9c3.2 0 5.4-2.7 5.4-5.9 0-3.3-2.2-5.9-5.4-5.9zm-19-3h3.5l.3 1.9.2.2.2-.2a5.2 5.2 0 014.2-2.3c.7 0 1.1 0 1.8.4V11h-2.2c-2.2 0-4 1.8-4.1 4v10.4h-3.8V7.6zM58 7.6h3.4V3.8l3-3.8h.6v7.6h3.8V11H65v9c0 1.2.8 2 2 2l2.2-.4V25l-2 .4c-3.8 0-5.9-1.9-5.9-5.3V11h-3.4V7.6zm-16.4 0H45l.4 1.5.2.2.2-.2c.8-1.2 2.6-2 4.1-2 4.5 0 7.1 3 7.1 7.3v11h-3.7v-11c0-2.4-1.3-3.8-3.7-3.8-2.2 0-4 1.8-4.1 4v10.8h-3.8V7.6zm-15.2 9.8c0 2.7 2 5 5.1 5 2.3 0 3.8-1.2 4.4-2.7l3.1 1.5a8.6 8.6 0 01-7.7 4.6c-4.7 0-8.6-3.8-8.6-9.3 0-5.5 3.7-9.3 8.6-9.3 4.5 0 8.3 3.6 8.3 9l-.4 1.2zm.2-3.3h9c-.2-2-2-3.5-4.3-3.5a4.5 4.5 0 00-4.7 3.5zm-12 8.3a5 5 0 004.6-3l3 1.8a8.6 8.6 0 01-7.7 4.6 9 9 0 01-9-9.3c0-5.5 4.3-9.3 9-9.3 3.5 0 6.2 1.9 7.6 4.5l-2.9 2a5 5 0 00-4.5-3C11 10.6 9 13.2 9 16.4c0 3.2 2 5.9 5.6 5.9zM3.5 31.7c1.8 0 3.4-1.5 3.4-3.4s-1.6-3.4-3.4-3.4A3.4 3.4 0 000 28.3c0 1.9 1.5 3.4 3.4 3.4z"/>
</svg>
