<svg
  xmlns="http://www.w3.org/2000/svg" viewBox="0 0 608 173.7" fill="currentColor" aria-label="Shopify">
  <path fill="#95BF47" d="M131 33l-2-2h-12l-12-10-3-1-5 2-3-6C91 9 85 5 79 5h-1-1c-3-3-6-5-10-5-8 1-17 6-23 17-5 7-8 17-9 24l-17 5c-4 1-5 1-5 6L0 151l104 18 45-11-18-125zM91 23l-8 3c0-4 0-10-2-15 6 1 9 8 10 12zm-13 4l-17 6c1-7 5-13 8-17l6-5c3 5 3 12 3 16zM67 6l5 1-7 5c-5 6-9 14-11 23l-14 4C43 26 54 6 67 6z"/>
  <path fill="#5E8E3E" d="M129 32l-12-1-12-10-1-1v149l45-11-18-125-2-1z"/>
  <path fill="#FFF" d="M79 55l-5 19s-6-2-13-2c-10 1-10 7-10 9 0 9 23 11 25 31 1 16-9 27-23 28-16 1-25-9-25-9l3-14s9 6 17 6c4 0 6-4 6-7-1-11-20-11-21-29-1-16 10-32 33-34 9-1 13 2 13 2z"/>
  <path d="M210 97c-5-3-8-6-8-9 0-4 4-7 10-7 7 0 13 3 13 3l5-15s-5-3-18-3c-18 0-30 10-30 25 0 8 6 14 13 19 7 3 9 6 9 10 0 3-3 7-9 7-9 0-17-5-17-5l-5 15s8 5 20 5c19 0 32-9 32-26 0-9-7-15-15-20zm74-31c-9 0-16 4-22 11l8-42h-21l-20 105h21l7-36c2-13 9-22 16-22 5 0 6 4 6 8v9l-8 41h20l8-42 2-14c0-11-6-18-17-18zm64 0c-25 0-42 22-42 47 0 16 10 29 29 29 24 0 41-22 41-47 0-15-9-29-28-29zm-11 60c-7 0-10-6-10-13 0-12 7-31 18-31 7 0 9 6 9 12 0 13-6 32-17 32zm91-60c-14 0-22 12-22 12l1-11h-18l-4 27-14 76h20l6-31s4 3 12 3c25 0 40-25 40-50 0-14-6-26-21-26zm-20 60c-5 0-8-3-8-3l3-19c3-13 9-21 17-21 6 0 8 6 8 11 0 13-8 32-20 32zm71-90c-7 0-12 5-12 12 0 6 4 11 10 11s12-5 12-12c0-6-4-11-10-11zm-29 104h21l14-73h-21zm87-73h-14l1-3c1-7 5-13 12-13l6 1 4-17s-3-1-11-1c-7 0-14 2-20 7-7 6-10 14-12 23l-1 3h-9l-3 16h9l-11 57h21l11-57h14l3-16zm50 0l-19 51-5-51h-22l12 68v3c-2 5-6 9-11 12l-12 6 6 18c4-1 13-5 20-12 9-8 18-22 27-40l25-55h-21z"/>
</svg>