<svg xmlns="http://www.w3.org/2000/svg" viewBox="0 0 207 33" width="2070" height="330" aria-label="Workarea" fill="currentColor">
  <path d="M57 28.4c1.1-.6 2-1.5 2.8-2.7A9.1 9.1 0 0061 21a9 9 0 00-1-4.7 6.8 6.8 0 00-2.9-2.7 7.8 7.8 0 00-3.5-.8 8 8 0 00-3.6.8c-1 .6-2 1.5-2.7 2.7C46.4 17.5 46 19 46 21c0 1.9.3 3.4 1 4.7.8 1.2 1.7 2.1 2.8 2.7s2.3.8 3.6.8a7.7 7.7 0 003.5-.8m2.5-18c1.8 1 3.1 2.5 4 4.3 1 1.9 1.5 4 1.5 6.3 0 2.4-.5 4.4-1.4 6.3s-2.3 3.2-4 4.2c-1.8 1-3.8 1.5-6.1 1.5a12 12 0 01-6-1.5c-1.8-1-3.1-2.4-4-4.2-1-1.9-1.5-4-1.5-6.3 0-2.4.5-4.4 1.4-6.3 1-1.8 2.3-3.2 4-4.2A12 12 0 0153.5 9c2.3 0 4.3.5 6 1.5m25-.9c.3.4.5.9.5 1.5 0 .5-.2 1-.6 1.4a2 2 0 01-1.4.5h-.2a7.2 7.2 0 00-3.9 1.1 9 9 0 00-3 3v13.8c0 .6-.1 1.1-.5 1.5a2 2 0 01-1.4.6 1.9 1.9 0 01-1.4-.6A2 2 0 0172 31V11.3c0-.5.2-1 .6-1.5a1.8 1.8 0 011.4-.6c.5 0 1 .2 1.4.6.4.5.6 1 .6 1.5v2c2-2.9 4.3-4.3 6.9-4.3h.2c.5 0 1 .2 1.4.6M112 31c0 .6-.2 1.1-.6 1.5-.4.3-1 .5-1.5.5a2.1 2.1 0 01-1-.2 2.3 2.3 0 01-.7-.6l-8-10.5-4 3.5V31c0 .6-.2 1-.6 1.4-.4.4-1 .6-1.5.6a2 2 0 01-1.5-.6c-.4-.4-.6-.8-.6-1.4V2c0-.5.2-1 .6-1.4a2 2 0 011.5-.6c.6 0 1 .2 1.5.6.4.4.6.9.6 1.5v18.2l11-9.8c.5-.4 1-.6 1.4-.6.7 0 1.2.2 1.5.6.4.4.5.8.5 1.4 0 .5-.2 1-.8 1.5l-6.6 5.7 8.3 10.7c.3.4.5.8.5 1.2m16.8-2.6c1.2-.6 2.2-1.5 3-2.4v-3.8H127c-4.5 0-6.8 1.2-6.8 3.6 0 1 .4 2 1.1 2.6.8.6 2 1 3.7 1 1.3 0 2.6-.3 3.9-1m3-18.1a8 8 0 013.2 3.3c.7 1.3 1 2.8 1 4.3v12.8c0 .6-.2 1-.6 1.5a2 2 0 01-1.5.6 2 2 0 01-1.4-.6 2 2 0 01-.6-1.5v-1.1c-2.2 2.3-5 3.4-8.5 3.4-1.3 0-2.6-.3-3.7-.8a6.4 6.4 0 01-2.7-2.4c-.7-1-1-2.2-1-3.6 0-2.2.9-4 2.6-5.3 1.8-1.4 4.4-2 7.8-2h5.5v-.4c0-2-.5-3.4-1.5-4.3-1-.9-2.5-1.3-4.6-1.3a15.3 15.3 0 00-6 1l-.6.2c-.4 0-.8-.2-1.2-.5a1.7 1.7 0 01-.5-1.2c0-.9.4-1.4 1.2-1.8a20 20 0 017.8-1.6c2.1 0 3.9.4 5.3 1.3m24.7-.7c.3.4.5.9.5 1.5 0 .5-.2 1-.6 1.4a2 2 0 01-1.4.5h-.2a7.2 7.2 0 00-3.9 1.1 9 9 0 00-3 3v13.8c0 .6-.1 1.1-.5 1.5a2 2 0 01-1.4.6 1.9 1.9 0 01-1.4-.6 2 2 0 01-.6-1.5V11.3c0-.5.2-1 .6-1.5a1.8 1.8 0 011.4-.6c.5 0 1 .2 1.4.6.4.5.6 1 .6 1.5v2c2-2.9 4.3-4.3 6.9-4.3h.2c.5 0 1 .2 1.4.6m12.4 3.6c-1 .5-1.8 1.2-2.5 2.2-.7 1-1 2.2-1.2 3.7H179c-.1-1.5-.5-2.7-1.2-3.7s-1.6-1.7-2.6-2.2a7.3 7.3 0 00-6.2 0M181.7 28c.3.3.5.7.5 1.2 0 .7-.4 1.3-1.2 1.7a16.8 16.8 0 01-3.5 1.5 17 17 0 01-4.6.5 12 12 0 01-8.7-3.1A12 12 0 01161 21c0-2.1.4-4.1 1.2-6a10.1 10.1 0 013.7-4.3c1.7-1.1 3.7-1.7 6.1-1.7 2.3 0 4.3.5 6 1.6a10.2 10.2 0 013.7 4.1c.9 1.8 1.3 3.7 1.3 5.7 0 .6-.2 1-.6 1.5a2 2 0 01-1.5.6h-15.7c.3 2 1 3.7 2.4 4.9a8.4 8.4 0 005.7 1.8 14.2 14.2 0 006.2-1.5l.9-.1c.5 0 .9.1 1.3.5m18 .3c1.3-.6 2.3-1.5 3.2-2.4v-3.8h-5c-4.5 0-6.8 1.2-6.8 3.6 0 1 .4 2 1.1 2.6.8.6 2 1 3.7 1 1.3 0 2.6-.3 3.9-1m3-18.1a8 8 0 013.2 3.3c.7 1.3 1 2.8 1 4.3v12.8c0 .6-.2 1-.6 1.5a2 2 0 01-1.5.6 2 2 0 01-1.4-.6 2 2 0 01-.6-1.5v-1.1c-2.2 2.3-5 3.4-8.5 3.4-1.4 0-2.6-.3-3.7-.8a6.4 6.4 0 01-2.7-2.4c-.7-1-1-2.2-1-3.6 0-2.2.9-4 2.6-5.3 1.8-1.4 4.4-2 7.8-2h5.5v-.4c0-2-.5-3.4-1.5-4.3-1-.9-2.5-1.3-4.6-1.3a15.3 15.3 0 00-6 1l-.6.2c-.4 0-.8-.2-1.2-.5a1.7 1.7 0 01-.5-1.2c0-.9.4-1.4 1.2-1.8a20 20 0 017.8-1.6c2.1 0 3.9.4 5.3 1.3m-181.4.3c.4.4.6.9.6 1.4 0 .3 0 .6-.2 1l-8 18.4a2.8 2.8 0 01-1 1.1 2.7 2.7 0 01-1.6.5h-.4c-.6 0-1-.2-1.6-.5l-1-1.1L.2 13 0 12c0-.5.2-1 .6-1.4a2 2 0 011.5-.6c.4 0 .7.1 1.1.3l.8.8 7 17.2 7-17.2.8-.8a2 2 0 011.1-.3c.6 0 1.1.2 1.5.6m18 0a2 2 0 00-1.5-.6c-.4 0-.8.1-1.1.3a2 2 0 00-.8.8l-7.2 17.2-4.6-11.1-2.2 5 4 9.2 1 1.1c.5.3 1 .5 1.6.5h.5c.5 0 1-.2 1.5-.5s.8-.7 1-1.1L39.8 13l.2-1c0-.5-.2-1-.6-1.4"/>
</svg>
