<svg xmlns="http://www.w3.org/2000/svg" viewBox="0 0 570 188" fill="currentColor" role="img" aria-label="Wolfson Partners">
   <path d="m 538.8,40 v 30 h -9.5 V 25.5 h 9.8 l 20.6,28.8 V 25.5 h 9.5 V 70 H 560 Z M 73.3,60.9 0,0 v 126.3 l 73.3,60.8 73.3,-60.8 V 0 Z m 58.6,-29.4 v 42 L 73.3,122 47.9,101 Z m -117.1,0 47,39 -25.4,21 -21.6,-17.9 z m 0,87.9 V 92.6 L 66,135 v 26.7 z m 65.9,42.5 v -26.7 l 51.2,-42.4 v 26.7 z M 491.6,24.7 c 13.5,0 23.3,9.6 23.3,23 0,13.4 -9.8,23 -23.3,23 -13.4,0 -23.2,-9.6 -23.2,-23 0,-13.4 9.8,-23 23.2,-23 z m 0,8.4 c -8.2,0 -13.5,6.3 -13.5,14.6 0,8.3 5.3,14.6 13.5,14.6 8.2,0 13.7,-6.3 13.7,-14.6 0,-8.3 -5.5,-14.7 -13.7,-14.7 z M 334.2,25.5 h 10.1 v 36 h 20.2 V 70 h -30.3 z m 44,0 h 31.5 v 8 h -22 v 9.8 h 21.6 v 8 H 387.6 V 70 h -9.5 V 25.5 Z m 47.2,31 c 3.1,3.3 8,6 14.2,6 5.2,0 7.7,-2.5 7.7,-5 0,-3.3 -3.9,-4.5 -9,-5.7 -7.3,-1.7 -16.6,-3.7 -16.6,-13.6 0,-7.4 6.4,-13.4 17,-13.4 7,0 13,2 17.3,6.2 l -5.3,6.9 a 19.2,19.2 0 0 0 -12.8,-5 c -4.3,0 -6.5,2 -6.5,4.6 0,3 3.7,3.9 9,5 7.2,1.8 16.6,4 16.6,13.9 0,8 -5.8,14.3 -17.8,14.3 -8.5,0 -14.7,-3 -18.9,-7.1 z M 296.3,24.7 c 13.5,0 23.3,9.6 23.3,23 0,13.4 -9.8,23 -23.3,23 -13.4,0 -23.2,-9.6 -23.2,-23 0,-13.4 9.8,-23 23.2,-23 z m 0,8.4 c -8.2,0 -13.5,6.3 -13.5,14.6 0,8.3 5.3,14.6 13.5,14.6 C 304.5,62.3 310,56 310,47.7 310,39.4 304.5,33 296.3,33 Z m 209.4,50.5 c -7.9,0 -14.3,4.5 -14.3,11.6 0,15.2 26,8.6 26,21.3 0,3.7 -2.5,8.7 -11.3,8.7 a 18,18 0 0 1 -13.6,-6.3 l -2.4,2.8 c 3.3,4 8.7,6.9 15.9,6.9 11.7,0 15.4,-6.7 15.4,-12.3 0,-16.3 -26,-10.1 -26,-21.3 0,-4.6 4.3,-8 10.1,-8 4.9,0 9.3,1.7 12.4,5.5 l 2.5,-2.7 a 18.6,18.6 0 0 0 -14.7,-6.2 z m -311,0.8 v 43.4 h 3.7 v -18 H 211 c 8.3,0 13,-6 13,-12.8 0,-6.8 -4.7,-12.7 -13,-12.7 z m 49.4,0 -17.7,43.4 h 4.2 L 235,117 h 23 l 4.3,10.7 h 4.3 L 248.8,84.3 Z m 32.8,0 v 43.4 h 3.7 v -18 h 9.5 l 12.2,18 h 4.5 l -12.6,-18.3 c 6.5,-0.2 12,-4.6 12,-12.5 0,-7.9 -5.7,-12.7 -13.1,-12.7 z m 38.8,0 v 3.3 H 330 v 40 h 3.8 v -40 H 348 v -3.3 z m 43.9,0 v 43.4 h 3.7 V 90.5 l 27.3,37.3 h 3.7 V 84.4 h -3.7 V 121 L 363.4,84.3 Z m 49.5,0 v 43.4 h 27.5 v -3.4 h -23.8 v -17.2 h 23.4 v -3.4 h -23.4 v -16 h 23.8 v -3.4 z m 40.7,0 v 43.4 h 3.7 v -18 h 9.6 l 12.2,18 h 4.5 l -12.6,-18.3 c 6.5,-0.2 12,-4.6 12,-12.5 0,-7.9 -5.7,-12.7 -13.1,-12.7 z m -251.4,3.3 h 12.2 c 5.8,0 9.6,3.9 9.6,9.3 0,5.4 -3.8,9.4 -9.6,9.4 h -12.2 z m 82.1,0 h 12.2 c 5.8,0 9.6,3.9 9.6,9.3 0,5.4 -3.8,9.4 -9.6,9.4 h -12.2 z m 173,0 h 12.2 c 5.8,0 9.6,3.9 9.6,9.3 0,5.4 -3.8,9.4 -9.6,9.4 h -12.2 z m -207,0.6 10.2,25.4 H 236.2 Z M 229.3,39.3 220.6,70 H 209.3 L 195,25.5 h 11.9 l 8.8,32.2 9.5,-32.2 h 8.3 l 9.4,32.2 8.7,-32.2 h 12 L 249.4,70 h -11.3 z"/>
</svg>