<svg xmlns="http://www.w3.org/2000/svg" aria-label="Beauty Kitchen" width="331" height="54" viewBox="0 0 331 54">
  <path fill="currentColor" d="m 330.1,2.4 v 25.7 c 0,1.3 -0.4,1.7 -1.7,1.7 h -4.7 c -0.8,0 -1.3,-0.2 -1.6,-0.8 l -6.4,-9.8 a 29,29 0 0 1 -3.6,-8.5 h -0.4 c 0.9,4 1.4,6 1.4,10.7 v 6.7 c 0,1.3 -0.5,1.7 -1.8,1.7 h -4.2 c -1.3,0 -1.7,-0.4 -1.7,-1.7 V 2.4 c 0,-1.3 0.4,-1.8 1.7,-1.8 h 5 c 0.9,0 1.3,0.3 1.7,0.9 l 6.7,10.5 c 1.8,2.9 2.2,4.4 3.5,7.6 h 0.3 A 29.2,29.2 0 0 1 322.5,9.1 V 2.4 c 0,-1.3 0.4,-1.8 1.7,-1.8 h 4.2 c 1.3,0 1.7,0.5 1.7,1.8 m -27.7,0 v 3.7 c 0,1.3 -0.5,1.8 -1.8,1.8 h -11 v 3.6 h 8.8 c 1.3,0 1.8,0.5 1.8,1.8 V 17 c 0,1.3 -0.5,1.8 -1.8,1.8 h -8.7 v 4 H 301 c 1.2,0 1.7,0.3 1.7,1.6 v 3.8 c 0,1.3 -0.5,1.7 -1.7,1.7 h -17.7 c -1.3,0 -1.8,-0.4 -1.8,-1.7 V 2.4 c 0,-1.3 0.5,-1.8 1.8,-1.8 h 17.3 c 1.3,0 1.8,0.5 1.8,1.8 m -24.7,0 v 25.7 c 0,1.3 -0.4,1.7 -1.7,1.7 h -4.7 c -1.3,0 -1.7,-0.4 -1.7,-1.7 v -9.5 h -8 v 9.5 c 0,1.3 -0.4,1.7 -1.8,1.7 h -4.6 c -1.3,0 -1.8,-0.4 -1.8,-1.7 V 2.4 c 0,-1.4 0.5,-1.8 1.8,-1.8 h 4.6 c 1.4,0 1.8,0.4 1.8,1.8 v 9 h 8 v -9 c 0,-1.4 0.4,-1.8 1.7,-1.8 h 4.7 c 1.3,0 1.7,0.4 1.7,1.8 M 238.9,0 c 6.4,0 10.3,2.6 12,7.2 0.5,1.2 0.2,1.9 -1,2.3 l -4.5,1.5 c -1.3,0.4 -1.8,0.2 -2.2,-1 -0.7,-2 -2,-2.8 -4.3,-2.8 -3.3,0 -4.5,1.4 -4.5,4.3 v 7.6 c 0,3 1.2,4.3 4.5,4.3 2.3,0 3.6,-0.9 4.3,-2.7 0.5,-1.2 1,-1.5 2.2,-1 l 4.4,1.5 c 1.3,0.4 1.6,1 1.2,2.2 -1.8,4.7 -5.7,7.3 -12.1,7.3 -8.1,0 -12.7,-4.5 -12.7,-11.6 v -7.4 c 0,-7.2 4.6,-11.6 12.7,-11.6 m -13.8,2.3 v 3.7 c 0,1.3 -0.4,1.8 -1.8,1.8 h -6 v 20.2 c 0,1.3 -0.5,1.7 -1.8,1.7 h -4.7 c -1.3,0 -1.7,-0.4 -1.7,-1.7 V 7.9 h -6.2 c -1.3,0 -1.7,-0.5 -1.7,-1.8 V 2.4 c 0,-1.3 0.4,-1.8 1.7,-1.8 h 20.4 c 1.4,0 1.8,0.5 1.8,1.8 M 192.4,0.6 h 4.9 c 1.2,0 1.6,0.4 1.6,1.7 v 26 c 0,1.2 -0.4,1.6 -1.6,1.6 h -4.9 c -1.2,0 -1.6,-0.4 -1.6,-1.6 v -26 c 0,-1.3 0.4,-1.7 1.6,-1.7 m -4.8,29.3 h -4.5 c -2.2,0 -3,-0.3 -3.6,-1.7 l -3.6,-7.4 c -0.7,-1.3 -1.3,-2 -2.8,-2 h -0.8 v 9.3 c 0,1.3 -0.4,1.7 -1.7,1.7 h -4.7 c -1.3,0 -1.8,-0.4 -1.8,-1.7 V 2.4 c 0,-1.3 0.5,-1.8 1.8,-1.8 h 4.7 c 1.3,0 1.7,0.5 1.7,1.8 v 9.1 h 1 l 5.9,-9.3 c 0.7,-1.3 1.1,-1.6 3.3,-1.6 h 4.7 c 1.2,0 1.7,0.8 1,1.9 l -7.5,12 c 1,0.7 1.8,1.7 2.5,3.1 l 5.5,10.3 c 0.5,1.1 0.2,2 -1.1,2 M 156.3,2.4 146.8,18.6 v 9.5 c 0,1.3 -0.4,1.7 -1.7,1.7 h -4.7 c -1.3,0 -1.8,-0.4 -1.8,-1.7 V 18.5 L 129.1,2.4 c -0.5,-1 -0.4,-1.8 0.9,-1.8 h 5 c 2,0 2.6,0.1 3.4,1.6 l 4.4,8.4 4.5,-8.4 c 0.8,-1.5 1.4,-1.6 3.4,-1.6 h 4.8 c 1.2,0 1.4,0.8 0.8,1.8 m -28,0 v 3.7 c 0,1.3 -0.5,1.8 -1.8,1.8 h -6 v 20.2 c 0,1.3 -0.5,1.7 -1.9,1.7 h -4.5 c -1.3,0 -1.8,-0.4 -1.8,-1.7 V 7.9 h -6.2 c -1.3,0 -1.7,-0.5 -1.7,-1.8 V 2.4 c 0,-1.3 0.4,-1.8 1.7,-1.8 h 20.4 c 1.3,0 1.8,0.5 1.8,1.8 m -38.4,21 c 2.9,0 4.3,-1.4 4.3,-3.9 V 2.4 c 0,-1.3 0.5,-1.8 1.8,-1.8 h 4.6 c 1.4,0 1.8,0.5 1.8,1.8 v 16.7 c 0,6.9 -4.3,11.4 -12.5,11.4 -8,0 -12.4,-4.5 -12.4,-11.4 V 2.4 c 0,-1.3 0.4,-1.8 1.8,-1.8 h 4.6 c 1.3,0 1.8,0.5 1.8,1.8 v 17.1 c 0,2.5 1.4,3.8 4.2,3.8 m -14.3,6.6 h -4.4 c -2.2,0 -2.8,-0.4 -3.1,-1.7 l -1,-3 h -8.9 l -1,3 c -0.4,1.3 -0.9,1.7 -3,1.7 h -4.3 c -1.3,0 -1.5,-0.5 -1.1,-1.7 L 58.3,2.1 c 0.4,-1.2 1,-1.5 2.1,-1.5 h 4.7 c 1.2,0 1.8,0.3 2.2,1.4 l 9.5,26.2 c 0.4,1.2 0,1.7 -1.2,1.7 M 62.8,8.1 h -0.4 c 0,0 0,3 -0.8,5.8 l -1.5,4.9 h 5.2 L 63.7,13.9 C 62.9,11.1 62.8,8.1 62.8,8.1 M 47.6,2.4 v 3.7 c 0,1.3 -0.4,1.8 -1.7,1.8 h -11 v 3.6 h 8.8 c 1.3,0 1.7,0.5 1.7,1.8 V 17 c 0,1.3 -0.4,1.8 -1.7,1.8 H 35 v 4 h 11.1 c 1.3,0 1.8,0.3 1.8,1.6 v 3.8 c 0,1.3 -0.5,1.7 -1.8,1.7 H 28.6 c -1.4,0 -1.8,-0.4 -1.8,-1.7 V 2.4 c 0,-1.3 0.4,-1.8 1.8,-1.8 h 17.3 c 1.3,0 1.7,0.5 1.7,1.8 M 23,8.4 c 0,2.8 -0.9,4.7 -3,6.1 v 0.2 c 2.7,1.1 4.2,3.5 4.2,7 0,5.4 -4.4,8.2 -10.2,8.2 H 1.8 C 0.4,29.9 0,29.5 0,28.2 V 2.4 C 0,1 0.4,0.6 1.8,0.6 h 12 c 5.8,0 9.2,2.8 9.2,7.8 M 12.1,7.2 h -4 v 4.6 h 4 c 1.6,0 2.5,-0.6 2.5,-2.3 0,-1.6 -0.9,-2.3 -2.5,-2.3 m 0.8,11.2 H 8.1 v 4.9 h 4.8 c 1.7,0 2.6,-0.8 2.6,-2.5 0,-1.6 -0.9,-2.4 -2.6,-2.4 m 310,18.4 h 7.1 v 2.3 h -4.4 v 4.4 h 3.5 v 2.3 h -3.5 v 5 h 4.4 v 2.4 h -7 V 36.8 m -11.4,0 h 2.6 v 14 h 4.3 v 2.4 h -6.9 V 36.8 m -12.7,0 h 3.9 c 2.6,0 3.8,1.2 3.8,3.8 v 0.6 c 0,1.7 -0.5,2.7 -1.7,3.2 1.4,0.5 2,1.7 2,3.5 v 1.4 c 0,2.5 -1.4,3.9 -4,3.9 h -4 z m 3.6,6.7 c 1,0 1.5,-0.5 1.5,-1.8 v -0.9 c 0,-1.2 -0.4,-1.7 -1.3,-1.7 h -1.3 v 4.4 z m 0.4,7.3 c 0.9,0 1.4,-0.4 1.4,-1.6 v -1.4 c 0,-1.5 -0.5,-2 -1.7,-2 h -1.2 v 5 h 1.5 m -14.8,-14 h 3.5 l 2.7,16.4 h -2.6 l -0.4,-3.3 h -3 l -0.4,3.3 h -2.4 z m 2.9,11 -1.2,-8.2 -1.2,8.1 h 2.4 m -18.2,-11 h 3.3 l 2.5,9.9 v -9.8 h 2.3 v 16.3 h -2.6 l -3.1,-12 v 12 h -2.4 V 36.8 m -7.8,0 h 2.6 v 16.3 h -2.5 V 36.8 m -10.7,0 h 3.5 l 2.7,16.4 H 258 l -0.5,-3.3 h -3 l -0.4,3.3 h -2.4 z m 2.8,11 -1.1,-8.2 -1.2,8.1 h 2.3 M 243.7,39.1 H 241 v -2.3 h 8 v 2.3 h -2.9 v 14 h -2.5 v -14 m -14.5,10.2 v -1 h 2.4 v 1.2 c 0,1.1 0.5,1.6 1.3,1.6 0.9,0 1.4,-0.5 1.4,-1.7 0,-1.3 -0.5,-2.2 -2.2,-3.7 -2.2,-1.9 -2.9,-3.2 -2.9,-5 0,-2.6 1.3,-4.1 3.9,-4.1 2.5,0 3.7,1.5 3.7,4 v 0.8 h -2.4 v -0.9 c 0,-1.2 -0.5,-1.6 -1.3,-1.6 -0.8,0 -1.3,0.4 -1.3,1.6 0,1.2 0.5,2 2.2,3.5 2.2,1.9 2.9,3.2 2.9,5.2 0,2.7 -1.4,4.2 -4,4.2 -2.5,0 -3.7,-1.5 -3.7,-4.1 m -12.4,0 V 36.8 h 2.6 v 12.7 c 0,1.1 0.4,1.6 1.3,1.6 0.8,0 1.3,-0.5 1.3,-1.6 V 36.8 h 2.5 v 12.5 c 0,2.6 -1.3,4.1 -3.9,4.1 -2.5,0 -3.8,-1.5 -3.8,-4.1 m -12.4,0 v -1 h 2.5 v 1.2 c 0,1.1 0.5,1.6 1.3,1.6 0.8,0 1.3,-0.5 1.3,-1.7 0,-1.3 -0.5,-2.2 -2.2,-3.7 -2.1,-1.9 -2.8,-3.2 -2.8,-5 0,-2.6 1.3,-4.1 3.8,-4.1 2.5,0 3.8,1.5 3.8,4 v 0.8 h -2.5 v -0.9 c 0,-1.2 -0.4,-1.6 -1.3,-1.6 -0.8,0 -1.3,0.4 -1.3,1.6 0,1.2 0.6,2 2.3,3.5 2.1,1.9 2.8,3.2 2.8,5.2 0,2.7 -1.3,4.2 -3.9,4.2 -2.5,0 -3.8,-1.5 -3.8,-4.1 M 195.8,45 a 2.2,2.2 0 1 1 2.2,2.2 c -1.2,0 -2.2,-1 -2.2,-2.2 m -10.4,-8.2 h 2.6 v 14 h 4.2 v 2.4 h -6.8 V 36.8 m -10.7,0 h 3.5 l 2.7,16.4 h -2.6 l -0.5,-3.3 h -3 l -0.4,3.3 h -2.3 z m 2.8,11 -1.2,-8.2 -1.1,8.1 h 2.3 m -17.6,-11 h 3.8 c 2.7,0 3.9,1.3 3.9,3.9 v 1 c 0,1.6 -0.6,2.7 -1.7,3.2 1.3,0.4 1.7,1.7 1.7,3.5 v 2.9 c 0,0.8 0,1.4 0.3,2 h -2.7 c 0,-0.5 -0.2,-0.7 -0.2,-2 v -3 c 0,-1.6 -0.4,-2 -1.6,-2 h -0.9 v 7 h -2.6 z m 3.5,7.1 c 1,0 1.6,-0.4 1.6,-1.7 v -1.3 c 0,-1.2 -0.4,-1.7 -1.3,-1.7 h -1.2 v 4.7 h 1 m -16.4,5.5 V 36.8 h 2.6 v 12.7 c 0,1.1 0.5,1.6 1.3,1.6 0.8,0 1.3,-0.5 1.3,-1.6 V 36.8 h 2.5 v 12.5 c 0,2.6 -1.3,4.1 -3.9,4.1 -2.5,0 -3.8,-1.5 -3.8,-4.1 m -9.6,-10.2 h -2.8 v -2.3 h 8 v 2.3 h -2.6 v 14 h -2.5 v -14 m -11.7,-2.3 h 3.5 l 2.7,16.4 h -2.6 L 129,49.9 h -3 l -0.4,3.3 h -2.5 z m 2.8,11 -1.1,-8.2 -1.2,8.1 h 2.3 m -18.1,-11 h 3.2 l 2.5,9.9 v -9.8 h 2.4 V 53.1 H 116 l -3,-12 h -0.1 v 12 h -2.3 V 36.8 m -9.2,8.2 a 2.25,2.25 0 0 1 4.5,0 c 0,1.3 -1,2.3 -2.3,2.3 -1.2,0 -2.2,-1 -2.2,-2.3 M 89.8,36.8 h 7 v 2.3 h -4.4 v 4.4 h 3.5 v 2.3 h -3.5 v 5 h 4.4 v 2.4 h -7 V 36.8 m -13,0 h 2.6 l 1.7,12.7 1.8,-12.7 h 2.3 L 82.6,53.1 H 79.2 L 76.7,36.7 m -7,0 h 2.5 V 53.1 H 69.6 V 36.8 m -9.5,2.3 h -2.7 v -2.3 h 8 v 2.3 h -2.7 v 14 h -2.6 v -14 m -14,10.3 v -8.8 c 0,-2.5 1.3,-4 3.8,-4 2.5,0 3.8,1.5 3.8,4 v 1.7 h -2.6 v -1.9 c 0,-1 -0.5,-1.5 -1.3,-1.5 -0.7,0 -1.3,0.4 -1.3,1.5 v 9.2 c 0,1 0.6,1.5 1.3,1.5 0.8,0 1.3,-0.5 1.3,-1.5 v -2.5 h 2.5 v 2.3 c 0,2.5 -1.3,4 -3.8,4 -2.5,0 -3.8,-1.5 -3.8,-4 M 34.3,36.8 h 7 v 2.3 h -4.4 v 4.4 h 3.5 v 2.3 h -3.5 v 5 h 4.4 v 2.4 h -7 V 36.8 m -11.2,0 h 7 v 2.3 h -4.3 v 4.6 h 3.3 V 46 h -3.4 v 7.2 H 23.1 V 36.8 m -11.2,0 h 6.8 v 2.3 h -4.2 v 4.6 h 3.3 V 46 h -3.3 v 7.2 H 11.9 V 36.8 M 0,36.8 h 7 v 2.3 H 2.6 v 4.4 h 3.5 v 2.3 H 2.6 v 5 h 4.5 v 2.4 h -7 V 36.8" />
</svg>