<svg
  xmlns="http://www.w3.org/2000/svg" viewBox="0 0 104 30" fill="currentColor" role="img" aria-label="ASOS">
  <path d="M71.8 22a7.8 7.8 0 01-6 2.5c-2.3 0-4.3-.9-5.9-2.5a10.2 10.2 0 01-2.3-7c0-2.7.9-5.2 2.4-6.8a7.9 7.9 0 015.9-2.6c2.3 0 4.3.9 5.9 2.6a10 10 0 012.4 6.8c0 2.9-.9 5.4-2.4 7zM51 15v.4c-2.4-2.2-5.8-3-8-3.4-3.8-.8-6.8-1.6-6.8-4.3 0-2 1.7-3.4 5.1-3.2 3 .2 4.4 2.1 4.7 4 .1.2.2.4.6.4L52 9h.1c-.8 1.8-1.2 3.8-1.2 6zm-9.4 10.2c-2.7 0-5.7-1-6.3-4.6-.1-.4-.3-.5-.5-.5l-5.4-.1v-9.5c.7 2.8 3 4.7 8 5.9 3.5.8 9.3 1.3 9.3 4.7 0 2.4-1.7 4.1-5.1 4zm-26.7-.7c-4.4 0-8.3-3.4-8.3-9.5 0-4.7 3-9.4 8.3-9.4 2.3 0 8.2.8 8.2 9.4s-6.1 9.5-8.2 9.5zm65.9-11.8c1.2 1.6 3.4 2.9 7 3.7 3.4.8 9.3 1.3 9.3 4.7 0 2.4-1.8 4.1-5.1 4-2.7 0-5.7-.9-6.4-4.5 0-.4-.2-.5-.5-.5l-5-.1a15.4 15.4 0 00.7-7.3zM91.5 30c6 0 13-2.2 12.4-9.4-.6-6.3-7.3-8-10.6-8.6-3.9-.8-6.9-1.6-6.9-4.3 0-2 1.8-3.4 5.2-3.2 3 .2 4.4 2.1 4.7 4 0 .2.2.4.5.4l5.6.1c.4 0 .5-.2.5-.5C101.8 1.9 96.2 0 91 0c-5 0-11.2 1.4-11.7 7.8v.7A15 15 0 0066 0h-.1c-1.9 0-3.6.3-5.3 1a15.3 15.3 0 00-4.7 2.9 15 15 0 00-3.3 4.3C51.3 1.8 45.8 0 40.8 0 36 0 30.5 1.2 29.3 6.3v-5a.5.5 0 00-.5-.5h-5.2c-.3 0-.5.2-.5.4v1.4c0 .2-.2.3-.3.2a13.7 13.7 0 00-17.9 1A15 15 0 001.2 9 15 15 0 000 15c0 2.1.4 4 1 5.8.8 1.8 2 3.4 3.4 4.8 1.4 1.5 3 2.6 4.8 3.3 1.7.7 3.6 1.1 5.7 1.1 3.5 0 6.1-1.5 7.8-2.9.2-.1.4 0 .4.2v1.5c0 .2.2.4.5.4h5.2c.3 0 .5-.2.5-.4v-4.9C31.8 29.7 38 30 41 30c5.1 0 11-1.6 12.2-6.7.6.8 1.2 1.6 2 2.3C58 28.4 61.7 30 65.9 30h.2c2 0 3.8-.4 5.6-1.1a14.8 14.8 0 004.8-3.3 15.3 15.3 0 002.6-3.4C81 29.6 88 30 91.5 30z"/>
</svg>