<svg xmlns="http://www.w3.org/2000/svg" viewBox="0 0 270 172" width="270" height="172" aria-label="London Early Years Foundation">
  <path d="M195.4 43.3c9-26.7 27.6-28.4 40.2-25.6 1 .2 2.7.9 2 3.5l-4.9 16.3c-.4 2-1.8 2.2-2.9 1.9-7.9-1.7-11.7 1.1-13.9 8.9l6.9 1.2c2 .4 2.4 1.2 2 3.2L221.3 65c-.4 2-2.4 2.5-4.4 2l-4.2-.6c-2-.5-3.1 1.3-3.3 2.3s-1.5 4.1-2.5 8.1c-.9 4-8.9 25.1-35.4 22.7-4.2-.4-5.2-1.7-4.7-3.6l5.2-16.4c.6-2.9 2-3.4 3.1-3.1 5.4 1.2 10.1-1.2 12-7.3l8.3-25.8zM129.6 35c.3.8.6 1.4.6 2.2 0 .7-.3 1.5-1 2.1s-1.6 1-3 1.6c-12 4.7-27 10-31 11.4a13 13 0 007.3 5.2 16 16 0 0010-.5c4.3-1.6 8.7-4.3 13-8.1.6-.5 1-.8 1.5-1a3 3 0 011-.2c1 0 1.8.6 2.4 1.4l5 7.4.5.9.2 1c0 1.2-.6 2.2-1.7 3.2A55.5 55.5 0 01102 75.8c-4.3.1-8.4-.8-12.3-2.5-7.5-3.4-13-9.8-16.4-19.1a38.8 38.8 0 01-2.4-12.1c-.1-4.5.9-8.8 2.8-12.8 3.6-7.6 9.9-13 18.9-16.3a25.9 25.9 0 0121 .9c6.6 3.3 11.7 10 15.3 19.9l.7 1.2zm-20.7-1.6c-.9-2.5-2.4-4.4-4.5-5.7a8.1 8.1 0 00-4.5-1.3c-1 0-2 .2-3.1.6a9.3 9.3 0 00-5.6 5.4c-.7 1.5-1 3.2-1 4.9l.3 2.8c0 .2.2.4.4.5l.4.1.2-.1 16.9-6.2a.8.8 0 00.4-.4.5.5 0 00.1-.6m41.5-18.5a4.6 4.6 0 00-5.5-1.9L134 17.5c-2 .8-2.7 3-1.7 4.8l17.4 32.1c1 1.9.8 4.7-.5 6.4 0 0-7.3 8.3-16.9 13.6-1 .6-2.1 1.7-1.3 3.8.5 1.3 8.9 12.1 8.9 12.1 1.4 1.6 2.4 2.2 5.9 1 0 0 28.6-11.7 52.1-72.4 0 0 2-3.8-2.8-5.6a87.3 87.3 0 00-10.1-2.9c-3-.6-4.9 1.1-6 2.9l-12 23.5c-1.1 1.8-2.9 1.7-4-.1l-12.6-21.8zM48.8 19.8a3.7 3.7 0 014.1 3.3s-1.2 29.7 5 48.4c1.1 3.2 2.5 3.6 5.9 2.1l7.2-3.2c2.8-1.3 4.9.6 5.7 2.6 0 0 5.2 10 5 13.1-.1 2.4-1.2 3.5-4.3 4.5 0 0-14.4 5.6-29.5 4.4-4.1-.3-7.7-.1-9.3-6.5 0 0-9.5-32.1-5.5-62.4.5-3.5 2.1-4.1 4.2-4.3l11.5-2zM42.1 160c-.9 1-2.1 1.5-3.4 1.5-.7 0-1.4-.2-2.1-.5s-1.2-.8-1.7-1.4l-19.6-28.3v29.6H5.8v-41.6c0-1.4.5-2.6 1.4-3.6s2.1-1.5 3.4-1.5c.8 0 1.6.2 2.3.7.7.4 1.3 1 1.8 1.7L34 144.2v-24.7c0-.7.1-1.4.4-2l1-1.7c.4-.5.9-.8 1.5-1.1s1.2-.4 1.8-.4 1.3.1 1.9.4 1.1.7 1.5 1.1a5.4 5.4 0 011.4 3.6v37.1a5 5 0 01-1.4 3.5m30-2c-2.6 2.4-6.2 3.6-10.8 3.6s-8.2-1.2-10.8-3.6-3.9-6.2-3.9-11.2l1.6-18.3 1-1.6 6.7 6.8v12.9c0 1.9.4 3.4 1.3 4.5s2.3 1.7 4.2 1.7 3.2-.5 4.1-1.7a6.9 6.9 0 001.3-4.5V131c0-.7.1-1.3.4-1.9.2-.6.6-1.1 1-1.6a4 4 0 011.5-1 4.5 4.5 0 015.1 1 5 5 0 011.4 3.5v15.8c-.2 5-1.5 8.8-4.1 11.2m27-25c-.4.6-.8 1.1-1.4 1.5l-1.9 1.1c-.7.3-1.4.6-2.1 1.1l-2.1 1.5a7.3 7.3 0 00-2.3 4.6l-.1 2.8v15.5l-9.3.1v-30c0-.6.1-1.1.4-1.4l1.1-1.1c.6-.4 1.1-.5 1.6-.3s1 .6 1.4 1.1l1.2 1.9.9 2.2.7-.9 1.7-1.9a22.5 22.5 0 012.4-2.1c.7-.5 1.5-.9 2.4-1.3s1.7-.6 2.5-.5c.9.1 1.7.6 2.4 1.3a4 4 0 011 2.7 3 3 0 01-.5 2.1m27.8 22.5c-.8 1.3-1.8 2.5-3.1 3.4s-2.7 1.6-4.3 2a18.8 18.8 0 01-11.4-.6 22 22 0 01-6.1-3.2l2.7-7.1 2.3 1.2 2.7 1.2 2.7.9 2.4.3c.4 0 .9 0 1.4-.2a5 5 0 001.3-.5 4.7 4.7 0 001-1c.3-.4.4-.9.4-1.4 0-.9-.4-1.6-1.2-2.1l-3-1.5-3.9-1.4c-1.4-.5-2.7-1.1-3.9-1.9a10.7 10.7 0 01-3-3 8 8 0 01-1.2-4.5c0-1.7.4-3.3 1.2-4.6s1.8-2.4 3.1-3.2c1.2-.9 2.6-1.5 4.1-1.9s3-.6 4.4-.6l3.2.3c1.3.2 2.6.6 3.9 1 1.3.5 2.4 1.1 3.3 1.9s1.4 1.8 1.4 3c0 1-.3 1.9-1 2.6s-1.5 1.1-2.4 1.1c-.6 0-1.2-.1-1.9-.4l-2.1-.9-2.3-.9c-.8-.3-1.6-.4-2.5-.4a5 5 0 00-2.3.7l-.8.8c-.2.3-.3.7-.3 1.2 0 .7.4 1.3 1.2 1.7.8.5 1.8.9 3 1.4l4 1.6c1.4.6 2.8 1.3 4 2.1 1.2.9 2.2 1.9 3 3.2s1.2 2.8 1.2 4.6c0 2.2-.4 3.8-1.2 5.1m26.4-14.6c0-.9-.2-1.8-.5-2.7s-.7-1.7-1.2-2.3a7.3 7.3 0 00-1.8-1.7c-.7-.4-1.6-.6-2.5-.6-1 0-1.9.2-2.6.6a7.3 7.3 0 00-1.9 1.6 10 10 0 00-1.8 5h12.3v.1zm8.4 4.8c-.8.5-1.8.8-3.2.8h-17.6a8.2 8.2 0 002.9 5 7.8 7.8 0 005.3 1.9l3.3-.3 3.3-.7 1.3 7.5a22.5 22.5 0 01-8.6 1.7 17.5 17.5 0 01-12.3-4.9c-1.6-1.6-2.8-3.4-3.7-5.6s-1.3-4.6-1.3-7.3a18.7 18.7 0 014.6-12.5 15.8 15.8 0 0111.7-5.2c2.1 0 4 .4 5.9 1.3s3.5 2.1 4.9 3.6 2.5 3.2 3.4 5.2 1.3 4.1 1.3 6.3c-.1 1.6-.4 2.7-1.2 3.2m23.2-12.7c-.4.6-.8 1.1-1.4 1.5l-1.9 1.1c-.7.3-1.4.6-2.1 1.1a9.5 9.5 0 00-2 1.5 7.3 7.3 0 00-2.3 4.6l-.1 2.8v15.5l-9.3.1v-30c0-.6.1-1.1.4-1.4l1.1-1.1c.6-.4 1.1-.5 1.6-.3s1 .6 1.4 1.1l1.2 1.9c.4.7.6 1.5.9 2.2l.7-.9 1.7-1.9a22.5 22.5 0 012.4-2.1c.7-.5 1.5-.9 2.4-1.3s1.7-.6 2.5-.5c.9.1 1.7.6 2.4 1.3a4 4 0 011 2.7c-.1.8-.2 1.5-.6 2.1m11.5-17.8c.7.7 1 1.6 1 2.5 0 1-.3 1.9-1 2.6s-1.5 1.1-2.4 1.1-1.7-.4-2.4-1.1-1-1.6-1-2.6.3-1.8 1-2.5 1.4-1.1 2.4-1.1c.9 0 1.7.4 2.4 1.1m-6.9 45.7v-30c0-1.4.5-2.6 1.4-3.5a4.5 4.5 0 015.1-1c.5.3 1 .6 1.4 1.1s.8 1 1 1.6.4 1.2.4 1.9v30h-9.3zm35.8-20c0-.9-.2-1.8-.5-2.7s-.7-1.7-1.2-2.3a7.3 7.3 0 00-1.8-1.7c-.7-.4-1.5-.6-2.5-.6s-1.9.2-2.6.6a7.3 7.3 0 00-1.9 1.6 10 10 0 00-1.8 5h12.3v.1zm8.5 4.8c-.7.5-1.8.8-3.2.8H213a8.2 8.2 0 002.9 5 7.8 7.8 0 005.3 1.9l3.3-.3 3.3-.7 1.3 7.5a22.5 22.5 0 01-8.6 1.7c-2.5 0-4.7-.4-6.8-1.3s-3.9-2.1-5.5-3.6c-1.6-1.6-2.8-3.4-3.7-5.6s-1.3-4.6-1.3-7.3a18.7 18.7 0 014.6-12.5 15.5 15.5 0 0111.7-5.2c2.1 0 4 .4 5.9 1.3s3.5 2.1 4.9 3.6 2.5 3.2 3.4 5.2c.8 2 1.3 4.1 1.3 6.3-.1 1.6-.4 2.7-1.2 3.2"/>
  <path d="M263 155.5c-.8 1.3-1.8 2.5-3.1 3.4s-2.7 1.6-4.2 2a18.8 18.8 0 01-11.4-.6c-2.3-.8-4.4-1.9-6.2-3.2l2.7-7.1 2.3 1.2 2.7 1.2 2.7.9 2.5.3c.4 0 .9 0 1.4-.2a5 5 0 001.3-.5 4.7 4.7 0 001-1c.3-.4.4-.9.4-1.4 0-.9-.4-1.6-1.2-2.1l-3-1.5-3.9-1.4c-1.4-.5-2.7-1.1-3.9-1.9a10.7 10.7 0 01-3-3 8 8 0 01-1.2-4.5c0-1.7.4-3.3 1.2-4.6s1.8-2.4 3.1-3.2c1.2-.9 2.6-1.5 4.1-1.9s3-.6 4.4-.6l3.2.3c1.3.2 2.6.6 3.9 1 1.3.5 2.4 1.1 3.3 1.9s1.4 1.8 1.4 3c0 1-.3 1.9-1 2.6s-1.5 1.1-2.4 1.1c-.6 0-1.2-.1-1.9-.4l-2-.9-2.3-.9c-.8-.3-1.7-.4-2.5-.4a5 5 0 00-2.3.7l-.8.8c-.2.3-.3.7-.3 1.2 0 .7.4 1.3 1.2 1.7.8.5 1.8.9 3 1.4l4 1.6c1.4.6 2.8 1.3 4 2.1 1.2.9 2.2 1.9 3 3.2s1.2 2.8 1.2 4.6c-.2 2.2-.6 3.8-1.4 5.1m-216.5-8.9V131c0-.7.1-1.3.4-1.9.2-.6.6-1.1 1-1.6a4 4 0 011.5-1 4.5 4.5 0 015.1 1 5 5 0 011.4 3.5v15.8"/>
</svg>
