<svg xmlns="http://www.w3.org/2000/svg" aria-label="Rituals" fill="currentColor" viewBox="0 0 1015 100" width="507" height="50">
  <path d="M87 33C87 14 75 0 54 0H11v49H0v17h11v30h16V66h21l19 30h22L66 62c12-4 21-15 21-29zM28 49V17h25c12 0 17 7 17 16 1 8-5 16-17 16H28z"/>
  <path d="M132 96h17V1h-17v95z"/>
  <path d="M222 96h16V17h27V0h-70v17h27v79z"/>
  <path d="M312 0v57c0 22 16 41 40 41s41-19 41-41V0h-17v53c0 18-11 28-24 28s-24-11-24-28V0h-16z"/>
  <path d="M448 0v16h21l-33 80h18l7-18h38l7 18h19L486 0h-38zm19 62l13-34 13 34h-26z"/>
  <path d="M640 56h-17v23h-36V0h-17v96h70V56z"/>
  <path d="M707 28c0-6 5-13 19-13 9 0 17 3 25 11l13-11c-9-10-22-15-37-15-20 0-37 12-37 29 0 39 59 18 59 40 0 9-9 14-22 14-11 0-20-6-27-13l-13 12c12 13 26 18 39 18 21 0 40-12 40-32 0-40-59-19-59-40z"/>
  <circle r="15" cy="82" cx="835"/>
  <circle r="15" cy="82" cx="918"/>
  <circle r="15" cy="82" cx="1000"/>
</svg>
