<svg
  xmlns="http://www.w3.org/2000/svg" viewBox="0 0 325 71" fill="currentColor" aria-label="Convert">
  <path d="M38.6 53.1h10.1a22 22 0 01-8.5 13c-4.2 3-9.4 4.5-15.7 4.5-7.7 0-13.7-2.4-18-7.4C2.2 58.4 0 51.5 0 42.5c0-8.6 2-15.3 6.3-20.1 4.3-5 10.3-7.5 18-7.5 8 0 14.3 2.4 18.8 7.2 2.4 3 4.1 6.4 5.2 10.3H34.2c-.7-1.3-1.4-2.3-2-3a9.8 9.8 0 00-7.5-2.8c-3 0-5.4 1-7.3 2.8-2.4 2.7-3.7 7.1-3.7 13.3 0 6.2 1.3 10.5 3.7 13C19 58 21.8 59 25.3 59a11.5 11.5 0 007-2.1 81.2 81.2 0 012.7-2.7c.8-.7 2-1 3.6-1zM52.3 55c1.2 4.2 3.3 7.4 6.1 9.8 2.7 2.4 6.3 4.1 10.8 5.1 4.5 1 9 1 13.5-.2 5-1.1 9-3.9 12.3-8.3 1.5-2.1 2.7-4.8 3.6-7.8 1-3.1 1.5-6.8 1.5-11.1 0-6-1.2-11-3.5-15.5-2.4-5-6.2-8.5-11.3-10.5-4.5-1.6-9.4-2-15-1.3a21 21 0 00-13.5 7.2 22.4 22.4 0 00-4.8 9 40.7 40.7 0 00.3 23.7zm12-11.8c-.3-6.1 1-10.7 3.8-13.8 1-1 2.4-1.7 4.5-2.3 2-.6 4-.6 6 0 2 .8 3.8 2.3 5.4 4.7 1.5 2.4 2.3 6 2.3 10.9-.1 5.3-1 9.2-2.6 11.6-1.6 2.5-3.5 4-5.6 4.6-2 .6-4.1.5-6.2-.2a9 9 0 01-4.2-2.7c-2-2.4-3.2-6.7-3.4-12.8zM149.2 69.7h-7c-2.1 0-3.8-.7-5-2-1.3-1.2-2-2.9-2-4.9V35.4c0-3.2-1-5.5-2.9-7a10.6 10.6 0 00-13 0c-2 1.5-2.9 3.8-2.9 7v34.3h-14.1V38.2c0-9 2.4-15.2 7.2-18.3 4.7-3 10-4.7 15.8-5 6 0 11.4 1.5 16.4 4.6 5 3.1 7.5 9.4 7.5 18.8v31.4zM251.8 53.1h-10.1a6 6 0 00-3.8 1c-.9.7-1.4 1.3-1.5 1.7l-.3.3-.8.8-1.1.7c-1.6 1-3.6 1.4-5.9 1.4-3.5 0-6.1-1.1-7.9-3.2-1.9-2-2.9-5.1-3-9.3h35l.2-1.4v-2.2c0-8.9-2.2-15.8-6.5-20.8a24.3 24.3 0 00-18.8-7.2c-7.7 0-13.7 2.5-18 7.5a29.7 29.7 0 00-6.3 20c0 9 2.2 16 6.5 20.8 4.3 5 10.3 7.4 18 7.4 6.3 0 11.6-1.5 15.8-4.6 4.1-3 7-7.2 8.5-12.9zM238 37.4h-20.6c.1-3.4 1.1-6.1 3-8a9.9 9.9 0 017.3-2.8c3.2 0 5.7 1 7.5 2.8 1.6 1.7 2.5 4.4 2.8 8zM254.8 69.7v-26c0-5.2.8-9.6 2.3-13.2a21.8 21.8 0 0115.4-13 40.1 40.1 0 0110.6-1.4h2v14.3h-4.6c-4 0-6.8 1-8.7 2.8-2 1.9-2.9 4.8-2.9 8.9v27.6h-14.1zm55.6 0c-4.4.2-9.3.2-14.5-.3-5.2-.4-7.7-3.6-7.7-9.8V.4h7.2c1.8 0 3.3.7 4.7 2 1.3 1.4 2 3 2 4.9v9h8.3v2.8c0 2-.7 3.7-2 5-1.4 1.2-3 1.9-4.9 1.9h-1.4v29.8c0 2.2 1.4 3.4 4 3.4h4.3v10.5z"/>
  <path d="M153.8 18l-1.8 4.8 6 17.3 6.7-18.3-10.9-3.8z" opacity=".5"/>
  <path d="M172.1 15.5l-11.3 32.3 6 17.3L183 19.3 172 15.5z" opacity=".8"/>
  <path d="M205 19.1L201.2 0l-14.8 12.7 3.5 1.2-19.3 55.8h12.2l18-52 4 1.4zM319 6.7a5.8 5.8 0 00-5.8 5.8 5.8 5.8 0 005.8 5.8 5.8 5.8 0 000-11.6zm0 10.5a4.7 4.7 0 01-4.7-4.7 4.7 4.7 0 014.7-4.7 4.7 4.7 0 014.7 4.7 4.7 4.7 0 01-4.7 4.7zm2.6-2l-1.3-2.2c.6-.3 1-1 1-1.7 0-1.2-.8-2-2.4-2H317a.3.3 0 00-.3.3v5.8a.3.3 0 00.3.3h1a.3.3 0 00.2-.3v-2h.8l1 2.1.3.2h1c.3 0 .4-.2.3-.4zm-2.6-3h-.8v-1.6h.7c.7 0 .9.3.9.8s-.3.7-.8.7z"/>
</svg>