<svg
  xmlns="http://www.w3.org/2000/svg" viewBox="0 0 170 36" fill="currentColor" aria-label="Wordpress">
  <path d="M47.6 10l-2.8 10.7L42 10h-2.8l.6 2.3-2.4 8.8L34.7 10H32l3.8 14h3l2.2-7.5 2.2 7.5h3l4-14h-2.6zM76 14a9 9 0 00-1.9-.2c-3.4 0-5.3 2.3-5.3 5.6s1.9 4.9 4 4.9a5.5 5.5 0 003.3-1.2v.9h2.3V10H76v4zm0 7.1c-.8.8-1.6 1.2-2.4 1.2-1.3 0-2.2-1-2.2-3 0-2.3 1-3.5 3-3.5l1.5.3v5zm-11.8-5.4v-1.6h-2.4V24h2.5v-6c.8-1.4 1.7-1.9 3.3-1.9h.2V14a6.7 6.7 0 00-.7 0 3 3 0 00-2.9 1.7zm83.1-1.9c-3.4 0-5 2.2-5 5.2s1.6 5.2 5 5.2 5-2.1 5-5.2c0-3-1.6-5.2-5-5.2zm0 8.4c-1.6 0-2.4-1-2.4-3.2 0-2.1.8-3.2 2.4-3.2 1.6 0 2.5 1 2.5 3.2s-.9 3.2-2.5 3.2zm19.2-8.4c-1.1 0-2.3.6-3.4 1.3l-.3.2c-.5-1-1.6-1.5-2.7-1.5-1 0-2.3.6-3.4 1.3v-1h-2.3V24h2.4v-7.1a5.3 5.3 0 012.6-1c.8 0 1.4.4 1.4 1.8V24h2.4v-7.1c1-.6 2-1 2.6-1 .8 0 1.3.4 1.3 1.8V24h2.5v-6.9c0-1.9-1.1-3.3-3.1-3.3zm-111.7 0c-3.4 0-5 2.2-5 5.2s1.6 5.2 5 5.2 5-2.1 5-5.2c0-3-1.6-5.2-5-5.2zm0 8.4c-1.6 0-2.4-1-2.4-3.2 0-2.1.8-3.2 2.4-3.2 1.6 0 2.5 1 2.5 3.2s-.9 3.2-2.5 3.2zm40.3-6.5V14h-2.4V24h2.5v-6c.8-1.4 1.7-1.9 3.3-1.9h.2V14a6.7 6.7 0 00-.6 0 3 3 0 00-3 1.7zm-9-5.7h-4.6v14H84v-4.9h2c3 0 5.1-1.6 5.1-4.6 0-3-2.2-4.5-5.2-4.5zm0 7h-2v-5h2c1.6 0 2.3 1 2.3 2.5 0 1.6-.7 2.6-2.3 2.6zm36-.2c0-.7.8-1 1.7-1 1 0 1.9.2 2.7.4v-2a10.1 10.1 0 00-3-.4c-2.3 0-4 1.1-4 3 0 3.6 5 2.6 5 4.4 0 .8-.8 1-2 1-.7 0-2-.2-3-.6v2a8.3 8.3 0 003 .6c2.3 0 4.5-.6 4.5-3.1 0-3.5-4.9-2.6-4.9-4.3zm-17.5-3c-3.2 0-4.8 2.5-4.8 5.2 0 3.7 1.9 5.2 5 5.2a11.8 11.8 0 003.7-.5v-2c-1 .3-2 .5-3 .5-1.8 0-3-.5-3-2.6h6.3V18c0-2-1-4.3-4.2-4.3zm-2.2 4.1c.2-1.3 1-2.2 2.2-2.2 1.3 0 1.7 1 1.7 2.2h-3.9zm10.7-1c0-.8.8-1 1.7-1 1 0 1.9 0 2.8.3v-2a10.1 10.1 0 00-3-.4c-2.3 0-4 1.1-4 3 0 3.6 4.9 2.6 4.9 4.4 0 .8-.8 1-1.9 1-.8 0-2-.2-3-.6v2a8.3 8.3 0 002.9.6c2.3 0 4.5-.6 4.5-3.1 0-3.5-4.9-2.6-4.9-4.3zm22 2c0-2.3 1.3-3 2.8-3 1 0 1.9.1 2.7.5v-2.1a8.1 8.1 0 00-2.8-.5c-3.2 0-5.3 2-5.3 5.3 0 3 1.5 5.1 5.2 5.1a9 9 0 003-.5v-2c-1 .4-2 .5-2.7.5-1.6 0-2.9-.7-2.9-3.3zm-6.4 5.1h2.4v-2.5h-2.4V24zm-127-8c0 4.5 2.6 8.3 6.4 10.2L2.7 11.3a11.2 11.2 0 00-1 4.6zM13 27.3c1.3 0 2.6-.2 3.8-.7l-.1-.1-3.5-9.5-3.4 9.8c1 .3 2 .5 3.2.5zm1.6-16.6l4 12.1 1.2-3.7c.4-1.6.8-2.7.8-3.7a6 6 0 00-1-3c-.5-1-1-1.8-1-2.7 0-1 .8-2 1.9-2h.1a11.2 11.2 0 00-7.6-3 11.3 11.3 0 00-9.4 5.1h.7l3-.1c.6 0 .7.8 0 .9l-1.2.1L10.2 23l2.5-7.4-1.8-4.8a20.1 20.1 0 01-1.2 0c-.6-.1-.5-1 .1-1l3 .1 3-.1c.6 0 .7.8 0 .9l-1.2.1zm4 15a11.3 11.3 0 005.7-9.7c0-2-.5-3.8-1.4-5.4a10.7 10.7 0 01-.8 5.2l-3.4 10zM13 29a13 13 0 110-26 13 13 0 010 26z"/>
</svg>