<svg xmlns="http://www.w3.org/2000/svg" xml:space="preserve" viewBox="0 0 192 192" height="48" width="48" aria-label="Google Marketing Platform">
  <defs>
    <linearGradient id="a" gradientUnits="userSpaceOnUse" x1="8" y1="83.1" x2="164.7" y2="83.1">
      <stop offset="0" stop-color="#246fdb"/>
      <stop offset=".1" stop-color="#2973df"/>
      <stop offset=".3" stop-color="#377deb"/>
      <stop offset=".5" stop-color="#3f83f2"/>
      <stop offset="1" stop-color="#4285f4"/>
    </linearGradient>
  </defs>
  <path fill="#ea4335" d="M127 65c17 17 17 45 0 62a22 22 0 0 0 31 31c35-34 35-90 0-124z"/>
  <path fill="url(#a)" d="M158 34A88 88 0 0 0 34 158l31-31a44 44 0 0 1 62-62 22 22 0 0 0 31-31z"/>
  <path fill="#fbbc04" d="m158 158-31-31a44 44 0 0 1-62 0l-31 31c34 35 90 35 124 0z"/>
  <circle transform="rotate(-45)" fill="#ea4335" cy="201.8" r="22"/>
  <circle transform="rotate(-45)" fill="#34a853" cx="-66" cy="135.8" r="22"/>
</svg>
