<svg
  xmlns="http://www.w3.org/2000/svg" viewBox="0 0 380 94.7" fill="currentColor" aria-label="PhenQ">
  <path d="M175.3 30.8c15.3 0 23 12.4 24 25.8h-48.6c1.2-14.7 11.4-25.9 24.6-25.9m-31.4 29v.2c0 20.8 15.2 34.8 32.7 34.8 12 0 19.5-4.3 26-10.9a3.1 3.1 0 001-2.2 3 3 0 00-3-3 2.8 2.8 0 00-2.2 1c-5.3 5.2-12 9.1-21.6 9.1-13 0-25-9.7-26.1-26.3H203a3.3 3.3 0 003.1-3c0-19-11.9-34.5-30.6-34.5-18 0-31.6 15.4-31.6 34.8m78.9-20.8v-9.2a3.2 3.2 0 10-6.5 0v60.7a3.2 3.2 0 003.3 3.3 3 3 0 003.2-3.3V54.6c0-14 10-23.8 23.1-23.8 13.5 0 21.2 9 21.2 22.7v37a3.2 3.2 0 003.3 3.2 3 3 0 003.1-3.3v-38c0-16-9.8-27.5-26.7-27.5a26.1 26.1 0 00-24 14m-216-31h25.9c16.5 0 27.7 7.6 27.7 22v.3C60.4 43.8 49 52.7 32 52.7H6.8zM3.4 1.6A3.5 3.5 0 000 5v85.3a3.5 3.5 0 003.4 3.4 3.5 3.5 0 003.4-3.4V59h24.7c19.1 0 35.7-10 35.7-29.2v-.2c0-17.7-13.8-28-34-28zm300.3 45.8V47c0-15.7 11.3-28.5 27.5-28.5s27.7 13 27.7 28.8v.2a32 32 0 01-2.5 12.6l-10-9a9.3 9.3 0 00-6.7-2.8 9.5 9.5 0 00-9.4 9.6 10 10 0 003.7 7.6l9.5 8a27.5 27.5 0 01-12 2.5c-16.2 0-27.7-13-27.7-28.7m-21 0v.2a47 47 0 0048.5 47.1 49.8 49.8 0 0027.2-7.8l5 4.4a9.4 9.4 0 0016-6.8A9.9 9.9 0 00376 77l-3.9-3.3a47 47 0 008-26.3V47c0-26-20.3-47.1-48.5-47.1s-48.8 21.3-48.8 47.4M76.8 3.3v87.1a3.2 3.2 0 003.3 3.3 3 3 0 003.1-3.3V54.6c0-14 10-23.8 23.2-23.8 13.4 0 21.2 9 21.2 22.7v37a3.2 3.2 0 003.2 3.2 3 3 0 003.2-3.3v-38c0-16-9.8-27.5-26.7-27.5a26.1 26.1 0 00-24 14V3.3A3.2 3.2 0 0079.9 0a3.1 3.1 0 00-3.1 3.3"/>
</svg>