<svg xmlns="http://www.w3.org/2000/svg" viewBox="0 0 140 33" fill="currentColor" aria-label="Klaviyo">
  <defs>
    <linearGradient id="klaviyo" x1="25.1" y1="408.2" x2="25.1" y2="363" gradientTransform="translate(6.3 -256.3) scale(.7071)" gradientUnits="userSpaceOnUse">
      <stop offset="0" stop-color="#efc119"/>
      <stop offset=".5" stop-color="#71bf5b"/>
      <stop offset=".8" stop-color="#15b158"/>
      <stop offset="1" stop-color="#23ac69"/>
    </linearGradient>
  </defs>
  <path fill="url(#klaviyo)" d="M1.3 14.8L22.5.8a3 3 0 013 0l21.3 14a1.7 1.7 0 010 3l-2.9 2a23.6 23.6 0 00-39.8 0l-2.9-2a1.7 1.7 0 010-3zm22.7-.1A17.8 17.8 0 009 23l4.9 3.2a11.8 11.8 0 0120.2 0L39 23a17.6 17.6 0 00-15-8.3zm0 11.7a6 6 0 00-5.2 3l3.3 2.2a3 3 0 002 .7 3 3 0 001.8-.7l3.3-2.1a6 6 0 00-5.2-3z"/>
  <path fill="#171a1d" d="M61 16.3l5.3 7.6h-3.8l-4-6v6h-3V8.7h3v6l3.8-6H66zm10.6-7.5h-3.1v15.1h7.8v-3h-4.8V8.8zm13.7-.6L91.7 24h-3.4l-.6-1.6h-5l-.6 1.6h-3.5L85 8.2zm1.3 11.2l-1.4-3.9-1.4 4zm9.4-2.2L93 8.8h-3.4l6.3 15.7h.3l6.4-15.7h-3.4zm8.8 6.7h3V8.8h-3zM120 8.8l-3.1 5.2-3-5.2H110l5.3 8.3v6.8h3v-6.8l5.3-8.3zm19.4 7.3a7.8 7.8 0 11-7.9-7.9 7.9 7.9 0 017.9 7.9zm-3 0a4.9 4.9 0 10-4.9 4.9 4.9 4.9 0 005-5z"/>
</svg>