<svg xmlns="http://www.w3.org/2000/svg" viewBox="0 0 198.4 49.5" width="198" height="49" aria-label="NCC Group">
  <path d="M198.4 9v-.2l-.9-.4c-2.5-1-4.2.3-4.4.5l-.5.5c1.7 0 3 .6 3.8.6.6 0 1.3-.2 2-1m-8.6-.6c-.5.8-1.2 1.5-2.1 1.9h.3c1.6 0 3.1-.9 4-2.3.5-.6 1.3-1.2 1.8-1.5-1.3 0-3 .6-4 1.9"/>
  <path d="M196.8 12.3c-2 .1-4-2-6.4-1.3-1.3.4-2.2 1.8-3.9 2.3-2.6.8-4-1-6.5-.2-.3 0-.6.2-.8.4 1 2.7 3.3 5 6.2 6a10 10 0 0012.6-6.6l.2-.8a5 5 0 01-1.4.2"/>
  <path d="M183 12.7c1.1.2 2 .3 2.8 0 .8-.2 1.6-.8 2.3-1.4-.4 0-.7 0-1.1-.2-2.2-.5-3.7.6-4 1 .3-.6 1-1 1.6-1.2-1 0-3 .2-4 1.6 0 0 1-1.9 3.6-2 2.6 0 3.6-.8 5-3.5.1-.3 1.3-2.4 4.6-2 .8 0 1.4.2 2.6-.4a2.9 2.9 0 00.4-.2 10 10 0 00-5.3-4 10 10 0 00-12.3 13c.5-.5 2-1.2 3.8-.8m-146.5 9a7 7 0 015.9 3l3.2-3h-.1l-.7-.9A11.4 11.4 0 0028 21a11.9 11.9 0 00-3.2 8.3c0 3 1.2 6.2 3.4 8.4 2.2 2.4 5 3.6 8.4 3.6 3.2 0 6.2-1.3 8.5-3.9l.3-.4h.1l-3-3.2-.2.2a7 7 0 01-5.7 3c-4.2 0-7.3-3.4-7.3-7.8s3-7.7 7.2-7.7"/>
  <path d="M65.3 33.2A7 7 0 0159 37c-4.1 0-7.3-3.3-7.3-7.7 0-4.5 3.2-7.8 7.3-7.8a7 7 0 016.3 3.8l.1.2 3.2-3.2h-.1l-1.2-1.6a11.4 11.4 0 00-16.8.3 11.9 11.9 0 00-3.3 8.3c0 3 1.3 6.2 3.4 8.5 2.3 2.3 5.1 3.5 8.4 3.5a11.3 11.3 0 009.5-5l-3.1-3.2zm-54.5-16C5 17.1 0 21.7 0 27.1v13.5h4.7V27.1c0-3 3.3-5.3 6.1-5.3s6.1 2.3 6.1 5.3h.2-.2v13.6h4.7V27.1c0-5.3-5-10-10.8-10m109 20.4c-4.6 0-8.1-3.7-8.1-8.6 0-5 3.5-8.7 8.1-8.7S128 24 128 29c0 5-3.5 8.6-8.1 8.6m11.4-8.9c0-3-1.2-5.9-3.4-8a11.2 11.2 0 00-16.4.2c-2.1 2.2-3.2 5-3.2 8.1a12.2 12.2 0 003.4 8.3c2.1 2.3 5 3.5 8.2 3.5 3.2 0 6-1.3 8.3-3.8 2-2.2 3.1-5.2 3.1-8.3M82.8 38c-4.7 0-8.2-3.7-8.2-8.6 0-5 3.5-8.7 8.1-8.7s8.2 3.7 8.2 8.6c0 5-3.5 8.7-8.1 8.7m.1 11.6c7 0 11.3-4.7 11.3-12.4V29c0-3-1.2-5.9-3.4-8a11.2 11.2 0 00-16.4.2c-2 2.2-3.1 5-3.1 8.1a12.2 12.2 0 003.3 8.3 11 11 0 008.2 3.4c2.7 0 5.2-1 7.3-2.8l.9-.8v1.2c-.1 4.8-3.5 8-8.4 8-2.8 0-5-1.2-6.4-3.3h-3.4c1.6 4 5.3 6.2 10.1 6.2"/>
  <path d="M108 20.8v-3.4c-2.7.3-5.2 1.6-7.2 3.7-2 2.2-3.1 5-3.2 8v11.3h3.5V29.2c0-4.4 3-7.8 7-8.4m46.9-2.7h-3.5v14c-.3 3.2-3.9 5.6-7 5.6s-6.7-2.4-7-5.7V18.1H134v13.4c0 5.2 4.9 9.7 10.5 9.7s10.5-4.5 10.5-9.7zM169.4 38c-4.7 0-8.2-3.7-8.2-8.6 0-5 3.5-8.7 8.1-8.7s8.2 3.7 8.2 8.6c0 5-3.5 8.7-8.1 8.7m11.4-8.9c0-3-1.2-5.9-3.4-8a11.2 11.2 0 00-16.4.2c-2 2.2-3.1 5-3.1 8.1V49h3.3V37.7l.8.7a11 11 0 007.4 2.7c3.2 0 6-1.3 8.3-3.8 2-2.2 3.1-5.2 3.1-8.3"/>
</svg>
