<svg xmlns="http://www.w3.org/2000/svg" viewBox="0 0 118.6 26" width="1186.3" height="260.5" fill="currentColor" aria-label="Avocet">
  <path d="M5.3 18.8c0 .9.7 1.7 2.2 1.7 2.7 0 4.4-1.5 4.5-3.8-.7-.2-1.7-.3-2.5-.3-2.6 0-4.2.7-4.2 2.5m-4-10.4a9.7 9.7 0 018.1-4.2c4.6 0 8.4 3.1 8.4 8v13.3H12v-1.5c-.7.9-2.2 1.7-4.6 1.7-5.1 0-7.4-3.7-7.4-6.6 0-5.3 4-7 8.5-7 1.3 0 2.6.2 3.5.5v-.5c0-1.7-1-3-2.6-3-1.9 0-3 1.1-4.3 2.9zm23-4.1l4.3 10.8 4.3-10.8H39l-8.7 21.2H27L18.2 4.4zm25.4 5.2c-2.7 0-5.1 2.4-5.1 5.5s2.4 5.5 5.1 5.5S55 18 55 15c0-3.1-2.4-5.5-5.2-5.5m0 16.3A10.9 10.9 0 0139 15.1c0-6 4.9-10.9 10.8-10.9a10.9 10.9 0 0111 10.9c0 5.9-4.9 10.8-11 10.8m33.4-4.8a11.2 11.2 0 01-9.2 4.9 11 11 0 01-11-11 11 11 0 0119.7-6.7l-4 3.8c-1-2-2.9-2.8-4.7-2.8-2.9 0-5.3 2.6-5.3 5.7 0 3.2 2.5 5.7 5.3 5.7 2 0 3.9-1 5-3.1zm14.5-9.2c0-1.4-1.5-3.1-3.7-3.1a4.3 4.3 0 00-4.4 3zM103 21a10 10 0 01-9 5c-7.3 0-10.8-5.7-10.8-11S86.8 4 94 4a9 9 0 017.1 3.2c1.6 2 2.4 4.5 1.8 9.1H89c0 3 2 4.5 5 4.5 2.4 0 4-1.5 4.6-3.3zm15.6 3c-.6.5-2.1 1.7-5.3 1.7-4.8 0-6-3-6-5.4V9h-2.7V4.4h2.6V0h5.8v4.4h5.4v4.7H113v9.6c0 1.2 0 2.3 1.5 2.3 1 0 1.7-.2 2.2-.7z"/>
</svg>
