<svg xmlns="http://www.w3.org/2000/svg" viewBox="0 0 94 65" width="94" height="65" aria-label="Hilton">
  <path d="M56 23.3c0 1.2-.3 2.6-1.2 3.8h2.5V8h-7.9v7.7c4.3 1.3 6.6 4 6.6 7.5"/>
  <path d="M42.4 15.2c1.8 0 3.4.4 4.7.7a13 13 0 00-9 1.9v9.3h8V16.5a10 10 0 013.7 1.6v9h1.7a8.5 8.5 0 01-7.2 2.5v.4c7.5.6 10.6-3 10.6-7 0-4.7-4.4-7.4-8.9-8V8h-7.9v7c-5 1.1-10 4.1-10 9.2 0 7.7 10.7 12.5 20.1 12.5 14.3 0 25.3-7 25.3-16.6C73.5 8.4 57.6 0 45.2 0 30.9 0 20.4 9 20.4 18.7c0 5 2.8 9.3 6.4 12.2l.2-.2c-2.8-2.3-5.3-6-5.3-11C22.4 9.1 35.5 3.2 47 3.2c8.2 0 23 1.9 23 15.6 0 7.2-7.7 16.5-23.8 16.5-8.2 0-14.6-4.4-14.6-10.7 0-5.5 4.3-9.4 10.7-9.4M12 64.2v-1h2.8v-9.4H7.3V63h2.9v1.1H0v-1h2.6V44H0V43h10.2v1H7.3v8.5h7.4v-8.4h-2.8V43H22v1h-2.6v19.1H22v1.1z"/>
  <path d="M25.9 43h4.6v2.5h-4.6zm-2.3 21.2v-1h2.5V50h-2.5V49h7v14.1H33v1.1zm10.4 0v-1h2.5v-22H34v-1H41v23h2.4v1zm16.7 0c-2.5 0-3.9-1.3-3.9-3.3V50.1h-2.4V49h2.4v-6h4.3v6h3.6v1h-3.6v13.1h3.7v1.1h-4M72 59.7c-.6 1.4-2.7 5-8 5-5.9 0-8.9-4.1-8.9-8.2 0-5.6 5-8 8.8-8 3.3 0 8.1 2 8.5 7.8a8 8 0 01-.4 3.4m-5-8.3c-.6-1.3-1.7-1.9-3.1-1.9-3.6 0-3.7 3.7-3.7 7 0 4.3.4 5 .7 5.6.4.8 1.4 1.6 3 1.6 3.6 0 3.6-3.8 3.5-7.4 0-3.9-.2-4.4-.4-4.8m17.7 12.7v-1h2v-9c0-2 0-4-2.2-4-1.3 0-3.3 1.2-3.8 3.3-.2.6-.2 1.3-.2 3V63H83v1.1h-9.4v-1H76V50h-2.5V49h7v2.3c.8-1 1.4-1.7 3-2.3 1-.4 2-.5 2.7-.5.3 0 1.1 0 2.1.3 3 .8 3 3 3 4.7V63H94v1.1h-9.1M68.8 34h-.7v-.2h1.8v.2h-.7v2.7h-.4zm3.2 2.2l1-2.4h.4v3h-.3v-2.3l-.9 2.2h-.3l-1-2.2v2.2h-.3v-3h.5z"/>
</svg>
