<svg xmlns="http://www.w3.org/2000/svg" xmlns:xlink="http://www.w3.org/1999/xlink" fill="currentColor" viewBox="0 0 477.9 95.3" aria-label="Asana">
  <path d="M160.8 15.8a32.8 32.8 0 000 65.7c8 0 16.6-3.1 21-8.8.2 3.3 2.9 7.4 7.4 7.4h2.7c1 0 1.8-.8 1.8-1.8V19.8c0-1-.8-1.7-1.8-1.7h-8.3c-1 0-1.8.8-1.8 1.7v4.8c-5.1-6.2-13-8.8-21-8.8zm69.7 0c-11.2 0-23.3 5.6-23.3 19.1 0 8.9 6.7 14.3 14.5 17 7.8 2.6 20.2 3.6 20.2 10.3 0 5-5.7 7.8-11.2 7.8-5.8 0-11.8-1.9-17.3-5.7-.5-.3-1.7-.8-2.6.5l-4.5 6.4s-1 1.3.4 2.7a39.5 39.5 0 0024 7.6c12.3 0 23.5-7.4 23.5-19.3 0-13.5-12-17-23-20-6.3-1.6-11.7-3.1-11.7-7.8 0-4 4.2-7.1 11-7.1 7 0 11.4 3.2 12.7 4 1.3.8 2.2.1 2.7-.6l4.6-6.5s1-1.4-.7-2.7a35.2 35.2 0 00-19.3-5.7zm64.5 0a32.8 32.8 0 000 65.7c8 0 16.6-3.1 21-8.8.2 3.3 2.8 7.4 7.4 7.4h2.6c1 0 2-.8 2-1.8V19.8c-.1-1-1-1.7-2-1.7h-8.2c-1 0-1.8.8-1.9 1.7v4.8c-5-6.2-13-8.8-21-8.8zm150 0a32.8 32.8 0 000 65.7c8 0 16.6-3.1 21-8.8.2 3.3 2.9 7.4 7.4 7.4h2.7c1 0 1.8-.8 1.8-1.8V19.8c0-1-.8-1.7-1.8-1.7h-8.3c-1 0-1.8.8-1.8 1.7v4.8c-5.1-6.2-13-8.8-21-8.8zm-71.2.1c-8.2 0-15.6 4.7-17.2 8.8-.5-3.2-2.2-6.5-7.5-6.5h-2.6c-1 0-2 .9-2 1.9V78.5h.1c0 1 .9 1.8 1.9 1.8h8.6l.1-.1h.2l.2-.2h.1l.2-.2.3-.3.4-1V44a16.6 16.6 0 0133.1 0V78.5c.1 1 1 1.8 1.9 1.8h8.6l.2-.1h.2l.1-.2h.2l.2-.2.2-.3c.3-.3.4-.6.4-1v-34c0-17-10.7-28.6-27.9-28.6zm-213 11.4c11.5 0 20.9 9.5 20.9 21.3S172.3 70 160.8 70a21.1 21.1 0 01-20.9-21.4c0-11.8 9.4-21.3 20.9-21.3zm134.2 0c11.5 0 20.9 9.5 20.9 21.3s-9.4 21.4-21 21.4a21.1 21.1 0 01-20.8-21.4c0-11.8 9.4-21.3 20.9-21.3zm150 0c11.5 0 20.9 9.5 20.9 21.3s-9.4 21.4-21 21.4a21.1 21.1 0 01-20.8-21.4c0-11.8 9.4-21.3 20.9-21.3z"/>
  <defs>
    <path d="M76.4 22.4a22.4 22.4 0 11-44.8 0 22.4 22.4 0 0144.8 0zm-51.5 28a22.4 22.4 0 100 44.9 22.4 22.4 0 000-44.9zm58.2 0a22.4 22.4 0 100 44.9 22.4 22.4 0 000-44.9z" id="asana-a"/>
  </defs>
  <clipPath id="asana-b">
    <use xlink:href="#asana-a"/>
  </clipPath>
  <radialGradient gradientUnits="userSpaceOnUse" gradientTransform="matrix(0 -.75 .75 0 -2614.3 -12329.5)" r="75.2" cy="3557.7" cx="-16513.2" id="asana-c">
    <stop offset="0" stop-color="#fcb713"/>
    <stop offset=".6" stop-color="#ef5d8d"/>
    <stop offset="1" stop-color="#ef5555"/>
  </radialGradient>
  <path clip-path="url(#asana-b)" d="M54-1a56.4 56.4 0 110 112.8A56.4 56.4 0 0154-1z" fill="url(#asana-c)"/>
</svg>
