<svg xmlns="http://www.w3.org/2000/svg" xmlns:xlink="http://www.w3.org/1999/xlink" viewBox="0 0 120 60" width="120" height="60" aria-label="Kissmetrics">
  <path d="M64.5 7c-5 0-9.2 4-9.5 9a9.5 9.5 0 00-9 9.7 9.5 9.5 0 009.5 9.3h14.7a3.8 3.8 0 003.9-3.9V16.5A9.5 9.5 0 0064.5 7zM54.3 30.8c-2-.6-3.5-2-4-4a3.4 3.4 0 01-.1-.6h4.1zm1.1.1v-9h4v9zm9.2 0h-3.9V14.5h3.9zm5.3-.8c0 .2 0 .4-.2.6a.8.8 0 01-.6.2H66V17.7h4zM21.1 53l-3.6-4.1v4h-2.2V39h2.2v7.7l2.6-3h3l-3.7 4 4.5 5.1zm3.1-12.3c0-.8.7-1.4 1.5-1.4s1.5.6 1.5 1.4-.7 1.4-1.5 1.4-1.5-.6-1.5-1.4zm.4 3.2h2.2v9h-2.2z"/>
  <use xlink:href="#kiss"/>
  <use xlink:href="#kiss" x="8.1"/>
  <path d="M59.2 47.8v5h-2.3V48c0-1.4-.7-2.1-1.8-2.1-1.3 0-2 1-2 2.6v-.1 4.6h-2.3v-5c0-1.4-.7-2.1-1.7-2.1s-2 .6-2 2.3v4.8h-2.3v-9.1H47v1.6c.4-1.2 1.6-1.8 2.7-1.8a3 3 0 013 1.8 3.3 3.3 0 013-1.8c2.3 0 3.5 1.5 3.5 4.2zM69.6 49h-7c.3 1.3 1.2 1.9 2.6 1.9 1 0 1.9-.4 2.4-1.1l1.5 1.1c-.8 1.3-2.4 2-4 2a4.6 4.6 0 01-4.8-4.7c0-2.9 2.2-4.7 4.7-4.7s4.7 1.8 4.7 4.6a7.5 7.5 0 01-.1 1zm-2.2-1.6c-.1-1.2-1-2-2.3-2-1.3 0-2.2.7-2.5 2zm8.4-1.9H74v7.3h-2.2v-7.3H70v-1.8h1.7v-3.3h2.2v3.3h2zm7.6-1.7l-.4 2.2a2.8 2.8 0 00-1.3-.4c-1.5 0-2.3 1.5-2.3 4v3.2H77v-9.1h2.3v2c.5-1.6 1.4-2.2 2.6-2.2a3.4 3.4 0 011.4.3zm.9-3.3c0-.8.6-1.4 1.4-1.4s1.5.6 1.5 1.4-.6 1.4-1.5 1.4-1.4-.6-1.4-1.4zm.3 3.2H87v9h-2.3zm3.5 4.5c0-2.8 2.3-4.7 5-4.7a4.6 4.6 0 013.6 1.8l-1.6 1.2a2.7 2.7 0 00-2-.9c-1.6 0-2.7 1.1-2.7 2.6s1.1 2.6 2.7 2.6a2.7 2.7 0 002-.9l1.7 1.3A4.6 4.6 0 0193 53c-2.6 0-5-1.8-5-4.7zm9.3 1.7h2c0 .6.6 1.2 1.6 1.2.9 0 1.4-.4 1.4-1 0-.5-.3-.7-1-.9l-1.2-.3c-2-.5-2.6-1.6-2.6-2.7 0-1.4 1.4-2.7 3.4-2.7 1.6 0 3.4.8 3.4 2.8h-2.1c0-.6-.6-1-1.3-1-.7 0-1.1.4-1.1 1 0 .4.4.7 1 .8l1.4.4c2 .5 2.4 1.8 2.4 2.6 0 1.9-1.8 2.8-3.7 2.8-1.8 0-3.6-1-3.6-3z"/>
  <defs>
    <path id="kiss" d="M28.1 50h2.1c0 .6.6 1.2 1.5 1.2 1 0 1.5-.4 1.5-1 0-.5-.4-.7-1-.9l-1.3-.3c-2-.5-2.5-1.6-2.5-2.7 0-1.4 1.4-2.7 3.3-2.7 1.7 0 3.5.8 3.5 2.8H33c0-.6-.6-1-1.2-1-.7 0-1.2.4-1.2 1 0 .4.5.7 1 .8l1.4.4c2 .5 2.4 1.8 2.4 2.6 0 1.9-1.8 2.8-3.6 2.8s-3.6-1-3.7-3z"/>
  </defs>
</svg>
