<svg
  xmlns="http://www.w3.org/2000/svg" viewBox="0 0 668 81" fill="currentColor" role="img" aria-label="Bloom &amp; Wild">
  <path d="M173 10a37.4 37.4 0 00-51 0c-7 7-10 15-10 24 0 10 3 18 10 24 7 7 16 10 26 10s18-3 25-10c7-6 11-14 11-24 0-9-4-17-11-24zm-5 46c-5 6-11 9-20 9s-16-3-20-9c-5-7-7-14-7-22s2-15 7-21c4-6 11-10 20-10s15 4 20 10c4 6 6 13 6 21s-2 15-6 22zM249 10c-7-6-16-10-26-10-9 0-18 4-25 10-7 7-10 15-10 24 0 10 3 18 10 24 7 7 16 10 25 10 10 0 19-3 26-10 7-6 10-14 10-24 0-9-3-17-10-24zm-6 46c-4 6-11 9-20 9-8 0-15-3-20-9-4-7-6-14-6-22s2-15 6-21c5-6 12-10 20-10 9 0 16 4 20 10 5 6 7 13 7 21s-2 15-7 22zM42 32h-1l1-1 6-6c1-2 2-4 2-7 0-5-2-8-5-11-4-3-9-5-16-5H1S0 2 0 3h1c4 0 7 1 8 3 1 1 2 5 2 11v35c0 6-1 9-2 11-1 1-4 2-8 2l-1 1 1 1h31c8 0 13-2 17-5 4-4 6-8 6-13 0-4-1-7-3-11-3-3-6-5-10-6zM18 5h11c4 0 7 1 9 4 2 2 3 5 3 9s-1 7-3 9c-2 3-5 4-9 4H18V5zm25 54c-2 3-6 5-11 5h-3c-4 0-7-1-9-3-1-1-1-5-1-11V34h13c5 0 9 1 11 4 3 3 4 6 4 11 0 4-1 8-4 10zM112 53c-1 0-1 0-1 1v1c-1 3-2 6-4 7-1 1-4 2-9 2H85c-5 0-8-1-9-3-2-1-2-5-2-11V17c0-6 0-10 2-11 1-2 3-3 8-3V2H56v1c4 0 7 1 8 3 1 1 2 5 2 11v35c0 6-1 9-2 11-1 1-4 2-8 2v2h55c1 0 1-1 1-1l1-12c0-1-1-1-1-1zM340 1h-15-1l-23 54-23-54h-18v1c5 1 7 1 8 3 2 1 2 5 2 11v35c0 6 0 9-2 11-1 1-4 2-8 2v2h23l1-1s0-1-1-1c-4 0-7-1-8-2-1-2-2-5-2-11V10l25 57h1l24-54v38c0 6-1 9-2 11-2 1-4 2-8 2l-1 1 1 1h27l1-1s0-1-1-1c-4 0-7-1-8-2-1-2-2-5-2-11V16c0-6 1-10 2-11 1-2 4-3 8-3h1c0-1-1-1-1-1zM658 10c-6-6-15-9-26-9h-29s-1 0-1 1h1c4 1 7 1 8 3 1 1 2 5 2 11v35c0 6-1 9-2 11-1 1-4 2-8 2l-1 1 1 1h29c12 0 21-3 27-9 5-6 9-14 9-24-1-9-4-17-10-23zm-6 44c-4 6-11 9-20 9h-1c-5 0-7-1-9-3-1-1-2-5-2-11V4h12c9 0 16 3 20 9s6 12 6 20-2 15-6 21zM598 52v1l-1 1c-1 3-2 6-3 7-2 1-5 2-10 2h-13c-5 0-8-1-9-3-1-1-2-5-2-11V16c0-6 1-10 2-11 1-2 4-3 8-3h1c0-1-1-1-1-1h-27c-1 0-1 0-1 1h1c4 0 6 1 8 3 1 1 1 5 1 11v35c0 6 0 9-2 11-1 1-3 2-7 2-1 0-1 1-1 1s0 1 1 1h55v-1l1-12c0-1 0-1-1-1zM535 1h-27v1c4 1 7 1 8 3 1 1 2 5 2 11v35c0 6-1 9-2 11-1 1-4 2-8 2v2h27c1 0 1-1 1-1s0-1-1-1c-4 0-6-1-7-2-2-2-2-5-2-11V16c0-6 0-10 2-11 1-2 3-3 7-3h1c0-1 0-1-1-1zM502 1h-27c-1 0-1 0-1 1h4-1c4 0 6 1 7 3 1 1 1 3 0 6l-11 37h-1L457 1h-1l-14 47h-1l-12-37c-1-3-1-5 0-6s3-2 6-3h2V1h-27c-1 0-1 0-1 1h3c5 1 7 4 9 10l17 54h1l15-47h1l14 47h1l17-54c3-7 4-10 13-10h-1 3V1zM402 38c2-1 3-1 4-2 0-1 1-2 2-4 2 0 3-1 4-1 0 1 1 2 1 2 4 0 2-5-1-2-1 0-2 0-3 1 1-2 1-3 2-4 0-1 1-2 1-3-1-2-4 0-2 2 0 2-1 3-2 5-1 1-1 2-2 3v-2-4c1-1 2-2 1-3-1-2-4 0-2 3 1 1 0 2 0 4v2c-1 1-2 1-3 2 1-4 1-8 0-11-4 3-5 13-3 18 2-2 3-4 3-6zM426 44c0-1-2 0-2 0h-5c1 0 2-2 2-2 4-1 0-5-1-2 0 0 0 1 1 1-1 1-2 3-3 4-1 0-3 1-4 1s-2 1-3 2h-7c3 4 13 7 18 5-3-3-6-4-10-5 1-1 2-1 3-2 0 1 1 1 2 1 1 1 2 1 3 2h1c1 2 4 1 2-1 0-1-2 0-2 0-1-1-4-1-4-1-1-1-1-1-2-1 1 0 2-1 3-1h1c2 0 3-1 5 0 1 3 4 1 2-1zM384 63c-4-3-11-7-17-6 2 5 12 7 17 6zM391 81c1-6-2-12-6-16-1 5 2 13 6 16zM382 68c-1 3-2 7-1 10 2-2 3-7 2-10h-1zM393 50c3-8 5-19 0-27-5 6-4 21 0 27zM396 53c4 7 19 11 26 9-6-6-17-11-26-9z"/>
  <path d="M377 74h-3c-3 0-6 0-8-1-3-1-5-3-6-5-2-1-3-3-4-6 0-2-1-4-1-7 0-2 0-4 1-6 0-2 1-3 2-5l1-2v-1l-2 2c-3 1-5 4-7 7s-3 6-3 10c0 2 1 5 1 7 1 2 2 4 4 6 1 2 3 3 5 4s5 2 8 2c1 0 3-1 5-1 1-1 3-1 5-2l2-2zM381 3c2 1 3 2 4 4s2 4 2 6c0 4-2 8-4 11l-2 3 3-1c2-2 5-3 7-6 2-2 3-5 3-8s-1-5-3-7c-2-3-6-4-10-4h-1-2l3 2z"/>
  <path d="M419 71l-3 1h-2-4c-1-1-2-1-3-2s-2-2-4-3c-1-2-3-4-5-6-1-1-2-2-3-4-1-1-2-2-2-3s1-1 1-1l3-3c2-2 4-4 6-5h1c1 0 5-1 9-4 5-3 9-7 9-7s-6 1-11 4c-4 2-7 5-8 6-2 2-5 3-7 5l-3 3s0 1-1 1l-2-2c-1-2-3-4-5-6-2-3-4-5-5-8-2-2-4-4-6-7-1-2-2-4-3-5-2-3-4-5-5-8-1-2-1-4-1-6s0-3 1-4c0-2 2-3 3-4l2-2c-3-1-7 2-7 2l-3 3c-1 1-2 3-3 5-1 1-1 3-1 5s1 4 2 6c0 3 2 5 3 7 2 2 4 5 6 9 3 3 5 7 8 11s6 8 10 12v1c-2 2-4 3-6 5h-2c-4 0-7 1-9 3l-1 1h4c3 0 6-1 8-3v-1c2-1 4-3 6-5h1c2 3 5 6 7 9 2 2 4 4 6 5s4 2 6 2c3 0 5-1 7-2 1-1 2-2 4-3l2-2z"/>
</svg>