<svg xmlns="http://www.w3.org/2000/svg" xmlns:xlink="http://www.w3.org/1999/xlink" viewBox="0 0 583.7 75.8" aria-label="Jira Software" fill="currentColor">
  <defs>
    <linearGradient id="a" x1="34.6" y1="15.3" x2="19" y2="31" gradientUnits="userSpaceOnUse">
      <stop offset=".2" stop-color="#0052cc"/>
      <stop offset="1" stop-color="#2684ff"/>
    </linearGradient>
    <linearGradient id="b" x1="38.8" y1="60.3" x2="54.4" y2="44.7" xlink:href="#a"/>
  </defs>
  <path d="M109.3 9h7.9v40.2c0 10.7-4.7 18-15.6 18a28.1 28.1 0 01-9.5-1.5V58a22.2 22.2 0 008.2 1.5c6.7 0 9-4 9-9.8zM131.6 6a5 5 0 015.3 5.2 5.3 5.3 0 11-10.6 0 5 5 0 015.3-5.3zm-3.8 16.8h7.5v44h-7.5zM146.8 22.8h7.3v7.7c2.6-5.2 7-8.9 15.6-8.3v7.4c-9.6-1-15.5 2-15.5 11.2v26h-7.4zM205.2 58.9c-2.8 5.8-8.1 8.8-14.9 8.8-11.7 0-17.6-10-17.6-22.9 0-12.4 6.2-22.9 18.5-22.9 6.4 0 11.3 3 14 8.6v-7.7h7.6v44h-7.6zm-12.9 1.7c6.8 0 12.9-4.3 12.9-14V43c0-9.8-5.5-14-12-14-8.5 0-13 5.6-13 15.8 0 10.6 4.3 15.8 12.2 15.8zM257.6 67.7a40.5 40.5 0 01-21-4.5V55a49.3 49.3 0 0021.4 4.8c8.7 0 12-3.4 12-8.5s-3.2-7.8-14.2-10.5c-13-3.1-18.8-7.6-18.8-17.1 0-9 6.8-15.7 20.3-15.7 8.4 0 13.7 2 17.7 4.2v8a35.5 35.5 0 00-18-4.5c-7.6 0-12 2.7-12 8 0 4.7 3.6 7.1 13.8 9.6 12.3 3.1 19.1 7 19.1 17.5 0 10-6 16.8-20.3 16.8zM284.6 44.7c0-13.2 7.7-22.8 21-22.8s20.7 9.6 20.7 22.8-7.7 23-20.8 23-21-9.8-21-23zm7.4 0c0 8.4 4.1 16 13.5 16S319 53 319 44.6s-4-15.7-13.4-15.7S292 36.4 292 44.7zM345.6 22.8h11.3v7h-11.3v37h-7.4v-37H331v-7h7.1V18c0-8.2 4.6-13.7 14-13.7a18.2 18.2 0 015.1.7v7a25 25 0 00-4.7-.5c-4.7 0-7 2.8-7 6.7zM382.5 59.4a24 24 0 004.8-.6V66a18.1 18.1 0 01-5.1.7c-9.5 0-14-5.5-14-13.7V29.8H361v-7h7.1v-9.3h7.4v9.3h11.7v7h-11.7v23.1c0 3.9 2.4 6.5 7 6.5zM389.4 22.8h8.3l12.7 37.3 12.9-37.3h7.2l12.8 37.3L456 22.8h8.4l-16.2 44h-9.7l-7.6-21.3-4-13.5-4 13.5-7.6 21.3h-9.7zM499 58.9c-2.9 5.8-8.2 8.8-15 8.8-11.6 0-17.5-10-17.5-22.9 0-12.4 6.1-22.9 18.4-22.9 6.5 0 11.4 3 14 8.6v-7.7h7.6v44H499zm-13 1.7c6.9 0 13-4.3 13-14V43c0-9.8-5.6-14-12-14-8.6 0-13 5.6-13 15.8 0 10.6 4.3 15.8 12 15.8zM518 22.8h7.3v7.7c2.6-5.2 7-8.9 15.6-8.3v7.4c-9.7-1-15.6 2-15.6 11.2v26H518zM567.6 67.7c-16.5 0-23.7-9.5-23.7-23 0-13.3 7.4-22.8 20.8-22.8 13.5 0 19 9.4 19 22.8V48h-32.1c1 7.5 5.9 12.3 16.2 12.3a39 39 0 0013.4-2.3v7c-3.6 1.9-9.1 2.6-13.6 2.6zm-16.1-26H576c-.4-8.2-4.1-12.9-11.7-12.9-8 0-12 5.2-12.8 12.8z"/>
  <path d="M72.4 35.8L39.8 3.2 36.6 0 12.1 24.5.9 35.8a3 3 0 000 4.2l22.4 22.4 13.3 13.4 24.6-24.6.4-.4L72.4 40a3 3 0 000-4.2zM36.6 49L25.4 37.9l11.2-11.2 11.2 11.2z" fill="#2684ff"/>
  <path d="M36.6 26.7a18.9 18.9 0 010-26.6L12 24.6l13.4 13.3 11.2-11.2z" fill="url(#a)"/>
  <path d="M47.9 37.9L36.6 49a18.9 18.9 0 010 26.7l24.6-24.6z" fill="url(#b)"/>
</svg>