<svg xmlns="http://www.w3.org/2000/svg" xmlns:xlink="http://www.w3.org/1999/xlink" aria-label="Calculator" viewBox="0 0 174.8 375" width="174" height="375">
  <defs>
    <path d="M95.3.4v131.2H.2V.4z" id="calc-a"/>
    <path d="M174.7 377.6l-69.9-189.2 13-33.3c1.6-5 .9-20-1.1-31.4-1.2-6.9-6.3-33.4-9.2-28.5s-7.9 43.7-11 50.3c-3.7 7.8-24.5 22-26.2 28.2" id="calc-c"/>
  </defs>
  <path fill="#fff" fill-rule="evenodd" d="M3.7 70.2c-4.8-3.9-4.5 3-1.9 11.9 1.8 5.8 8.4 19.2 11.5 25.2s8 12.3 15.1 27.3 33.2.7 20-17.6A281.6 281.6 0 003.7 70.2"/>
  <path fill="none" stroke-width=".5" stroke="#010111" d="M3.7 70.2c-4.8-3.9-4.5 3-1.9 11.9 1.8 5.8 8.4 19.2 11.5 25.2s8 12.3 15.1 27.3 33.2.7 20-17.6A281.6 281.6 0 003.7 70.2z"/>
  <path fill="#fff" fill-rule="evenodd" d="M9.6 46c-4.5-4.3-4.7 2.6-2.8 11.6 1.3 6 7 19.7 9.6 26s7 12.8 13 28.2 33.2 3.3 21.4-16A284.3 284.3 0 009.6 46"/>
  <path fill="none" stroke-width=".5" stroke="#010111" d="M9.6 46c-4.5-4.3-4.7 2.6-2.8 11.6 1.3 6 7 19.7 9.6 26s7 12.8 13 28.2 33.2 3.3 21.4-16A284.3 284.3 0 009.6 46z"/>
  <path fill="#fff" fill-rule="evenodd" d="M11.7 103.5c-5-3.7-13.3 3.3-10.3 12 2 5.8 6.8 11.2 10.1 17s8.5 12.1 16.2 26.8 33.4-.4 19.6-18.3a214.9 214.9 0 00-35.6-37.5"/>
  <path fill="none" stroke-width=".5" stroke="#010111" d="M11.7 103.5c-5-3.7-13.3 3.3-10.3 12 2 5.8 6.8 11.2 10.1 17s8.5 12.1 16.2 26.8 33.4-.4 19.6-18.3a214.9 214.9 0 00-35.6-37.5z"/>
  <g fill="#fff" fill-rule="evenodd">
    <path d="M174.3 378.3c-2.5-4.3-77.1-212.2-98-213-11.8-.6-26.4-.4-37-.4l-1.4-2c-16.7-21.5-19.6-22.8-24.6-26.5-5-3.7-15.8-6.8-12.9 2a145.3 145.3 0 0020.7 40.9c5.3 7.2 10.2 13.5 12.1 29.4 31.7 146.6-9 172.5 141.1 169.6z"/>
    <path stroke-width=".5" stroke="#010111" d="M174.3 378.3c-2.5-4.3-77.1-212.2-98-213-11.8-.6-26.4-.4-37-.4l-1.4-2c-16.7-21.5-19.6-22.8-24.6-26.5s-15.5-7.6-12.5 1.1c4.4 13.4 10.1 28 20.3 41.8 5.3 7.2 10.2 13.5 12.1 29.4 4.3 36 14 36.1 14 171z"/>
  </g>
  <g fill-rule="evenodd" transform="translate(12.2 34.9)">
    <mask fill="#fff" id="calc-b">
      <use xlink:href="#calc-calc-a"/>
    </mask>
    <path fill="#010111" d="M91.3 131.6H4.2a4 4 0 01-4-4V4.4a4 4 0 014-4h87.1a4 4 0 014 4v123.2a4 4 0 01-4 4" mask="url(#b)"/>
  </g>
  <path fill="#010111" fill-rule="evenodd" d="M102.6 44.7H18v30.1h84.7z"/>
  <g fill="none">
    <g stroke="#fff">
      <path stroke-width=".7" d="M102.6 44.7H18v30.1h84.7zM60.2 87.5h42.4M18 97.2h84.7M18 107h84.7M18 116.8h84.7"/>
      <path stroke-width=".9" d="M17 126.6h85.6"/>
      <path d="M17 136.3h71m-70.1 9.8h84.7m-.4-59v58.6M88.4 87v58.7M73.7 87v58.7M59.8 87v58.7M46 96.8v49m-14.7-49v49m-13.8-49v49" stroke-width=".7"/>
    </g>
    <g fill-rule="evenodd">
      <use fill="#fff" xlink:href="#calc-c"/>
      <use stroke-width=".5" stroke="#010111" xlink:href="#calc-c"/>
    </g>
  </g>
  <path fill="#010111" fill-rule="evenodd" d="M96.1 215l13-16.1-4.8-10z"/>
  <path fill="#fff" fill-rule="evenodd" d="M12 127.6c1.2.7 4.5 2.8 9 9 3.8 5.2 7.2 11 5.3 13.2-1.7 1.9-7.8 0-10.5-1-7-3-16.5-6.3-15.8-16.6.1-1.9 1.6-3 2.4-3.7 4.5-4 7.7-1.9 9.5-.9"/>
  <path fill="none" stroke-width=".5" stroke="#010111" d="M12 127.6c1.2.7 4.5 2.8 9 9 3.8 5.2 7.2 11 5.3 13.2-1.7 1.9-7.8 0-10.5-1-7-3-16.5-6.3-15.8-16.6.1-1.9 1.6-3 2.4-3.7 4.5-4 7.7-1.9 9.5-.9z"/>
  <path fill="#fff" fill-rule="evenodd" d="M11.6 103.3c1.3.5 3.5 2.6 8.5 8.4 4.2 4.7 8 10.1 6.3 12.5-1.5 2-7.6.9-10.3 0-7.1-2.3-16.7-4.6-17-15 0-1.8 1.4-3 2-3.8 4.1-4.5 8.2-3.2 10-2.4z"/>
  <path fill="none" stroke-width=".5" stroke="#010111" d="M11.1 103c1.3.5 4 3 9 8.7 4.2 4.7 8 10.1 6.3 12.5-1.5 2-7.6.9-10.3 0-7.1-2.3-16.7-4.6-17-15 0-1.8 1.4-3 2-3.8 4.1-4.5 8.2-3.2 10-2.4z"/>
  <path fill="#fff" fill-rule="evenodd" d="M26.9 53.4c.5.4.9 1 1.2 1.9s.4 2 .4 3.4c0 1.7-.2 3.1-.6 4.3s-1 2-1.8 2.7-2 1-3.3 1v-1.2c1 0 1.9-.2 2.5-.7s1-1 1.3-1.8.3-1.9.4-3v-1.3c0-1.2 0-2.1-.2-2.8s-.3-1.2-.6-1.5-.7-.4-1.1-.4c-.4 0-.7.1-1 .4s-.4.7-.5 1.2l-.2 2c0 1.1.1 2 .4 2.5s.6.9 1.1.9c.6 0 1-.3 1.4-.8a4.3 4.3 0 00.8-1.7l.3.9c0 .6-.3 1-.5 1.5s-.6.7-1 1a2.3 2.3 0 01-1.2.2 2.3 2.3 0 01-2-1.1c-.5-.8-.8-2-.8-3.4 0-1 .1-1.9.4-2.6s.6-1.2 1-1.6a2.6 2.6 0 011.8-.6 3 3 0 011.8.6m8.6 4.8c.3-.5.5-1 .5-1.8 0-.6-.1-1-.3-1.4s-.4-.6-.7-.8a1.7 1.7 0 00-.8-.2c-.3 0-.6 0-.9.2s-.5.4-.7.8-.3.8-.3 1.4c0 .7.2 1.3.5 1.8s.8.6 1.4.6c.6 0 1-.2 1.3-.6m-.4 7c.3-.1.5-.5.7-.9s.2-1 .2-1.7c0-1-.1-1.6-.4-2s-.8-.7-1.4-.7-1.2.2-1.5.7-.4 1-.4 2c0 .7 0 1.3.2 1.7s.4.8.7 1a1.7 1.7 0 001 .2 1.7 1.7 0 001-.3m-2.6-5.8a3 3 0 01-1.1-1.1c-.3-.6-.5-1.2-.5-2s.2-1.4.4-2 .7-.9 1.2-1.1a3.4 3.4 0 011.6-.4 3.4 3.4 0 011.5.4c.5.2.9.6 1.2 1.2s.4 1.2.4 2c0 .7-.2 1.3-.5 1.9s-.7.9-1.1 1.1-1 .4-1.5.4-1-.1-1.6-.4m-.2 6.8c-.4-.3-.8-.7-1.1-1.3s-.4-1.4-.4-2.2c0-.9.1-1.6.4-2.2s.7-1 1.2-1.2a3.4 3.4 0 011.6-.4 3.4 3.4 0 011.6.4c.5.2 1 .7 1.2 1.2s.5 1.3.5 2.2c0 .8-.1 1.6-.4 2.2s-.7 1-1.1 1.3-1.1.5-1.8.5-1.2-.2-1.7-.5M45.6 54l-3.7 12.7h-1.3L44.2 54H40v-1.2h5.7zm8.3 4.6c.4.7.6 1.9.6 3.4 0 1 0 1.8-.3 2.5s-.6 1.3-1 1.6-1.1.6-1.9.6c-.7 0-1.4-.2-1.8-.6s-.9-1.1-1.1-2a17.7 17.7 0 01.1-8c.4-1 .9-1.8 1.5-2.4s1.2-.8 2-.9c.5 0 .9 0 1.2.2l.8.4-.6 1.1a1.8 1.8 0 00-.6-.4 2 2 0 00-.7 0c-.5 0-1 .2-1.4.6s-.7 1.2-1 2.1-.3 2.1-.3 3.6l.2 3c.1.8.4 1.3.6 1.7s.7.4 1.1.4c.7 0 1.1-.3 1.4-.9s.4-1.4.4-2.6c0-1.2-.1-2-.4-2.6a1.2 1.2 0 00-1.2-.8 1.5 1.5 0 00-1 .4c-.3.2-.5.6-.7 1l-.4 1.4-.4-.5a5 5 0 01.4-1.7c.3-.5.6-1 1-1.3a2.3 2.3 0 011.5-.4c1 0 1.6.3 2 1m9.2-4.6h-4.2l-.6 6.6-1.2-.3.6-7.4H63zm-4.8 12.2c-.6-.3-1-.9-1.3-1.5l1.2-.7c.2.5.5.9.8 1.2a1.6 1.6 0 001.1.4c.7 0 1.2-.3 1.5-.9s.5-1.5.5-2.7c0-1.1-.2-2-.4-2.5s-.6-.8-1.2-.8c-.5 0-.9.1-1.3.5l-1 1.4-.2-.5.5-1.3a3 3 0 011-1 2.5 2.5 0 011.3-.3c1 0 1.6.4 2 1.1s.7 1.9.7 3.4c0 1-.1 2-.4 2.6s-.6 1.3-1.1 1.6a3.5 3.5 0 01-3.7 0zm10-13.3l1 .7-2.1 9.3-1.3-.5zm3.4 10.6h-1v3.3h-1.4v-3.3H66v-1.1h3.3v-8.4h-1v-1h2.4v9.4h1zm7.3-4.8c.5.3 1 .7 1.2 1.4s.4 1.4.4 2.3c0 1-.1 1.7-.4 2.3s-.6 1.2-1.1 1.5-1.1.6-1.8.6c-.8 0-1.4-.2-2-.6s-.9-1-1.2-1.7l1.2-.7A3.3 3.3 0 0076 65c.3.3.7.5 1.2.5a1.6 1.6 0 001.4-.8c.4-.6.5-1.4.5-2.4 0-.9-.1-1.6-.4-2.1s-.6-.8-1-.8a1.4 1.4 0 00-.6 0 3.8 3.8 0 00-.5.3l-.8-.8 2.9-5h-4.1v-1.1h5.5v1.1l-2.7 4.7c.5-.2 1-.2 1.6 0M89 60a15.6 15.6 0 01-1.5 3 15 15 0 01-2 2.6h4v1.2h-5.4v-1.2a20 20 0 002.2-2.8c.6-1 1-2 1.4-3s.6-2 .6-3l-.1-1.5c-.1-.5-.2-.7-.4-.9s-.5-.3-.9-.3a1.5 1.5 0 00-.8.2 2.4 2.4 0 00-.6.6l-.5.9-1-.8a5.2 5.2 0 01.8-1.1 3.2 3.2 0 011-.8 3 3 0 011.2-.3c.6 0 1.1.2 1.5.5s.7.8.9 1.4.3 1.3.3 2c0 1-.2 2.1-.6 3.2m8.7 5.6v1.2H93v-1.2h1.7V54.2l-1.5 1-.4-1.1 2.4-1.3h.9v12.7zM95 138.4h.6v-4.1H95zm-2.2-1.7h5v-.7h-5zm5-15.4h-5v.8h5zm-2.6-16.5a.6.6 0 01-.2-.4.6.6 0 01.2-.5.6.6 0 01.4-.1l.4.1a.6.6 0 01.2.5.6.6 0 01-.2.4l-.4.2a.6.6 0 01-.4-.2zm0-3.7a.6.6 0 01-.2-.4.6.6 0 01.2-.4l.4-.2c.1 0 .3 0 .4.2a.6.6 0 01.2.4.6.6 0 01-.2.4c0 .2-.2.2-.4.2a.6.6 0 01-.4-.2zm-2.4 1.8h5.7v-.7h-5.7zm.9 8.2l.4-.4 2.8 2.8-.4.4zm2.7-.4l.5.4-2.8 2.8-.4-.4zm-18.2 31.8H83v-.6h-5zm0-1.9H83v-.6h-5z"/>
</svg>