<svg
  xmlns="http://www.w3.org/2000/svg"
  xmlns:xlink="http://www.w3.org/1999/xlink" viewBox="0 0 448.3 387">
  <style>.S{fill:none}.T{fill-rule:evenodd}.U{stroke:#010111}.V{stroke-width:1.326}.W{fill:#d7f2db}.X{stroke:#fff}.Y{fill:#010111}</style>
  <g class="S U">
    <path d="M424.2 113.3c5-2 4.8 2.5.5 6.3s-27 20.8-27 20.8c-10.2 8.3-19.8-3.4-12-10.4 13.5-11.8 32-14.1 38.5-16.7zm4.6-30.7c5.2-1.9 4.7 2.6.3 6.2s-42.6 30-42.6 30c-10.5 8-4.8-14.4 3.4-21 13.6-11.2 33-13.1 39-15.3z" class="V"/>
    <path d="M427.2 63.9c5-2 4.7 2.6.3 6.3s-42.7 30-42.7 30c-10.4 7.8-4.7-14.4 3.4-21.1 13.6-11.2 33-13.1 39-15.2z" stroke-width=".6"/>
  </g>
  <path d="M356.7 135.6s-10-31.7-6-36.5 44.2-31.5 51-36.2c3.8-2.6 7.7-6.5 6.6-9-.8-1.7-5-1.4-7.7-.4L331.8 80c-5 2.3-18.5 9.2-19 17.2l-4.1 56.6L1.5 386.4h207.2c13.7-22.1 143.9-227.3 184.6-243.5 12.2-5-33.8-5.5-36.5-7.4z" fill="#fff" class="U"/>
  <g class="T">
    <path d="M388.6 143.8s-26.2 23.4-31 32 11.5-29.6 13.4-37.4 18 4.6 18 4.6zM283 173.5l25.7-19.6v7z" class="Y"/>
    <path d="M401.7 25s-22 100.4-11 124.6c-18.2 5.2-49.3-9.4-49.3-9.4s-16-102.2-8-129.7A686.5 686.5 0 01401.7 25" class="W"/>
  </g>
  <path d="M401.7 25s-22 100.4-11 124.6c-18.2 5.2-49.3-9.4-49.3-9.4s-16-102.2-8-129.7A686.5 686.5 0 01401.7 25z" class="S U V"/>
  <path d="M406.4 27.4s-27 99.2-17.4 124.2c-18.4 4.2-48.5-12.6-48.5-12.6s-3.8-105.6 1-130.2c33-.7 65 18.6 65 18.6" class="T W"/>
  <path d="M406.4 27.4s-27 99.2-17.4 124.2c-18.4 4.2-48.5-12.6-48.5-12.6s-3.8-105.6 1-130.2c33-.7 65 18.6 65 18.6z" class="S U V"/>
  <path d="M417.9 33.6s-37.7 95.5-31 121.8c-18.5 1.7-46.4-19.1-46.4-19.1S346.2 34 358 5.8c30-1.7 59.8 27.8 59.8 27.8" class="T W"/>
  <path d="M417.9 33.6s-37.7 95.5-31 121.8c-18.5 1.7-46.4-19.1-46.4-19.1S346.2 34 358 5.8c30-1.7 59.8 27.8 59.8 27.8z" class="S U V"/>
  <path d="M426.5 38S383 131 388.2 157.9c-18.6.2-45-22.7-45-22.7s10-110 25.7-129.4c25.8 5.5 57.6 32.4 57.6 32.4" class="T W"/>
  <path d="M426.5 38S383 131 388.2 157.9c-18.6.2-45-22.7-45-22.7s10-110 25.7-129.4c25.8 5.5 57.6 32.4 57.6 32.4z" class="S U V"/>
  <path d="M336.9 147l66.8 3.3A947 947 0 01424 15.8L352.4.8c-8.8 49-14 97.8-15.5 146.3" class="T Y"/>
  <g class="S V">
    <path d="M336.9 147l66.8 3.3A947 947 0 01424 15.8L352.4.8c-8.8 49-14 97.8-15.5 146.3z" class="X"/>
    <path d="M357.7 76l2.9-9 5.7-7 7.7-3.8 8.2.3 7.3 4 5 7 2 8.9-1.2 9-4.3 8-6.7 5.5-7.8 2-7.8-1.8-6.4-5.4-4-8.2-.5-9.5z" stroke="#020212"/>
    <path d="M349 21.2l4 .8 8.2-2.6 6.7-6.1 4.3-8.5" class="X"/>
  </g>
  <path d="M404.7 157.2a721.2 721.2 0 0142.8-127.6l-68-28.4a795.6 795.6 0 00-40 143l65.4 13z" class="T Y"/>
  <g class="S X">
    <path d="M339.6 144l65.3 13.2a721.2 721.2 0 0142.8-127.6l-68-28.4a795.6 795.6 0 00-40 143z"/>
    <path d="M371.7 76.5l4.2-8.5 7-6 8-2.2 8 1.7 6.6 5.3 3.8 7.7.5 9-2.8 8.7-5.5 7-7.5 4.3-8 .8-7.5-3-5.4-6.5-2.5-8.8 1-9.5z"/>
  </g>
  <path d="M386.7 85c.5 1 .8 1.6 1.4 2.3a7.3 7.3 0 01-6.8 1.8c-3.2-1-5.6-3.7-4.6-7s5.5-5.2 8.4-4.3c4 1.3 4 6.4 6.9 7.3 2.2.6 4.7 0 5.6-2.6.7-2.4-.3-4.6-1.3-5.2l1.9-2.2c1.6 1 3.3 4.3 2 8.3-1.7 5.3-6.2 5.8-9 5-4-1.2-4-6.3-7-7.2-2.5-.8-4.4-.1-5 1.6-.4 1.8 1 2.8 2.7 3.3 2.4.7 3.9 0 4.9-1m.9-8.7l2.9-.6c.5 2 .9 3.7.2 6.4-.6-1-2.4-3-2.4-3 0-1.2-.3-1.8-.7-2.8" fill="#fff" class="T"/>
  <g transform="matrix(-1 0 0 1 500.7 -16.4)">
    <path d="M60.6 63.3l4-1.6 5.7-6.1 2.7-8.4-1-9m56.6-1.2l-3.9 1.6-8.5-1-7.8-4.6-5.7-7.5m-10.3 130l3.9-.9 7.8 2 6.6 5.5 4.3 8" class="S X"/>
    <use xlink:href="#A" fill="#fff" class="T"/>
    <use xlink:href="#A" stroke-linecap="round" class="S U"/>
  </g>
  <defs>
    <path d="M176.8 148.7c-6.3-7.2-27.7-24.2-34.9-30.2-7-5.9-20-20.1-24.7-18.7-3.6 1.1 8.3 41.2 12.5 55a234.8 234.8 0 0032.7 69.8l129.8 178.3" id="A"/>
  </defs>
</svg>