<svg xmlns="http://www.w3.org/2000/svg" height="253" width="450" viewBox="0 0 450 253.5" fill="#fff" stroke="#010111">
  <path d="M347.7 181.9c4.5 7.4-7.9 1.2-14.8-2.8-21.9-16.9-45.4-30.7-65.4-43.1-18.6-11.7 2.3-44.6 24.6-23.8 28.5 26.5 50 60.3 55.6 69.7z"/>
  <path d="M328.5 196.8c1.6 8.5-7.9-1.6-13-7.7-15.5-21.8-31-47.3-44.5-64.7-13.5-17.4 15.6-39.5 29.4-12.3 12.6 27 22 55.5 28 84.7z"/>
  <path d="M319.3 241.3l.8 10.9-7.6-8c0-1.8 5.2-4 6.8-3zm-45.1-121.6c2.8 2.5 16.7 59 24.7 75 3.8 7.6 12.8 19.3 12 2.7-.6-10.5-7.5-84-12.7-90-10-11.1-34.2-21.1-45.5-22.9-66.6-10-253.1-45-253.1-45l-.3 111.4c139.5-18 189.6-17.8 234.4 10 16 11 29.6 21 35.7 26.6 20 18.2 19-3.9-2.2-32.5-11.6-15.8-14.2-24.5-14.2-24.5s18.1-13.5 21.2-10.8"/>
  <path d="M217.1 50.3l75 167.6 20.4 26.4 6.8-3-5.5-33.2-75-167.5c-8-3.7-20.7 2.2-21.7 9.7z" fill="#010111"/>
  <path d="M224.4 155.2s-22-16-30.7-28c0 0 6.4 18.6 9.6 19.3a226 226 0 0121 8.7" fill="#010111"/>
  <path d="M.5 194.3L1.3 0"/>
  <path d="M274.2 119.7c2.8 2.5 16.7 59 24.7 75 3.8 7.6 12.8 19.3 12 2.7-.6-10.5-7.5-84-12.7-90-9 1.2-24.6 6.4-24 12.3" stroke="none"/>
  <path d="m 233.4659,160.2725 c 16,11 29.48227,21.58868 35.58227,27.18868 20,18.2 23.13411,-2.38676 -16.04817,-56.96118" stroke="none"/>
</svg>
