<svg
  xmlns="http://www.w3.org/2000/svg"
  xmlns:xlink="http://www.w3.org/1999/xlink" viewBox="0 0 450 253.5">
  <style>.B{stroke:#010111}.C{stroke-width:.763}.D{fill:#fff}.E{fill:#010111}.F{fill:none}.G{fill:#d7f2db}</style>
  <g class="F">
    <path class="B C D" d="M347.7 181.9c4.5 7.4-7.9 1.2-14.8-2.8a515 515 0 01-30.9-22.3s-15.8-9.2-34.5-20.8c-18.6-11.7 2.3-44.6 24.6-23.8 28.5 26.5 50 60.3 55.6 69.7z"/>
    <path class="B C D" d="M328.5 196.8c1.6 8.5-7.9-1.6-13-7.7-5.2-6.1-21.3-31.7-21.3-31.7s-9.7-15.6-23.2-33 15.6-39.5 29.4-12.3a385.5 385.5 0 0128 84.7z"/>
  </g>
  <path class="B C E G" d="M219.1 50.3l75 167.6 20.4 26.4 6.8-3-5.5-33.2-75-167.5z"/>
  <path class="B D" d="M321.3 241.3l.8 10.9-7.6-8c0-1.8 5.2-4 6.8-3zM276.2 119.7c2.8 2.5 16.7 59 24.7 75 3.8 7.6 12.8 19.3 12 2.7-.6-10.5-7.5-84-12.7-90-10-11.1-34.2-21.1-45.5-22.9-66.6-10-253.1-45-253.1-45l-.3 111.4c139.5-18 189.6-17.8 234.4 10 16 11 29.6 21 35.7 26.6 20 18.2 19-3.9-2.2-32.5-11.6-15.8-14.2-24.5-14.2-24.5s18.1-13.5 21.2-10.8"/>
  <path class="E" d="M226.4 155.2s-22-16-30.7-28c0 0 6.4 18.6 9.6 19.3 4.6 1.1 21 8.7 21 8.7"/>
  <g transform="scale(-1 1) rotate(24.1 -194.4 -540.1)">
    <use height="100%" width="100%" class="C B F" xlink:href="#D"/>
  </g>
  <use transform="translate(1 35)" height="100%" width="100%" xlink:href="#E"/>
  <path class="B" d="M.5 194.3L1.3 0"/>
  <defs>
    <path d="M.2 91.4v-84C.2 4.6 2.2 2 5 1.3 9.2 0 14.8-.1 19 .9a6.5 6.5 0 015 6.4v85.1" id="D" class="E"/>
    <path d="M275.8 85.8l-32.3-72.3c-5.6-2.1-20.2 4-21.8 9.7l32.8 73.2" id="E" class="B C G"/>
  </defs>
</svg>