<svg
  xmlns="http://www.w3.org/2000/svg" viewBox="0 0 1171.302 3936.229" width="1171" height="3936">
  <g fill="#fff" stroke="#010111" stroke-width="1.5">
    <path d="M127.6 3791.768c10.88 11.67 15.7-.46 9.23-15.9s-45.6-88.22-45.6-88.22c-16.55-34.38-56.3-15.53-44.12 12.6 21.66 50.16 69.6 79.87 80.5 91.54z"/>
    <path d="M98.87 3836.548c9.75 12.64 15.67 1 10.68-15s-57.56-140.6-57.56-140.6c-13.27-35.77-34.27 27.8-24.77 56.94 16.93 52 61.9 86.04 71.65 98.67z"/>
  </g>
  <g fill="#010111">
    <path d="M105.79 3713.658c-.38 3.54-3.35 12.14-6.58 17.65-7 12-15 18.08-18.36 19.06q-4.94-11.48-9.88-22.94l30.35-22.06c2.2 4.57 2.28 3.72 4.47 8.3z"/>
    <path d="M82.03 3752.948a65.44 65.44 0 0 1-.47 18.36c-2.6 15.38-2.6 34.37-7.06 39.76l-27.3-28.7 16-57.65 8 .94q5.4 13.65 10.82 27.3z"/>
  </g>
  <path d="M178.83 3700.598s-95.77 11.62-104 27.63-27.4 154.18-31.6 177.9c-2.36 13.18-11.3 29.35-19.3 29.35-5.4 0-9.62-11.48-10.1-19.94-1.44-26.1-17.33-199-12-214.58s24.4-33 44.92-44.2l171-92.3L778.422 1.906 1170.23.753c-27.13 74.7-788.762 3644.885-856.792 3712.905l-134.6-13.06z" fill="#fff" stroke="#010111" stroke-width="1.5"/>
  <path d="M237.21 3555.188l-6.595-77.83-12.855 87.1z" fill="#010111"/>
</svg>