<svg xmlns="http://www.w3.org/2000/svg" xmlns:xlink="http://www.w3.org/1999/xlink" viewBox="0 180 234.5 316.6" width="234" height="317" aria-label="Hand reaching down holding money">
  <style>.B{fill:none}.D{stroke:#010111}.E{stroke-width:2}.F{fill:#d7f2db}.G{fill:#fff}.H{fill:#010111}.I{stroke:#fff}</style>
  <path class="B D E" d="M137.3 428c1.3 5.3 4.8 2.5 5.4-3.2.6-5.7 1.2-34 1.2-34 .8-13.2-14.3-14.2-15.4-3.7-1.8 17.8 7.2 34.2 8.8 41zM115 449.7c1.5 5.3 4.9 2.3 5.3-3.4.3-5.7-.5-52.1-.5-52.1.4-13.2-14.5 4.5-15 15-1.2 17.6 8.5 34.4 10.2 40.6z"/>
  <path class="G D" d="M116.1 360.2S84.6 370.6 83 376.6c-1.7 6 .1 54.2.2 62.5.1 4.6-.8 10-3.4 10.6-1.9.3-4-3.2-4.8-6l-18.5-71.4c-1-5.4-3.3-20.4 3-25.5l43.5-36.3L109.2 1 234 93.7c-10 24-101 249.5-90.5 292 3.1 12.7-24.2-24.3-27.3-25.4z"/>
  <path class="C H" d="M141.4 381.3s3.7-34.9 8-43.8c4.1-9-17.4 26.6-22.7 32.7-5.2 6 14.3 12 14.3 12zM104 278.2l-1 32.3 5.7-4z"/>
  <path class="C F" d="M52.4 461.2s68.8-76.4 95-81.5C140.8 361.8 111 345 111 345S18.6 391.6.9 414c15.8 17.4 51.5 47 51.5 47"/>
  <path class="B D E" d="M52.4 461.2s68.8-76.4 95-81.5C140.8 361.8 111 345 111 345S18.6 391.6.9 414c15.8 17.4 51.5 47 51.5 47z"/>
  <path class="C F" d="M57.1 463.6s65-79.7 90.8-86.5c-7.3-17.4-38.4-32-38.4-32S21.4 403.3 4.2 421.6c18.7 27.3 53 42 53 42"/>
  <path class="B D E" d="M57.1 463.6s65-79.7 90.8-86.5c-7.3-17.4-38.4-32-38.4-32S21.4 403.3 4.2 421.6c18.7 27.3 53 42 53 42z"/>
  <path class="C F" d="M77.5 473.7s50.2-89.3 75-100.8c-10.7-15.3-44.6-23.4-44.6-23.4s-83.6 72.2-90.3 96.3c19.5 17.7 60 27.9 60 27.9"/>
  <path class="B D E" d="M77.5 473.7s50.2-89.3 75-100.8c-10.7-15.3-44.6-23.4-44.6-23.4s-83.6 72.2-90.3 96.3c19.5 17.7 60 27.9 60 27.9z"/>
  <path class="C H" d="M114 337.4l41.5 52.4a947 947 0 00-97.6 94.9L4 435.2c34.8-35.7 71.4-68.3 110-97.8"/>
  <path class="B E I" d="M114 337.4l41.5 52.4a947 947 0 00-97.6 94.9L4 435.2c34.8-35.7 71.4-68.3 110-97.8z"/>
  <path class="B E I" d="M18.7 420.5l3 2.8 2.6 8.2-1 9-4.5 8.5"/>
  <g transform="rotate(-125.6 183.5 263.2)">
    <path class="H" d="M96 173.6A721.2 721.2 0 0053.2 46l67.9-28.4a795.6 795.6 0 0140 143l-65.3 13z"/>
  </g>
  <path class="B I" d="M113 341.3l48.8 45.5a721.2 721.2 0 00-78.8 109l-62.7-38.6a795.6 795.6 0 0193-115.9z"/>
  <path class="B I" d="M76.8 406.8l-4.4 8.4-.8 9.1 2.9 8 6 5.4 8.1 2.2 8.5-1.4 7.6-4.8 5.4-7.4 2.5-8.5-.8-8.6-4-7-6.9-4.3-8.4-.6-8.6 3-7.1 6.4z"/>
  <path class="C G" d="M92.6 414c1-.2 1.6-.2 2.6-.2.2-2.5-.6-5-2.5-6.5-2.7-2-6.3-2.4-8.4.3-2.1 2.7-1 7.5 1.4 9.3 3.4 2.5 7.5-.4 10 1.4 1.7 1.4 2.8 3.7 1 6-1.5 2-3.8 2.5-4.9 2l-.7 2.8c1.8.7 5.4.2 8-3.2 3.3-4.4 1-8.4-1.2-10.2-3.4-2.5-7.5.4-10-1.4-2-1.7-2.6-3.6-1.5-5 1.1-1.5 2.8-.9 4.2.2 2 1.5 2.3 3.1 2 4.6m-6.5 5.8l1.2 2.7c1.9-.8 3.5-1.5 5.3-3.6l-3.9-.2c-1 .7-1.6.8-2.6 1"/>
  <g class="B">
    <path class="I" d="M92.6 479.6l-3.6-2.3-8.3-1-8.4 2.6-6.7 6m-34-45.2l3.6 2.2 4.1 7.5.8 9-2.7 9M149 400.1l-3-2.7-2.9-7.5.6-8.5 4-8.2"/>
    <g transform="rotate(-142.6 119.6 164.8)">
      <use height="100%" width="100%" y="0" x="0" class="F" xlink:href="#E"/>
      <use height="100%" width="100%" y="0" x="0" class="D E" xlink:href="#E"/>
    </g>
  </g>
  <use height="100%" width="100%" transform="rotate(-125.6 183.5 263.2)" class="C G" xlink:href="#F"/>
  <use class="B D" height="100%" width="100%" xlink:href="#F" transform="rotate(-125.6 183.5 263.2)"/>
  <defs>
    <path d="M176.8 148.7c-6.3-7.2-27.7-24.2-34.9-30.2-7-5.9-20-20.1-24.7-18.7-3.6 1.1 8.3 41.2 12.5 55a234.8 234.8 0 0032.7 69.8l129.8 178.3" id="F"/>
  </defs>
</svg>