<svg xmlns="http://www.w3.org/2000/svg" viewBox="0 0 243 391" width="243" height="391">
  <style>.E{fill-rule:evenodd}.F{fill:none}.G{stroke:#010111}.H{stroke-width:1.326}.I{fill:#d7f2db}.J{fill:#010111}</style>
  <path d="M24 113.3c-5-2-4.7 2.4-.5 6.3s27 20.8 27 20.8c10.2 8.2 19.8-3.4 12-10.4C49 118.2 30.3 116 24 113.3" fill="#fff" class="E"/>
  <path d="M24 113.3c-5-2-4.7 2.4-.5 6.3s27 20.8 27 20.8c10.2 8.2 19.8-3.4 12-10.4C49 118.2 30.3 116 24 113.3z" class="F G H"/>
  <path d="M19.4 82.5c-5.2-1.8-4.7 2.6-.3 6.3s42.7 30 42.7 30c10.4 7.9 4.7-14.4-3.4-21-13.7-11.2-33-13.1-39-15.3" fill="#fff" class="E"/>
  <path d="M19.4 82.5c-5.2-1.8-4.7 2.6-.3 6.3s42.7 30 42.7 30c10.4 7.9 4.7-14.4-3.4-21-13.7-11.2-33-13.1-39-15.3z" class="F G H"/>
  <g class="E" fill="#fff">
    <path d="M91.5 135.5s10-31.6 6-36.4-44.1-31.5-51-36.2c-3.8-2.6-7.7-6.5-6.6-9 .8-1.7 5-1.4 7.7-.4l68.8 26.6c5 2.3 18.5 9.2 19.1 17.2l4 56.6 102.8 78.5.2 156.9C228.8 367.2 95.7 159 55 142.9c-12.3-5 33.8-5.5 36.4-7.4"/>
    <path d="M91.5 135.5s10-31.6 6-36.4-44.1-31.5-51-36.2c-3.8-2.6-7.7-6.5-6.6-9 .8-1.7 5-1.4 7.7-.4l68.8 26.6c5 2.3 18.5 9.2 19.1 17.2l4 56.6 102.8 78.5.2 156.9C228.8 367.2 95.7 159 55 142.9c-12.3-5 33.8-5.5 36.4-7.4z" class="G"/>
    <path d="M59.7 143.7s26 23.4 31 32-11.6-29.6-13.5-37.3-18 4.6-18 4.6zm79.9 17.3l25.7 12.5-25.8-19.6z" class="J"/>
  </g>
  <path d="M139.5 153.9v7l25.8 12.6z" class="F G H"/>
  <path d="M46.6 25s21.8 100.4 10.8 124.7c18.2 5.2 49.3-9.4 49.3-9.4s16.1-102.3 8-129.7C91.4 13.2 46.6 25 46.6 25" class="E I"/>
  <path d="M46.6 25s21.8 100.4 10.8 124.7c18.2 5.2 49.3-9.4 49.3-9.4s16.1-102.3 8-129.7C91.4 13.2 46.6 25 46.6 25z" class="F G H"/>
  <path d="M41.8 27.4s27 99.2 17.4 124.2c18.4 4.1 48.6-12.6 48.6-12.6s3.7-105.6-1-130.3c-33.2-.6-65 18.7-65 18.7" class="E I"/>
  <path d="M41.8 27.4s27 99.2 17.4 124.2c18.4 4.1 48.6-12.6 48.6-12.6s3.7-105.6-1-130.3c-33.2-.6-65 18.7-65 18.7z" class="F G H"/>
  <path d="M30.3 33.6S68 129 61.3 155.4c18.5 1.6 46.4-19.1 46.4-19.1S102 34 90.1 5.7C60 4.1 30.3 33.6 30.3 33.6" class="E I"/>
  <path d="M30.3 33.6S68 129 61.3 155.4c18.5 1.6 46.4-19.1 46.4-19.1S102 34 90.1 5.7C60 4.1 30.3 33.6 30.3 33.6z" class="F G H"/>
  <path d="M21.7 38S65.1 131 60.1 157.9c18.6.2 45-22.7 45-22.7S95 25 79.3 5.7C53.5 11.2 21.7 38 21.7 38" class="E I"/>
  <path d="M21.7 38S65.1 131 60.1 157.9c18.6.2 45-22.7 45-22.7S95 25 79.3 5.7C53.5 11.2 21.7 38 21.7 38z" class="F G H"/>
  <path d="M111.3 147l-66.7 3.3A947 947 0 0024.2 15.8L95.8.8c8.8 49 14 97.8 15.5 146.3" class="E J"/>
  <g stroke="#fff" class="F H">
    <path d="M111.3 147l-66.7 3.3A947 947 0 0024.2 15.8L95.8.8c8.8 49 14 97.8 15.5 146.3z"/>
    <path d="M99.3 21.2l-4.1.7-8.2-2.5-6.7-6.1-4.2-8.6"/>
  </g>
  <g class="E">
    <path d="M43.4 157.2A721.4 721.4 0 00.8 29.6l68-28.4a795.6 795.6 0 0140 142.9z" class="J"/>
    <path d="M124.3 132.3c-6.3-7.2-27.6-24.2-34.8-30.2-7.1-5.9-20.1-20.1-24.7-18.7-3.6 1.1 8.2 41.2 12.4 55 5.7 18.5 23.1 49 43.4 71.9 14.2 19.9 106.8 155.9 121.9 179" fill="#fff" class="G"/>
  </g>
  <g stroke="#fff" class="F">
    <path d="M108.6 144l-65.3 13.2A721.4 721.4 0 00.7 29.6L68.6 1.2a795.6 795.6 0 0140 142.9z"/>
    <path d="M76.6 76.5L72.3 68l-6.9-6-8.2-2.2-8 1.7-6.5 5.3-3.8 7.7-.5 9 2.8 8.6 5.6 7.1 7.4 4.3 8.1.8 7.4-3 5.5-6.5 2.4-8.8-1-9.5z"/>
  </g>
  <path d="M61.5 85.1c-.4 1-.8 1.5-1.4 2.2 2 1.7 4.5 2.4 6.9 1.8 3.1-1 5.5-3.7 4.5-7.1s-5.5-5.1-8.4-4.2c-4 1.3-3.9 6.3-6.9 7.2-2.2.7-4.7.2-5.5-2.6-.8-2.3.2-4.5 1.2-5.2l-1.8-2.1c-1.7 1-3.3 4.3-2 8.2 1.6 5.3 6.1 5.9 9 5 4-1.2 4-6.2 6.8-7.1 2.7-.9 4.5-.1 5 1.5.5 1.8-.9 2.8-2.5 3.3-2.4.8-4 .2-5-.9m-.9-8.7l-2.8-.7c-.6 2-1 3.8-.3 6.5.6-1 2.4-3 2.4-3 0-1.2.4-1.8.7-2.8" fill="#fff" class="E"/>
  <path d="M8.2 46.8l3.9-1.5 5.7-6.2 2.7-8.3-1-9m56.7-1.1l-4 1.5-8.4-1-7.8-4.6L50.2 9M40 139l3.8-.8 7.8 2 6.7 5.5 4.2 8" stroke="#fff" class="F"/>
</svg>