<svg xmlns="http://www.w3.org/2000/svg" xmlns:xlink="http://www.w3.org/1999/xlink" viewBox="0 0 309 215" width="309" height="215" role="img" aria-label="Hand holding pen">
  <g stroke="#010111">
    <g fill="#fff" stroke-width=".8">
      <path d="M290 60c8 3-6 5-14 6a515 515 0 01-38-2l-40 2c-22 1-23-38 7-33 38 6 75 22 85 27z" />
      <path d="M282 83c6 6-7 3-15 1l-35-15-38-14c-21-7-9-42 18-27a386 386 0 0170 55z" />
    </g>
    <path d="M110 22l156 97 31 11 4-6-23-25L122 2z" fill="#010111" stroke-width=".8" />
    <path d="M301 124l7 8-11-2c-1-2 2-6 4-7zM196 48c3 0 47 40 62 48 8 5 22 9 12-4-7-8-53-66-61-68-15-3-40 2-51 7C95 66 1 91 1 91v123c105-93 132-107 184-109l45 2c27 4 13-14-20-26-19-6-29-15-29-15s6-21 10-21" fill="#fff" />
  </g>
  <path d="M174 105s-27-1-41-6c0 0 16 12 19 11l22-5" fill="#010111" />
  <use transform="scale(-1 1) rotate(58 -55 -105)" xlink:href="#K" fill="none" stroke="#010111" stroke-width=".8" />
  <use transform="rotate(326 176 196)" xlink:href="#L" fill-opacity="0" />
  <defs>
    <path d="M0 91V7c0-2 2-5 5-6h14a7 7 0 015 6v85" id="K" fill="#010111" />
    <path d="M276 86l-32-72c-6-3-21 4-22 9l32 73" id="L" fill="#d7f2db" stroke="#010111" stroke-width=".8" />
  </defs>
</svg>
