<svg
  xmlns="http://www.w3.org/2000/svg" viewBox="0 0 1171.302 3936.229">
  <path d="M187.052 3659.257c51.95.517 87.87 28.612 132.67 33.8-28.596 49.03-147.883 181.6-175.933 195.66-16 8-30.82 10.12-35.3 5.65-3.32-3.33-5.85-12.8 8-27.37 50.74-53.2 76.148-192.44 70.555-207.742z" fill="#fff"/>
  <path d="M178.928 3721.008c-1.516 11.6-4.846 27.245-10.018 44.39-10.344 34.288-28.076 74.625-53.305 101.082-13.993 14.71-11.676 24.717-7.988 28.416h.002c2.57 2.57 7.6 3.05 13.967 2.063s14.13-3.543 22.19-7.572c7.255-3.637 19.625-14.64 34.773-29.606 36.184-36.372 120.647-126.34 143.213-164.673-3.798.63-2.04-2.05-2.04-2.05-18.466 34.45-106.958 130.7-142.226 165.655-15.118 14.936-27.62 25.94-34.39 29.334-7.94 3.97-15.587 6.476-21.748 7.432s-10.776.26-12.676-1.64c-2.952-2.962-5.69-11.915 8.014-26.322h-.002c25.51-26.753 43.27-67.254 53.656-101.684 5.193-17.215 8.538-32.91 10.068-44.627.5-3.834 7.186-40.657 7.298-43.56l-2.97.488c-.234 14.14-4.133 29.818-5.818 42.875z" fill="#010111"/>
</svg>