<svg xmlns="http://www.w3.org/2000/svg" height="215" width="309" fill="#fff">
  <g stroke="#010111">
    <path d="M288 60c8 3-6 5-14 6a515 515 0 01-38-2l-40 2c-22 1-23-38 7-33 38 6 75 22 85 27z"/>
    <path d="M280 83c6 6-7 3-15 1l-35-15-38-14c-21-7-9-42 18-27a386 386 0 0170 55z"/>
    <path d="M194 48c3 0 47 40 62 48 8 5 22 9 12-4-7-8-53-66-61-68-15-3-40 2-51 7C93 66-1 91-1 91v123c105-93 132-107 184-109l45 2c27 4 13-14-20-26-19-6-29-15-29-15s6-21 10-21m110 79l7 8-11-2z"/>
  </g>
  <path d="M108 22l156 97 31 11 4-6-23-25L120 2c-8.3 1.6-13.6 10-12 20z" fill="#010111"/>
  <path d="M172 105s-27-1-41-6c0 0 16 12 19 11l22-5" fill="#010111"/>
  <path d="m 183,105 45,2 c 27,4 13,-14 -20,-26 -19,-6 -29,-15 -29,-15"/>
  <path d="M194 48c3 0 47 40 62 48 8 5 22 9 12-4-7-8-53-66-61-68"/>
</svg>
