<?xml version="1.0" encoding="UTF-8" standalone="no"?>
<svg
   xmlns:dc="http://purl.org/dc/elements/1.1/"
   xmlns:cc="http://creativecommons.org/ns#"
   xmlns:rdf="http://www.w3.org/1999/02/22-rdf-syntax-ns#"
   xmlns:svg="http://www.w3.org/2000/svg"
   xmlns="http://www.w3.org/2000/svg"
   xmlns:sodipodi="http://sodipodi.sourceforge.net/DTD/sodipodi-0.dtd"
   xmlns:inkscape="http://www.inkscape.org/namespaces/inkscape"
   inkscape:version="1.0 (4035a4fb49, 2020-05-01)"
   sodipodi:docname="bg-hand-pen-left2.svg"
   id="svg1156"
   version="1.1"
   stroke="#010111"
   fill="#fff"
   viewBox="0 0 450 253.5"
   width="450"
   height="253">
  <metadata
     id="metadata1162">
    <rdf:RDF>
      <cc:Work
         rdf:about="">
        <dc:format>image/svg+xml</dc:format>
        <dc:type
           rdf:resource="http://purl.org/dc/dcmitype/StillImage" />
        <dc:title></dc:title>
      </cc:Work>
    </rdf:RDF>
  </metadata>
  <defs
     id="defs1160" />
  <sodipodi:namedview
     inkscape:current-layer="svg1156"
     inkscape:window-maximized="1"
     inkscape:window-y="-8"
     inkscape:window-x="-8"
     inkscape:cy="175.38124"
     inkscape:cx="242.03793"
     inkscape:zoom="8.5104229"
     showgrid="false"
     id="namedview1158"
     inkscape:window-height="1017"
     inkscape:window-width="1920"
     inkscape:pageshadow="2"
     inkscape:pageopacity="0"
     guidetolerance="10"
     gridtolerance="10"
     objecttolerance="10"
     borderopacity="1"
     bordercolor="#666666"
     pagecolor="#ffffff" />
  <path
     id="path1142"
     d="M347.7 181.9c4.5 7.4-7.9 1.2-14.8-2.8-21.9-16.9-45.4-30.7-65.4-43.1-18.6-11.7 2.3-44.6 24.6-23.8 28.5 26.5 50 60.3 55.6 69.7z" />
  <path
     id="path1144"
     d="M328.5 196.8c1.6 8.5-7.9-1.6-13-7.7-15.5-21.8-31-47.3-44.5-64.7-13.5-17.4 15.6-39.5 29.4-12.3 12.6 27 22 55.5 28 84.7z" />
  <path
     id="path1146"
     d="M319.3 241.3l.8 10.9-7.6-8c0-1.8 5.2-4 6.8-3zm-45.1-121.6c2.8 2.5 16.7 59 24.7 75 3.8 7.6 12.8 19.3 12 2.7-.6-10.5-7.5-84-12.7-90-10-11.1-34.2-21.1-45.5-22.9-66.6-10-253.1-45-253.1-45l-.3 111.4c139.5-18 189.6-17.8 234.4 10 16 11 29.6 21 35.7 26.6 20 18.2 19-3.9-2.2-32.5-11.6-15.8-14.2-24.5-14.2-24.5s18.1-13.5 21.2-10.8" />
  <path
     id="path1148"
     fill="#010111"
     d="M217.1 50.3l75 167.6 20.4 26.4 6.8-3-5.5-33.2-75-167.5c-8-3.7-20.7 2.2-21.7 9.7z" />
  <path
     id="path1150"
     fill="#010111"
     d="M224.4 155.2s-22-16-30.7-28c0 0 6.4 18.6 9.6 19.3a226 226 0 0121 8.7" />
  <path
     id="path1152"
     d="M.5 194.3L1.3 0" />
  <path
     id="path1154"
     stroke="none"
     d="M274.2 119.7c2.8 2.5 16.7 59 24.7 75 3.8 7.6 12.8 19.3 12 2.7-.6-10.5-7.5-84-12.7-90-9 1.2-24.6 6.4-24 12.3" />
  <path
     d="m 233.4659,160.2725 c 16,11 29.48227,21.58868 35.58227,27.18868 20,18.2 23.13411,-2.38676 -16.04817,-56.96118"
     style="fill:#ff59ff;fill-opacity:1;stroke:none;stroke-width:1" />
</svg>
