<svg xmlns="http://www.w3.org/2000/svg" xmlns:xlink="http://www.w3.org/1999/xlink" viewBox="0 0 441.8 387.4" width="442" height="387">
  <style>.R{fill:none}.S{fill-rule:evenodd}.T{stroke:#010111}.U{stroke-width:1.326}.V{fill:#d7f2db}.W{fill:#010111}</style>
  <path d="M24 113c-5-2-5 3 0 7l27 20c10 9 19-3 12-10-14-12-32-14-39-17zm-4-30c-6-2-5 2-1 6l43 30c10 8 5-15-4-21-13-11-33-13-39-16z" class="R T U"/>
  <path d="M92 136s10-32 6-37-45-31-51-36c-4-3-8-7-7-9s5-2 8-1l69 27c5 2 18 9 19 17l4 57 300 233-200-1C226 364 96 159 55 143c-12-5 34-6 37-8z" fill="#fff" class="T"/>
  <g class="S">
    <path d="M60 144s26 23 31 32-12-30-14-38-18 5-18 5zm105 29l-25-19v7z" class="W"/>
    <path d="M47 25s22 100 11 125c18 5 49-10 49-10s16-102 8-130c-23 3-68 15-68 15" class="V"/>
  </g>
  <path d="M47 25s22 100 11 125c18 5 49-10 49-10s16-102 8-130c-23 3-68 15-68 15z" class="R T U"/>
  <path d="M42 27s27 100 17 125c19 4 49-13 49-13s4-106-1-130C74 8 42 27 42 27" class="S V"/>
  <path d="M42 27s27 100 17 125c19 4 49-13 49-13s4-106-1-130C74 8 42 27 42 27z" class="R T U"/>
  <path d="M30 34s38 95 31 121c19 2 47-19 47-19S102 34 90 6C60 4 30 34 30 34" class="S V"/>
  <path d="M30 34s38 95 31 121c19 2 47-19 47-19S102 34 90 6C60 4 30 34 30 34z" class="R T U"/>
  <path d="M22 38s43 93 38 120c19 0 45-23 45-23S95 25 79 6c-25 5-57 32-57 32" class="S V"/>
  <path d="M22 38s43 93 38 120c19 0 45-23 45-23S95 25 79 6c-25 5-57 32-57 32z" class="R T U"/>
  <path d="M111 147l-66 3A947 947 0 0024 16L96 1c9 49 14 98 15 146" class="S W"/>
  <g stroke="#fff" class="R U">
    <path d="M111 147l-66 3A947 947 0 0024 16L96 1c9 49 14 98 15 146z"/>
    <path d="M99 21l-4 1-8-3-7-6-4-8"/>
  </g>
  <path d="M44 157A721 721 0 001 30L69 1a796 796 0 0140 143l-66 13z" class="S W"/>
  <g stroke="#fff" class="R">
    <path d="M109 144l-66 13A721 721 0 001 30L69 1a796 796 0 0140 143z"/>
    <path d="M77 76l-5-8-7-6-8-2-8 1-6 6-4 7v9l2 9 6 7 7 4 8 1 8-3 5-6 3-9-1-10z"/>
  </g>
  <path d="M62 85l-2 2c2 2 5 3 7 2 3-1 6-4 5-7s-6-5-9-4c-4 1-4 6-7 7-2 1-4 0-5-3-1-2 0-4 1-5l-2-2c-1 1-3 4-2 8 2 6 6 6 9 5 4-1 4-6 7-7s5 0 5 2c1 2-1 3-3 3-2 1-3 0-4-1m-1-9h-3v6l2-3 1-3" fill="#fff" class="S"/>
  <path d="M8 47l4-2 6-6 3-8-1-9m56-1l-4 1-8-1-8-4-6-8M40 139l4-1 8 2 6 6 5 8" stroke="#fff" class="R"/>
  <use xlink:href="#A" fill="#fff" x="-52.3" y="-16.4" class="S"/>
  <use xlink:href="#A" stroke-linecap="round" x="-52.3" y="-16.4" class="R T"/>
  <defs>
    <path id="A" d="M177 149c-6-8-28-25-35-31-7-5-20-20-25-18-3 1 9 41 13 55a235 235 0 0032 70l130 178"/>
  </defs>
</svg>