<svg xmlns="http://www.w3.org/2000/svg" viewBox="0 0 757 999.1" width="757" height="999" ara-label="Hand holding a mobile telephone with `sales call` displayed on the screen">
  <style>.I{fill:#010111}.J{stroke:#010111}.K{stroke-miterlimit:10}.L{stroke-width:1.61}</style>
  <path d="M10 202c-17-5-8 13 8 32 11 13 42 41 57 53s34 22 68 53 87-34 33-67c-65-39-149-66-166-71z" fill="#fff" stroke-width="1.7" class="J K"/>
  <g transform="rotate(331)">
    <rect y="97.8" rx="11" height="408.8" width="228.1" x="-45.9" class="I"/>
    <circle r="13.8" cy="480.7" cx="68.2" fill="#fff" stroke-width="1.5" class="J"/>
    <path d="M-34 129h204v328H-34z" stroke="#d7f2db" class="I K L"/>
    <circle r="6" cy="111.9" cx="68.2" fill="#fff" stroke-width=".7" class="J"/>
    <path d="M15 167h106v106H15z" stroke="#fff" class="I K L"/>
  </g>
  <path d="M171 307a15 15 0 003 0 14 14 0 004-2 17 17 0 005-4q2-2 1-4a2 2 0 00-2-1 9 9 0 00-3 0l-5 2h-1-1a40 40 0 01-5 1 9 9 0 01-4 0 5 5 0 01-3-6 10 10 0 013-4 23 23 0 015-4 23 23 0 014-2 13 13 0 014 0 11 11 0 013 0l-1 3h-1a11 11 0 00-2 0 12 12 0 00-3 0 13 13 0 00-3 2 16 16 0 00-5 3v4a2 2 0 001 1 9 9 0 004 0l4-1a2 2 0 001 0 45 45 0 016-2 11 11 0 014 0 4 4 0 013 3 5 5 0 010 4 9 9 0 01-2 4 25 25 0 01-6 3 20 20 0 01-6 3 14 14 0 01-6 0l2-3a11 11 0 002 0zm27-36l-3 2 4 23-2 1-5-25 7-4 19 17-3 2zm12 8l1 2-14 8-1-2zm31-10l2 2-17 10-12-22 3-1 11 19zm1-22l5 7 13-8 2 2-14 8 4 7 15-8 1 2-18 10-12-21 18-10 1 2zm36 0a15 15 0 007-2 16 16 0 006-4v-4a2 2 0 00-2-1 9 9 0 00-3 0l-5 1-1 1h-1a40 40 0 01-5 1 9 9 0 01-3-1 5 5 0 01-3-2 5 5 0 010-4 10 10 0 012-3 24 24 0 015-4 23 23 0 014-2 14 14 0 014 0 10 10 0 013 0l-1 3a10 10 0 00-3 0 12 12 0 00-3 0 13 13 0 00-3 1 16 16 0 00-4 4c-1 1-2 2-1 4a2 2 0 002 1 9 9 0 003 0l4-1a2 2 0 011-1 45 45 0 016-1 11 11 0 014 0 4 4 0 013 2 5 5 0 011 4 9 9 0 01-3 4 25 25 0 01-5 4 20 20 0 01-7 3 14 14 0 01-6-1l2-2a11 11 0 002 0zm-56 83a14 14 0 01-4 3 15 15 0 01-7 2 10 10 0 01-6-1 14 14 0 01-4-5 13 13 0 01-2-7 10 10 0 012-6 17 17 0 019-6 10 10 0 013 0 15 15 0 014 1l-2 3v-1a12 12 0 00-4 0 8 8 0 00-4 1 11 11 0 00-4 3 8 8 0 00-1 5 12 12 0 001 5 12 12 0 004 4 8 8 0 005 2 10 10 0 004-2 9 9 0 004-3 11 11 0 001-3 2 2 0 000-1l3 1a12 12 0 01-2 5zm13-32l-3 2 4 23-3 1-4-25 7-4 19 17-3 2zm12 8l1 2-14 8-2-2zm31-10l1 2-16 10-12-21 3-2 10 19zm23-13l2 2-17 10-12-22 3-1 11 19z" fill="#fff"/>
  <g class="K">
    <g stroke="#fff" class="I L">
      <path d="M153 115l5 11-14 8-7-10m29 13l20 15 3 7-6 2"/>
      <path d="M205 190l-6 26-25-9-30-73 14-8z"/>
    </g>
    <path d="M138 114l-3 24H95m49-27l23 9 21-34" stroke="#fff" fill="none" class="L"/>
    <g fill="#fff" stroke-width="1.5" class="J">
      <path d="M164 238c9-6 10 5 4 16-5 7-30 85-27 91 20 36-7 26-25 41s-59-23-47-42c22-35 86-99 95-106z"/>
      <path d="M209 270c9-6 11 5 4 16-4 7-52 95-48 101 9 16 23 38 6 53s-84-36-72-55c22-35 102-108 110-115z"/>
      <path d="M212 325c8-11 14-5 12 9-1 10-30 101-30 101 1 9 1 4 12 24 1 2 72-41 124-67 52-27 417 248 429 256v348c-8-15-479-461-481-462-5-3-146-78-146-100-1-14 69-95 80-109z"/>
      <path d="M759 648L431 411l-16-97c-3-14-23-40-62-57 0 0-101-55-102-39s88 86 90 107c2 24-18 80-13 98"/>
    </g>
  </g>
  <path d="M431 411l16 75 8-55z" class="I"/>
</svg>