<svg
  xmlns="http://www.w3.org/2000/svg" viewBox="0 0 79.38 52.92">
  <path d="M2.65 52.92V1.32M0 50.27h70.11" stroke="#010111" stroke-width=".1"/>
  <path d="M.86 8.48l.06.08c.08-.08.15-.24.15-.47 0-.27-.08-.48-.27-.48-.18 0-.24.2-.3.47-.04.2-.08.33-.2.33s-.16-.17-.16-.34.05-.3.11-.35L.2 7.64c-.07.07-.14.22-.14.42 0 .24.08.46.26.46.16 0 .23-.17.28-.41.04-.24.1-.4.2-.4s.19.14.19.37c0 .2-.07.33-.14.4zm.2-1.95v-.26H.98v.18H.56c-.17 0-.23.2-.23.4 0 .17.05.32.07.37l.08-.04a.89.89 0 01-.06-.33c0-.14.03-.3.16-.3h.07a1 1 0 00-.05.33c0 .24.08.38.23.38.15 0 .24-.12.24-.33a.61.61 0 00-.1-.38zm-.34.02H.9c.03.03.1.16.1.34 0 .17-.05.26-.16.26-.1 0-.15-.1-.15-.3a1.01 1.01 0 01.04-.3zm.34-.52v-.8H.98v.37H0v.43h.08V5.7h.9v.33zM.7 4.06c-.22 0-.36.18-.36.42s.11.44.36.44.38-.2.38-.44a.58.58 0 00-.15-.4l-.05.1c.04.03.11.13.11.31 0 .2-.1.32-.25.34v-.75H.7zm-.03.11v.65C.5 4.8.42 4.66.42 4.48c0-.18.11-.3.24-.3zm.4-.95c0-.22-.06-.43-.21-.43s-.2.2-.21.42c-.02.19-.04.3-.12.3s-.1-.16-.1-.3c0-.13.02-.27.06-.32l-.06-.06c-.04.04-.08.18-.08.38s.05.41.19.41.18-.18.2-.39.05-.33.13-.33c.1 0 .13.14.13.32 0 .16-.03.3-.07.36l.07.07a.88.88 0 00.08-.43z"/>
  <path d="M5.3 0h74.08v48.95H5.28z" fill="#fff"/>
  <path d="M74.08 48.95V0" stroke="#010111" stroke-dasharray="0.8,0.8" stroke-width=".1"/>
  <path d="M9.26 44.98c31.75 0 41 0 70.11-3.97" stroke="#2e38ef" stroke-width=".3" fill="none"/>
  <g fill="#fff" stroke="#010111" stroke-width=".1">
    <circle r="1.28" cy="44.96" cx="15.85"/>
    <circle cx="31.52" cy="44.83" r="1.28"/>
    <circle r="1.28" cy="44.36" cx="47.68"/>
    <circle cx="62.51" cy="42.94" r="1.28"/>
  </g>
  <path d="M65.32 51.42h-.97v.08h.43v.9h.1v-.9h.44zm.59.08c.05 0 .08-.04.08-.09s-.04-.09-.08-.09-.1.04-.1.1.05.08.1.08zm-.39.9h.77v-.09h-.33v-.61h-.44v.08h.34v.54h-.34zm2.04-.72c-.16 0-.28.08-.33.2-.04-.13-.13-.2-.28-.2a.36.36 0 00-.33.17v-.15h-.1v.7h.1V52c.02-.13.15-.23.3-.23s.23.07.23.26v.38h.1V52c.02-.13.15-.24.3-.24s.22.07.22.26v.38h.1V52c0-.23-.1-.32-.3-.32zm1.5.37c0-.22-.18-.37-.42-.37-.23 0-.44.12-.44.37s.2.37.44.37a.58.58 0 00.4-.14l-.1-.05c-.03.04-.13.11-.3.1-.2 0-.33-.09-.34-.24h.75a.43.43 0 000-.04zm-.1-.04h-.65c.01-.17.15-.25.33-.25.19 0 .31.12.31.25z"/>
</svg>