<svg xmlns="http://www.w3.org/2000/svg" viewBox="0 0 1259.3 220" width="1259" height="220">
  <style>
    .cir{stroke:#010111;fill:#fff;stroke-width:.3}.B{stroke:#010111}.C{stroke-width:.096}.D{stroke-miterlimit:10}.E{fill:#010111}.F{stroke-dasharray:2,.5}.G{stroke-width:.5}.H{fill:none}.I{fill:#fff}text{font-family:Courier New,Courier,monospace;font-size:5px;text-transform:uppercase}
  </style>
  <path d="M29 198c241 17 435-8 617-76 212-79 394-79 613-122" fill="none" stroke="#2e38ef" stroke-width="1.5"/>
  <circle r="5.2" cx="557" cy="152.5" class="cir"/>
  <circle cy="200.3" cx="75.4" r="5.2" class="cir"/>
  <circle r="5.2" cx="159.5" cy="202.9" class="cir"/>
  <circle cy="201.4" cx="255.1" r="5.2" class="cir"/>
  <circle cy="191.6" cx="363.6" r="5.2" class="cir"/>
  <circle r="5.2" cx="462.5" cy="175.2" class="cir"/>
  <circle cy="111.1" cx="677.1" r="5.2" class="cir"/>
  <circle r="5.2" cx="788.3" cy="78.6" class="cir"/>
  <circle r="5.2" cx="895.7" cy="55.9" class="cir"/>
  <circle cy="40.9" cx="992.3" r="5.2" class="cir"/>
  <circle r="5.2" cx="1101" cy="26.3" class="cir"/>
  <circle r="5.2" cx="1201.3" cy="10.3" class="cir"/>
  <path d="M315 0v220" class="B F H G"/>
  <path d="M630 177v20l-11-7-23-16c-7-5 5-10 12-7"  class="B C D I"/>
  <path d="M630 0v220M945 0v220" class="B F G H"/>
  <path d="M585 175l1-1 2-14c0-4-5 1-6 4 0 5 2 9 3 11z" class="B C D I"/>
  <path d="M588 163l-5 2a16 16 0 012 0l2 1 1 3v-6z" class="E"/>
  <g class="B C D I">
    <path d="M586 174c1 2 2 1 2-1l3-9c1-3-3-4-3-1-2 5-2 9-2 11z"/>
    <path d="M574 167l3 1 9-3 5-1c3-1-4-6-8-3-5 2-8 5-9 6z"/>
  </g>
  <path d="M578 164c2 0 5 2 7 1h2c-2-1-6-3-7-2l-2 1zm9 4l3 2 1-6h-4z" class="E"/>
  <path d="M603 175c-7 1-20-2-25-5-3-1-4-3-1-3h11c-1-3-4-3-10-5s-10-2-10-4h19c4 0 16 7 21 9 5 3 12 4 22 10" class="B C D I"/>
  <path d="M607 182l-9-7h-1l10 7z" class="E"/>
  <text xml:space="preserve" x="53.7" y="190.5">
    <tspan x="53.7" y="190.5">ANALYTICS AUDIT</tspan>
  </text>
  <text y="192.8" x="137.2" xml:space="preserve">
    <tspan y="192.8" x="137.2">CONVERSION AUDIT</tspan>
  </text>
  <text xml:space="preserve" x="233.9" y="189.8">
    <tspan x="233.9" y="189.8">MARKETING AUDIT</tspan>
  </text>
  <text y="181.4" x="359" xml:space="preserve">
    <tspan y="181.4" x="359">MVP</tspan>
  </text>
  <text xml:space="preserve" x="446.5" y="165.8">
    <tspan x="446.5" y="165.8">MOBILE FIRST</tspan>
  </text>
  <text y="143.7" x="539.9" xml:space="preserve">
    <tspan y="143.7" x="539.9">TECH STACK</tspan>
  </text>
  <text xml:space="preserve" x="660.8" y="101.4">
    <tspan x="660.8" y="101.4">ACQUISITION</tspan>
  </text>
  <text y="189.8" x="233.9" xml:space="preserve">
    <tspan y="189.8" x="233.9">MARKETING AUDIT</tspan>
  </text>
  <text y="68.4" x="771" xml:space="preserve">
    <tspan y="68.4" x="771">RETARGETING</tspan>
  </text>
  <text xml:space="preserve" x="878.9" y="45.9">
    <tspan x="878.9" y="45.9">RETENTION</tspan>
  </text>
  <text y="54.9" x="964.5" xml:space="preserve">
    <tspan y="54.9" x="964.5">REVENUE PER VISITOR</tspan>
  </text>
  <text xml:space="preserve" x="1073.1" y="41.2">
    <tspan x="1073.1" y="41.2">AVERAGE ORDER VALUE</tspan>
  </text>
  <text y="25.6" x="1180" xml:space="preserve">
    <tspan y="25.6" x="1180">CONVERSION RATE</tspan>
  </text>
</svg>
